<?xml version="1.0" encoding="utf-8"?>
<!-- Generator: Adobe Illustrator 22.1.0, SVG Export Plug-In . SVG Version: 6.00 Build 0)  -->
<svg version="1.1" id="Livello_1" xmlns="http://www.w3.org/2000/svg" xmlns:xlink="http://www.w3.org/1999/xlink" x="0px" y="0px"
	 viewBox="0 0 524.8 350" style="enable-background:new 0 0 524.8 350;" xml:space="preserve">
<style type="text/css">
	.st0{fill:url(#SVGID_1_);}
	.st1{fill:#A2DBF4;}
	.st2{fill:#009444;}
	.st3{fill:#87C6E7;}
	.st4{fill:#9EA57C;}
	.st5{fill:#898AA9;}
	.st6{fill:#74714E;}
	.st7{fill:#8DC63F;}
	.st8{opacity:0.4;}
	.st9{fill:#249E30;}
	.st10{fill:#355500;}
	.st11{fill:#4C781F;}
	.st12{fill:#D0F975;}
	.st13{fill:#E5C689;}
	.st14{fill:#588D23;}
	.st15{fill:#9BB6BC;}
	.st16{fill:#C12C27;}
	.st17{fill:#E9F1F3;}
	.st18{fill:#32262C;}
	.st19{fill:#0F0C16;}
	.st20{fill:#2D404C;}
	.st21{fill:#FFFFFF;}
	.st22{fill:#2F4254;}
	.st23{opacity:0.3;fill:#9BB6BC;enable-background:new    ;}
	.st24{fill:#777057;}
	.st25{fill:#CA4737;}
	.st26{fill:#8CB630;}
	.st27{fill:#CCC9A6;}
	.st28{fill:#C96F32;}
	.st29{fill:#E89B67;}
	.st30{fill:#CFD1D2;}
	.st31{opacity:0.5;}
	.st32{fill:#4D3B02;}
	.st33{fill:#77A226;}
	.st34{opacity:0.1;fill:#FFFFFF;enable-background:new    ;}
	.st35{fill:none;stroke:#ED1C24;stroke-width:0.9;stroke-miterlimit:10;}
</style>
<title>G05_12_03</title>
<g>
	<g id="Layer_1">
		
			<linearGradient id="SVGID_1_" gradientUnits="userSpaceOnUse" x1="262.585" y1="443.68" x2="262.585" y2="136.4" gradientTransform="matrix(1 0 0 -1 0 352)">
			<stop  offset="0" style="stop-color:#7BE6F0"/>
			<stop  offset="0.21" style="stop-color:#80E8F1"/>
			<stop  offset="0.45" style="stop-color:#8DECF4"/>
			<stop  offset="0.7" style="stop-color:#A3F4F8"/>
			<stop  offset="0.83" style="stop-color:#B2F9FB"/>
		</linearGradient>
		<rect x="0.4" class="st0" width="524.4" height="195.5"/>
		<polygon class="st1" points="155.2,207.4 218.3,163.2 234.1,170.8 291.1,142 339.5,158.4 387.4,121.7 411.6,131 427.6,117.3 
			444,129.8 478.6,97.5 514.5,123.4 524.8,116.5 524.8,203.1 		"/>
		<path class="st2" d="M524.8,349.8H0.4v-96.6c0,0,353.7-39.9,524.4-20.2V349.8z"/>
		<polygon class="st3" points="343,199.4 263,169.2 224.1,185.8 170.5,152.1 147.1,167.4 96.2,130.7 70.5,140 53.4,136.3 36,138.9 
			18.2,128.5 0.4,129.8 0.4,208.3 98.9,197.7 		"/>
		<polygon class="st4" points="0.4,148.6 44.7,169.5 91.2,161.7 164.2,193.1 182.6,188.7 201.3,196.4 49,217 0.4,219.9 		"/>
		<polygon class="st5" points="343.3,169.2 383.3,177.8 420.6,161.6 463.2,178.4 473.4,173 493.5,184.7 514.3,178.9 524.8,184.2 
			524.9,207 394.8,224.6 300.3,192 		"/>
		<path class="st6" d="M0.4,225.4v-62.9l9.4,35.3l6-12.6l6.1,12.4l5.1-6.4l6,7.8l6.8-22.5l7.2,21.3l3.5-8.1l1.2,7l2.8-4.7l1.9,6.2
			L68.9,178l3.1,9l7-1.6l3.1,9.3l8.9-11.3l10.9,10.5l7-3.5l1.9,11.3l1.9,8.1l5.8-15.5l1.9,15.1l5-12.5l1.6,15.1l10.1-19.8L142,206
			l6.6-21l5.8,22.5l26.8-5.8l5,7.8l3.2,15.6l-52.5,4.3l-27.1,3.3l-35.4-6.9c0,0-22.1,1.6-26,0.4S0.4,225.4,0.4,225.4z"/>
		<path class="st7" d="M524.8,189.6c0,0-36.7-0.6-55.7,1.8c-7.5,1-221.9-4.9-349.8,13c-33.4,4.7-119,7-119,7v50.8l135.7-3.9
			l64.8-12.8l114.3-5.7l209.6-2.3L524.8,189.6z"/>
		<g class="st8">
			<path class="st9" d="M235.8,194.6c-15.7,0.8-31.3,1.7-46.5,2.8l23.9,2.6L235.8,194.6z"/>
			<path class="st9" d="M454,208.8c1.9,0,15.2-11.4,22.7-18.1c-2.6,0.2-5,0.4-7.3,0.7c-2.9,0.4-35.6-0.3-82.2-0.2l47.5,28l45.4-0.9
				C480.2,218.4,451.4,208.8,454,208.8z"/>
			<path class="st9" d="M322,191.9c-6.8,0.1-13.7,0.3-20.8,0.4l10.8,4.3L322,191.9z"/>
		</g>
		<path class="st10" d="M378,227.8l9.4-17.4l7.7,8.6l6-17.1l6.4,14.9c0,0,8-14.1,8-12.3s10.4,10.5,10.4,10.5l8.9-14.4l10.1,9.7l9-12
			l9.7,8.5l4.3-7.7l5.1,18.2l3.9-13.2l3.9,6.1l8.2-12.2l10.2,14.4l7.9-17l10.2,10.3l7.7-41.1v62.8L378,227.8z"/>
		<path class="st11" d="M4.9,233.1c4.3,0,37.6,3.5,41.9,4.5s21.1,1.2,33,1.2s11.8-6,3.5-6.2s-29.9-0.5-32.6-0.2S4.9,233.1,4.9,233.1
			z"/>
		<path class="st12" d="M0.7,206.5c0,0,30.4,2.9,48.7,1.3c12.3-1.1,36.2-5.5,73-5.5c27.1,0,63.6,12.2,100.7,14s54.7-1.9,88.4,0
			c18.8,1.1,36.1-1.7,64.6,3.7l-46.3-3.2l-1.2,5.9l-47.4,2c0,0-139.6-14.7-167.2-15.9c-11-0.5-54.2,7.2-65.1,8.3
			c-34.2,3.4-48.3,1-48.3,1L0.7,206.5z"/>
		<path class="st13" d="M25.9,234.9C15.4,234,2.6,232,1.1,232.2c-0.1,0-0.4-1.5-0.8-1.4v5.6c1.2,0.1-0.2,0.4,15.9,2.9
			c17.9,2.6,36,3.5,54,2.6c11.6-0.6,19.6,4.7,42.6-2s-12.2-0.9-20.4,0s-23-1.3-34.3-1.7s-21.8-2.4-25.9-2.7L25.9,234.9z"/>
		<polygon class="st10" points="102.5,221.1 111,180 118.4,221.1 124.6,199.8 126.9,223 131.2,219.1 138.9,180.4 151.8,222.3 
			156,230.8 184.3,226.1 192.9,228.1 197.5,203.2 202.6,231.4 159.5,236.2 132.7,234.7 104.4,233.9 51.3,226.1 48.6,227.3 
			19.1,228.9 27.2,164.4 41.2,222.6 48.6,186.9 53.6,221.1 		"/>
		<polygon class="st10" points="318.1,221.1 305.2,221.3 310.4,204.6 		"/>
		<polygon class="st10" points="350.4,219 340.7,220.4 345.9,197.1 		"/>
		<polygon class="st10" points="361.7,222.3 351.9,223.6 357.8,205 		"/>
		<path class="st14" d="M524.8,234.6v-17.3c0,0-11.8,2.3-18,3c-14.5,1.8-43.9,3.5-58.6,3.1c-11.7-0.3-67.6-5.4-73.5-5.6
			c-8.2-0.3-19.5-0.7-27.6-1.5c-31.1-3-52.2,3-78.5,5.4c-36.2,3.3-158.7,10.8-158.7,10.8s65.9,1,124.5-0.2s103.7,2,103.7,2
			l122.8,1.7H525L524.8,234.6z"/>
		<polygon class="st15" points="148.4,223.3 148.4,224.7 147.1,224.7 147.1,238.2 91.2,238.2 79.6,231.4 79.6,208.4 76.7,206.4 
			76.7,204.8 90.3,209.7 138.2,209.8 138.3,211.2 136.7,211.3 136.8,223 		"/>
		<polygon class="st16" points="114.5,199.9 100.2,199.9 76.7,204.8 90.2,209.8 138.2,209.8 		"/>
		<rect x="107.5" y="195.1" class="st15" width="3.7" height="4.8"/>
		<rect x="105.7" y="195.1" class="st17" width="1.8" height="4.8"/>
		<rect x="126.7" y="225.7" class="st18" width="2.3" height="5.5"/>
		<rect x="121.5" y="225.7" class="st19" width="4.3" height="5.5"/>
		<rect x="118.3" y="225.7" class="st19" width="2.1" height="5.5"/>
		<rect x="100" y="213" class="st20" width="4.3" height="5.5"/>
		<rect x="96.8" y="213" class="st20" width="2.1" height="5.5"/>
		<polygon class="st21" points="90.2,209.8 90.2,211.4 91.5,211.4 91.2,238.2 79.6,234.1 79.6,208.4 76.7,206.4 76.7,204.8 		"/>
		<path class="st22" d="M147.1,238.2v2.2l-55.5,0.9c-2.7-1.3-5.4-2.3-8.3-3.1c-1-0.3-4.3-0.8-4.3-0.8l0.5-4.3l11.6,5.1H147.1z"/>
		<polygon class="st21" points="42,234.3 42.2,212.7 0.4,209.2 0.4,230.8 		"/>
		<polygon class="st23" points="0.4,213.1 42.5,215.4 42.5,209.4 0.4,208.3 0.4,211.8 		"/>
		<polygon class="st15" points="64.7,231.9 42,234.3 42.2,212.7 54,187.2 65.1,207.6 		"/>
		<polygon class="st18" points="5.3,231.3 10.3,231.7 10.3,214.4 4.9,214.2 		"/>
		<polygon class="st18" points="26.5,215.3 26.5,223.5 17.6,223.2 17.6,215 		"/>
		<polygon class="st24" points="30.8,215.5 31.1,223.4 36.5,223.7 36.5,215.9 		"/>
		<polygon class="st20" points="55.1,198.7 55.1,206 57,206 56.6,198.7 		"/>
		<rect x="50.9" y="198.7" class="st20" width="2" height="7.7"/>
		<path class="st22" d="M64.7,232l-0.6,5.8l-12.3,0.4c-3.6-0.2-7.1-0.5-10.7-1c-2.1-0.4-6.4-0.4-8.5-0.8c-3.2-0.6-32.3-3.3-32.3-3.3
			v-2.3l41.6,3.5L64.7,232z"/>
		<polygon class="st25" points="54.9,184.7 8.8,184.7 0.4,200.9 0.4,211.8 42.2,212.7 54,187.2 65.1,207.6 66.4,206.1 		"/>
		<path class="st26" d="M141.1,244.8c10.8-1.4,25-6.7,37.8-7.6s24.7,1.2,32.6,1.7s-26.8,3.8-34,4.7S141.1,244.8,141.1,244.8z"/>
		<polygon class="st27" points="343.3,169.2 371.6,181 383.3,177.8 		"/>
		<polygon class="st27" points="420.6,161.6 434.4,175.9 443.6,175.3 456.8,182.2 463.2,178.4 		"/>
		<path class="st21" d="M23,52.9h342.8c8.3,0,15.2-7.9-13.4-12.7c-37.8-6.3-104.7,15.1-158.3-2.9c-13.7-4.6-29.9-20.7-65.2-20.7
			c-57.6,0-60.2,25.5-60.2,25.5s-31-15.1-49.3,3.7C17.4,47.7,16.4,52.9,23,52.9z"/>
		<path class="st21" d="M494.3,82.7H338.5c-5.9,0-10.8-3.1,9.5-6.7c26.8-4.8,44.1,10.3,89-5.1c34.4-11.9,22.4,3.6,22.4,3.6
			s11.8-9.8,31,2.6C492.3,78.3,498.9,82.7,494.3,82.7z"/>
		<path class="st28" d="M44.1,312.1c-6.9,0-12.4-2-12.7-4.6c-0.7,5.9-1.5,11.7-2.1,17.2c0.3,0.2,0.5,0.4,0.8,0.6
			c2.8,2.4,6.1,4.3,9.6,5.5c0.6,0.2,1.2,0.4,1.8,0.5h0.2c1.8,0.4,3.7,0.6,5.6,0.5l0,0H48h0.4c0.5,0,1.1,0,1.6-0.1l0,0
			c0.2,0,0.3,0,0.5,0c0.8-0.1,6.7-3.8,6.7-3.8c0.1-8-0.1-14.6-0.4-20C56,310.2,50.6,312.1,44.1,312.1z"/>
		<path class="st29" d="M56.8,307.2c0-0.3-0.1-0.6-0.2-0.8c0,0.5,0.1,0.9,0.1,1.4C56.8,307.6,56.8,307.4,56.8,307.2z"/>
		<path class="st29" d="M31.3,307.2c0,0.1,0,0.1,0,0.2c0-0.3,0.1-0.6,0.1-0.9C31.3,306.8,31.3,307,31.3,307.2z"/>
		<path class="st29" d="M44.1,302.5c-7,0-12.6,2.1-12.6,4.8s5.6,4.8,12.6,4.8s12.6-2.1,12.6-4.8S51,302.5,44.1,302.5z"/>
		<path class="st29" d="M44.1,302.4c-6.5,0-11.8,1.8-12.6,4.2c0,0.3-0.1,0.6-0.1,0.9c0.3,2.6,5.9,4.6,12.7,4.6
			c6.5,0,11.9-1.9,12.7-4.3c0-0.5-0.1-0.9-0.1-1.4C55.6,304.1,50.4,302.4,44.1,302.4z M44.1,312c-7,0-12.6-2.1-12.6-4.8
			s5.6-4.8,12.6-4.8s12.6,2.1,12.6,4.8S51,312,44.1,312L44.1,312z"/>
		<path class="st28" d="M109,321.1c-6.9,0-12.4-2-12.7-4.6c-0.7,5.9-1.5,11.7-2.1,17.2c0.3,0.2,0.5,0.4,0.8,0.6
			c2.8,2.4,6.1,4.3,9.6,5.5c0.6,0.2,1.2,0.4,1.8,0.5h0.2c1.8,0.4,3.7,0.6,5.6,0.5l0,0h0.8h0.4c0.5,0,1,0,1.6-0.1l0,0
			c0.2,0,0.3,0,0.5,0c0.8-0.1,6.7-3.8,6.7-3.8c0.1-8-0.1-14.6-0.4-20C120.9,319.2,115.6,321.1,109,321.1z"/>
		<path class="st29" d="M121.8,316.2c0-0.3-0.1-0.6-0.2-0.8c0,0.5,0.1,0.9,0.1,1.4C121.8,316.6,121.8,316.4,121.8,316.2z"/>
		<path class="st29" d="M96.3,316.2c0,0.1,0,0.1,0,0.2c0-0.3,0.1-0.6,0.1-0.9C96.3,315.8,96.3,316,96.3,316.2z"/>
		<path class="st29" d="M109,311.5c-7,0-12.6,2.1-12.6,4.8s5.7,4.8,12.6,4.8s12.6-2.1,12.6-4.8S116,311.5,109,311.5z"/>
		<path class="st29" d="M109,311.4c-6.4,0-11.8,1.8-12.6,4.2c0,0.3-0.1,0.6-0.1,0.9c0.3,2.6,5.9,4.6,12.7,4.6
			c6.5,0,11.9-1.9,12.7-4.3c0-0.5-0.1-0.9-0.1-1.4C120.6,313.1,115.4,311.4,109,311.4z M109,321c-7,0-12.6-2.1-12.6-4.8
			s5.7-4.8,12.6-4.8s12.6,2.1,12.6,4.8S116,321,109,321L109,321z"/>
		<path class="st28" d="M179.1,311.1c-6.9,0-12.4-2.1-12.7-4.6c-0.7,5.9-1.4,11.7-2.1,17.2l0.8,0.6c2.8,2.4,6.1,4.3,9.6,5.5
			c0.6,0.2,1.1,0.4,1.8,0.5h0.2c1.8,0.4,3.7,0.6,5.6,0.5l0,0h1.2c0.5,0,1.1,0,1.6-0.1l0,0h0.5c0.8-0.1,6.7-3.8,6.7-3.8
			c0.1-8-0.1-14.6-0.4-20C191,309.2,185.6,311.1,179.1,311.1z"/>
		<path class="st29" d="M191.8,306.2c0-0.3-0.1-0.6-0.2-0.8c0,0.5,0,0.9,0.1,1.4C191.8,306.6,191.8,306.4,191.8,306.2z"/>
		<path class="st29" d="M166.3,306.2c0,0.1,0,0.1,0,0.2c0-0.3,0.1-0.6,0.1-0.9C166.4,305.8,166.3,306,166.3,306.2z"/>
		<path class="st29" d="M179.1,301.4c-7,0-12.6,2.1-12.6,4.8s5.6,4.8,12.6,4.8s12.6-2.1,12.6-4.8S186,301.4,179.1,301.4z"/>
		<path class="st29" d="M179.1,301.4c-6.4,0-11.8,1.8-12.6,4.2c0,0.3-0.1,0.6-0.1,0.9c0.3,2.6,5.9,4.6,12.7,4.6
			c6.5,0,11.9-1.9,12.7-4.3c0-0.5,0-0.9-0.1-1.4C190.6,303.1,185.4,301.4,179.1,301.4z M179.1,311c-7,0-12.6-2.1-12.6-4.8
			s5.6-4.8,12.6-4.8s12.6,2.1,12.6,4.8S186,311,179.1,311L179.1,311z"/>
		<path class="st28" d="M279.1,311.1c-6.9,0-12.4-2.1-12.7-4.6c-0.7,5.9-1.5,11.7-2.1,17.2l0.8,0.6c2.8,2.4,6.1,4.3,9.6,5.5
			c0.6,0.2,1.2,0.4,1.8,0.5h0.2c1.8,0.4,3.7,0.6,5.6,0.5l0,0h1.1c0.5,0,1,0,1.6-0.1l0,0h0.5c0.8-0.1,6.7-3.8,6.7-3.8
			c0.1-8-0.1-14.6-0.4-20C291.1,309.2,285.7,311.1,279.1,311.1z"/>
		<path class="st29" d="M291.9,306.2c0-0.3-0.1-0.6-0.2-0.8c0,0.5,0,0.9,0.1,1.4C291.9,306.6,291.9,306.4,291.9,306.2z"/>
		<path class="st29" d="M266.4,306.2c0,0.1,0,0.1,0,0.2c0-0.3,0.1-0.6,0.1-0.9C266.4,305.8,266.4,306,266.4,306.2z"/>
		<path class="st29" d="M279.1,301.4c-7,0-12.6,2.1-12.6,4.8s5.6,4.8,12.6,4.8s12.6-2.1,12.6-4.8S286.1,301.4,279.1,301.4z"/>
		<path class="st29" d="M279.1,301.4c-6.5,0-11.8,1.8-12.6,4.2c0,0.3-0.1,0.6-0.1,0.9c0.3,2.6,5.9,4.6,12.7,4.6
			c6.5,0,11.9-1.9,12.6-4.3c0-0.5,0-0.9-0.1-1.4C290.7,303.1,285.5,301.4,279.1,301.4z M279.1,311c-7,0-12.6-2.1-12.6-4.8
			s5.6-4.8,12.6-4.8s12.6,2.1,12.6,4.8S286.1,311,279.1,311L279.1,311z"/>
		<path class="st28" d="M385.2,297.1c-6.9,0-12.4-2.1-12.7-4.6c-0.7,5.9-1.5,11.7-2.1,17.2l0.8,0.6c2.8,2.4,6.1,4.3,9.6,5.5
			c0.6,0.2,1.1,0.4,1.8,0.5h0.1c1.8,0.4,3.7,0.6,5.6,0.5l0,0h1.2c0.5,0,1,0,1.6-0.1l0,0h0.5c0.8-0.1,6.7-3.8,6.7-3.8
			c0.1-8-0.1-14.6-0.4-20C397.1,295.2,391.7,297.1,385.2,297.1z"/>
		<path class="st29" d="M397.9,292.2c0-0.3-0.1-0.6-0.2-0.8c0,0.5,0,0.9,0.1,1.4C397.9,292.6,397.9,292.4,397.9,292.2z"/>
		<path class="st29" d="M372.4,292.2c0,0.1,0,0.1,0,0.2c0-0.3,0.1-0.6,0.1-0.9C372.4,291.8,372.4,292,372.4,292.2z"/>
		<path class="st29" d="M385.2,287.4c-7,0-12.6,2.1-12.6,4.8s5.6,4.8,12.6,4.8s12.6-2.1,12.6-4.8S392.1,287.4,385.2,287.4z"/>
		<path class="st29" d="M385.2,287.4c-6.5,0-11.8,1.8-12.6,4.2c0,0.3-0.1,0.6-0.1,0.9c0.3,2.6,5.9,4.6,12.7,4.6
			c6.5,0,11.9-1.9,12.7-4.3c0-0.5,0-0.9-0.1-1.4C396.7,289.1,391.5,287.4,385.2,287.4z M385.2,297c-7,0-12.6-2.1-12.6-4.8
			s5.6-4.8,12.6-4.8s12.6,2.1,12.6,4.8S392.1,297,385.2,297L385.2,297z"/>
		<path class="st28" d="M0.4,308.1c1.1,0.2,2.2,0.3,3.4,0.3h0.9l1.2-0.1l0,0h0.4c0.6-0.1,5.2-3,5.2-3c0.1-6.2-0.1-11.2-0.3-15.4
			c-0.6,1.9-4.7,3.3-9.7,3.3h-1L0.4,308.1z"/>
		<path class="st29" d="M11.2,289.5c0-0.2-0.1-0.4-0.1-0.6c0,0.4,0,0.7,0.1,1.1C11.1,289.7,11.2,289.6,11.2,289.5z"/>
		<path class="st29" d="M0.4,293.2h1c5,0,9.1-1.4,9.7-3.3c0-0.4-0.1-0.7-0.1-1.1c-0.8-1.8-4.8-3.1-9.6-3.1h-1"/>
		<path class="st28" d="M37.2,280c-5.3,0-9.6-1.6-9.8-3.6c-0.6,4.6-1.1,9-1.6,13.2c0.2,0.1,0.4,0.3,0.6,0.4c2.2,1.9,4.7,3.3,7.4,4.2
			c0.4,0.1,0.9,0.3,1.3,0.4h0.1c1.4,0.3,2.9,0.4,4.3,0.4h0.9c0.4,0,0.8,0,1.2-0.1l0,0h0.4c0.6-0.1,5.2-3,5.2-3
			c0.1-6.2-0.1-11.2-0.3-15.4C46.3,278.6,42.2,280,37.2,280z"/>
		<path class="st29" d="M47,276.3c0-0.2,0-0.4-0.1-0.6c0,0.4,0,0.7,0.1,1.1C46.9,276.6,46.9,276.4,47,276.3z"/>
		<path class="st29" d="M27.4,276.3c0,0.1,0,0.1,0,0.2c0-0.2,0-0.5,0.1-0.7C27.4,275.9,27.4,276.1,27.4,276.3z"/>
		<path class="st29" d="M37.2,272.6c-5.4,0-9.7,1.6-9.7,3.7s4.3,3.7,9.7,3.7s9.7-1.6,9.7-3.7S42.5,272.6,37.2,272.6z"/>
		<path class="st29" d="M37.2,272.5c-5,0-9,1.4-9.7,3.2c0,0.2-0.1,0.5-0.1,0.7c0.2,2,4.5,3.6,9.8,3.6c5,0,9.2-1.4,9.7-3.3
			c0-0.4,0-0.7-0.1-1.1C46,273.9,42,272.5,37.2,272.5z M37.2,280c-5.4,0-9.7-1.6-9.7-3.7s4.3-3.7,9.7-3.7s9.7,1.6,9.7,3.7
			S42.5,280,37.2,280L37.2,280z"/>
		<path class="st28" d="M108.8,281.9c-5.3,0-9.6-1.6-9.8-3.6c-0.6,4.6-1.1,9-1.6,13.2c0.2,0.1,0.4,0.3,0.6,0.4
			c2.2,1.9,4.7,3.3,7.4,4.2c0.4,0.1,0.9,0.3,1.3,0.4h0.1c1.4,0.3,2.9,0.4,4.3,0.4l0,0h0.6h0.3c0.4,0,0.8,0,1.2-0.1l0,0
			c0.1,0,0.3,0,0.4,0c0.6-0.1,5.2-3,5.2-3c0.1-6.2-0.1-11.2-0.3-15.4C118,280.5,113.9,281.9,108.8,281.9z"/>
		<path class="st29" d="M118.6,278.2c0-0.2,0-0.4-0.1-0.6c0,0.3,0,0.7,0.1,1C118.6,278.5,118.6,278.3,118.6,278.2z"/>
		<path class="st29" d="M99,278.2c0,0.1,0,0.1,0,0.2c0-0.2,0-0.5,0.1-0.7C99.1,277.9,99,278,99,278.2z"/>
		<path class="st29" d="M108.8,274.5c-5.3,0-9.7,1.6-9.7,3.7s4.3,3.7,9.7,3.7s9.7-1.6,9.7-3.7S114.2,274.5,108.8,274.5z"/>
		<path class="st29" d="M108.8,274.5c-5,0-9,1.4-9.7,3.2c0,0.2-0.1,0.5-0.1,0.7c0.2,2,4.5,3.6,9.8,3.6c5,0,9.2-1.4,9.7-3.3
			c0-0.4-0.1-0.7-0.1-1C117.7,275.8,113.7,274.5,108.8,274.5z M108.8,281.9c-5.3,0-9.7-1.6-9.7-3.7s4.3-3.7,9.7-3.7s9.7,1.6,9.7,3.7
			S114.2,281.9,108.8,281.9z"/>
		<path class="st28" d="M171.2,283.5c-5.3,0-9.6-1.6-9.8-3.6c-0.6,4.6-1.1,9-1.6,13.2c0.2,0.1,0.4,0.3,0.6,0.5
			c2.2,1.9,4.7,3.3,7.4,4.2c0.4,0.1,0.9,0.3,1.3,0.4h0.1c1.4,0.3,2.9,0.4,4.3,0.4h0.9c0.4,0,0.8,0,1.2-0.1l0,0h0.4
			c0.6-0.1,5.1-3,5.1-3c0.1-6.2-0.1-11.2-0.3-15.4C180.4,282.1,176.3,283.5,171.2,283.5z"/>
		<path class="st29" d="M181,279.8c0-0.2-0.1-0.4-0.1-0.6c0,0.4,0.1,0.7,0.1,1.1C181,280.1,181,280,181,279.8z"/>
		<path class="st29" d="M161.4,279.8c0,0.1,0,0.1,0,0.2c0-0.2,0-0.5,0.1-0.7C161.5,279.5,161.4,279.6,161.4,279.8z"/>
		<path class="st29" d="M171.2,276.1c-5.4,0-9.7,1.6-9.7,3.7s4.3,3.7,9.7,3.7s9.7-1.6,9.7-3.7S176.6,276.1,171.2,276.1z"/>
		<path class="st29" d="M171.2,276.1c-5,0-9,1.4-9.7,3.2c0,0.2,0,0.5-0.1,0.7c0.2,2,4.5,3.6,9.8,3.6c5,0,9.1-1.4,9.7-3.3
			c0-0.4,0-0.7-0.1-1.1C180.1,277.4,176.1,276.1,171.2,276.1z M171.2,283.5c-5.4,0-9.7-1.6-9.7-3.7s4.3-3.7,9.7-3.7s9.7,1.6,9.7,3.7
			S176.6,283.5,171.2,283.5z"/>
		<path class="st28" d="M252.5,278.1c-5.3,0-9.6-1.6-9.8-3.6c-0.6,4.6-1.1,9-1.6,13.2c0.2,0.1,0.4,0.3,0.6,0.4
			c2.2,1.9,4.7,3.3,7.4,4.2c0.4,0.1,0.9,0.3,1.4,0.4h0.1c1.4,0.3,2.9,0.4,4.3,0.4l0,0h0.6h0.3c0.4,0,0.8,0,1.2-0.1l0,0
			c0.1,0,0.3,0,0.4,0c0.6-0.1,5.1-3,5.1-3c0.1-6.2-0.1-11.2-0.3-15.4C261.6,276.6,257.5,278.1,252.5,278.1z"/>
		<path class="st29" d="M262.3,274.4c0-0.2-0.1-0.4-0.1-0.6c0,0.3,0,0.7,0.1,1C262.3,274.7,262.3,274.5,262.3,274.4z"/>
		<path class="st29" d="M242.7,274.4c0,0.1,0,0.1,0,0.2c0-0.2,0-0.5,0.1-0.7C242.7,274,242.7,274.2,242.7,274.4z"/>
		<path class="st29" d="M252.5,270.7c-5.4,0-9.7,1.6-9.7,3.7s4.3,3.7,9.7,3.7c5.4,0,9.7-1.6,9.7-3.7S257.8,270.7,252.5,270.7z"/>
		<path class="st29" d="M252.5,270.6c-5,0-9,1.4-9.7,3.2c0,0.2,0,0.5-0.1,0.7c0.2,2,4.5,3.6,9.8,3.6c5,0,9.2-1.4,9.7-3.3
			c0-0.4,0-0.7-0.1-1C261.4,272,257.4,270.6,252.5,270.6z M252.5,278.1c-5.4,0-9.7-1.6-9.7-3.7s4.3-3.7,9.7-3.7
			c5.4,0,9.7,1.6,9.7,3.7S257.8,278,252.5,278.1L252.5,278.1z"/>
		<path class="st28" d="M322.6,266.8c-5.3,0-9.5-1.6-9.8-3.6c-0.5,4.6-1.1,9-1.6,13.2c0.2,0.1,0.4,0.3,0.6,0.4
			c2.2,1.9,4.7,3.3,7.4,4.2c0.4,0.1,0.9,0.3,1.4,0.4h0.1c1.4,0.3,2.9,0.4,4.3,0.4l0,0h0.6h0.3c0.4,0,0.8,0,1.2-0.1l0,0h0.4
			c0.6-0.1,5.2-3,5.2-3c0.1-6.2-0.1-11.2-0.3-15.4C331.8,265.4,327.7,266.8,322.6,266.8z"/>
		<path class="st29" d="M332.4,263.1c0-0.2-0.1-0.4-0.1-0.6c0,0.3,0,0.7,0.1,1C332.4,263.4,332.4,263.2,332.4,263.1z"/>
		<path class="st29" d="M312.8,263.1c0,0.1,0,0.1,0,0.2l0.1-0.7C312.9,262.8,312.8,262.9,312.8,263.1z"/>
		<path class="st29" d="M322.6,259.4c-5.4,0-9.7,1.6-9.7,3.7s4.3,3.7,9.7,3.7s9.7-1.6,9.7-3.7S328,259.4,322.6,259.4z"/>
		<path class="st29" d="M322.6,259.4c-5,0-9,1.4-9.7,3.2l-0.1,0.7c0.2,2,4.5,3.6,9.8,3.6c5,0,9.1-1.4,9.7-3.3c0-0.4,0-0.7-0.1-1
			C331.5,260.7,327.5,259.4,322.6,259.4z M322.6,266.8c-5.4,0-9.7-1.6-9.7-3.7s4.3-3.7,9.7-3.7s9.7,1.6,9.7,3.7
			S328,266.8,322.6,266.8z"/>
		<path class="st28" d="M426.5,276.1c-5.3,0-9.5-1.6-9.8-3.6c-0.5,4.6-1.1,9-1.6,13.2l0.6,0.4c2.2,1.9,4.7,3.3,7.4,4.2
			c0.4,0.1,0.9,0.3,1.4,0.4h0.1c1.4,0.3,2.9,0.4,4.3,0.4l0,0h0.9c0.4,0,0.8,0,1.2-0.1l0,0h0.4c0.6-0.1,5.1-3,5.1-3
			c0.1-6.2-0.1-11.2-0.3-15.4C435.6,274.7,431.5,276.1,426.5,276.1z"/>
		<path class="st29" d="M436.3,272.4c0-0.2,0-0.4-0.1-0.6c0,0.3,0,0.7,0.1,1.1C436.2,272.7,436.3,272.6,436.3,272.4z"/>
		<path class="st29" d="M416.7,272.4c0,0,0,0.1,0,0.2l0.1-0.7C416.7,272.1,416.7,272.3,416.7,272.4z"/>
		<path class="st29" d="M426.5,268.7c-5.4,0-9.7,1.6-9.7,3.7s4.3,3.7,9.7,3.7s9.7-1.6,9.7-3.7S431.8,268.7,426.5,268.7z"/>
		<path class="st29" d="M426.5,268.7c-5,0-9,1.4-9.7,3.2l-0.1,0.7c0.2,2,4.5,3.6,9.8,3.6c5,0,9.2-1.4,9.7-3.3c0-0.4,0-0.7-0.1-1.1
			C435.4,270,431.4,268.7,426.5,268.7z M426.5,276.1c-5.4,0-9.7-1.6-9.7-3.7s4.3-3.7,9.7-3.7s9.7,1.6,9.7,3.7
			S431.8,276.1,426.5,276.1L426.5,276.1z"/>
		<path class="st28" d="M514.1,262.9c-5.3,0-9.5-1.6-9.8-3.6c-0.5,4.6-1.1,9-1.6,13.2c0.2,0.1,0.4,0.3,0.6,0.4
			c2.2,1.9,4.7,3.3,7.4,4.2c0.4,0.1,0.9,0.3,1.4,0.4h0.1c1.4,0.3,2.9,0.4,4.3,0.4h0.9c0.4,0,0.8,0,1.2-0.1l0,0h0.4
			c0.6-0.1,5.2-3,5.2-3c0.1-6.2-0.1-11.2-0.3-15.4C523.2,261.5,519.1,262.9,514.1,262.9z"/>
		<path class="st29" d="M523.9,259.2c0-0.2-0.1-0.4-0.2-0.6c0,0.4,0,0.7,0.1,1.1C523.8,259.5,523.9,259.4,523.9,259.2z"/>
		<path class="st29" d="M504.3,259.2c0,0.1,0,0.1,0,0.2c0-0.2,0.1-0.5,0.1-0.7C504.3,258.9,504.3,259,504.3,259.2z"/>
		<path class="st29" d="M514.1,255.5c-5.4,0-9.7,1.6-9.7,3.7s4.3,3.7,9.7,3.7c5.4,0,9.7-1.6,9.7-3.7S519.4,255.5,514.1,255.5z"/>
		<path class="st29" d="M514.1,255.5c-5,0-9,1.4-9.7,3.2c0,0.2,0,0.5-0.1,0.7c0.2,2,4.5,3.6,9.8,3.6c5,0,9.2-1.4,9.7-3.3
			c0-0.4,0-0.7-0.1-1.1C522.9,256.8,518.9,255.5,514.1,255.5z M514.1,262.9c-5.4,0-9.7-1.6-9.7-3.7s4.3-3.7,9.7-3.7
			c5.4,0,9.7,1.6,9.7,3.7S519.4,262.9,514.1,262.9L514.1,262.9z"/>
		<path class="st28" d="M349.6,253.6c-4.3,0-7.9-1.3-8.1-2.9c-0.5,3.8-0.9,7.4-1.3,10.9c0.2,0.1,0.3,0.2,0.5,0.4
			c1.8,1.5,3.9,2.7,6.1,3.5c0.4,0.1,0.7,0.2,1.1,0.3h0.1c1.2,0.2,2.4,0.4,3.5,0.4h0.8l1-0.1l0,0h0.3c1.5-0.7,2.9-1.5,4.2-2.4
			c0.1-5.1,0-9.2-0.3-12.6C357.1,252.5,353.8,253.6,349.6,253.6z"/>
		<path class="st29" d="M357.7,250.6c0-0.2,0-0.4-0.1-0.5c0,0.3,0,0.6,0.1,0.9C357.7,250.8,357.7,250.7,357.7,250.6z"/>
		<path class="st29" d="M341.6,250.6c0,0,0,0.1,0,0.1c0-0.2,0-0.4,0.1-0.6C341.6,250.3,341.5,250.4,341.6,250.6z"/>
		<path class="st29" d="M349.6,247.5c-4.4,0-8,1.4-8,3s3.6,3,8,3s8-1.4,8-3S354,247.5,349.6,247.5z"/>
		<path class="st29" d="M349.6,247.5c-4.1,0-7.5,1.1-8,2.6c0,0.2,0,0.4-0.1,0.6c0.2,1.6,3.7,2.9,8.1,2.9c4.1,0,7.5-1.2,8-2.7
			c0-0.3,0-0.6-0.1-0.9C356.9,248.6,353.6,247.5,349.6,247.5z M349.6,253.6c-4.4,0-8-1.4-8-3s3.6-3,8-3s8,1.4,8,3
			S354,253.6,349.6,253.6z"/>
		<path class="st28" d="M388,252.3c-4.3,0-7.9-1.3-8-2.9c-0.5,3.8-0.9,7.4-1.3,10.9l0.5,0.4c1.8,1.5,3.9,2.7,6.1,3.5
			c0.4,0.1,0.7,0.2,1.1,0.3h0.1c1.2,0.2,2.4,0.4,3.5,0.4h0.8l1-0.1l0,0h0.3c1.5-0.7,2.9-1.5,4.2-2.4c0.1-5.1-0.1-9.2-0.3-12.6
			C395.5,251.1,392.1,252.3,388,252.3z"/>
		<path class="st29" d="M396.1,249.2c0-0.2,0-0.4-0.1-0.5l0.1,0.9C396,249.4,396.1,249.3,396.1,249.2z"/>
		<path class="st29" d="M379.9,249.2c0,0,0,0.1,0,0.1c0-0.2,0-0.4,0.1-0.6C379.9,248.9,379.9,249,379.9,249.2z"/>
		<path class="st29" d="M388,246.1c-4.4,0-8,1.4-8,3s3.6,3,8,3s8-1.4,8-3S392.4,246.1,388,246.1z"/>
		<path class="st29" d="M388,246.1c-4.1,0-7.4,1.2-8,2.6c0,0.2,0,0.4-0.1,0.6c0.2,1.6,3.7,2.9,8,2.9c4.1,0,7.5-1.2,8-2.7l-0.1-0.9
			C395.3,247.2,392,246.1,388,246.1z M388,252.2c-4.4,0-8-1.4-8-3s3.6-3,8-3s8,1.4,8,3S392.4,252.2,388,252.2z"/>
		<path class="st28" d="M122.7,255.3c-4.3,0-7.9-1.3-8-2.9c-0.5,3.8-0.9,7.4-1.3,10.9l0.5,0.4c1.8,1.5,3.8,2.7,6,3.4
			c0.4,0.1,0.7,0.2,1.1,0.3h0.1c1.2,0.2,2.4,0.4,3.6,0.4h0.7h1l0,0h0.3c1.5-0.7,2.9-1.5,4.2-2.4c0.1-5.1-0.1-9.2-0.3-12.6
			C130.2,254.1,126.8,255.3,122.7,255.3z"/>
		<path class="st29" d="M130.8,252.2c0-0.2,0-0.4-0.1-0.5c0,0.3,0,0.6,0.1,0.9C130.7,252.4,130.7,252.3,130.8,252.2z"/>
		<path class="st29" d="M114.6,252.2c0,0,0,0.1,0,0.1l0.1-0.6C114.6,251.9,114.6,252,114.6,252.2z"/>
		<path class="st29" d="M122.7,249.1c-4.4,0-8,1.4-8,3s3.6,3,8,3s8-1.4,8-3S127.1,249.1,122.7,249.1z"/>
		<path class="st29" d="M122.7,249.1c-4.1,0-7.4,1.1-8,2.6l-0.1,0.6c0.2,1.6,3.7,2.9,8,2.9c4.1,0,7.5-1.2,8-2.7c0-0.3,0-0.6-0.1-0.9
			C130,250.2,126.7,249.1,122.7,249.1z M122.7,255.2c-4.4,0-8-1.4-8-3s3.6-3,8-3s8,1.4,8,3S127.1,255.2,122.7,255.2z"/>
		<path class="st28" d="M200.9,246.6c-4.3,0-7.9-1.3-8.1-2.9c-0.4,3.8-0.9,7.4-1.3,10.9l0.5,0.4c1.8,1.5,3.9,2.7,6.1,3.5
			c0.4,0.1,0.7,0.2,1.1,0.3h0.1c1.2,0.2,2.4,0.4,3.6,0.4l0,0h0.7h1l0,0h0.3c1.5-0.7,2.9-1.5,4.2-2.4c0.1-5.1,0-9.2-0.3-12.7
			C208.5,245.4,205.1,246.6,200.9,246.6z"/>
		<path class="st29" d="M209,243.5c0-0.2,0-0.4-0.1-0.5c0,0.3,0,0.6,0.1,0.9C209,243.7,209,243.6,209,243.5z"/>
		<path class="st29" d="M192.9,243.5c0,0,0,0.1,0,0.1c0-0.2,0.1-0.4,0.1-0.6C192.9,243.2,192.8,243.3,192.9,243.5z"/>
		<path class="st29" d="M200.9,240.5c-4.4,0-8,1.4-8,3s3.6,3,8,3s8-1.4,8-3S205.3,240.5,200.9,240.5z"/>
		<path class="st29" d="M200.9,240.4c-4.1,0-7.4,1.1-8,2.6c0,0.2,0,0.4-0.1,0.6c0.2,1.6,3.7,2.9,8.1,2.9c4.1,0,7.5-1.2,8-2.7
			c0-0.3,0-0.6-0.1-0.9C208.2,241.5,204.9,240.4,200.9,240.4z M200.9,246.5c-4.4,0-8-1.4-8-3s3.6-3,8-3s8,1.4,8,3
			S205.3,246.5,200.9,246.5z"/>
		<path class="st28" d="M279.7,243.4c-4.3,0-7.9-1.3-8-2.9c-0.5,3.8-0.9,7.4-1.3,10.9l0.5,0.4c1.8,1.5,3.9,2.7,6.1,3.5
			c0.4,0.1,0.7,0.2,1.1,0.3h0.1c1.2,0.2,2.4,0.4,3.5,0.4h0.7h1l0,0h0.3c1.5-0.7,2.9-1.5,4.2-2.4c0-5.1-0.1-9.2-0.3-12.7
			C287.2,242.2,283.8,243.4,279.7,243.4z"/>
		<path class="st29" d="M287.7,240.3c0-0.2,0-0.4-0.1-0.5l0.1,0.9C287.7,240.6,287.7,240.4,287.7,240.3z"/>
		<path class="st29" d="M271.6,240.3c0,0,0,0.1,0,0.1c0-0.2,0-0.4,0.1-0.6C271.6,240,271.6,240.2,271.6,240.3z"/>
		<path class="st29" d="M279.7,237.3c-4.4,0-8,1.4-8,3s3.6,3,8,3s8-1.4,8-3S284.1,237.3,279.7,237.3z"/>
		<path class="st29" d="M279.7,237.3c-4.1,0-7.4,1.1-8,2.6c0,0.2,0,0.4-0.1,0.6c0.2,1.6,3.7,2.9,8,2.9c4.1,0,7.5-1.2,8-2.7l-0.1-0.9
			C287,238.4,283.7,237.3,279.7,237.3z M279.7,243.4c-4.4,0-8-1.4-8-3s3.6-3,8-3s8,1.4,8,3S284.1,243.4,279.7,243.4z"/>
		<path class="st28" d="M65.2,255.9c-4.3,0-7.9-1.3-8-2.9c-0.5,3.8-0.9,7.4-1.3,10.9l0.5,0.4c1.8,1.5,3.8,2.7,6,3.5
			c0.4,0.1,0.7,0.2,1.1,0.3h0.1c1.2,0.2,2.4,0.4,3.5,0.4h0.8c0.3,0,0.7,0,1-0.1l0,0h0.3c1.5-0.7,2.9-1.5,4.2-2.4
			c0.1-5.1-0.1-9.2-0.3-12.6C72.8,254.7,69.4,255.9,65.2,255.9z"/>
		<path class="st29" d="M73.3,252.8c0-0.2,0-0.4-0.1-0.5c0,0.3,0,0.6,0,0.9C73.2,253,73.3,252.9,73.3,252.8z"/>
		<path class="st29" d="M57.2,252.8c0,0,0,0.1,0,0.1l0.1-0.6C57.2,252.5,57.1,252.7,57.2,252.8z"/>
		<path class="st29" d="M65.2,249.8c-4.4,0-8,1.4-8,3s3.6,3,8,3s8-1.4,8-3S69.6,249.8,65.2,249.8z"/>
		<path class="st29" d="M65.2,249.7c-4.1,0-7.4,1.1-8,2.6l-0.1,0.6c0.2,1.6,3.7,2.9,8,2.9c4.1,0,7.5-1.2,8-2.7c0-0.3,0-0.6,0-0.9
			C72.5,250.8,69.2,249.7,65.2,249.7z M65.2,255.8c-4.4,0-8-1.4-8-3s3.6-3,8-3s8,1.4,8,3S69.6,255.8,65.2,255.8z"/>
		<path class="st28" d="M342.9,328.3c-6.9,0-12.4-2.1-12.7-4.6c-0.7,5.9-1.5,11.7-2.1,17.2c0.3,0.2,0.5,0.4,0.8,0.6
			c2.8,2.4,6.1,4.3,9.6,5.5c0.6,0.2,1.1,0.4,1.8,0.5h0.2c1.8,0.4,3.7,0.6,5.6,0.5l0,0h0.8h0.4c0.5,0,1,0,1.6-0.1l0,0
			c0.2,0,0.4,0,0.5,0c0.8-0.1,6.7-3.8,6.7-3.8c0.1-8-0.1-14.6-0.4-20C354.8,326.5,349.4,328.3,342.9,328.3z"/>
		<path class="st29" d="M355.6,323.5c0-0.3-0.1-0.5-0.2-0.8l0.1,1.4C355.6,323.9,355.6,323.7,355.6,323.5z"/>
		<path class="st29" d="M330.1,323.5c0,0.1,0,0.1,0,0.2c0-0.3,0.1-0.6,0.1-0.9C330.1,323,330.1,323.3,330.1,323.5z"/>
		<path class="st29" d="M342.9,318.7c-7,0-12.6,2.1-12.6,4.8s5.6,4.8,12.6,4.8s12.6-2.1,12.6-4.8S349.8,318.7,342.9,318.7z"/>
		<path class="st29" d="M342.9,318.6c-6.4,0-11.8,1.8-12.6,4.2c0,0.3-0.1,0.6-0.1,0.9c0.3,2.6,5.9,4.6,12.7,4.6
			c6.5,0,11.9-1.9,12.7-4.3l-0.1-1.4C354.4,320.4,349.2,318.6,342.9,318.6z M342.9,328.3c-7,0-12.6-2.1-12.6-4.8s5.6-4.8,12.6-4.8
			s12.6,2.1,12.6,4.8S349.8,328.3,342.9,328.3z"/>
		<path class="st30" d="M524.8,338.8c-13.5,1.4-30,2.2-47.8,2.2c-45.5,0-82.4-5.3-82.4-11.8s36.9-11.8,82.4-11.8
			c17.8,0,34.3,0.8,47.8,2.2V338.8z"/>
		<path class="st14" d="M525,190.7c-3.9-6-9.6-8.1-17.3-8.1c-5.8,0-11.3,2.3-15.4,6.4c-6.8-9.9-20.3-12.4-30.2-5.6
			c-2.2,1.5-4.1,3.4-5.6,5.5c-5.2-10.8-18.1-15.4-28.9-10.2c-2.5,1.2-4.8,2.9-6.7,5c-14.9-7.2-32.8-0.9-39.9,13.9
			c-7.2,14.9-0.9,32.8,13.9,39.9c11.3,5.5,24.9,3.3,33.9-5.5c7.3,9.5,20.8,11.3,30.3,4.1c8.2,8.7,22,9.2,30.7,0.9
			c0.7-0.6,1.3-1.3,1.9-2.1c4.1,5.1,10.3,8,16.8,8c7.5,0,12.3-5.4,16.2-11.1L525,190.7z"/>
		<path class="st28" d="M432.8,329.2c0,0,30.5-12.6,30.5-32.3s1.9-27.3-2.9-36.7s-58.3-24.5-58.3-24.5l4.7-12
			c0,0,34.3,13.1,36.5,11.1s-1.8-32.9-1.8-32.9l8.4-2.3c0,0,5.3,31.4,5.5,38.4s13.6,17.5,15.4,8.1s4.2-45.9,4.2-45.9l8.4-1.7
			c0,0-1.5,22.4,0,25.9s26.2-24.8,26.2-24.8l8,4.5l-29.9,29.8c0,0-3.8,11.1,0.8,15.6s36.5-26,36.5-26v11.9c0,0-29.4,24.6-29.7,31
			s-0.7,7.6,0.2,27.5s27.8,35.5,27.8,35.5s-19.1,3.4-33.6,2.9c-15.2-0.6-10.4,4.3-20.8,4.3c-11.3,0-5.7-6.5-12.1-5.6
			C439.8,333.4,432.8,329.2,432.8,329.2z"/>
		<g class="st31">
			<path class="st32" d="M525,235.2v-11.9c0,0-14.4,14-29,23.3c-5.3,8.2-8.8,17.4-10.6,27c-3.3,18.5,9,41.3,3,58.4
				c0,0,6.6,0.2,15.1-0.4c6.4-0.4,20-2.5,20-2.5s-27-15.6-27.9-35.5s-0.5-21.2-0.2-27.5S525,235.2,525,235.2z"/>
			<path class="st32" d="M441.1,234.9c-8-1.1-34.4-11.2-34.4-11.2l-1.8,4.8C415.5,235,429.2,238.6,441.1,234.9z"/>
			<path class="st32" d="M462.5,248.1c-3.6-2.3-7-6.7-7.1-10.2c-0.2-7-5.5-38.4-5.5-38.4l-2.9,0.8
				C449.2,216.4,446.6,239.6,462.5,248.1z"/>
			<path class="st32" d="M483.4,198.4l-4.4,0.9c2,7.6-0.5,16.2,4,23.2C482.2,216.2,483.4,198.4,483.4,198.4z"/>
		</g>
		<path class="st33" d="M524.8,51.3c-4.6-1.5-9.5-1.4-14,0.2c-11-13.2-30.6-15.1-43.8-4.1c-4.4,3.6-7.7,8.3-9.5,13.7
			c-10.7-9.9-27.5-9.2-37.4,1.5c-3,3.3-5.2,7.2-6.2,11.6c-11.5-9-28.1-6.9-37.1,4.7c-7.2,9.2-7.4,22.1-0.6,31.6
			c-14.5,1.7-24.9,14.8-23.2,29.3c0.6,5.4,2.9,10.5,6.5,14.5c-15.3,7.8-21.3,26.6-13.5,41.9c5.3,10.4,16,16.9,27.7,16.9
			c0.5,0,0.9,0,1.4,0c-0.3,1.5-0.5,2.9-0.5,4.4c0,11.7,9.5,21.1,21.2,21.1c9.6,0,18-6.5,20.4-15.8c6.3-1.9,11.3-6.6,13.7-12.8
			c8.4-0.5,15.7-6,18.6-13.9c7.2,6.9,18.3,7.8,26.5,2.1c9.2,10.9,25.2,12.9,36.8,4.4c2,6.3,6.9,11.3,13.1,13.5L524.8,51.3z"/>
		<path class="st34" d="M452.7,118.9c8.8-8.7,23-8.6,31.7,0.3c1.6,1.6,2.9,3.4,3.9,5.3c-1.6-12.3-12.9-20.9-25.1-19.3
			s-20.9,12.9-19.3,25.1c0.3,2.6,1.1,5.2,2.4,7.5C445.3,130.9,447.7,123.9,452.7,118.9z"/>
		<path class="st34" d="M379.9,124.7c2.2-8,10.4-12.6,18.3-10.5c1.4,0.4,2.8,1,4,1.8c-5-6.5-14.4-7.7-20.9-2.6
			c-6.5,5-7.7,14.4-2.6,20.9c1.1,1.4,2.4,2.6,3.8,3.5C379.6,134.1,378.7,129.2,379.9,124.7z"/>
		<path class="st34" d="M380.4,87.4c8.6-11.7,25.1-14.2,36.8-5.6c0,0,0,0,0,0c2.1,1.5,4,3.4,5.5,5.5c-4.2-13.9-18.9-21.7-32.8-17.5
			c-13.9,4.2-21.7,18.9-17.5,32.8c0.9,2.9,2.2,5.6,4,8C374,102.7,375.5,94.1,380.4,87.4z"/>
		<path class="st34" d="M516.4,56.7c3,0.3,5.8,1.2,8.4,2.7v-8c-1.4-0.5-2.9-0.8-4.4-0.9c-9.4-1-18.3,4.3-22,13
			C503,58.4,509.7,55.9,516.4,56.7z"/>
	</g>
	<g id="Livello_2_1_">
		<line class="st35" x1="217" y1="241.3" x2="202" y2="349.8"/>
		<line class="st35" x1="0.4" y1="241.3" x2="524.8" y2="241.3"/>
		<line class="st35" x1="186.1" y1="241.3" x2="161.1" y2="349.8"/>
		<line class="st35" x1="247.8" y1="241.3" x2="242.8" y2="349.8"/>
		<line class="st35" x1="278.7" y1="241.3" x2="283.7" y2="349.8"/>
		<line class="st35" x1="155.3" y1="241.3" x2="120.3" y2="349.8"/>
		<line class="st35" x1="124.4" y1="241.3" x2="79.4" y2="349.8"/>
		<line class="st35" x1="93.6" y1="241.3" x2="38.5" y2="349.8"/>
		<line class="st35" x1="62.7" y1="241.3" x2="0.4" y2="342.6"/>
		<line class="st35" x1="340.4" y1="241.3" x2="365.4" y2="349.8"/>
		<line class="st35" x1="309.5" y1="241.3" x2="324.5" y2="349.8"/>
		<line class="st35" x1="371.2" y1="241.3" x2="406.2" y2="349.8"/>
		<line class="st35" x1="402.1" y1="241.3" x2="447.1" y2="349.8"/>
		<line class="st35" x1="432.9" y1="241.3" x2="487.9" y2="349.8"/>
		<line class="st35" x1="463.8" y1="241.3" x2="528.8" y2="349.8"/>
		<line class="st35" x1="32.7" y1="241.3" x2="0.4" y2="274.7"/>
		<line class="st35" x1="493.8" y1="241.3" x2="525" y2="280.7"/>
		<line class="st35" x1="0.4" y1="250.4" x2="524.8" y2="250.4"/>
		<line class="st35" x1="0.4" y1="268.7" x2="524.8" y2="268.7"/>
		<line class="st35" x1="0.4" y1="296.1" x2="524.8" y2="296.1"/>
		<line class="st35" x1="0.4" y1="329.9" x2="524.8" y2="329.9"/>
	</g>
</g>
</svg>
