<svg xmlns="http://www.w3.org/2000/svg" viewBox="0 0 185.78 158.79"><defs><style>.a{isolation:isolate;}.b{fill:#bec6b9;}.c{fill:#93a18b;}.d{fill:#9fae97;}.e{fill:#d9d9d9;}.e,.l{mix-blend-mode:multiply;}.f{fill:#cdcccc;}.g{fill:#cecbca;}.h{fill:#e5e5e4;}.i{fill:#d6d7d7;}.j{fill:#157187;}.k{fill:#fff;}.l{fill:#808181;opacity:0.43;}</style></defs><title>G07_11_01</title><g class="a"><polygon class="b" points="96.01 153.96 96 158.71 0 102.81 0.01 98.06 96.01 153.96"/><polygon class="c" points="185.78 101.33 185.78 106.08 96.14 158.79 96 158.71 96.01 153.96 96.15 154.04 185.78 101.33"/><polygon class="d" points="96.01 153.96 0.01 98.06 0.01 97.79 90.4 46.04 185.78 101.33 96.15 154.04 96.01 153.96"/><ellipse class="e" cx="92.44" cy="97.73" rx="56.69" ry="29.48"/><path class="f" d="M24.13,44.85c-2-2.33-12.69-16.33-12.76-17.41,0-.89.68-1,2.45-1.24s6.59-1.24,8.75-.62a21.53,21.53,0,0,1,3.63,1.91c-1.93.34-5.38.5-5.76,2.11s1.32,8,2.19,10.8C22.88,41.2,23.44,42.87,24.13,44.85Z" transform="translate(-6.32 -8.51)"/><path class="g" d="M127.21,26.93l-5,.94C104.88,31.18,48.1,42,47.6,42.16a4.79,4.79,0,0,1-3.6-.88c-.11-.09-.21-.19-.31-.29a58.12,58.12,0,0,0-6.53-5.89c-1.28-1-2.59-2-3.89-2.91-2.58-1.86-5.11-3.51-7.07-4.7a21.53,21.53,0,0,0-3.63-1.91c-2.16-.62-7,.36-8.75.62L106.16,9.11s1.32-.22,3.23-.4c3.34-.29,8.46-.47,11.22.91C124.92,11.79,127.21,26.93,127.21,26.93Z" transform="translate(-6.32 -8.51)"/><path class="h" d="M43.45,56.49a2.48,2.48,0,0,1-1.22.75l-.06,0c-2.07.68-5.89.76-8.12,1-5,.57-5.79-1.58-5.79-1.58s-2.42-6.9-4.13-11.86c-.69-2-1.25-3.65-1.5-4.45-.87-2.82-2.58-9.16-2.19-10.8s3.83-1.77,5.76-2.11c2,1.19,4.49,2.84,7.07,4.7a4.44,4.44,0,0,0-2.08-.07c-3.44.75-5.27,5.69-4.09,11s4.9,9.06,8.32,8.31,5.27-5.69,4.09-11a13.91,13.91,0,0,0-2.35-5.33A58.12,58.12,0,0,1,43.69,41c.1.1.2.2.31.29s.43,4.06.74,8.78S44.45,55.08,43.45,56.49Z" transform="translate(-6.32 -8.51)"/><path class="i" d="M121.57,41.75,96.81,46.59,82.54,49.38,42.23,57.24a2.48,2.48,0,0,0,1.22-.75c1-1.41,1.6-1.73,1.29-6.43S44,41.28,44,41.28a4.79,4.79,0,0,0,3.6.88c.5-.15,57.28-11,74.63-14.29a39.28,39.28,0,0,0,.49,4.57c.21,1.42.41,2.93.49,4.3C123.36,39.32,123.1,41.45,121.57,41.75Z" transform="translate(-6.32 -8.51)"/><rect class="i" x="81.72" y="72.28" width="23.58" height="37.16" rx="2.33"/><path class="j" d="M35.42,51.46c-3.42.75-7.16-3-8.32-8.31s.65-10.28,4.09-11a4.44,4.44,0,0,1,2.08.07c1.3.93,2.61,1.91,3.89,2.91a13.91,13.91,0,0,1,2.35,5.33C40.69,45.77,38.84,50.71,35.42,51.46Z" transform="translate(-6.32 -8.51)"/><path class="i" d="M110.25,49.92V88.37a7.42,7.42,0,0,1-12.67,5.26,7.53,7.53,0,0,1-2.17-5.26V46.87l12.34-2.49.33.3A7.4,7.4,0,0,1,110.25,49.92Z" transform="translate(-6.32 -8.51)"/><path class="k" d="M32,38.17c0,1.46-.79,2.65-1.81,2.66s-1.86-1.16-1.88-2.61.8-2.65,1.81-2.66S32,36.71,32,38.17Z" transform="translate(-6.32 -8.51)"/><path class="h" d="M93.85,102.91c2.05,1.74,5.34,1.74,8,1.74s5.83-1.16,6.8-3.78-.85-4.94.68-7.85a7.63,7.63,0,0,1-1.21,1.61,7.42,7.42,0,0,1-12.67-5.26V87.78c-1.07,3.2-2.32,4.8-3.11,6.82S91.82,101.16,93.85,102.91Z" transform="translate(-6.32 -8.51)"/><path class="l" d="M44.54,47.31c-1-.77-2.71-2-4.69-3.32-4.34-2.93-10-6.35-12.84-6.66a2.34,2.34,0,0,0-1,.06c-3,1-2.09,6.83-1.67,8-.08-.2-.14-.39-.2-.57-.68-2-1.25-3.65-1.49-4.45-.87-2.82-2.59-9.16-2.2-10.8s3.83-1.77,5.76-2.11c.41.25.85.52,1.31.82s.68.42,1,.65l1.87,1.24.93.64.4.28,1.52,1.07c1.3.93,2.61,1.91,3.89,2.91A58.12,58.12,0,0,1,43.69,41a2.7,2.7,0,0,0,.31.28S44.28,43.87,44.54,47.31Z" transform="translate(-6.32 -8.51)"/><path class="l" d="M93.85,102.91l15,15h.4a2.33,2.33,0,0,0,2.33-2.34V90.73l-1.36-1.36a7.39,7.39,0,0,1-1,3.65c-1.53,2.91.29,5.23-.68,7.85s-4.17,3.78-6.8,3.78S95.9,104.65,93.85,102.91Z" transform="translate(-6.32 -8.51)"/><path class="l" d="M110.25,49.92v3.56c-2.44-3.26-5.77-2.64-7.42-2.64S95.41,54,95.41,60.09V46.87l12.34-2.49.33.3A7.4,7.4,0,0,1,110.25,49.92Z" transform="translate(-6.32 -8.51)"/><path class="l" d="M122.47,30.68,119.55,33s-1.86.34-5,.94c-14.43,2.75-56.11,10.7-70,13.38-.26-3.44-.54-6-.54-6a4.76,4.76,0,0,0,3.6.89c.47-.14,50.65-9.71,71.09-13.62l3.54-.67A24,24,0,0,0,122.47,30.68Z" transform="translate(-6.32 -8.51)"/></g></svg>