<svg xmlns="http://www.w3.org/2000/svg" viewBox="0 0 186.01 152.64"><defs><style>.cls-1{isolation:isolate;}.cls-2{fill:#93a18b;}.cls-3{fill:#bec6b9;}.cls-4{fill:#9fae97;}.cls-5{fill:#d9d9d9;mix-blend-mode:multiply;}.cls-6{fill:#4d4a81;}.cls-7{fill:#f9b233;}.cls-8{fill:#f6bbc6;}.cls-9{fill:#303b45;}.cls-10{fill:#5b5b5a;}.cls-11{fill:#353430;}.cls-12{fill:#eaeaea;}.cls-13,.cls-14,.cls-15{fill:none;stroke-miterlimit:10;stroke-width:1.12px;}.cls-13{stroke:#fbc01f;}.cls-14{stroke:#4294ce;}.cls-15{stroke:#fff;}.cls-16{fill:#ebebeb;}.cls-17{fill:#4d4471;}.cls-18{fill:#a9b2bd;}.cls-19{fill:#cecbca;}.cls-20{fill:#f5ad1f;}.cls-21{fill:#fbc01f;}.cls-22{fill:#333;}.cls-23{fill:#4e4d4c;}</style></defs><title>G07_11_01</title><g class="cls-1"><g id="Livello_1" data-name="Livello 1"><polygon class="cls-2" points="185.79 95.14 185.79 100 96.32 152.64 96.32 147.96 185.79 95.14"/><polygon class="cls-3" points="96.32 147.89 96.32 152.64 0.22 96.91 0.22 92.16 96.32 147.89"/><polygon class="cls-4" points="96.1 147.91 0 92.18 0 91.91 90.31 40.01 185.79 95.14 96.25 148 96.1 147.91"/></g><g id="Livello_2" data-name="Livello 2"><ellipse class="cls-5" cx="93" cy="92.16" rx="59.55" ry="30.97"/><path class="cls-6" d="M147.44,27.25c-2.18-1.48-1.71-2.51-2-4.87a8,8,0,0,0-1.55-4c-2.59-3-7.5-1.28-8.71,0A9.64,9.64,0,0,0,133,22.13c-.65,2.29-.34,3.37-2.72,4.51-.82.4-1.69,1.05-1.69,2,0,.72.56,1.34.55,2,0,1.32-1.75,1.9-2.28,3.11-.4.93,0,2-.11,3a8.88,8.88,0,0,1-1,2.52,2.9,2.9,0,0,0-.12,2.62c.6,1,2,1.11,3.13,1s2.37-.46,3.41,0c.84.41,1.39,1.28,2.23,1.68a3.35,3.35,0,0,0,3.36-.57l.23-.2a3.12,3.12,0,0,0,2.65.57c.89-.28,1.56-1.06,2.45-1.33,1.11-.35,1.27-1.86,2.38-1.54s2.26-8.82,2.45-10.12c.1-.71.75-1.24.85-1.95C149,28.54,148.19,27.76,147.44,27.25Z" transform="translate(-6.21 -13.61)"/><circle class="cls-7" cx="135.26" cy="10.22" r="4.88"/><path class="cls-8" d="M123.46,72.8s.68-12.31.38-12.89,4-13.34,4.85-16.26a8.14,8.14,0,0,1,.42-1.16c.3.11.59.23.89.33a7.06,7.06,0,0,1,1.84.81,5,5,0,0,1,1.81,2.66,9,9,0,0,1,.39,2.12c-1.74,2.51-4.47,6.49-4.83,8.49-1,5.35-2.6,13.57-3.7,16.44C125,74.7,123.46,72.8,123.46,72.8Z" transform="translate(-6.21 -13.61)"/><path class="cls-8" d="M168.72,47.07c.43,0-2.25,1.32-7,3.75-3.92,2-6.73,2.66-8.79,1.84S144.15,37,144.15,37l.13-4a5.35,5.35,0,0,1,4.8,2.2c1.92,2.6,5.9,13.53,5.9,13.53l11.55-2.4Z" transform="translate(-6.21 -13.61)"/><path class="cls-9" d="M138.12,106.07a11.55,11.55,0,0,0-.89,3.52c0,1.29.51,1.65.51,1.65a28.59,28.59,0,0,0,3.33.81c.72,0,1.93,1.19,3.67,1.31s4,.65,4.2-.72c.14-.83-2-1.62-4.51-3.33a13.63,13.63,0,0,1-2.88-2.75Z" transform="translate(-6.21 -13.61)"/><path class="cls-9" d="M127.44,109.68s.14,1.24,1.24,1.17a3.56,3.56,0,0,0,2-1.23l-.27,4.38s-.62,6.58-2.54,7.26c-1.37.49-2-1.23-2.2-2.25a3,3,0,0,1,0-1.26Z" transform="translate(-6.21 -13.61)"/><path class="cls-9" d="M131.09,86.93s1.09-16.84.73-18.11-.73-8.15-.73-8.15l15.22-5.61,1.9,1.88s-.09,15,.27,17.32-6.93,32.3-6.93,32.3a2,2,0,0,1-2,1.25c-1.52-.07-1.43-1.2-1.43-1.2s2.38-21.67,2.38-22.76-.18-14.3-.18-14.3-2.17,10.86-2.9,15.57-6.7,24.5-6.7,24.5-.41,1.84-1.78,2-1.64-1.3-1.64-1.3Z" transform="translate(-6.21 -13.61)"/><path class="cls-10" d="M148.61,77.45l-4.93,22.9-5.43,0,1.46-13.64.54-16-2.92,16.68-5.2,18.68-4.7-.87,3.06-19.42s.77-26,.77-27.14,1,.18,1,.18l15-2.74,1.86,4.13Z" transform="translate(-6.21 -13.61)"/><path class="cls-9" d="M138.61,106.14l2.94.42a13.63,13.63,0,0,0,2.88,2.75c.59.4,1.16.75,1.69,1.07a.38.38,0,0,1,0,.15c0,.38-.52.53-.9.56a13.56,13.56,0,0,1-5.46-1.19,2.91,2.91,0,0,1-1.23-.71,2.21,2.21,0,0,1-.42-1.25A2.51,2.51,0,0,1,138.61,106.14Z" transform="translate(-6.21 -13.61)"/><path class="cls-9" d="M129.89,112.82a20.81,20.81,0,0,1-.83,2.57c-.13.32-.31.67-.65.75a.81.81,0,0,1-.78-.32,2.44,2.44,0,0,1-.48-1.37,13.69,13.69,0,0,1,.16-4.38c.14-.66.41-1.41,1.05-1.63a2.12,2.12,0,0,1,1.64.41,1.6,1.6,0,0,1,.67.56c.16.31,0,.62-.1.94C130.34,111.17,130.11,112,129.89,112.82Z" transform="translate(-6.21 -13.61)"/><path class="cls-10" d="M138,34s5.1-1.24,7.57-.62a4.46,4.46,0,0,1,3.49,3.08,52.8,52.8,0,0,1,.85,5.28c.09,3.39-3.25,7.4-3.25,7.4l2.84,10.68s-12.49,4.8-15.55,3.27c-3.27-1.63-3.53-3.48-3.43-4.38.07-.54,2.15-7,2.13-7.52L131,41.89a5.84,5.84,0,0,1,2.43-4.62Z" transform="translate(-6.21 -13.61)"/><path class="cls-8" d="M170.14,46.58a2.21,2.21,0,1,1-2.21-2.22A2.21,2.21,0,0,1,170.14,46.58Z" transform="translate(-6.21 -13.61)"/><path class="cls-8" d="M127.18,74A2.22,2.22,0,1,1,125,71.81,2.21,2.21,0,0,1,127.18,74Z" transform="translate(-6.21 -13.61)"/><path class="cls-10" d="M128.87,43.07c-.07.2-.13.39-.18.58C128.74,43.46,128.8,43.27,128.87,43.07Z" transform="translate(-6.21 -13.61)"/><path class="cls-10" d="M132.4,50.82a4.13,4.13,0,0,0-1.91-2.21,6.58,6.58,0,0,0-1.8-.66c-.3-.1-1.09,0-1.38-.09-.09.19,1.87-5.56,1.8-5.37a10.65,10.65,0,0,1,5.56-5.92c2.31-.91,7.89,2.12,7.89,2.12.6,1.44-7,7.6-7,7.6s-.65.87-1.52,2.12C134,47.69,132.4,50.82,132.4,50.82Z" transform="translate(-6.21 -13.61)"/><path class="cls-10" d="M123.61,73a1.52,1.52,0,0,1-.15-.17Z" transform="translate(-6.21 -13.61)"/><path class="cls-10" d="M144.28,33.06a5.35,5.35,0,0,1,4.8,2.2,10.29,10.29,0,0,1,1.06,1.87c1.2,2.68,2.92,7.34,2.92,7.34l-4.24,2.11-.2-.38c-2.27-4.3-4.47-9.16-4.47-9.16Z" transform="translate(-6.21 -13.61)"/><path class="cls-8" d="M139.76,34s-2.21.61-2.41,1.13,1.43-.5,3.17.78a15.88,15.88,0,0,1,3.24,3.64s1.63-1,1.58-4.37S139.76,34,139.76,34Z" transform="translate(-6.21 -13.61)"/><path class="cls-8" d="M145.66,29.14l-2,6.17h0a3.85,3.85,0,0,1-4.3.44h0a1,1,0,0,1-.47-1.07l1.52-6Z" transform="translate(-6.21 -13.61)"/><polygon class="cls-10" points="136.38 21.8 135.43 24.13 132.29 24.56 130.61 21.39 132.71 19.1 133.18 18.97 133.07 19.59 136.38 21.8"/><polygon class="cls-11" points="136.78 24.89 135.27 24.43 136.38 21.8 136.78 24.89"/><polygon class="cls-10" points="137.47 26.86 140.69 22.5 138.42 18.66 138.07 19.72 137.47 26.86"/><circle class="cls-12" cx="134.62" cy="22.48" r="0.86"/><line class="cls-13" x1="139.13" y1="28.19" x2="142.08" y2="27.64"/><line class="cls-14" x1="139.13" y1="28.19" x2="140.1" y2="28.01"/><line class="cls-15" x1="141.11" y1="27.82" x2="142.08" y2="27.64"/><path class="cls-16" d="M148.76,57l.73,2.76s-9.52,5-15.55,3.27c-3.51-1-3.53-3.48-3.43-4.38a5.84,5.84,0,0,1,.33-1.2s1.11,1.61,4.95,2.14C140.2,60.22,148.76,57,148.76,57Z" transform="translate(-6.21 -13.61)"/><path class="cls-16" d="M146.1,58.81l1-.29s-4.9-15.16-10.58-20.21c-.68-.6-3.33-1.56-4-1a5.41,5.41,0,0,0-.84.91,9.39,9.39,0,0,1,5.58,3C140.83,45.06,146.1,58.81,146.1,58.81Z" transform="translate(-6.21 -13.61)"/><path class="cls-8" d="M149.11,26.27a6,6,0,1,1-6-6A6,6,0,0,1,149.11,26.27Z" transform="translate(-6.21 -13.61)"/><path class="cls-6" d="M148,25.22a1.23,1.23,0,0,0,.83-.91,6,6,0,0,0-11.65,2,6.84,6.84,0,0,0,.05.79,2,2,0,0,0,.81,0c.6-.15,2-.64,1.51-1.37.22.36.24.87,0,2.24C141.69,24.54,145.68,26.08,148,25.22Z" transform="translate(-6.21 -13.61)"/><path class="cls-8" d="M139.69,26.46a1.83,1.83,0,1,1-1.82-1.82A1.82,1.82,0,0,1,139.69,26.46Z" transform="translate(-6.21 -13.61)"/><path class="cls-10" d="M71.79,54.79s-4,16.5-5.62,25.33C65.09,85.86,66,105.8,66,105.8l1.22.14-.09,5.92a3.26,3.26,0,0,0,2.76,1.38c.62,0,1.47-6.75,1.47-6.75l1,0L73.9,85.92s4-19.66,5.4-19.38a5.3,5.3,0,0,0,2.52.35c3.91-.74,9.5-4.17,9.28-8.23-.27-5.25-4.41-5.52-4.41-5.52s-7.18-.56-8-.28S71.79,54.79,71.79,54.79Z" transform="translate(-6.21 -13.61)"/><path class="cls-10" d="M81,60.74s-1.34,18.05.59,21.64c1.3,2.4,9.84,12.31,9.84,12.31l.64-.12,2.24,2.31s3.16.41,2.33-1.8c-.21-.57-1.6-3.27-1.6-3.27l.38-.55L88.33,79.6,91.1,58.66,85,51.2Z" transform="translate(-6.21 -13.61)"/><path class="cls-10" d="M67.33,28.35s1.65-3,4.14-3S90.19,28.93,91.3,30s8.91,15.93,8.91,20.9S98.55,73,98.55,73s-3,.55-3.86-.83S93,53.69,93,53.69s-4.41-16-4.41-15.18S67.33,28.35,67.33,28.35Z" transform="translate(-6.21 -13.61)"/><path class="cls-10" d="M72.06,28.3l16.2,4.49,2.29,4.06s1.38,19.32.55,21.81-9.93,3.58-13.24,3-6.07-6.9-6.07-6.9l-1.7-27.54Z" transform="translate(-6.21 -13.61)"/><path class="cls-10" d="M67.33,28.35s-4.59,8.32-4.86,14.11,1,18.4,1,18.4a3.55,3.55,0,0,0,3.31.28c1.65-.83,1.1-16.28,1.93-18.21s6.07-14.08,6.07-14.08S72.85,25,67.33,28.35Z" transform="translate(-6.21 -13.61)"/><circle class="cls-8" cx="76.28" cy="20.08" r="6.47" transform="translate(1.94 46.21) rotate(-45)"/><path class="cls-8" d="M74.14,22.07l2.2,6.66h0a4.17,4.17,0,0,0,4.64.48l.71-.38-1.84-7.24Z" transform="translate(-6.21 -13.61)"/><path class="cls-9" d="M94.06,96.54s.84,3.4.57,4-1.23,3.77.43,4.08,2.72-1.25,2.9-2.88a30.25,30.25,0,0,0-.74-6.35c0-.16-.55-.32-.55-.32Z" transform="translate(-6.21 -13.61)"/><path class="cls-9" d="M69.28,106.37c-.84-.13-1.11-.26-2.07-.43-.09,3.37-.09,5.92-.09,5.92.22,2.26.93,2.06,2.8,1.48.6-.19.85-3,1.43-6.85A12.6,12.6,0,0,1,69.28,106.37Z" transform="translate(-6.21 -13.61)"/><path class="cls-9" d="M96.62,95.08c-.2-.54-.81-1.75-1.6-3.27a15.54,15.54,0,0,1-1.64,2,4.21,4.21,0,0,1-1.33.71c1.33,1.39,2.24,2.31,2.24,2.31S97.45,97.29,96.62,95.08Z" transform="translate(-6.21 -13.61)"/><path class="cls-9" d="M71.28,116.26c.09-1.18-.82-2.37-.72-3.55a1.09,1.09,0,0,0-.06-.54,1.32,1.32,0,0,1-.89.3,10.22,10.22,0,0,1-2.53-.2c-.06,1.28-2,3.29-2.85,4.23a12.23,12.23,0,0,0-2.41,3,.78.78,0,0,0-.07.66c.12.26.46.32.75.33a7.61,7.61,0,0,0,3.62-1A53.74,53.74,0,0,0,71.28,116.26Z" transform="translate(-6.21 -13.61)"/><path class="cls-8" d="M83.52,20.34c0,1.38-.59,2.51-1.32,2.51s-1.32-1.13-1.32-2.51.59-2.51,1.32-2.51S83.52,19,83.52,20.34Z" transform="translate(-6.21 -13.61)"/><path class="cls-17" d="M76.28,13.61a6.46,6.46,0,0,0-6,4.1,9.21,9.21,0,0,0,4.13.92c.51,0,5.14-.63,4.94-1.44a11.86,11.86,0,0,0,1.14,2.87A2.22,2.22,0,0,1,82.21,18l.17,0A6.46,6.46,0,0,0,76.28,13.61Z" transform="translate(-6.21 -13.61)"/><circle class="cls-8" cx="89.97" cy="59.54" r="2.35"/><circle class="cls-8" cx="59.2" cy="48.88" r="2.35"/><polygon class="cls-10" points="71.54 14.93 72.5 17.25 75.63 17.68 77.31 14.51 75.21 12.22 74.74 12.09 74.85 12.71 71.54 14.93"/><polygon class="cls-11" points="71.14 18.01 72.65 17.55 71.54 14.93 71.14 18.01"/><polygon class="cls-10" points="71.37 16.22 68.23 15.84 68.23 12.68 69.44 13.11 71.37 16.22"/><circle class="cls-12" cx="73.3" cy="15.6" r="0.86"/><line class="cls-13" x1="69.19" y1="22.24" x2="66.24" y2="21.68"/><line class="cls-14" x1="69.19" y1="22.24" x2="68.22" y2="22.05"/><line class="cls-15" x1="67.22" y1="21.87" x2="66.24" y2="21.68"/><path class="cls-16" d="M71.6,51.83l.24,3s9.53,5,15.56,3.26c3.5-1,4-2.33,4-2.59,0-.63.09-3,0-3.36a10.76,10.76,0,0,1-5.83,2.51C81.14,55.24,71.6,51.83,71.6,51.83Z" transform="translate(-6.21 -13.61)"/><path class="cls-16" d="M75.24,53.83l-1-.3s2.3-18.23,8-23.29c.67-.6,3.24-2.14,4.12-1.9a9.19,9.19,0,0,1,2.22.65A9.37,9.37,0,0,0,83,32C79.39,35.82,75.24,53.83,75.24,53.83Z" transform="translate(-6.21 -13.61)"/><ellipse class="cls-18" cx="96.65" cy="141.73" rx="5.67" ry="2.95"/><ellipse class="cls-19" cx="96.9" cy="141.1" rx="3.15" ry="1.64"/><polygon class="cls-19" points="100.05 141.02 93.75 141.1 94 90.52 99.79 90.52 100.05 141.02"/><path class="cls-20" d="M192.22,55.69v8.75l-86.16,51s-1.66.8-1.93,1a4.33,4.33,0,0,1-1.6.4v-8.75a3.79,3.79,0,0,0,2.14-.7c.42-.25,1.33-.73,1.33-.73Z" transform="translate(-6.21 -13.61)"/><path class="cls-21" d="M102.53,108.09v8.75a6.58,6.58,0,0,1-1.31-.38l-1.07-.62L6.43,61.49V52.74l93.76,54.37,1.21.71A4.9,4.9,0,0,0,102.53,108.09Z" transform="translate(-6.21 -13.61)"/><polygon class="cls-22" points="186.01 43.09 186.01 43.83 96.32 96.61 96.32 95.86 186.01 43.09"/><polygon class="cls-23" points="96.32 95.86 96.32 96.61 0.22 40.88 0.22 40.13 96.32 95.86"/><polyline class="cls-23" points="96.32 101.86 96.32 102.61 0.22 46.88 0.22 46.13"/><polygon class="cls-22" points="186.01 49.09 186.01 49.84 96.32 102.61 96.32 101.86 186.01 49.09"/><circle class="cls-18" cx="96.9" cy="87.82" r="4.25"/></g></g></svg>