<svg xmlns="http://www.w3.org/2000/svg" viewBox="0 0 189.13 168.47"><defs><style>.a{fill:#93a18b;}.b{fill:#bec6b9;}.c{fill:#9fae97;}.d{fill:#855815;}.e{fill:#4c9a34;}.ad,.f{fill:#fff;}.f{opacity:0.1;}.g{fill:#77b82a;}.al,.am,.an,.h,.i,.t,.u,.v,.w,.x{fill:none;}.h,.i{stroke:#8e1918;stroke-linecap:round;stroke-linejoin:round;}.i{stroke-dasharray:1.78 1.78;}.j{fill:#5b5b5a;}.k,.q{fill:#303b45;}.l{fill:#f6bbc6;}.m{fill:#4d4471;}.n{fill:#dfe5ee;}.o{fill:#242550;}.p{fill:#ebebeb;}.q{opacity:0.5;}.r{fill:#353430;}.s{fill:#eaeaea;}.al,.t,.v{stroke:#fbc01f;}.al,.am,.an,.t,.u,.v,.w,.x{stroke-miterlimit:10;}.t,.u{stroke-width:1.03px;}.am,.u,.w{stroke:#4294ce;}.v,.w,.x{stroke-width:1.12px;}.an,.x{stroke:#fff;}.y{fill:#d3cf84;}.z{fill:#5f8d2f;}.aa{font-size:16px;fill:#8e1918;font-family:Calibri-Bold, Calibri;font-weight:700;}.ab{letter-spacing:-0.01em;}.ac{fill:#be1823;}.ae{fill:#848383;}.af{fill:#efefef;}.ag{fill:#f5ad1f;}.ah{fill:#fbc01f;}.ai{fill:#333;}.aj{fill:#4e4d4c;}.ak{fill:#4d4a81;}.al,.am,.an{stroke-width:1.06px;}.ao{fill:#9ea6b0;}.ap{fill:#424241;}.aq{fill:#36a9e1;}</style></defs><title>G07_14</title><polygon class="a" points="189.13 106 189.13 110.75 99.66 163.52 99.66 158.78 189.13 106"/><polygon class="b" points="99.66 158.78 99.66 163.52 3.56 107.79 3.56 103.04 99.66 158.78"/><polygon class="c" points="99.44 158.79 3.34 103.06 3.34 102.79 93.64 50.89 189.13 106.02 99.58 158.88 99.44 158.79"/><ellipse class="a" cx="97.59" cy="105.52" rx="45.88" ry="24.09"/><rect class="d" x="105.3" y="41.79" width="4.83" height="36.01"/><path class="e" d="M127.56,41.55c-.8-19.14-16.22-40-16.22-40s-15.42,20.89-16.21,40c-.41,9.84,3.24,25.07,16.21,25.07S128,51.39,127.56,41.55Z" transform="translate(-3.62 -1.52)"/><path class="f" d="M111.34,1.52s-15.42,20.89-16.21,40c-.41,9.84,3.24,25.07,16.21,25.07Z" transform="translate(-3.62 -1.52)"/><polygon class="g" points="104.33 73.35 101.83 78.22 106.84 78.22 104.33 73.35"/><polygon class="g" points="111.59 70.73 109.09 78.22 114.1 78.22 111.59 70.73"/><polygon class="g" points="115.28 74.81 112.78 78.22 117.79 78.22 115.28 74.81"/><polygon class="g" points="108.43 73.61 105.92 78.22 110.93 78.22 108.43 73.61"/><line class="h" x1="63.7" y1="121.7" x2="62.83" y2="122.19"/><line class="i" x1="61.28" y1="123.08" x2="49.69" y2="129.71"/><line class="h" x1="48.91" y1="130.15" x2="48.05" y2="130.65"/><line class="h" x1="50.47" y1="132.01" x2="46.21" y2="129.62"/><line class="h" x1="65.83" y1="122.71" x2="61.57" y2="120.32"/><line class="h" x1="48.05" y1="130.65" x2="38.63" y2="149.56"/><line class="h" x1="3.71" y1="149.56" x2="52.96" y2="149.56"/><line class="h" x1="132.84" y1="121.05" x2="133.71" y2="121.54"/><line class="i" x1="135.25" y1="122.43" x2="146.85" y2="129.06"/><line class="h" x1="147.62" y1="129.5" x2="148.49" y2="130"/><line class="h" x1="146.07" y1="131.36" x2="150.32" y2="128.97"/><line class="h" x1="130.71" y1="122.06" x2="134.97" y2="119.67"/><path class="j" d="M126.72,41.8l-1.4,1.57s-3.67,13.29-3.56,14.42,1.58,1.35,2.48,1,3.38-8.56,3.38-8.56Z" transform="translate(-3.62 -1.52)"/><path class="k" d="M134.33,97.29l-.24-3.21-3.16-1.83.82,5.4s-6.72,4.16-6.54,5.21,1.89.65,3.21.56,3.15-1.54,3.7-1.58a22.19,22.19,0,0,0,2.41-.52,1.76,1.76,0,0,0,.52-1.36,8.88,8.88,0,0,0-.68-2.68Z" transform="translate(-3.62 -1.52)"/><path class="k" d="M142.52,100h0L142,96.53h-2.56L140,100l.21,3.34s.47,5,1.94,5.55,1.7-1.54,1.78-2.25C144.21,103.94,142.52,100,142.52,100Z" transform="translate(-3.62 -1.52)"/><path class="j" d="M139.74,62.62s-.28,5.25-.56,6.22.56,13.83.56,13.83,2.93,13,2.79,13.86-3,1.06-3.53.23-3.55-11.88-4.1-15.47-2.21-11.9-2.21-11.9-.14,10.1-.14,10.93,2,13.6,2,13.6a4,4,0,0,1-1.92.65,1.7,1.7,0,0,1-1.59-.63,4.7,4.7,0,0,1-.83-2s-4-17.14-3.74-18.94-.55-13.83-.55-13.83l2.21-.83Z" transform="translate(-3.62 -1.52)"/><path class="j" d="M134.47,42.22s-4.59-1.48-6.47-1a3.41,3.41,0,0,0-2.67,2.35c-.16.63.63,15.85.63,15.85s8.15,6.75,11.61,5c2.49-1.24,2.69-2.65,2.61-3.34a8.75,8.75,0,0,1-.08-1.25l.45-13.45Z" transform="translate(-3.62 -1.52)"/><path class="j" d="M133.12,42.21s1.68.47,1.84.86-1.09,2.19-2.42,3.17a8.48,8.48,0,0,1-2.19,1.25,7.3,7.3,0,0,1-1.49-4.38C128.9,40.57,133.12,42.21,133.12,42.21Z" transform="translate(-3.62 -1.52)"/><path class="l" d="M125.29,38.8A4.57,4.57,0,1,0,128.12,33,4.57,4.57,0,0,0,125.29,38.8Z" transform="translate(-3.62 -1.52)"/><path class="l" d="M128.61,38.54l1.56,4.71h0a2.94,2.94,0,0,0,3.28.34h0a.72.72,0,0,0,.36-.82l-1.16-4.56Z" transform="translate(-3.62 -1.52)"/><path class="m" d="M125.75,37.51a1.1,1.1,0,0,1-.69-.18l0,0a4.58,4.58,0,0,1,8.9-1.49c.06.19.11.39.15.58a1.63,1.63,0,0,1-.59.19c-.46,0-1.75-.41-1.35-.93-.27.34.78,1.88,0,2.4a8.2,8.2,0,0,1-1.43-2.58A6.74,6.74,0,0,1,125.75,37.51Z" transform="translate(-3.62 -1.52)"/><path class="j" d="M123,60.32h0A2.29,2.29,0,0,0,125.32,58h0A2.28,2.28,0,0,0,123,55.77h0A2.27,2.27,0,0,0,120.77,58h0A2.28,2.28,0,0,0,123,60.32Z" transform="translate(-3.62 -1.52)"/><path class="l" d="M132.13,36.6a1.4,1.4,0,1,0,.87-1.77A1.4,1.4,0,0,0,132.13,36.6Z" transform="translate(-3.62 -1.52)"/><path class="l" d="M119.92,58.48a1.69,1.69,0,1,0,1.69-1.69A1.69,1.69,0,0,0,119.92,58.48Z" transform="translate(-3.62 -1.52)"/><polygon class="n" points="115.44 52.91 120.96 56.27 122.4 57.96 116.82 54.69 115.44 52.91"/><polygon class="o" points="115.44 52.91 115.19 53.23 116.5 55.08 122.23 58.29 122.4 57.96 116.82 54.69 115.44 52.91"/><path class="p" d="M126,60.08l.14,2.22s6.88,3.25,11.28,2c2.56-.76,2.58-2.55,2.5-3.2a4.36,4.36,0,0,0-.23-.88s-.82,1.18-3.62,1.57C132.82,62.18,126,60.08,126,60.08Z" transform="translate(-3.62 -1.52)"/><path class="p" d="M128.51,61.15l-.75-.21s3.57-11.07,7.73-14.76c.49-.44,1.92-2,2.44-1.59.31.25.59.33.75.52A24,24,0,0,0,135,48.35C132.36,51.11,128.51,61.15,128.51,61.15Z" transform="translate(-3.62 -1.52)"/><path class="q" d="M126.75,53.65l9.52,1.91,1.64-8.3.7-.35,1.3.58.19,12.35a8.75,8.75,0,0,0,.08,1.25c.07.57-.07,1.65-1.57,2.72-3.16-1.63-9.52-5.13-12.08-7.74A1.41,1.41,0,0,1,126.75,53.65Z" transform="translate(-3.62 -1.52)"/><path class="j" d="M136,50.94s-.67-2.26.43-2.73c0,0,3.48-2.88,4.12-1.82A18.92,18.92,0,0,1,143,52s1.65,5.73,1.41,7.22-1.8,2.27-5.49.78S126,54.9,126,54.9l.08-1.65,10.83,1.18Z" transform="translate(-3.62 -1.52)"/><path class="l" d="M123.23,53.84a1.69,1.69,0,1,0,1.69-1.69A1.68,1.68,0,0,0,123.23,53.84Z" transform="translate(-3.62 -1.52)"/><path class="l" d="M122.2,55.36l1.22-1.86a.46.46,0,0,1,.65-.14.47.47,0,0,1,.14.65L123,55.88a.46.46,0,0,1-.65.13A.47.47,0,0,1,122.2,55.36Z" transform="translate(-3.62 -1.52)"/><polygon class="j" points="127.45 41.44 128.15 43.14 130.44 43.45 131.77 41.33 130.13 39.47 129.73 39.35 129.78 39.87 127.45 41.44"/><polygon class="r" points="127.16 43.69 128.26 43.36 127.45 41.44 127.16 43.69"/><circle class="s" cx="128.73" cy="41.93" r="0.63"/><line class="t" x1="123.56" y1="45.01" x2="125.62" y2="45.75"/><line class="u" x1="123.56" y1="45.01" x2="124.24" y2="45.25"/><path class="j" d="M29.33,61.79S26.42,73.94,25.2,80.44c-.79,4.22-.13,18.89-.13,18.89l.89.11-.06,4.36a2.38,2.38,0,0,0,2,1c.46,0,1.08-5,1.08-5h.76L30.89,84.7s3-14.46,4-14.26a4,4,0,0,0,1.85.26c2.88-.55,7-3.07,6.84-6.06-.2-3.86-3.25-4.07-3.25-4.07a52.22,52.22,0,0,0-5.89-.2C33.8,60.57,29.33,61.79,29.33,61.79Z" transform="translate(-3.62 -1.52)"/><path class="j" d="M36.1,66.17s-1,13.29.44,15.93c1,1.77,7.23,9.06,7.23,9.06l.48-.09,1.64,1.7s2.33.3,1.72-1.32C47.46,91,46.43,89,46.43,89l.28-.41-5.2-8.58,2-15.41-4.47-5.49Z" transform="translate(-3.62 -1.52)"/><path class="j" d="M26.05,42.33s1.22-2.24,3.05-2.24,13.78,2.66,14.59,3.48S50.25,55.29,50.25,59,49,75.2,49,75.2s-2.24.4-2.85-.61S45,61,45,61,41.72,49.2,41.72,49.81,26.05,42.33,26.05,42.33Z" transform="translate(-3.62 -1.52)"/><path class="j" d="M29.53,42.29,41.46,45.6l1.68,3s1,14.22.41,16-7.31,2.64-9.75,2.23-4.47-5.08-4.47-5.08L28.08,41.52Z" transform="translate(-3.62 -1.52)"/><path class="j" d="M26.05,42.33s-3.38,6.12-3.58,10.39a131.3,131.3,0,0,0,.77,13.54,2.63,2.63,0,0,0,2.44.2c1.21-.61.81-12,1.42-13.4S31.57,42.7,31.57,42.7,30.11,39.89,26.05,42.33Z" transform="translate(-3.62 -1.52)"/><circle class="l" cx="32.64" cy="36.24" r="4.76" transform="translate(-19.69 32.17) rotate(-45)"/><path class="l" d="M31.06,37.7l1.62,4.9h0A3.07,3.07,0,0,0,36.1,43l.52-.28-1.35-5.32Z" transform="translate(-3.62 -1.52)"/><path class="k" d="M45.72,92.52a11,11,0,0,1,.42,3c-.2.48-.9,2.78.32,3s2-.93,2.14-2.13a22.25,22.25,0,0,0-.55-4.67c0-.11-.41-.23-.41-.23Z" transform="translate(-3.62 -1.52)"/><path class="k" d="M27.49,99.76c-.62-.1-.82-.19-1.53-.32-.06,2.48-.06,4.36-.06,4.36.16,1.66.68,1.52,2.06,1.08.44-.13.63-2.18,1.05-5A9.62,9.62,0,0,1,27.49,99.76Z" transform="translate(-3.62 -1.52)"/><path class="k" d="M47.61,91.45c-.15-.4-.59-1.29-1.18-2.41a10.79,10.79,0,0,1-1.2,1.51,3.11,3.11,0,0,1-1,.52l1.64,1.7S48.22,93.07,47.61,91.45Z" transform="translate(-3.62 -1.52)"/><path class="k" d="M29,107c.07-.87-.6-1.74-.53-2.61a.79.79,0,0,0,0-.4.91.91,0,0,1-.66.22,6.81,6.81,0,0,1-1.86-.14c-.05.94-1.45,2.42-2.1,3.11a8.88,8.88,0,0,0-1.77,2.2.45.45,0,0,0,.49.72,5.48,5.48,0,0,0,2.67-.72A37.22,37.22,0,0,0,29,107Z" transform="translate(-3.62 -1.52)"/><path class="l" d="M38,36.43c0,1-.44,1.85-1,1.85s-1-.83-1-1.85.44-1.84,1-1.84S38,35.41,38,36.43Z" transform="translate(-3.62 -1.52)"/><path class="m" d="M32.64,31.48a4.75,4.75,0,0,0-4.43,3,6.79,6.79,0,0,0,3,.68c.38,0,3.78-.47,3.63-1.07a8.48,8.48,0,0,0,.85,2.12A1.61,1.61,0,0,1,37,34.69l.12,0A4.75,4.75,0,0,0,32.64,31.48Z" transform="translate(-3.62 -1.52)"/><circle class="l" cx="43.66" cy="73.77" r="1.73"/><circle class="l" cx="21.01" cy="65.93" r="1.73"/><polygon class="j" points="30.1 40.94 30.8 42.65 33.11 42.97 34.34 40.63 32.8 38.95 32.45 38.85 32.53 39.31 30.1 40.94"/><polygon class="r" points="29.8 43.21 30.92 42.87 30.1 40.94 29.8 43.21"/><polygon class="j" points="29.97 41.89 27.66 41.62 27.66 39.28 28.55 39.6 29.97 41.89"/><circle class="s" cx="31.4" cy="41.44" r="0.64"/><line class="v" x1="28.37" y1="46.32" x2="26.2" y2="45.91"/><line class="w" x1="28.37" y1="46.32" x2="27.65" y2="46.19"/><line class="x" x1="26.91" y1="46.05" x2="26.2" y2="45.91"/><path class="p" d="M29.2,59.61l.17,2.18s7,3.72,11.45,2.41c2.58-.76,2.93-1.72,2.93-1.91,0-.46.06-2.24,0-2.47a7.94,7.94,0,0,1-4.29,1.85C36.21,62.12,29.2,59.61,29.2,59.61Z" transform="translate(-3.62 -1.52)"/><path class="p" d="M31.87,61.08l-.75-.22S32.81,47.44,37,43.72c.49-.44,2.39-1.58,3-1.4a7.17,7.17,0,0,1,1.63.48A6.91,6.91,0,0,0,37.55,45C34.93,47.83,31.87,61.08,31.87,61.08Z" transform="translate(-3.62 -1.52)"/><rect class="d" x="48.86" y="79.4" width="10.52" height="12.15"/><ellipse class="y" cx="54.12" cy="79.4" rx="5.26" ry="2.18"/><polygon class="z" points="49.95 85.1 46.21 92.37 53.69 92.37 49.95 85.1"/><polygon class="z" points="60.79 81.2 57.05 92.37 64.53 92.37 60.79 81.2"/><polygon class="z" points="66.3 87.28 62.56 92.37 70.04 92.37 66.3 87.28"/><polygon class="z" points="56.06 85.49 52.32 92.37 59.8 92.37 56.06 85.49"/><rect class="d" x="163.11" y="103.06" width="5.92" height="6.84"/><ellipse class="y" cx="166.07" cy="103.06" rx="2.96" ry="1.23"/><polygon class="z" points="163.72 106.28 161.62 110.37 165.83 110.37 163.72 106.28"/><polygon class="z" points="169.83 104.08 167.72 110.37 171.94 110.37 169.83 104.08"/><polygon class="z" points="172.93 107.5 170.82 110.37 175.04 110.37 172.93 107.5"/><polygon class="z" points="167.16 106.5 165.06 110.37 169.27 110.37 167.16 106.5"/><text class="aa" transform="translate(3.17 162.89)">100 <tspan class="ab" x="27.95" y="0">m</tspan><tspan x="40.81" y="0">t.</tspan></text><path class="ac" d="M84.25,101.38a4,4,0,0,0-2.63.81,2.12,2.12,0,0,0-1.1,1.77,2,2,0,0,0,1.92,1.41,5,5,0,0,1,1,.16.68.68,0,0,1,.44.87c-.09.32-.3.63-.22.95.12.48.92.83,1.75.88a4.77,4.77,0,0,0,2.3-.47,4.57,4.57,0,0,1,1-.4c1.55-.33,2.9,1.09,4.51.89a3.18,3.18,0,0,0,1.32-.52l2.59-1.5c.58-.34,1.22-.76,1.07-1.23s-1.32-.81-2.28-1c1.69-.69,2.47-2,1.84-3.18a1.15,1.15,0,0,0-.51-.49,3.36,3.36,0,0,0-1.1-.21,11.79,11.79,0,0,0-3.57.11,4.15,4.15,0,0,1-2.09.28c-.22-.07-.38-.18-.59-.25a2.11,2.11,0,0,0-1.14.07c-1.19.35-2.05,1.19-3.38,1.14C85,101.5,84.65,101.41,84.25,101.38Z" transform="translate(-3.62 -1.52)"/><ellipse class="ac" cx="75.29" cy="106.14" rx="1.69" ry="0.98"/><path class="ac" d="M86.54,109.24c.35.2.35.52,0,.72a1.38,1.38,0,0,1-1.25,0,.38.38,0,0,1,0-.72A1.38,1.38,0,0,1,86.54,109.24Z" transform="translate(-3.62 -1.52)"/><path class="ac" d="M87,99.15a.48.48,0,0,1,0,.92,1.74,1.74,0,0,1-1.6,0,.49.49,0,0,1,0-.92A1.74,1.74,0,0,1,87,99.15Z" transform="translate(-3.62 -1.52)"/><path class="ac" d="M93,96.47a.9.9,0,0,1,0,1.69,3.26,3.26,0,0,1-2.92,0,.89.89,0,0,1,0-1.69A3.26,3.26,0,0,1,93,96.47Z" transform="translate(-3.62 -1.52)"/><ellipse class="ac" cx="88.29" cy="107.85" rx="0.53" ry="0.3"/><ellipse class="ac" cx="75.92" cy="103.64" rx="0.93" ry="0.54"/><ellipse class="ac" cx="96.3" cy="101.56" rx="0.93" ry="0.54"/><ellipse class="ac" cx="84.69" cy="107.51" rx="1.36" ry="0.78"/><path class="ad" d="M63.16,98.42a4.21,4.21,0,0,1,2.54-.06l10.2,3s10.76-2.06,11.18-2.21h0l.18-.11.16-.09h0a8.41,8.41,0,0,0,0-.87s-3.33.88-5.12-.43a4.23,4.23,0,0,1-.54-.47A2.16,2.16,0,0,1,81.19,96c-.17-1,.5-2,1.94-2.66a4.4,4.4,0,0,1,.5-.21,8.5,8.5,0,0,1,3.7-.41,8,8,0,0,1,1.89.43,5,5,0,0,1,1.28.66,1.76,1.76,0,0,1,.93,1.91c0,.22,0,.47,0,.87l.68-.34,0,0a1.49,1.49,0,0,0,.21,0h0a2.24,2.24,0,0,1,.23-.06h0l.49-.09,10.6-1.52,6.88-4.85a2.44,2.44,0,0,1,.58-.3,3.89,3.89,0,0,1,2.77.1l0,0c1,.48,1.16,1.35.33,1.94l-7.19,5.07a2.26,2.26,0,0,1-.56.28,2.13,2.13,0,0,1-.45.13l-.22.09a4.1,4.1,0,0,1-.67.17l-7,.13v.87l20,9.59,1,.43,11.23-.77,1.63-.12c1.63-.11,3.11.56,3.31,1.5v0c.14.68-.43,1.32-1.38,1.66a4.47,4.47,0,0,1-1.22.25l-2,.14-12.12.84h-.07a4.34,4.34,0,0,1-.51,0l-.31,0-.26,0-.34-.07-.21,0a3,3,0,0,1-.45-.17h0l-1.74-.79-8.5-4.28v.87l2.42,6.48.38,1,5.29,6.35.87,1c.66.79.17,1.74-1.1,2.2a2.63,2.63,0,0,1-.3.09l0,0a4.16,4.16,0,0,1-4-.81l-.71-.85-5.45-6.54s0,0,0,0a1.38,1.38,0,0,1-.35-.5l-.52-1.39-2.32-6.2-5.15-2.62-3.52-1.8-2.94-1.5c-.14,0-12.16,2.33-12.16,2.33H76.5l-.4.05h-.5l-.27,0a2,2,0,0,1-.24,0l-.37-.08-.1,0-11.19-3.28c-1.3-.37-1.85-1.28-1.23-2l0,0a2.09,2.09,0,0,1,.93-.6Zm-.82-.76h0a3.51,3.51,0,0,0-1.51,1l0,0c-1,1.18-.12,2.63,1.92,3.22l11.19,3.27.21.06a4.63,4.63,0,0,0,.54.11l.34,0h.08l.38,0h.82l.57-.07.22,0c.1,0,8.29-1.57,11.33-2.17l2.28,1.16,3.51,1.79L99,108.52l2.21,5.91.52,1.39a2.13,2.13,0,0,0,.46.69l0,0,5.46,6.55.7.85c1.09,1.3,3.8,1.85,6.05,1.22h.06l.44-.14c2-.71,2.68-2.15,1.67-3.35l-.87-1-5.21-6.25-.34-.9-1.72-4.6,5.34,2.42,1.73.78.12.05c.21.09.42.16.64.23l.3.07h0c.12,0,.28.07.47.1l.36,0h.09l.42,0h.89l12.11-.84,2-.14a6.75,6.75,0,0,0,1.86-.38c1.48-.53,2.31-1.53,2.1-2.53v0c-.3-1.44-2.56-2.46-5-2.29l-1.63.12-10.59.73-.43-.19-17.68-8.45,4.06-.59a5.56,5.56,0,0,0,1.12-.27l.17-.06.5-.16a4.34,4.34,0,0,0,.94-.47L115.51,92a1.72,1.72,0,0,0,.87-1.66A2.29,2.29,0,0,0,115,88.79l0,0a6.36,6.36,0,0,0-4.57-.17,3.93,3.93,0,0,0-1,.49l-6.56,4.63L93.12,95.1a3.47,3.47,0,0,0-1.41-1.83A6.48,6.48,0,0,0,90,92.41a10,10,0,0,0-2.45-.55,11.09,11.09,0,0,0-4.77.53c-.23.09-.45.17-.65.27-1.8.84-2.74,2.13-2.52,3.45a3,3,0,0,0,.75,1.45,5.44,5.44,0,0,0,.71.62,7.9,7.9,0,0,0,1.62.89L76,100.38,66.4,97.56a6.84,6.84,0,0,0-4.06.1Z" transform="translate(-3.62 -1.52)"/><path class="ae" d="M107.8,154.22c0,1.62-2.54,2.94-5.67,2.94s-5.67-1.32-5.67-2.94S99,152,102.13,152,107.8,152.59,107.8,154.22Z" transform="translate(-3.62 -1.52)"/><ellipse class="af" cx="98.55" cy="152.06" rx="3.15" ry="1.64"/><polygon class="af" points="101.7 152.03 95.4 152.12 95.65 117.84 101.44 117.84 101.7 152.03"/><path class="ag" d="M192.75,75.37v8.75l-86.69,51.36s-1.66.8-1.93,1a4.33,4.33,0,0,1-1.6.4v-8.75a3.79,3.79,0,0,0,2.14-.7c.42-.25,1.33-.73,1.33-.73Z" transform="translate(-3.62 -1.52)"/><path class="ah" d="M102.53,128.09v8.75a6.58,6.58,0,0,1-1.31-.38l-1.07-.62L3.62,80.07V71.32l96.57,55.79,1.21.71A4.9,4.9,0,0,0,102.53,128.09Z" transform="translate(-3.62 -1.52)"/><polygon class="ai" points="189.13 74.84 189.13 75.59 98.91 128.69 98.91 127.94 189.13 74.84"/><polygon class="aj" points="98.91 127.94 98.91 128.69 0 71.54 0 70.79 98.91 127.94"/><polyline class="aj" points="98.91 133.95 98.91 134.69 0 77.54 0 76.8"/><polygon class="ai" points="189.13 80.85 189.13 81.59 98.91 134.69 98.91 133.95 189.13 80.85"/><circle class="ae" cx="98.55" cy="117.84" r="4.25"/><path class="ak" d="M91.71,26.63c-1.68-1.14-1.32-1.93-1.55-3.75A6.05,6.05,0,0,0,89,19.79c-2-2.35-5.78-1-6.71,0a7.51,7.51,0,0,0-1.65,2.88c-.49,1.77-.26,2.6-2.09,3.48-.64.31-1.31.81-1.31,1.52,0,.55.43,1,.43,1.58,0,1-1.36,1.46-1.76,2.39-.31.72,0,1.55-.09,2.33A6.81,6.81,0,0,1,75,35.92a2.22,2.22,0,0,0-.09,2,2.37,2.37,0,0,0,2.41.74,4.61,4.61,0,0,1,2.63,0c.65.31,1.07,1,1.72,1.29a2.57,2.57,0,0,0,2.59-.43c.07,0,.12-.11.18-.16a2.37,2.37,0,0,0,2,.43c.69-.21,1.21-.81,1.9-1,.85-.27,1-1.44,1.83-1.19s1.75-6.8,1.89-7.8c.08-.55.58-1,.66-1.51S92.3,27,91.71,26.63Z" transform="translate(-3.62 -1.52)"/><path class="l" d="M95.31,29.89s4.63,8.34,4.42,11.55a3.34,3.34,0,0,1-4.52,3.22c-1.5-.61-6.42-11.46-6.42-11.46l.1-2.91A3.91,3.91,0,0,1,92.4,31.9c1.41,1.91,3.32,7.93,3.32,7.93l-2-10.44Z" transform="translate(-3.62 -1.52)"/><path class="k" d="M84.37,83.82a8.4,8.4,0,0,0-.66,2.58c0,.95.37,1.21.37,1.21a20.84,20.84,0,0,0,2.45.6c.53,0,1.42.87,2.69,1s2.9.47,3.08-.53c.11-.61-1.46-1.19-3.31-2.44a10.1,10.1,0,0,1-2.11-2Z" transform="translate(-3.62 -1.52)"/><path class="k" d="M76.54,86.47s.1.91.9.86A2.63,2.63,0,0,0,79,86.42l-.2,3.22S78.3,94.46,76.89,95c-1,.36-1.45-.9-1.62-1.65a2.09,2.09,0,0,1,0-.93Z" transform="translate(-3.62 -1.52)"/><path class="k" d="M79.21,69.79s.8-12.35.53-13.28-.53-6-.53-6l11.16-4.11s.61,16.94.88,18.67-4.37,19.09-4.37,19.09a1.46,1.46,0,0,1-1.46.92c-1.12,0-1-.88-1-.88s2.71-17.17,2.71-18S86,57,86,57s-1.6,8-2.13,11.42-4.91,18-4.91,18-.3,1.36-1.31,1.51-1.2-1-1.2-1Z" transform="translate(-3.62 -1.52)"/><path class="j" d="M91.54,65.5,88.29,80.32l-3.83-.67,2.06-12L85.74,59,83.79,70.13,80,83.82l-3.45-.64,2.54-14.24.58-12.36a9.3,9.3,0,0,1-.3-7.53c0-.81.71.13.71.13l11-2,.54,3.11Z" transform="translate(-3.62 -1.52)"/><path class="k" d="M84.72,83.87l2.16.31a10.1,10.1,0,0,0,2.11,2c.44.29.86.55,1.24.78a.45.45,0,0,1,0,.11c0,.28-.38.39-.66.41a9.92,9.92,0,0,1-4-.87,2.1,2.1,0,0,1-.89-.52,1.57,1.57,0,0,1-.31-.92A1.84,1.84,0,0,1,84.72,83.87Z" transform="translate(-3.62 -1.52)"/><path class="k" d="M78.33,88.77a17.31,17.31,0,0,1-.6,1.89c-.1.23-.24.49-.48.55a.61.61,0,0,1-.58-.24,1.86,1.86,0,0,1-.35-1,10.19,10.19,0,0,1,.12-3.21c.1-.48.3-1,.77-1.19a1.57,1.57,0,0,1,1.2.3,1.26,1.26,0,0,1,.5.41c.11.23,0,.46-.08.69C78.66,87.56,78.5,88.16,78.33,88.77Z" transform="translate(-3.62 -1.52)"/><path class="j" d="M84.27,31S88,30,89.82,30.49s.34,3.32.49,3.93c0,.1,2.87,3.65,2.9,4.57a3.84,3.84,0,0,1-2.37,3.45l1.87,7.44s-9.17,3.52-11.41,2.4c-2.4-1.2-2.59-2.55-2.51-3.21,0-.4,1.72-3.59,1.7-4l-1.36-8.32a4.32,4.32,0,0,1,1.78-3.39Z" transform="translate(-3.62 -1.52)"/><path class="l" d="M96,28.93a1.62,1.62,0,1,1-1.62-1.62A1.61,1.61,0,0,1,96,28.93Z" transform="translate(-3.62 -1.52)"/><path class="j" d="M88.89,30.29A3.91,3.91,0,0,1,92.4,31.9a7.18,7.18,0,0,1,.78,1.37c.88,2,2.14,5.38,2.14,5.38L92.21,40.2l-.14-.28c-1.67-3.15-3.28-6.72-3.28-6.72Z" transform="translate(-3.62 -1.52)"/><path class="l" d="M85.57,30.94s-1.62.45-1.77.83,1-.36,2.33.57A11.47,11.47,0,0,1,88.5,35s1.2-.77,1.16-3.21S85.57,30.94,85.57,30.94Z" transform="translate(-3.62 -1.52)"/><path class="l" d="M88.61,28.14l.15,3.74-.36.05a2.8,2.8,0,0,1-3.15.33h0c-.28-.15.36-1.45,0-1l.33-3.4Z" transform="translate(-3.62 -1.52)"/><polygon class="j" points="84.02 30.49 83.32 32.19 81.02 32.51 79.79 30.18 81.33 28.5 81.73 28.39 81.67 28.91 84.02 30.49"/><polygon class="r" points="84.31 32.75 83.2 32.41 84.02 30.49 84.31 32.75"/><polygon class="j" points="84.82 34.19 87.18 31 85.52 27.96 85.05 28.13 84.82 34.19"/><circle class="s" cx="82.73" cy="30.98" r="0.63"/><line class="al" x1="86.04" y1="35.17" x2="88.2" y2="34.77"/><line class="am" x1="86.04" y1="35.17" x2="86.75" y2="35.04"/><line class="an" x1="87.49" y1="34.9" x2="88.2" y2="34.77"/><path class="p" d="M92.16,47.86l.55,2s-7,3.7-11.41,2.4c-2.57-.76-2.59-2.55-2.51-3.21a4.36,4.36,0,0,1,.23-.88s.82,1.18,3.64,1.57C85.89,50.21,92.16,47.86,92.16,47.86Z" transform="translate(-3.62 -1.52)"/><path class="p" d="M90.22,49.17,91,49s-3.59-11.12-7.76-14.83c-.49-.43-2.44-1.14-2.95-.72a4.38,4.38,0,0,0-.62.67,6.89,6.89,0,0,1,4.1,2.23C86.35,39.09,90.22,49.17,90.22,49.17Z" transform="translate(-3.62 -1.52)"/><path class="l" d="M92.43,25.31A4.4,4.4,0,1,1,88,20.92,4.39,4.39,0,0,1,92.43,25.31Z" transform="translate(-3.62 -1.52)"/><path class="ak" d="M91.6,24.28a1.07,1.07,0,0,0,.57-.38v0c.85-2.12-2-3.34-4.76-3.12-2.42.19-3.78,2.13-3.78,4.56,0,1.08,1.61.18,1.53.58-.13.6,0,2.33,1,2.29-.63-.73.47-1.81.75-2C88.91,24.6,89.94,24.92,91.6,24.28Z" transform="translate(-3.62 -1.52)"/><path class="l" d="M85.22,25.45a1.06,1.06,0,1,1-2,0,1.06,1.06,0,1,1,2,0Z" transform="translate(-3.62 -1.52)"/><path class="ah" d="M87.42,20.75a3.08,3.08,0,0,1,.75.1A2.41,2.41,0,0,0,87,20.53a2.47,2.47,0,0,0-2.45,2.19A3.11,3.11,0,0,1,87.42,20.75Z" transform="translate(-3.62 -1.52)"/><path class="ao" d="M94.61,32.56H93.1a11,11,0,0,1-2.22-3L90,26.31a9.28,9.28,0,0,1,2.69.16l3.1,1.78a1.21,1.21,0,0,1,.6,1v2.07C96.37,32.28,95.57,32.56,94.61,32.56Z" transform="translate(-3.62 -1.52)"/><path class="ap" d="M92.49,32.4l-3.11-1.78a1.19,1.19,0,0,1-.59-1V27.51a1.19,1.19,0,0,1,1.78-1l3.11,1.78a1.21,1.21,0,0,1,.6,1v2.07A1.2,1.2,0,0,1,92.49,32.4Z" transform="translate(-3.62 -1.52)"/><path class="ao" d="M92.15,32.4,89,30.62a1.2,1.2,0,0,1-.6-1V27.51a1.08,1.08,0,0,1,1.63-1l3.11,1.78a1.39,1.39,0,0,1,.76,1v2.07A1.2,1.2,0,0,1,92.15,32.4Z" transform="translate(-3.62 -1.52)"/><path class="l" d="M92,30.93s-2.17,8.71-2.3,9.16a24.67,24.67,0,0,1-2,4.6c-.14.26-.64,1.28-.82,1.53-.2-.12-1.1.31-1.3.2-.42-.26-2.62-2.49-3-2.85a23.54,23.54,0,0,1-2.67-5.36c0-.53,4.82,1.65,4.89,1.13l.73.86a75.2,75.2,0,0,1,5-10C91.17,29.32,92,30.93,92,30.93Z" transform="translate(-3.62 -1.52)"/><path class="l" d="M89.5,29.46a1.62,1.62,0,1,1,1.23,1.93A1.62,1.62,0,0,1,89.5,29.46Z" transform="translate(-3.62 -1.52)"/><circle class="ao" cx="92.06" cy="28.7" r="1.2"/><circle class="aq" cx="91.95" cy="28.7" r="1"/><path class="j" d="M83.41,51.36c.08-.13.15-.26.22-.39C83.56,51.1,83.49,51.23,83.41,51.36Z" transform="translate(-3.62 -1.52)"/><path class="j" d="M91.89,30.78a1.23,1.23,0,0,1,.08.15Z" transform="translate(-3.62 -1.52)"/><path class="j" d="M85.72,39.62s-5.17,3.9-5.4,4c0,.15-1-4.18-1-4a7.83,7.83,0,0,1,1.09-5.86c1.07-1.47,5.71-1.8,5.71-1.8.95.65-.89,6.85-.89,6.85Z" transform="translate(-3.62 -1.52)"/><path class="p" d="M85.94,37.61a15.61,15.61,0,0,0-2.73-3.48c-.49-.43-2.44-1.14-2.95-.72a4.38,4.38,0,0,0-.62.67,6.89,6.89,0,0,1,4.1,2.23,13.85,13.85,0,0,1,1.68,2.42Z" transform="translate(-3.62 -1.52)"/></svg>