<svg xmlns="http://www.w3.org/2000/svg" viewBox="0 0 185.79 134.34"><defs><style>.cls-1{fill:#93a18b;}.cls-2{fill:#bec6b9;}.cls-3{fill:#9fae97;}.cls-4,.cls-6{fill:#605f5f;}.cls-19,.cls-4{opacity:0.3;}.cls-5{fill:#353634;}.cls-7{fill:#7d7d7d;}.cls-8{fill:#75747a;}.cls-9{isolation:isolate;}.cls-10{fill:#a2a0a0;}.cls-11{fill:#2e2f2f;}.cls-12{fill:#939294;}.cls-13{fill:#acaaab;}.cls-14{fill:#dcdcdc;}.cls-15{fill:#0a0b0b;}.cls-16{fill:#dce5f0;}.cls-17{opacity:0.2;}.cls-18{fill:#a7dcf6;}.cls-20{fill:#fff;}.cls-21{opacity:0.4;}</style></defs><title>G07_11_02</title><g id="Livello_1" data-name="Livello 1"><polygon class="cls-1" points="185.79 76.83 185.79 81.7 96.32 134.34 96.32 129.66 185.79 76.83"/><polygon class="cls-2" points="96.32 129.59 96.32 134.34 0.22 78.61 0.22 73.86 96.32 129.59"/><polygon class="cls-3" points="96.1 129.61 0 73.88 0 73.61 90.31 21.7 185.79 76.83 96.25 129.7 96.1 129.61"/></g><g id="Livello_2" data-name="Livello 2"><path class="cls-4" d="M143.58,94.76,98.75,68.88a5.82,5.82,0,0,0-5.86,0L65.47,84.79a5.85,5.85,0,0,0,0,10.11l2.6,1.5L49.51,107.06a4.11,4.11,0,0,0,.05,7.14l15.78,8.86a4.12,4.12,0,0,0,4.08,0l22.46-12.89,18.44,10.65a5.85,5.85,0,0,0,5.85,0l27.43-15.91A5.84,5.84,0,0,0,143.58,94.76Z" transform="translate(-6.21 -31.91)"/><polygon class="cls-5" points="74.11 20.19 98.33 6.12 98.32 8.65 74.1 22.73 74.11 20.19"/><path class="cls-6" d="M85.16,32.09c-1.57-.55-3.68.31-4.34.58-5.46,2.23-22.09,8.27-22.09,8.27a2.23,2.23,0,0,1,2.22.22L80.32,52.1,104.53,38S90,33.76,85.16,32.09Z" transform="translate(-6.21 -31.91)"/><path class="cls-7" d="M115.52,78.55,115.41,115a2.16,2.16,0,0,1-.9,2l24.21-14.07a2.19,2.19,0,0,0,.91-2l.11-36.42Z" transform="translate(-6.21 -31.91)"/><polygon class="cls-6" points="74.1 22.73 98.32 8.65 130.43 27.19 106.21 41.27 74.1 22.73"/><path class="cls-7" d="M112.42,73.17,136.63,59.1a6.86,6.86,0,0,1,3.11,5.37L115.52,78.55A6.89,6.89,0,0,0,112.42,73.17Z" transform="translate(-6.21 -31.91)"/><path class="cls-8" d="M80.32,52.1v2.54l32.11,18.53a6.89,6.89,0,0,1,3.1,5.38L115.41,115c0,2-1.4,2.78-3.12,1.79L60.82,87a6.85,6.85,0,0,1-3.11-5.38l.11-38.71c0-2,1.4-2.77,3.13-1.78Z" transform="translate(-6.21 -31.91)"/><g class="cls-9"><path class="cls-5" d="M80.28,38.89v2.33a3,3,0,0,1-1.74,2.44,9.34,9.34,0,0,1-8.49,0,3,3,0,0,1-1.77-2.47V38.85a3,3,0,0,0,1.77,2.48,9.37,9.37,0,0,0,8.49,0A3,3,0,0,0,80.28,38.89Z" transform="translate(-6.21 -31.91)"/><path class="cls-7" d="M78.51,36.41c2.35,1.36,2.36,3.56,0,4.92a9.37,9.37,0,0,1-8.49,0c-2.35-1.36-2.37-3.56,0-4.92A9.34,9.34,0,0,1,78.51,36.41Z" transform="translate(-6.21 -31.91)"/></g><path class="cls-6" d="M61,65.24,73.07,59c3.08-1.79,7.35-1.54,12.07,1.18L72.81,67.55C68.1,64.83,64,63.45,61,65.24Z" transform="translate(-6.21 -31.91)"/><path class="cls-8" d="M97.09,100.29l-10.78,7.56c3-1.77,5.23-6.13,5.24-11.48,0-10.76-7.2-24.72-16.57-30.13l10.16-6.11c9.36,5.41,16.93,18.52,16.9,29.28C102,94.76,100.14,98.52,97.09,100.29Z" transform="translate(-6.21 -31.91)"/><g class="cls-9"><path class="cls-5" d="M74.36,65.88C84.09,71.49,92,85.12,91.93,96.3S84,112,74.25,106.38,56.65,87.13,56.69,76,64.63,60.26,74.36,65.88Z" transform="translate(-6.21 -31.91)"/></g><path class="cls-5" d="M103.27,75.39l1.21-.71a2.39,2.39,0,0,1,2.42.24l-1.21.7A2.41,2.41,0,0,0,103.27,75.39Z" transform="translate(-6.21 -31.91)"/><path class="cls-6" d="M109.31,83l-1.21.7a2.39,2.39,0,0,0,1-2.19,7.46,7.46,0,0,0-3.4-5.88l1.21-.7a7.46,7.46,0,0,1,3.4,5.88A2.4,2.4,0,0,1,109.31,83Z" transform="translate(-6.21 -31.91)"/><path class="cls-10" d="M105.69,75.62a7.46,7.46,0,0,1,3.4,5.88c0,2.17-1.54,3-3.42,2a7.46,7.46,0,0,1-3.39-5.88C102.28,75.41,103.81,74.54,105.69,75.62Z" transform="translate(-6.21 -31.91)"/><path class="cls-6" d="M64.32,46.78a9.72,9.72,0,0,1,4.42,7.64c0,2.82-2,3.95-4.45,2.54a9.74,9.74,0,0,1-4.41-7.65C59.89,46.5,61.88,45.37,64.32,46.78Z" transform="translate(-6.21 -31.91)"/><g class="cls-9"><path class="cls-11" d="M79.13,38.46v.4a2.43,2.43,0,0,1-1.41,2,7.56,7.56,0,0,1-6.87,0,2.44,2.44,0,0,1-1.43-2v-.4a2.44,2.44,0,0,0,1.44,2,7.54,7.54,0,0,0,6.86,0A2.41,2.41,0,0,0,79.13,38.46Z" transform="translate(-6.21 -31.91)"/><path class="cls-10" d="M77.7,36.45c1.9,1.1,1.91,2.88,0,4a7.54,7.54,0,0,1-6.86,0c-1.91-1.1-1.91-2.88,0-4A7.6,7.6,0,0,1,77.7,36.45Z" transform="translate(-6.21 -31.91)"/></g><path class="cls-7" d="M120.25,52l-16.44-3.45,0,15L120.23,54a1,1,0,0,0,.56-.78l0-2A1,1,0,0,1,120.25,52Z" transform="translate(-6.21 -31.91)"/><path class="cls-8" d="M84.54,42a1,1,0,0,1-.57-.8l0,12a1,1,0,0,0,.57.79l16.55,9.56,0-12Z" transform="translate(-6.21 -31.91)"/><path class="cls-12" d="M103.81,50.15l0,13.36a2.75,2.75,0,0,1-2.72,0l0-13.35A2.72,2.72,0,0,0,103.81,50.15Z" transform="translate(-6.21 -31.91)"/><path class="cls-10" d="M120.24,50.42a.83.83,0,0,1,0,1.57s-12.46-1.47-16.44-.45a4,4,0,0,1-2.72,0L84.54,42c-.75-.44-.84-1.32,0-1.58,4-1.23,10.87-.82,16.56-.25a6.66,6.66,0,0,1,2.6.7Z" transform="translate(-6.21 -31.91)"/><g class="cls-9"><path class="cls-6" d="M124.63,87.25l0-8.42-1.21-.7,0,8.42a1,1,0,0,0,.4.88l1.21.7A.94.94,0,0,1,124.63,87.25Z" transform="translate(-6.21 -31.91)"/><path class="cls-7" d="M133.06,71.44a1,1,0,0,0-1,.1l-7.33,4.23,1.21.7,7.33-4.23a.94.94,0,0,1,1-.09Z" transform="translate(-6.21 -31.91)"/><path class="cls-13" d="M124.6,78.83l-1.21-.7a3,3,0,0,1,1.37-2.36l1.21.7A3,3,0,0,0,124.6,78.83Z" transform="translate(-6.21 -31.91)"/><path class="cls-12" d="M133.3,72.24c.75-.43,1.36-.09,1.37.78l0,8.42a3,3,0,0,1-1.36,2.36L126,88c-.76.43-1.37.08-1.37-.79l0-8.42A3,3,0,0,1,126,76.47Z" transform="translate(-6.21 -31.91)"/></g><path class="cls-6" d="M43.84,79.71,64,68c2.67-1.55,6.37-1.33,10.45,1L54.29,80.73C50.21,78.37,46.51,78.16,43.84,79.71Z" transform="translate(-6.21 -31.91)"/><path class="cls-8" d="M84.82,103.77,64.64,115.5c2.64-1.53,4.27-4.79,4.28-9.42,0-9.32-6.52-20.67-14.63-25.35L74.47,69c8.11,4.69,14.66,16,14.64,25.35C89.09,99,87.46,102.24,84.82,103.77Z" transform="translate(-6.21 -31.91)"/><ellipse class="cls-8" cx="54.24" cy="97.6" rx="11.99" ry="20.7" transform="translate(-47.91 8.56) rotate(-30.16)"/><ellipse class="cls-5" cx="54.01" cy="97.6" rx="10.32" ry="17.81" transform="matrix(0.86, -0.5, 0.5, 0.86, -47.94, 8.44)"/><path class="cls-14" d="M54,84.48C60.35,88.12,65.45,97,65.43,104.2S60.28,114.37,54,110.73,42.56,98.26,42.58,91,47.74,80.84,54,84.48Z" transform="translate(-6.21 -31.91)"/><path class="cls-12" d="M66.64,104.9c0-8-5.61-17.78-12.59-21.81l-.46-.25c-6.29-2.81-11.19.51-11.22,8,0,8,5.62,17.79,12.6,21.81l.45.25C61.72,115.67,66.62,112.35,66.64,104.9Z" transform="translate(-6.21 -31.91)"/><path class="cls-15" d="M66.64,104.9c0-8-5.61-17.78-12.59-21.81l-.46-.25c-6.29-2.81-11.19.51-11.22,8,0,8,5.62,17.79,12.6,21.81l.45.25C61.72,115.67,66.62,112.35,66.64,104.9Z" transform="translate(-6.21 -31.91)"/><path class="cls-16" d="M66.62,105c0-7.92-5.55-17.58-12.45-21.56l-.45-.25c-6.22-2.77-11.07.51-11.09,7.88,0,7.92,5.55,17.58,12.45,21.56l.45.25C61.75,115.62,66.6,112.34,66.62,105Z" transform="translate(-6.21 -31.91)"/><g class="cls-17"><path class="cls-18" d="M56.35,84.91l-10.11,18.4a30.5,30.5,0,0,0,2,3.08L58.85,87.18A24.07,24.07,0,0,0,56.35,84.91Z" transform="translate(-6.21 -31.91)"/></g><g class="cls-17"><path class="cls-18" d="M60,88.43,49.36,107.72c.34.4.68.78,1,1.15L61,89.66C60.63,89.24,60.3,88.83,60,88.43Z" transform="translate(-6.21 -31.91)"/></g><g class="cls-17"><path class="cls-18" d="M65.36,98l-8.47,15.41a8.71,8.71,0,0,0,3.74.39l5.87-10.68A23.36,23.36,0,0,0,65.36,98Z" transform="translate(-6.21 -31.91)"/></g><g class="cls-19"><path class="cls-20" d="M58.48,99.42a13.71,13.71,0,0,0-6.2-10.74l-.23-.12c-3.1-1.38-5.51.25-5.52,3.92a13.65,13.65,0,0,0,6.2,10.74l.22.12C56.05,104.72,58.47,103.09,58.48,99.42Z" transform="translate(-6.21 -31.91)"/></g><g class="cls-21"><path class="cls-20" d="M60.18,105.17A7.07,7.07,0,0,0,57,99.62l-.12-.06c-1.6-.71-2.85.13-2.85,2a7.05,7.05,0,0,0,3.2,5.54l.12.07C58.93,107.91,60.17,107.07,60.18,105.17Z" transform="translate(-6.21 -31.91)"/></g><path class="cls-5" d="M131.05,92.4c.76-.44,1.37-.08,1.37.78l0,6.85a3,3,0,0,1-1.36,2.35L128.24,104c-.75.44-1.37.09-1.37-.78l0-6.84A3,3,0,0,1,128.21,94Z" transform="translate(-6.21 -31.91)"/><path class="cls-6" d="M132.42,93.18c0-.57-.27-.91-.67-1a1.17,1.17,0,0,1,.14.59l0,6.85a3,3,0,0,1-1.36,2.36l-2.84,1.63a1.18,1.18,0,0,1-.7.18c.22.41.69.51,1.23.19l2.84-1.64a3,3,0,0,0,1.36-2.35Z" transform="translate(-6.21 -31.91)"/><path class="cls-6" d="M104,91.93a1.93,1.93,0,0,1,.89,1.55c0,.57-.4.8-.9.51a2,2,0,0,1-.89-1.55C103.06,91.87,103.46,91.64,104,91.93Z" transform="translate(-6.21 -31.91)"/><path class="cls-6" d="M103.06,94.91a1.35,1.35,0,0,1,.6,1c0,.38-.27.53-.6.34a1.32,1.32,0,0,1-.6-1C102.46,94.88,102.73,94.72,103.06,94.91Z" transform="translate(-6.21 -31.91)"/></g></svg>