<svg xmlns="http://www.w3.org/2000/svg" xmlns:xlink="http://www.w3.org/1999/xlink" viewBox="0 0 145.65 145.65"><defs><style>.a,.f{fill:none;}.a,.c{opacity:0.8;}.b{clip-path:url(#a);}.c{fill:#f5ad1f;}.d{fill:#03afb3;}.e{fill:#38353b;}.f{stroke:#eaeaea;stroke-miterlimit:10;stroke-width:3.92px;}</style><clipPath id="a" transform="translate(-5.13 -5.13)"><circle class="a" cx="77.95" cy="77.95" r="70.87"/></clipPath></defs><title>G07_17_02</title><g class="b"><circle class="c" cx="72.83" cy="72.83" r="70.87"/><path class="d" d="M142.36,33.29a3.33,3.33,0,0,0-4.71,0c-.39.39-1,.09-1.65-.55-3.83-3.8-16.5-16.4-17-17s-.44-1.16-.26-1.34a3.33,3.33,0,0,0-4.71-4.72c-9.9,10-12.49,22.92-13.92,35.56-.05.45-.22.65-.62.69C85,47.41,69.61,48.4,58.65,59.23S46.83,85.55,45.38,100.11a.86.86,0,0,1-.82.64c-12.6,1.43-25.5,4-35.43,13.9a3.33,3.33,0,1,0,4.71,4.72c.31-.32.63-.62.95-.91.48-.44.8-.52,1.48.17,3.46,3.45,17.09,17.06,17.4,17.4a.94.94,0,0,1,0,1.18c-.31.35-.64.69-1,1A3.33,3.33,0,0,0,37.42,143c9.88-9.95,12.47-22.88,13.91-35.5.06-.51.15-.71.63-.76,14.56-1.45,29.92-2.43,40.88-13.27s11.83-26.32,13.27-40.88c0-.4.23-.57.69-.62,12.64-1.44,25.6-4,35.56-13.91A3.34,3.34,0,0,0,142.36,33.29ZM40.87,125a40.41,40.41,0,0,1-2.32,5.25.63.63,0,0,1-1,0L21.88,114.63c-.62-.62-.19-1,.09-1.2a41.17,41.17,0,0,1,5.26-2.29,1.42,1.42,0,0,1,1.4.25c.33.35,9.26,9.26,11.88,11.88A1.27,1.27,0,0,1,40.87,125Zm3.67-16.91c-.31,2.49-.66,4.94-1.11,7.32-.06.32-.28.91-.75.4s-4.68-4.7-6.34-6.36c-.4-.39,0-.78.37-.84,2.34-.44,4.75-.79,7.19-1.09C44.29,107.49,44.59,107.66,44.54,108.11Zm10.64-8.42-2.31.22c-.61.06-.74-.33-.7-.79.07-.75.14-1.51.22-2.26,0-.28.2-.74.74-.18l2.19,2.19C55.74,99.29,55.47,99.66,55.18,99.69Zm16.94-2.61c-2.17.55-4.42,1-6.76,1.37A1.56,1.56,0,0,1,64.07,98c-.43-.41-7.64-7.63-9.89-9.9a1.61,1.61,0,0,1-.51-1.74c.35-2.13.76-4.19,1.26-6.19.19-.75.63-.6,1.07-.23,0,0,15.77,15.81,16.21,16.22A.51.51,0,0,1,72.12,97.08ZM85.49,91a30,30,0,0,1-4.65,2.9,1.11,1.11,0,0,1-1.54-.29l-21-21a1.24,1.24,0,0,1-.21-1.25,29.14,29.14,0,0,1,3-4.78,1,1,0,0,1,1.06-.15S84.94,89.27,85.38,89.73A1,1,0,0,1,85.49,91ZM94,80.1a31.16,31.16,0,0,1-2.58,4.64.91.91,0,0,1-1.43,0c-.6-.61-23.07-23.07-23.07-23.07-.21-.21-.14-.57.2-.81A31.28,31.28,0,0,1,72,58.09a1.47,1.47,0,0,1,1.78.41c.72.68,16,16,19.81,19.81A1.94,1.94,0,0,1,94,80.1Zm4.15-15.94c-.33,2.36-.73,4.65-1.23,6.86-.06.27-.32.68-.8.22L80.86,56c-.52-.53-.08-.76.2-.82,2.09-.47,4.25-.85,6.48-1.18a1.56,1.56,0,0,1,1.7.4l8.39,8.38A2.1,2.1,0,0,1,98.13,64.16Zm1.08-9.42-1.87-1.87,2.06-.2C99.33,53.36,99.27,54.05,99.21,54.74Zm17.58-11.13c-2.33.5-4.76.88-7.21,1.22s-2.66,0-2.34-2.33.71-4.83,1.21-7.15a.44.44,0,0,1,.79-.16c1.9,1.88,7.5,7.46,7.71,7.72A.41.41,0,0,1,116.79,43.61Zm13.63-4.87a37.58,37.58,0,0,1-4.24,2,2.07,2.07,0,0,1-2.08-.35c-.63-.52-9.06-9-12.17-12.16a2.83,2.83,0,0,1-.61-2.47,37.59,37.59,0,0,1,2.08-4.28,1.07,1.07,0,0,1,1.65-.13c3.45,3.43,14.74,14.69,15.5,15.51S130.84,38.51,130.42,38.74Z" transform="translate(-5.13 -5.13)"/><path class="e" d="M44.92,104.83c0-.53.11-1.06.16-1.6s-.44-.61-.7-.58C32.05,104.07,19.87,106.6,10.45,116a1.47,1.47,0,0,0,2.07,2.09c8.06-8.13,19.06-10.87,31.64-12.4A.83.83,0,0,0,44.92,104.83Z" transform="translate(-5.13 -5.13)"/><path class="e" d="M117.47,11a1.47,1.47,0,0,0-2.08,0c-11.15,11.22-12.63,26.34-14.06,41.06C100,66.26,98.67,80.93,89.45,90c-8.61,8.74-22.2,10.42-35.73,11.69l-.3,3,.52-.05c13.59-1.33,27.64-2.7,37.57-12.52s11.21-24,12.54-37.6l.21-2.14c1.47-15.77,3.47-29.61,13.2-39.26A1.47,1.47,0,0,0,117.47,11Z" transform="translate(-5.13 -5.13)"/><path class="e" d="M46.14,110.11C44.54,121.78,41.67,132,34,139.55a1.47,1.47,0,1,0,2.07,2.08c8.83-8.89,11.59-20.23,13.07-31.87l1-9.6c1.3-14,2.71-28.52,11.84-37.52,8.9-9,23.1-10.52,37.06-11.81a1,1,0,0,0,.53-.6c.07-.63.13-1.26.2-1.89,0-.42-.18-.59-.44-.5L97.54,48C84,49.35,69.9,50.72,60,60.54s-11.2,24-12.53,37.57Z" transform="translate(-5.13 -5.13)"/><path class="d" d="M95.57,76.19c.13-.42.26-.84.38-1.26.18-.63.13-1.09-.6-1.82C92.29,70,82.14,59.87,81.51,59.27a1.86,1.86,0,0,0-1.79-.56c-.44.13-.88.26-1.3.4s-.89.57-.18,1.24S90.56,72.67,94.17,76.28C94.82,76.94,95.45,76.57,95.57,76.19Z" transform="translate(-5.13 -5.13)"/><path class="d" d="M98.91,60.63c.11-.77.23-1.54.34-2.31a1.82,1.82,0,0,0-.35-1.26L97.81,56a1,1,0,0,0-1-.27L94.23,56c-.44,0-.36.35-.18.57,0,0,4,4,4.24,4.25A.36.36,0,0,0,98.91,60.63Z" transform="translate(-5.13 -5.13)"/><path class="d" d="M89,88.8l.46-.51c.73-.83.26-1.17-.21-1.7,0,0-20.24-20.3-20.89-20.89s-1.08-.49-1.24-.35c-.41.37-.8.74-1.19,1.13-.19.19-.44.64.2,1.34s21,21,21,21A1.26,1.26,0,0,0,89,88.8Z" transform="translate(-5.13 -5.13)"/><path class="d" d="M59.87,99.62l1.75-.21c.36,0,.61-.61-.07-1.3C60,96.59,57.47,94,56.77,93.34c-1-1-1.15-.3-1.2.08-.06.54-.13,1.09-.19,1.63a2.3,2.3,0,0,0,.54,1.8c.41.5,1.54,1.6,2.26,2.29A2.34,2.34,0,0,0,59.87,99.62Z" transform="translate(-5.13 -5.13)"/><path class="d" d="M76.05,96.27l1.39-.49c.33-.12.86-.51,0-1.35l-17-17c-.44-.47-1.14-.6-1.36,0s-.34.93-.5,1.41A1.7,1.7,0,0,0,59,80.35c.45.53,11.73,11.75,15.19,15.19A2.4,2.4,0,0,0,76.05,96.27Z" transform="translate(-5.13 -5.13)"/><path class="d" d="M135.58,35,119.83,19.19c-.68.8-1.3,1.63-1.89,2.47l15.17,15.16C133.92,36.25,134.75,35.63,135.58,35Z" transform="translate(-5.13 -5.13)"/><path class="d" d="M122.88,41.84l-9.94-9.93c-.36,1.1-.68,2.23-1,3.38l7.53,7.53C120.65,42.52,121.78,42.2,122.88,41.84Z" transform="translate(-5.13 -5.13)"/><path class="d" d="M42.07,120.84q.23-.72.42-1.47a1.39,1.39,0,0,0-.45-1.55c-.52-.57-3.43-3.46-4.87-4.89-.6-.59-1-.75-1.58-.62s-1.27.33-1.9.51-.48.51-.07.91c1.85,1.84,6.81,6.74,7.35,7.36S42,121.19,42.07,120.84Z" transform="translate(-5.13 -5.13)"/><path class="d" d="M36,134.45c.24-.35.48-.71.71-1.08a1.43,1.43,0,0,0-.19-1.52C33.73,129.1,23.7,119,23.12,118.5s-1.23-.54-1.44-.4c-.4.27-.79.55-1.18.84s-.6.62,0,1.24,11.4,11.41,14.3,14.29A.81.81,0,0,0,36,134.45Z" transform="translate(-5.13 -5.13)"/><path class="e" d="M141,34.61a1.46,1.46,0,0,0-2.07,0c-7.3,7.36-17,10.3-28.08,11.93-1.14.16-1.38.35-1.48,1.16,0,.29-.07.58-.1.86-.09.81.27,1.15,1.23,1,11.14-1.52,22-4.4,30.5-12.89A1.46,1.46,0,0,0,141,34.61Z" transform="translate(-5.13 -5.13)"/></g><circle class="f" cx="72.83" cy="72.83" r="70.87"/></svg>