<svg xmlns="http://www.w3.org/2000/svg" viewBox="0 0 185.79 181.4"><defs><style>.a{fill:#93a18b;}.b{fill:#bec6b9;}.c{fill:#9fae97;}.d,.n{fill:#5b5b5a;}.e,.y{fill:#f6bbc6;}.f{fill:#303b45;}.g{fill:#4d4471;}.ab,.h{fill:#353430;}.i{fill:#eaeaea;}.j,.k,.l{fill:none;stroke-miterlimit:10;stroke-width:1.12px;}.j{stroke:#fbc01f;}.k{stroke:#4294ce;}.l{stroke:#fff;}.m{fill:#ebebeb;}.ab,.ac,.ad,.ae,.af,.ag,.ah,.ai,.aj,.ak,.am,.an,.n,.p,.q,.r,.s,.t,.u,.v,.w,.x,.y,.z{fill-rule:evenodd;}.ah,.o{fill:#4d4a81;}.p{fill:#6a6766;}.q{fill:#353230;}.r{fill:#8a8b8c;}.s{fill:#afafb1;}.t{fill:#377d84;}.u{fill:#48abb4;}.v{fill:#ababab;}.w{fill:#969696;}.x{fill:#cdcbcb;}.z{fill:#1f3446;}.aa{fill:#f9b233;}.ac{fill:#808081;}.ad{fill:#36393b;}.ae{fill:#66411d;}.af{fill:#946335;}.ag{fill:#492e16;}.ai{fill:#0a0b0b;}.aj{fill:#1f1f20;}.ak{fill:#2f2f60;}.al{fill:#ef7967;}.am{fill:#f8fcfc;}.an{fill:#e4eced;}.ao{fill:#3c3c3b;}.ap{fill:#4e4d4c;}.aq{fill:#95c11f;}.ar{opacity:0.2;}.as{fill:#fff;}.at{fill:#d9d9d9;}.au{fill:#fcea10;}</style></defs><title>G07_21</title><polygon class="a" points="185.79 123.88 185.79 128.62 96.32 181.4 96.32 176.65 185.79 123.88"/><polygon class="b" points="96.32 176.65 96.32 181.4 0.22 125.67 0.22 120.92 96.32 176.65"/><polygon class="c" points="96.1 176.67 0 120.94 0 120.67 90.31 68.77 185.79 123.89 96.25 176.76 96.1 176.67"/><ellipse class="a" cx="90.23" cy="121.17" rx="65.41" ry="34.02"/><path class="d" d="M79.91,47s-1,14.81-.85,24.05c.11,8.49,5.36,25.23,5.36,25.23l1.25.15-.1,6.08a3.34,3.34,0,0,0,2.84,1.42c.64,0,1.52-6.93,1.52-6.93l1,0L88.33,73.87s0-14.67,1.44-14.39c.32.06-.71.17.45,0,4-.77,9.77-4.29,9.55-8.47-.28-5.39-4.54-5.67-4.54-5.67S87.86,44.72,87,45,79.91,47,79.91,47Z" transform="translate(-6.21 -4.5)"/><path class="d" d="M89.36,53S90.8,74.1,92.79,77.79C94.12,80.26,97.47,97,97.47,97h1l.46,3s4.48,2.27,3.63,0a23.33,23.33,0,0,1-.2-3.64l1.36-.81-3-22.81-1-22-6.24-7.66Z" transform="translate(-6.21 -4.5)"/><path class="d" d="M75.33,19.66s1.7-3.12,4.26-3.12S98.83,20.25,100,21.39s9.16,16.37,9.16,21.48-1.7,22.69-1.7,22.69-3.12.57-4-.85-1.7-19-1.7-19-4.54-16.45-4.54-15.6S75.33,19.66,75.33,19.66Z" transform="translate(-6.21 -4.5)"/><path class="d" d="M80.2,19.6l16.65,4.62L99.2,28.4s1.42,19.86.57,22.41S89.56,54.5,86.15,53.93s-6.24-7.09-6.24-7.09L78.17,18.52Z" transform="translate(-6.21 -4.5)"/><path class="d" d="M75.33,19.66s-4.71,8.55-5,14.51S71.4,53.08,71.4,53.08a3.68,3.68,0,0,0,3.41.28c1.7-.85,1.13-16.73,2-18.72S83,20.17,83,20.17,81,16.25,75.33,19.66Z" transform="translate(-6.21 -4.5)"/><circle class="e" cx="84.53" cy="11.16" r="6.65" transform="translate(10.66 58.54) rotate(-45)"/><path class="e" d="M82.33,13.2,84.6,20h0a4.26,4.26,0,0,0,4.77.5l.72-.39L88.2,12.71Z" transform="translate(-6.21 -4.5)"/><path class="f" d="M87.82,96.9c-.87-.14-1.14-.27-2.13-.45-.09,3.47-.09,6.09-.09,6.09.22,2.32,1,2.12,2.88,1.52.62-.19.88-3.06,1.47-7A13.32,13.32,0,0,1,87.82,96.9Z" transform="translate(-6.21 -4.5)"/><path class="f" d="M89.88,107.06c.09-1.22-.84-2.43-.75-3.65a1,1,0,0,0,0-.55,1.34,1.34,0,0,1-.92.3,9.86,9.86,0,0,1-2.6-.2c-.06,1.32-2,3.39-2.93,4.35a12.44,12.44,0,0,0-2.47,3.06.81.81,0,0,0-.08.69c.13.26.47.32.77.33a7.74,7.74,0,0,0,3.72-1A53.67,53.67,0,0,0,89.88,107.06Z" transform="translate(-6.21 -4.5)"/><path class="e" d="M92,11.42c0,1.43-.6,2.58-1.35,2.58s-1.36-1.15-1.36-2.58.61-2.58,1.36-2.58S92,10,92,11.42Z" transform="translate(-6.21 -4.5)"/><path class="g" d="M84.53,4.5a6.67,6.67,0,0,0-6.19,4.22,9.48,9.48,0,0,0,4.25.95c.53,0,5.28-.65,5.08-1.48a11.72,11.72,0,0,0,1.17,3A2.27,2.27,0,0,1,90.63,9l.17,0A6.64,6.64,0,0,0,84.53,4.5Z" transform="translate(-6.21 -4.5)"/><circle class="e" cx="98.78" cy="61.2" r="2.42"/><circle class="e" cx="67.14" cy="50.25" r="2.42"/><polygon class="d" points="79.83 15.34 80.82 17.73 84.04 18.17 85.77 14.91 83.61 12.56 83.13 12.43 83.24 13.06 79.83 15.34"/><polygon class="h" points="79.42 18.51 80.98 18.04 79.83 15.34 79.42 18.51"/><polygon class="d" points="79.66 16.68 76.43 16.29 76.43 13.03 77.67 13.47 79.66 16.68"/><circle class="i" cx="81.65" cy="16.04" r="0.89"/><line class="j" x1="77.42" y1="22.86" x2="74.39" y2="22.29"/><line class="k" x1="77.42" y1="22.86" x2="76.42" y2="22.67"/><line class="l" x1="75.39" y1="22.48" x2="74.39" y2="22.29"/><path class="m" d="M79.72,43.79,80,46.84S89.76,52,96,50.2c3.6-1.06,4.08-2.4,4.08-2.67,0-.64.1-3.12,0-3.45a11,11,0,0,1-6,2.59C89.53,47.3,79.72,43.79,79.72,43.79Z" transform="translate(-6.21 -4.5)"/><path class="m" d="M83.46,45.85l-1.06-.31S84.77,26.8,90.62,21.6c.69-.61,3.33-2.2,4.23-2a9.35,9.35,0,0,1,2.28.68,9.6,9.6,0,0,0-5.73,3.12C87.73,27.34,83.46,45.85,83.46,45.85Z" transform="translate(-6.21 -4.5)"/><path class="f" d="M100.72,96.57c-.67,0-1.52.66-2.3.62.58,3.42,1.07,6,1.07,6,.6,2.25,1.73,1.2,3.06.33.43-.27.09-3.13-.2-7.12A8,8,0,0,1,100.72,96.57Z" transform="translate(-6.21 -4.5)"/><path class="f" d="M98.22,108.65c-.51.94,1.38,3.16,2.37,3.55a2.34,2.34,0,0,0,1.31-.32,8.68,8.68,0,0,0,2.78-2.39c.33-.59.13-1.12,0-1.79a23,23,0,0,0-1.4-3.38,23.27,23.27,0,0,1-.76-3.42H99.07S99.7,105.88,98.22,108.65Z" transform="translate(-6.21 -4.5)"/><path class="n" d="M127.86,63.38c-1.89,1.11-3.62,1.59-5.45,2.81l0,2.42c2-1.75,3.55-2.17,5.8-3.6Z" transform="translate(-6.21 -4.5)"/><path class="n" d="M122.59,62.7a12.9,12.9,0,0,0-.12,3.53c-.64.39-1.25,1-1.91,1.32a30.27,30.27,0,0,1,.85-4.46Z" transform="translate(-6.21 -4.5)"/><path class="o" d="M118.47,58c0,.71.51,1.36.48,2.07-.06,1.31-.63,10.51.52,10.4s1,1.41,2,2c.83.44,1.34,1.33,2.16,1.77a3.08,3.08,0,0,0,2.71-.07c.07.08.12.17.19.25a3.36,3.36,0,0,0,3.2,1.18c.9-.24,1.6-1,2.5-1.23,1.12-.3,2.26.23,3.36.59s2.48.51,3.25-.35a2.9,2.9,0,0,0,.37-2.59,8.87,8.87,0,0,1-.5-2.67c.07-1,.67-2,.45-3-.29-1.28-1.9-2.18-1.66-3.47.13-.7.79-1.21.92-1.91.18-.9-.56-1.7-1.3-2.25-2.12-1.56-1.62-2.56-1.82-4.94a9.66,9.66,0,0,0-1.4-4.06c-.95-1.51-5.45-4.15-8.55-1.64a7.84,7.84,0,0,0-2.27,3.64c-.74,2.27-.47,3.36-2.89,4.41C119.4,56.45,118.51,57.06,118.47,58Z" transform="translate(-6.21 -4.5)"/><polygon class="p" points="109.28 83.39 109.6 90.23 109.26 99.74 107.45 98.7 107.47 82.34 109.28 83.39"/><polygon class="q" points="109.28 83.39 111.05 82.36 111.03 98.71 109.26 99.74 109.28 83.39"/><polygon class="r" points="124.04 91.95 124.36 98.79 124.02 117.05 122.21 116 122.23 90.9 124.04 91.95"/><polygon class="s" points="124.04 91.95 125.81 90.92 125.79 116.02 124.02 117.05 124.04 91.95"/><polygon class="r" points="98.12 89.92 98.44 96.76 98.1 115.02 96.29 113.98 96.31 88.88 98.12 89.92"/><polygon class="s" points="98.12 89.92 99.89 88.89 99.87 113.99 98.1 115.02 98.12 89.92"/><polygon class="r" points="112.88 98.48 113.2 105.32 112.86 123.58 111.05 122.54 111.07 97.43 112.88 98.48"/><polygon class="s" points="112.88 98.48 114.65 97.45 114.63 122.55 112.86 123.58 112.88 98.48"/><polygon class="t" points="111.06 99.08 109.62 98.25 109.61 97.14 111.06 97.97 111.06 99.08"/><path class="r" d="M133.79,90.36a4.53,4.53,0,0,0,0-.52L132.38,89a4.44,4.44,0,0,1,0,.62.29.29,0,0,1,0,.09,4,4,0,0,1-.13.58s0,0,0,.06a5.33,5.33,0,0,1-.23.63h0c-.09.21-.2.42-.31.63h0c-.12.2-.24.39-.38.58l0,.05-.39.47-.09.09a3.28,3.28,0,0,1-.34.31l-.15.14a5.05,5.05,0,0,1-.5.35l1.43.84a4.2,4.2,0,0,0,.51-.35l.15-.14.24-.2a.52.52,0,0,1,.1-.11l.09-.1.1-.1.21-.27.08-.1,0,0,.07-.09.16-.23c0-.08.09-.15.14-.23v0c0-.06.07-.12.1-.19l.12-.22.09-.21h0v0a2.44,2.44,0,0,0,.1-.24,2.5,2.5,0,0,0,.09-.25.5.5,0,0,0,0-.13s0,0,0-.05l0-.09c0-.1,0-.21.07-.31l0-.18s0-.07,0-.1A.29.29,0,0,1,133.79,90.36Z" transform="translate(-6.21 -4.5)"/><polygon class="r" points="127.61 85.34 126.17 84.5 126.13 69.52 127.57 70.36 127.61 85.34"/><polygon class="u" points="127.57 70.36 126.13 69.52 127.09 68.96 128.53 69.8 127.57 70.36"/><polygon class="u" points="123.51 89.12 109.61 97.14 111.06 97.97 124.95 89.95 123.51 89.12"/><path class="s" d="M134.74,74.3l-1,.56,0,15a5.91,5.91,0,0,1-2.67,4.62l-13.89,8v1.1l13.89-8a8,8,0,0,0,3.62-6.28Z" transform="translate(-6.21 -4.5)"/><path class="r" d="M121.38,83.78a4.67,4.67,0,0,0,0-.52L120,82.42a4.18,4.18,0,0,1,0,.61s0,.07,0,.1c0,.19-.08.39-.14.58,0,0,0,0,0,.06q-.11.32-.24.63h0c-.1.21-.2.42-.32.62v0a5.57,5.57,0,0,1-.37.57l0,0a4.42,4.42,0,0,1-.39.47l-.09.1-.33.31-.16.14a4.1,4.1,0,0,1-.5.35l1.44.83a4,4,0,0,0,.5-.34,1.07,1.07,0,0,1,.16-.14l.23-.21.1-.1.09-.1.1-.11.22-.26.07-.1,0-.05.07-.09.15-.24.14-.22v0l.11-.19c0-.07.07-.15.11-.23s.07-.13.1-.2v0h0l.1-.24.09-.25,0-.13,0,0,0-.09c0-.11.05-.21.07-.31a1.16,1.16,0,0,0,0-.18s0-.07,0-.1S121.37,83.81,121.38,83.78Z" transform="translate(-6.21 -4.5)"/><polygon class="r" points="115.2 78.76 113.77 77.92 113.72 62.94 115.16 63.77 115.2 78.76"/><polygon class="u" points="115.16 63.77 113.72 62.94 114.69 62.38 116.13 63.22 115.16 63.77"/><polygon class="u" points="111.1 82.53 97.21 90.56 98.65 91.39 112.54 83.37 111.1 82.53"/><path class="s" d="M122.34,67.72l-1,.55,0,15a5.87,5.87,0,0,1-2.66,4.61l-13.89,8V97l13.89-8a8,8,0,0,0,3.63-6.28Z" transform="translate(-6.21 -4.5)"/><path class="v" d="M133.33,95.7a.55.55,0,0,1,0,.17v0a.65.65,0,0,1-.09.16l0,0a.87.87,0,0,1-.13.15.5.5,0,0,1-.12.08.39.39,0,0,1-.1.08l-13.48,7.83v2.15l13.47-7.82,0,0,.09-.06.11-.09h0l.11-.11,0,0s0,0,0,0l0,0a.42.42,0,0,0,0-.1h0v0a.14.14,0,0,0,0-.06.38.38,0,0,0,0-.1v0h0Z" transform="translate(-6.21 -4.5)"/><path class="w" d="M118.84,104.42l-.08,0a3.81,3.81,0,0,1-.59.07h0a4.2,4.2,0,0,1-.62-.07h0a2.17,2.17,0,0,1-.56-.21l-15.62-9a.86.86,0,0,1-.5-.7v2.15a.87.87,0,0,0,.5.71l15.62,9a1.15,1.15,0,0,0,.25.12l.21.07.1,0h0l0,0,.17,0,.17,0h.53l.22,0,.1,0,.08,0,.15,0a1.76,1.76,0,0,0,.37-.17v-2.15A2,2,0,0,1,118.84,104.42Z" transform="translate(-6.21 -4.5)"/><path class="x" d="M132.83,95a.74.74,0,0,1,0,1.4l-13.48,7.83a2.69,2.69,0,0,1-2.41,0l-15.62-9a.74.74,0,0,1,0-1.4L114.79,86a2.71,2.71,0,0,1,2.42,0Z" transform="translate(-6.21 -4.5)"/><path class="v" d="M136.07,77.45l0,8.39a2,2,0,0,1,0,.26h0a1,1,0,0,1-.07.21h0a1.27,1.27,0,0,1-.07.12.8.8,0,0,1-.19.18l1.86-1.09a.47.47,0,0,0,.19-.18s0,0,0,0a.35.35,0,0,0,.05-.08h0l0-.06s0-.05,0-.07,0,0,0-.06v0h0v0a.13.13,0,0,1,0-.06v-.05s0,0,0-.06v-.06h0l0-8.39Z" transform="translate(-6.21 -4.5)"/><path class="x" d="M135.33,75.74h0l.21.25h0c.06.09.12.18.17.27h0c.05.09.1.19.14.28h0a1.72,1.72,0,0,1,.11.29h0a1.63,1.63,0,0,1,.07.3h0a1.5,1.5,0,0,1,0,.29l1.86-1.08v-.12s0,0,0,0v-.12h0a141911696546.41,141911696546.41,0,0,0,0-.12l0-.06s0,0,0-.07a.43.43,0,0,1,0,0h0a.14.14,0,0,0,0-.06l0-.06a.14.14,0,0,0,0-.06s0,0,0-.06,0,0,0,0h0l0-.06s0,0,0-.06l0-.08a.25.25,0,0,1,0-.07v0h0l-.09-.15-.08-.1h0a.18.18,0,0,1-.05-.07l0,0-.05-.06,0,0h0l0,0-.06-.05a.12.12,0,0,0,0,0l-.05,0,0,0h0a.1.1,0,0,0-.05,0l0,0a.1.1,0,0,1-.05,0l0,0h0l-15.61-9,0,0,0,0,0,0,0,0-.05,0h0l0,0h-.35l-.08,0-.1.05-1.86,1.08.17-.07h.21l.23,0h0l.25.11,15.61,9a1.77,1.77,0,0,1,.24.17h0A2.13,2.13,0,0,1,135.33,75.74Z" transform="translate(-6.21 -4.5)"/><path class="w" d="M134.86,75.36l-15.61-9c-.67-.38-1.22-.07-1.22.7l0,8.39a2.67,2.67,0,0,0,1.2,2.09l15.62,9c.67.39,1.21.08,1.21-.69l0-8.39A2.68,2.68,0,0,0,134.86,75.36Z" transform="translate(-6.21 -4.5)"/><path class="n" d="M128.57,65.16c3.35,1.93,5.19,4,4.1,4.65s-4.69-.43-8-2.36-5.18-4-4.09-4.65S125.22,63.23,128.57,65.16Z" transform="translate(-6.21 -4.5)"/><path class="y" d="M128.58,57.64c-.28,1-1.48,3.32-.64,6.09l-6.17,3.16.51-2.58a11.63,11.63,0,0,0,.75-5.62Z" transform="translate(-6.21 -4.5)"/><path class="n" d="M128,63c.2.56-.12,1.3.12,1.74.59,1.12,1.89,1.68,3,2.5,2.84,2.13.11,7.45-1.75,11a12.91,12.91,0,0,0-1.5,4.86,4.55,4.55,0,0,0,.13,2.4c4.73,12.37-10.12,19.94-12.58,11.16-.7-2.5-.31-6.07,2.06-11.46.82-1.85.31-3.23.33-4.16s-.66-2.24-1.16-4.29a7,7,0,0,1-.9-4.43c.25-1.77,1.52-3.8,2.58-6a11.78,11.78,0,0,1,1.72-3c.49-.49,1.65-.4,2.59-.63a9.26,9.26,0,0,0,.07,3.18C123.36,65.41,126.5,64,128,63Z" transform="translate(-6.21 -4.5)"/><path class="y" d="M100.41,99.57c-.85,5.63-.7,11.26-1.24,17.1l2.3,2.74c2.15-8.67,4.56-13.27,4.9-18.33.19-3,.36-4.84.55-6.28C107.43,89.75,101.05,95.31,100.41,99.57Z" transform="translate(-6.21 -4.5)"/><path class="y" d="M106,96.56c-.37,2.66.17,4.06-.13,6-.85,5.63-.7,11.25-1.23,17.1l2.3,2.74c2.14-8.67,4.56-13.27,4.89-18.34.18-2.67.33-4.48.5-5.86C114,85.64,106.62,91,106,96.56Z" transform="translate(-6.21 -4.5)"/><path class="n" d="M129.41,92c-.18,2.39-.86,5.19-2.77,6.73-3.37,2.7-9.83,1.86-14.81,5.58-4.5-2-9.88-4.94-12.13-6.72.6-1.47,1.1-2.93,2.6-3.82,2.54-1.52,12-7.11,14.43-7.36a8.73,8.73,0,0,0,.58-1l-.07-.06c1.18-2.67,0-5.89-.65-8.49a7.69,7.69,0,0,1-1-4.64c.24-1.76,1.38-3.81,2.44-6A13.81,13.81,0,0,1,120.25,63a2.46,2.46,0,0,1,1.56-.39c-.92.88-2.06,4.47-2.18,7.05,2.87-1.13,6.69-3.22,8-4.63.32-.34.41,0,.63-.23,1.37,1,1.61,1.49,2.79,2.37a3.2,3.2,0,0,1,.73.79,1.84,1.84,0,0,0-2.3-.4c-2.24.81-2.6,4.3-2.46,7.34.09,2.08.72,3.55,2.46,3.63-.85,2-1.52,3.83-1.32,5,.39,2.39,1.57,4.7,1.27,8.39C129.44,92,129.43,92,129.41,92Z" transform="translate(-6.21 -4.5)"/><path class="z" d="M107.91,99.64c3.32,1.91,5.13,4,4.06,4.6s-4.64-.42-8-2.34-5.13-4-4.06-4.6S104.59,97.72,107.91,99.64Z" transform="translate(-6.21 -4.5)"/><circle class="aa" cx="120.54" cy="49.33" r="4.88"/><path class="e" d="M118.78,54.81a6,6,0,1,0,7-4.77A6,6,0,0,0,118.78,54.81Z" transform="translate(-6.21 -4.5)"/><path class="o" d="M120.12,54a1.19,1.19,0,0,1-.65-1A6,6,0,0,1,130.56,57a4.73,4.73,0,0,1-.21.76,2,2,0,0,1-.78-.17c-.56-.26-1.81-1-1.24-1.63-.28.31-.39.81-.41,2.2C126.39,54.49,122.19,55.26,120.12,54Z" transform="translate(-6.21 -4.5)"/><path class="e" d="M128,56.75a1.83,1.83,0,1,0,2.13-1.45A1.83,1.83,0,0,0,128,56.75Z" transform="translate(-6.21 -4.5)"/><path class="f" d="M107.07,118.76a11.55,11.55,0,0,1,.89,3.51c0,1.3-.51,1.65-.51,1.65a28.2,28.2,0,0,1-3.33.82c-.72,0-1.93,1.19-3.67,1.31s-4,.65-4.2-.72c-.15-.83,2-1.62,4.51-3.33a13.63,13.63,0,0,0,2.88-2.75Z" transform="translate(-6.21 -4.5)"/><path class="f" d="M106.38,113.07c.38,3.53.68,6.23.68,6.23s.09,1.13-1.43,1.2a2,2,0,0,1-2-1.25s-.62-2.55-1.49-6.21Z" transform="translate(-6.21 -4.5)"/><path class="f" d="M111.28,115.31c.38,3.53.77,6.27.77,6.27s0,1.09-1.51,1.16a1.75,1.75,0,0,1-1.8-1.43s-.82-2.37-1.68-6Z" transform="translate(-6.21 -4.5)"/><path class="f" d="M112,121.38s-.14,1.23-1.23,1.16a3.56,3.56,0,0,1-2.06-1.23s.41,1-.54,4.2c-.53,1.79-1.57,6.76.35,7.44,1.37.49,3.28-1.11,3.51-2.13.09-.41.49-4.89.43-5.31C112.28,124.07,112,121.38,112,121.38Z" transform="translate(-6.21 -4.5)"/><path class="ab" d="M127.67,63.64c-1.89,1.11-3.1,1-4.93,2.18l-.57,3.05c2.09-1.43,4-2.44,6.12-4Z" transform="translate(-6.21 -4.5)"/><path class="ab" d="M122.4,63c-.12.61.19,1.15.34,2.86-.63.39-1.72,1.63-2.37,2a18.39,18.39,0,0,1,1.31-5.14Z" transform="translate(-6.21 -4.5)"/><path class="n" d="M128.13,63c-1.89,1.12-3.62,1.59-5.45,2.81l-.05,2.43c2-1.75,3.55-2.17,5.8-3.6Z" transform="translate(-6.21 -4.5)"/><path class="n" d="M122.86,62.29a13.27,13.27,0,0,0-.12,3.53c-.63.39-1.25,1-1.91,1.31a31.9,31.9,0,0,1,.85-4.46Z" transform="translate(-6.21 -4.5)"/><circle class="i" cx="117.48" cy="61.83" r="0.68"/><ellipse class="i" cx="121.76" cy="65.58" rx="0.68" ry="0.52" transform="translate(-14.45 108.27) rotate(-48.26)"/><path class="m" d="M118.29,87.28l-1-.3s4.89-15.16,10.58-20.21c.67-.6,1.83-1.16,2.53-.59a6.81,6.81,0,0,1,.9.76s-1.48,0-4.14,2.79C123.56,73.52,118.29,87.28,118.29,87.28Z" transform="translate(-6.21 -4.5)"/><path class="m" d="M129.29,87.54s-1.22-.34-2.25-.5c-2.65-.41-10.47-.59-10.47-.59l.88-3.23s7,1,9.39,1a6.85,6.85,0,0,0,1.63-.16Z" transform="translate(-6.21 -4.5)"/><polygon class="s" points="48.82 84.92 51.11 83.58 51.05 109.47 48.76 110.81 48.82 84.92"/><polygon class="r" points="48.82 84.92 48.76 110.81 46.52 109.51 46.58 83.62 48.82 84.92"/><polygon class="ac" points="140.66 101.95 142.96 100.62 142.9 126.51 140.6 127.84 140.66 101.95"/><polygon class="ad" points="140.66 101.95 140.6 127.84 138.36 126.55 138.42 100.66 140.66 101.95"/><polygon class="ac" points="109.35 117.39 111.65 116.05 111.59 144.44 109.29 145.78 109.35 117.39"/><polygon class="ad" points="109.35 117.39 109.29 145.78 107.05 144.49 107.11 116.1 109.35 117.39"/><polygon class="ae" points="111.77 121.24 148.73 100.47 148.71 104.83 112.25 126.02 111.77 121.24"/><path class="af" d="M154.94,105l-36.46,21.19L50.37,86.84,86.82,65.66Z" transform="translate(-6.21 -4.5)"/><path class="ag" d="M118.48,126.16l0,4.36Q84.4,110.87,50.35,91.2l0-4.36h0Z" transform="translate(-6.21 -4.5)"/><path class="ah" d="M66.35,125.84c4.12-.94,7.28-5.3,12.07-8.72L82.66,115c.28-4.39,0-5.8-2.07-6.5-3.83-1.32-10.39,2.12-15.4,4.57Z" transform="translate(-6.21 -4.5)"/><path class="ai" d="M76,135l-3.07,2.34c0,2.82,0,4.21,1.13,4.94,1.33.9,3.57.18,4.93-.44l.36-1.1c1.31-.18,1,.21,2.43-.57,2.36-1.31,5.84-3.34,6.3-5.68.12-.6-.34-1.69-1-1.58l-6.85,1.19Z" transform="translate(-6.21 -4.5)"/><path class="ah" d="M71.55,116.72l1.11,21.57h0a.39.39,0,0,0,.2.42c.72.42,3.12-.28,5.34-1.57a11.22,11.22,0,0,0,2.18-1.57l.82-.56,1.24-23.75Z" transform="translate(-6.21 -4.5)"/><path class="aj" d="M83.38,139.23l-3.16,2.22c-.09,2.82-.15,4.2.91,5,1.29.95,3.56.33,5-.24l.41-1.07c1.86-.18,1.35.1,3.24-.88,2.29-1.18,5.07-2.86,5.57-4.93.14-.59-.27-1.69-.88-1.61l-6.73.81Z" transform="translate(-6.21 -4.5)"/><path class="ah" d="M78.86,115.53c.14,2,.25,3.89.31,5.84l.65,21.25,0,0a.36.36,0,0,0,.21.3c.72.42,3.11-.28,5.34-1.57s3.34-2.55,2.8-3l.12-23.23C88.42,110.28,78.94,111.28,78.86,115.53Z" transform="translate(-6.21 -4.5)"/><polygon class="s" points="61.01 95.22 63.31 93.88 63.25 124.77 60.95 126.1 61.01 95.22"/><polygon class="r" points="61.01 95.22 60.95 126.1 58.72 124.81 58.77 93.92 61.01 95.22"/><polygon class="ad" points="49.61 118.08 49.94 124.93 49.59 143.19 47.78 142.14 47.8 117.04 49.61 118.08"/><polygon class="ac" points="49.61 118.08 51.39 117.06 51.36 142.16 49.59 143.19 49.61 118.08"/><polygon class="ad" points="64.37 126.64 64.69 133.49 64.35 151.74 62.54 150.7 62.56 125.6 64.37 126.64"/><polygon class="ac" points="64.37 126.64 66.14 125.61 66.12 150.71 64.35 151.74 64.37 126.64"/><path class="ac" d="M80.49,124.81l-14.9,8.6a3.1,3.1,0,0,1-.53.24l-.1,0a2.12,2.12,0,0,1-.47.11h0a1.76,1.76,0,0,1-.46,0h0a1.5,1.5,0,0,1-.42-.15h0l1.55.89h0l.15.07.15.06.1,0h.06l.18,0h.4l.25,0,.11,0,.1,0,.13-.05a3,3,0,0,0,.4-.2L82,125.7Z" transform="translate(-6.21 -4.5)"/><path class="ac" d="M82,125.7l-14.89,8.6c-1.58.92-2.87.18-2.88-1.64l0-16.06-1,.59,0,16.07c0,2.48,1.76,3.47,3.91,2.23l14.9-8.6Z" transform="translate(-6.21 -4.5)"/><path class="ac" d="M70.83,119.1l-14.9,8.6a3.59,3.59,0,0,1-.53.25l-.1,0a2.08,2.08,0,0,1-.47.1h0a1.72,1.72,0,0,1-.46,0h0a1.52,1.52,0,0,1-.42-.16h0l1.55.9h0l.15.07.15.05.1,0h.06l.17,0h.41l.25-.06.11,0,.1,0,.12,0a3,3,0,0,0,.4-.2l14.9-8.6Z" transform="translate(-6.21 -4.5)"/><path class="ac" d="M72.37,120l-14.9,8.6c-1.58.91-2.87.18-2.87-1.64l-.05-16.07-1,.6,0,16.07c0,2.47,1.77,3.47,3.92,2.23l14.9-8.6Z" transform="translate(-6.21 -4.5)"/><polygon class="p" points="60.77 111.55 61.1 118.39 60.75 127.9 58.94 126.86 58.97 110.51 60.77 111.55"/><polygon class="q" points="60.77 111.55 62.55 110.52 62.52 126.87 60.75 127.9 60.77 111.55"/><polygon class="ad" points="75.53 120.11 75.86 126.95 75.51 145.21 73.7 144.17 73.73 119.07 75.53 120.11"/><polygon class="ac" points="75.53 120.11 77.31 119.08 77.28 144.18 75.51 145.21 75.53 120.11"/><path class="v" d="M84.83,123.86a.86.86,0,0,1,0,.17v0a.8.8,0,0,1-.08.16l0,0a1,1,0,0,1-.14.15l-.11.09-.11.07-13.47,7.83v2.16l13.47-7.83h0a.71.71,0,0,0,.09-.07l.12-.08h0l.11-.12s0,0,0,0l0,0s0,0,0-.05a.31.31,0,0,0,0-.1h0v0s0,0,0-.06,0-.07,0-.1h0Z" transform="translate(-6.21 -4.5)"/><path class="w" d="M70.34,132.58l-.08,0a2.88,2.88,0,0,1-.59.07h0a2.59,2.59,0,0,1-.63-.07h0a1.66,1.66,0,0,1-.55-.21l-15.62-9a.82.82,0,0,1-.5-.7v2.16a.86.86,0,0,0,.5.7l15.62,9,.24.12.21.07.11,0h.07l.17,0,.17,0h.34l.19,0a.83.83,0,0,0,.22,0l.09,0,.08,0,.15,0a2.06,2.06,0,0,0,.37-.16v-2.16A2,2,0,0,1,70.34,132.58Z" transform="translate(-6.21 -4.5)"/><path class="x" d="M84.32,123.15a.74.74,0,0,1,0,1.4l-13.47,7.83a2.63,2.63,0,0,1-2.41,0l-15.62-9a.74.74,0,0,1,0-1.4l13.47-7.82a2.63,2.63,0,0,1,2.41,0Z" transform="translate(-6.21 -4.5)"/><path class="ah" d="M58.67,114.24,56,115.69c-.95,4.32-.41,7.4,1.58,9.48,2.87,3,8.83,5.25,14.38,4,4.12-.94,7.28-5.3,12.07-8.72l4.24-2.16c.29-4.39,0-5.81-2.07-6.5-3.83-1.32-10.39,2.12-15.4,4.57Z" transform="translate(-6.21 -4.5)"/><path class="y" d="M75,80.19c.41-.54,1.08-.69,2.21-1.68.76-.82,1.36-1,1.71-.87s.49.33,0,1.07l-1.27,1.58,1.56-.11.88-.32,1.91-2c.58-.67.88-.23,1.53.48.94.87-.34,2.21-1.49,3.84-1.17,1.28-.94,1.52-2.63,1.7l-2.63.28-1,1.53L73,83.81a10.55,10.55,0,0,0,1.1-1.32C74.58,81.59,74.47,80.91,75,80.19Z" transform="translate(-6.21 -4.5)"/><path class="ak" d="M68.12,94.78,73.3,82.69c1.29-.59,3.63,1.26,3.93,2.2A138.55,138.55,0,0,1,72.5,102c-.77,1.89-1.68,2-3.59,1.34C65.61,102.2,66.89,98,68.12,94.78Z" transform="translate(-6.21 -4.5)"/><path class="ak" d="M68.66,85.55c4.8,2.77,7.42,5.74,5.87,6.65s-6.71-.61-11.5-3.38-7.42-5.74-5.86-6.65S63.87,82.78,68.66,85.55Z" transform="translate(-6.21 -4.5)"/><path class="y" d="M60.88,76c.62,5.22.71,4.13-.56,9.39l6.78,3.17c-.57-7.39.23-8.12,2.3-15.17Z" transform="translate(-6.21 -4.5)"/><circle class="e" cx="60.81" cy="71.3" r="7.26"/><path class="al" d="M71.81,77.92a1.51,1.51,0,0,0-2.3-1.18A1.94,1.94,0,0,0,69,78.83a5.71,5.71,0,0,0,1.21,1.94A33.73,33.73,0,0,1,62.8,84.5l-3.25-4.71a7.67,7.67,0,0,1-1.22-2.27,9.09,9.09,0,0,1,1.51-6.73,9.64,9.64,0,0,1,6.94-3.27c2.13-.17,4.71,1.3,6.09,3C74.68,72.67,72.66,75.57,71.81,77.92Z" transform="translate(-6.21 -4.5)"/><path class="am" d="M60.85,82.47a7.27,7.27,0,0,0,6.14.79l.56,1.68c-1.66,2.31-7.33,2.16-7.2-.67Z" transform="translate(-6.21 -4.5)"/><path class="ak" d="M60.31,84.09c-1.25-.58-1.56-2.11-2.77-2a3.46,3.46,0,0,0-1.15.52c-1.43.75-2.51,3-2.83,5.5-1.09,8.56,2.77,9.74,2.33,20.23-.08,1.95-.64,7.46-1.15,11.12.32,1.52,1.87,2.92,3.48,4l.67-7.16.79,8.11a11,11,0,0,0,3.93,2.47c2.85,1.31,10.57,3,10.51-.35-.08-4.75-1-9.6-.59-15.35.57-8.44,2.59-16.43,1.83-18.28A10.13,10.13,0,0,0,71.8,88c-1.92-1.34-2.51-2-4.35-3.31C63.87,86.42,60.69,85.24,60.31,84.09Z" transform="translate(-6.21 -4.5)"/><path class="y" d="M84.63,101a11.26,11.26,0,0,0,3.09-3.4,5.08,5.08,0,0,1,1.81-1.7c1-.6,3.43-.2,5.49-.55a1.5,1.5,0,0,1,1.84,1.48c.11,1.25-1.4,2-2.47,3a11.39,11.39,0,0,1-2.72,2c-.86.45-2,.72-2.85,1.17l-2.13,1.55-1.92-3.34.06-.06Z" transform="translate(-6.21 -4.5)"/><path class="ak" d="M75.13,106.16l10.71-6.67a9.62,9.62,0,0,1,3.38,3.83,155.14,155.14,0,0,1-15,11.27c-1.77,1-2.54.55-3.66-1.13C68.62,110.52,72.17,108,75.13,106.16Z" transform="translate(-6.21 -4.5)"/><path class="ak" d="M73.52,89.48c1.64,1.42,1.76,1.8,2.11,2.81,1.05,3.08.57,9.45.65,14.71-.23,4.33.73,6.94-3.53,7.29-2,.27-2.56-.47-3-2.44L67.23,99.11C66.61,91.66,71.3,88.48,73.52,89.48Z" transform="translate(-6.21 -4.5)"/><path class="v" d="M68.46,114.54l0,8.39a1.18,1.18,0,0,1,0,.27h0a.65.65,0,0,1-.07.21h0l-.07.11a.55.55,0,0,1-.19.18L70,122.63a.85.85,0,0,0,.19-.19l0,0a.56.56,0,0,0,0-.08h0a.14.14,0,0,0,0-.06l0-.06s0,0,0-.07v0h0v0a.07.07,0,0,0,0,0v-.18h0l0-8.39Z" transform="translate(-6.21 -4.5)"/><path class="x" d="M67.72,112.83h0a2.31,2.31,0,0,1,.2.24h0c.07.09.12.18.18.27v0a2.44,2.44,0,0,1,.14.28h0c0,.1.08.2.11.3h0c0,.1,0,.2.07.3h0c0,.1,0,.2,0,.29l1.87-1.08v-.06a.43.43,0,0,1,0-.05v-.06s0,0,0-.06v-.06h0a.11.11,0,0,0,0,0,.2.2,0,0,0,0-.07V113s0,0,0-.06l0,0h0l0-.06,0-.06a.14.14,0,0,1,0-.06l0-.06a.05.05,0,0,0,0,0h0l0-.06,0-.06a.16.16,0,0,0,0-.07.3.3,0,0,0,0-.08h0v0l-.09-.14L69.8,112h0l-.06-.07,0-.06,0-.06s0,0-.05,0h0l0,0a.12.12,0,0,0,0,0l0,0-.06,0,0,0h0s0,0,0,0l0,0-.06,0,0,0-.05,0h0l-15.61-9,0,0,0,0-.05,0,0,0h-.5l-.08,0-.09,0-1.87,1.08a.55.55,0,0,1,.18-.06h0a.49.49,0,0,1,.21,0h0a.85.85,0,0,1,.22,0h0a.86.86,0,0,1,.24.11l15.62,9,.24.17h0Z" transform="translate(-6.21 -4.5)"/><path class="w" d="M67.26,112.45l-15.62-9c-.67-.39-1.21-.07-1.21.69l0,8.39a2.67,2.67,0,0,0,1.21,2.09l15.61,9c.67.38,1.22.07,1.22-.7l0-8.39A2.65,2.65,0,0,0,67.26,112.45Z" transform="translate(-6.21 -4.5)"/><path class="ad" d="M63.23,133.26l0-16.07-1.54-.89,0,16.07a3.38,3.38,0,0,0,.47,1.85,2.07,2.07,0,0,0,.67.65l1.54.89A2.71,2.71,0,0,1,63.23,133.26Z" transform="translate(-6.21 -4.5)"/><polygon class="x" points="56.97 112.69 55.43 111.8 56.46 111.2 58.01 112.09 56.97 112.69"/><path class="ac" d="M67.14,134.3c-1.58.92-2.87.18-2.88-1.64l0-16.06-1,.59,0,16.07c0,2.48,1.76,3.47,3.91,2.23Z" transform="translate(-6.21 -4.5)"/><path class="ad" d="M53.56,127.56l0-16.07-1.55-.9L52,126.66a3.35,3.35,0,0,0,.47,1.85,2,2,0,0,0,.67.65l1.54.9A2.75,2.75,0,0,1,53.56,127.56Z" transform="translate(-6.21 -4.5)"/><polygon class="x" points="47.31 106.99 45.77 106.09 46.8 105.49 48.34 106.39 47.31 106.99"/><path class="ac" d="M57.47,128.6c-1.58.91-2.87.18-2.87-1.64l-.05-16.07-1,.6,0,16.07c0,2.47,1.77,3.47,3.92,2.23Z" transform="translate(-6.21 -4.5)"/><path class="y" d="M128.78,69.11c-1.59,3.4.27,11.7.95,15.72l3,.62c0-.2.61-.63.62-.84.2-4.19.74-10.4.07-14.14-.28-1.55-1.29-2.78-2.44-2.74A2.8,2.8,0,0,0,128.78,69.11Z" transform="translate(-6.21 -4.5)"/><polygon class="an" points="110.07 69.9 97.96 63.12 103.92 77.14 116.02 83.92 110.07 69.9"/><circle class="e" cx="112.85" cy="76.93" r="2.83"/><circle class="e" cx="101.25" cy="69.47" r="2.83"/><path class="y" d="M131.37,82.21c-3.48-.78-6.47-1.31-10.19-2.08a25.49,25.49,0,0,0-.05,2.65c3.09,1.19,5.79,2.39,9.14,3.37,1.78.52,2.72-.32,3-1.25S133.16,82.62,131.37,82.21Z" transform="translate(-6.21 -4.5)"/><path class="n" d="M128.58,69c-.77,1.64-.83,5.14-.53,8l6.12-.33a40.42,40.42,0,0,0-.57-6.15c-.29-1.59-1.4-3.15-2.58-3.11A3.29,3.29,0,0,0,128.58,69Z" transform="translate(-6.21 -4.5)"/><path class="ao" d="M108.26,98.21V96.72c.33-.2,11.86-4.77,12.19-4.58l8.21,3c0,1,.18,2.89-.53,3.31l-10.46,6.17a1.11,1.11,0,0,1-1.1,0l-7.77-4.53C108.08,99.67,108.26,98.89,108.26,98.21Z" transform="translate(-6.21 -4.5)"/><path class="ap" d="M108.8,95.78l10.57-6.07a1.09,1.09,0,0,1,1.08,0l7.67,4.43a1.08,1.08,0,0,1,0,1.87l-10.46,6.17a1.08,1.08,0,0,1-1.1,0l-7.77-4.52A1.09,1.09,0,0,1,108.8,95.78Z" transform="translate(-6.21 -4.5)"/><polygon class="aq" points="103.42 92.05 107.84 89.52 115.25 93.87 110.83 96.4 103.42 92.05"/><g class="ar"><polygon class="as" points="103.42 92.05 107.84 89.52 109.23 90.33 109.22 95.45 103.42 92.05"/></g><polygon class="ao" points="111.86 89.5 110.38 88.62 110.38 88.52 111.19 88.16 112.64 88.92 112.64 89.02 111.86 89.5"/><polygon class="at" points="111.86 89.41 110.38 88.52 111.19 88.06 112.64 88.92 111.86 89.41"/><polygon class="ao" points="113.95 90.72 112.47 89.84 112.47 89.75 113.27 89.38 114.73 90.14 114.73 90.24 113.95 90.72"/><polygon class="at" points="113.95 90.63 112.47 89.75 113.27 89.29 114.73 90.14 113.95 90.63"/><polygon class="ao" points="115.98 91.93 114.5 91.05 114.5 90.95 115.3 90.59 116.76 91.35 116.76 91.45 115.98 91.93"/><polygon class="at" points="115.98 91.84 114.5 90.95 115.3 90.5 116.76 91.35 115.98 91.84"/><polygon class="ao" points="113.4 88.68 111.92 87.8 111.92 87.7 112.73 87.34 114.19 88.1 114.19 88.2 113.4 88.68"/><polygon class="at" points="113.4 88.59 111.92 87.7 112.73 87.25 114.19 88.1 113.4 88.59"/><polygon class="ao" points="115.49 89.91 114.01 89.02 114.01 88.93 114.81 88.56 116.27 89.33 116.27 89.42 115.49 89.91"/><polygon class="at" points="115.49 89.81 114.01 88.93 114.81 88.47 116.27 89.33 115.49 89.81"/><polygon class="ao" points="117.52 91.11 116.04 90.23 116.04 90.14 116.84 89.77 118.3 90.53 118.3 90.63 117.52 91.11"/><polygon class="at" points="117.52 91.02 116.04 90.14 116.84 89.68 118.3 90.53 117.52 91.02"/><polygon class="aq" points="106.68 97.2 108.04 98 108.07 97.2 106.71 96.4 106.68 97.2"/><polygon class="au" points="108.42 98.2 109.78 99 109.81 98.2 108.44 97.4 108.42 98.2"/></svg>