<svg xmlns="http://www.w3.org/2000/svg" xmlns:xlink="http://www.w3.org/1999/xlink" viewBox="0 0 145.65 151.45"><defs><style>.cls-1,.cls-9{fill:none;}.cls-1,.cls-3{opacity:0.8;}.cls-2{clip-path:url(#clip-path);}.cls-3{fill:#f5ad1f;}.cls-4{fill:#3c3c3b;}.cls-5{fill:#0f4562;}.cls-6{fill:#092e46;}.cls-7{fill:#d1e1eb;}.cls-8{fill:#6786a0;}.cls-9{stroke:#eaeaea;stroke-miterlimit:10;stroke-width:3.92px;}</style><clipPath id="clip-path" transform="translate(-5.13 -5.13)"><circle class="cls-1" cx="77.95" cy="77.95" r="70.87"/></clipPath></defs><title>G07_13_01</title><g id="Mobile"><g class="cls-2"><circle class="cls-3" cx="72.83" cy="72.83" r="70.87"/><path class="cls-4" d="M72.86,151.09l.13,0C73.13,151.07,72.8,151.08,72.86,151.09Z" transform="translate(-5.13 -5.13)"/><path class="cls-4" d="M80.23,139.3h.1S80.23,139.29,80.23,139.3Z" transform="translate(-5.13 -5.13)"/><path class="cls-4" d="M73.92,143.78l.06,0C74.17,143.75,73.86,143.74,73.92,143.78Z" transform="translate(-5.13 -5.13)"/><path class="cls-4" d="M122.51,84.35a57.2,57.2,0,0,0-12.66-14.3,61.59,61.59,0,0,0-14.35-8.5c-1.09-.44-13.1-5.85-12.85-3.47.1.91,4.49.67,4.24,1.47s-7.6-.65-7.63.7c0,.65,7.27,1.25,7.92.11,1.64-2.89,6,2.43,3.09,2.44a49.53,49.53,0,0,1-7.85-.74c-3.21-.5-8,1.55-10.78,2.84C63.11,68.77,58.06,74.33,55,83.34c-.73,2.15-1.36,4.34-1.92,6.55-.22.87-1.27,2.13-1.34,2.92-.14,1.72.65,5.75-1.07,7-2.1,1.46-.29,9.44.18,11.3.24.9,1.51,9.83.67,9-2.36-2.38-2.13-8.22-2.66-11.34a37,37,0,0,1,1-12.41c2.6-8.22,3.51-17.5,9.14-24.46a36,36,0,0,1,10.12-8.28c1.81-1.07,8.52-1.37,9.34-2.75.73-1.21-7.18.74-7.76.91A27.21,27.21,0,0,0,59.07,69c-7.35,7.92-9.66,19.47-11.46,29.93-.44,2.56-.81,5.13-1.07,7.72-.16,1.67.65,1.95.64,3,0,1.54,1.86,12.17,3.27,12.14,1.78,0,.88-1.55,2.59,0-.19-.17,1.29,2.15,1.23,1.7.2,1.5,5.36,8.58,4.85,9-1.64,1.4-6.27-7.44-6.65-8.62-.6-1.87-2.08-.85-.93,1.15.82,1.43,2.75,4.11,2.88,5.78.16,2.08,2.78,3.27,4.17,4.26,1.74,1.24,3.36,5,5,5.67S66,143,68,142.93c.38,0,.42,1.15.51,1.25.4.39,4.08.77,3.66,2-.67,1.91-9.57-4.59-10.2-5.13-1.72-1.51-3.29-3.17-4.85-4.83-1.12-1.19-4.74-3.74-4.91-5.4-.22-2.18-2.51-3.34-2.67-5.45-.2-2.84-1.53-5.37-2.48-8-1.74-4.82-1.65-9.9-1.1-15,2.13-19.42,10-44.2,32.81-46.13-.32,0,5.15.36,3.74-.84S78.48,56,76.9,56a12.43,12.43,0,0,0-5.7,1.22c-1.49.75-4.53,1-5.45,2.52-.52.85-2.7,1.62-3.48,2.54-.93,1.1-3.08,1.79-4.27,2.9-4.35,4-7.29,9.46-9.25,15.1a96,96,0,0,0-3.86,16.2c-.66,4.14-2.14,6.41-1.87,11a37.5,37.5,0,0,0,4.46,15.28c.51,1,3.49,8.5,3.4,8.53-3.38,1.2-3.58-9.15-5.65-7.84-2.73,1.73,4.79,8.09,3.38,9.22-1.2,1-4.48-5.11-4.68-5.81a10.29,10.29,0,0,0-2.79-5c-1.07-.94-1.19-3.75-1.56-5.16-1.19-4.51-3.49-10.54-1.68-15.33a82.21,82.21,0,0,0,3.38-11c1.87-8.19,3.47-18.44,9.95-24.09,2.18-1.91,3.75-4.8,6.52-5.9,2.48-1,5-2,7.46-2.92,1.22-.47,7.5-2,7.92-3.13-8.06-.16-18,5.84-23.46,11.28A20.9,20.9,0,0,0,43.73,77c-.62,3.66-3.13,7-3.2,10.73,0,1.3-1.52,6.8-2.62,7.26C36,95.8,36,106,36,108c0,3.66,1.55,7.6,2.86,10.94,1.08,2.73,3.34,5.43,4,8.29.61,2.62,3.09,4.86,4.47,7,2.33,3.6,6.89,5.54,10.56,7.56,3.5,1.93,7.26,3.95,10.55,6.22.67.46.17,1.22-.57.89-2.14-.95-4.25-2-6.34-3a84.82,84.82,0,0,1-12.19-7.22c-1.43-1-2.39-2.54-3.73-3.67-1.73-1.47-.53,1.55-.43,1.68,1.9,2.41,2.93,4,5.71,5.68,1.21.7,10.17,3.56,9.9,5-.4,1.85-17.83-6.8-17.33-7.28-.85.9,3.78,2.4,3.39,3.87-.34,1.25-2-.47-2.75-.24-1.27.41,2.49,3.13,3.15,1.24.2-.59,7.77,2.46,8.62,2.81,3.68,1.49,7.55,2.64,11.29,4.1,1,.39,4.09,1.06,4.54,2.22.33.86,5.93.65,6.88.75,3.71.37,7.19-.1,10.87-.15.37,0,6.18,2.53,6,.55-.11-1.41-10-2-10.49-3.31-1.07-2.93,9.47.93,10.31,1,1.13.09,12,4.33,12.46,1.57,0,.05-10.45-2-11.67-1.8-.62.1-1-1.35-1.74-1.5a22.82,22.82,0,0,1-7-3.28c-2.1-1.27-4.08-2.69-6.15-4s-2.14-2.49.45-1.2c2.18,1.1,4.15,2.58,6.27,3.81s4.8,1.73,6.92,3c1.68,1,2.38,1.62,4.59,1.9,1.13.15,4-.93,1.66-1.29-5-.75-8.33-3-12.66-5.26a23.26,23.26,0,0,1-4.54-2.88c-.15-.13-1.81-2.06-.35-1.36,1.1.51,11.83,6,11.86,5.43,0-1.08-9.41-5.23-8.27-6.28s8.74,4.32,9.93,4.92a64.53,64.53,0,0,0,11.78,4.2c1.11.31,3.1.56,4.05,1.33.8.64,3.67.22,2.5-.84-1.74-1.57-7.53-1.45-9.88-2.23A55.31,55.31,0,0,1,84,133.79a59.58,59.58,0,0,1-7.29-8.67c-.9-1.33-4.61-9.56-6.16-9.4-1.94.21,3.25,8.7,3.7,9.55a36.22,36.22,0,0,0,5.39,7.25c.21.24,4.22,4,2.24,3.9-3.92-.16-9-10.3-10.56-13.21-2.67-5-4.14-12.26-7.64-16.59-1.8,8.68,6.81,20.09,12,26.12.69.8,3.57,3.17,3.42,4.3-.32,2.34-3.52-1.83-3.76-2.09a55.92,55.92,0,0,1-7.76-10.88c-4.44-8.1-7.6-17.31-7.13-26.52.05-.88-.27-5.34.4-5.85.21-.16,1.4-2.72,1.63-.71.2,1.62-2,13.35.21,13.69,2.45.37-.82-9,1.57-9,2.09,0,.36,7.54.59,8.31.43,1.44.83,3.47,1.41,5,.2.55,1.48.46,1.83.2,1.29-1-.35-1.12-.45-1.74-.15-.94-2.14-9.55-.8-9.75,1.5-.21,1.65,7.88,1.92,9,.2.78,3.73,8.8,4.32,7.85s-3.26-10-2.09-10.24c.75-.17,2.54,6.3,3.27,7.06s.12,2.39,1.19,3.43c.51.5,3.13,3.14,3,3.91-.34,1.51,2.23,2.16,2.41.87s-2-3.91-2.61-5c-2.06-3.43-4.51-7.15-4.3-11.32,2.26,3,3.52,6.64,5.12,10,.62,1.3,2.23,3.16,2.5,4.52.42,2.11,3,2.81,3.09,5,0,.46,5.62,6.17,6.29,6.64s8.48,6.32,8.33,6.85c-.92,2.79-17.51-14.87-17.43-14.84-1.14.5,4.1,8.28,4.94,8.82,3.8,2.48,7,5.81,10.88,8.25,2.43,1.52,6.68,2,8.77,3.88s9,4.39,11.71,4.53c-1.09-2.09-8.19-4.39-10.38-5-2.71-.77-5.46-2.8-7.94-4.14-1.82-1,1.4-1.18,1.35-1.18,1.67.27,3.8,2.11,5.45,2.77,2.09.84,4.27,1.32,6.37,2.13.3.11,5.37,3,4.42.45-.38-1.05-9.57-3.39-11-3.89-4.58-1.62-9.16-6.56-13-9.44-3-2.25-4.79-5.95-7-8.69a54.08,54.08,0,0,1-7.87-12c-1.79-4.06-4.06-9.67-3.84-14.17.09-1.86-.17-2-.79-3.52-.7-1.72.94-5.27,1.74-6.77,1.73-3.23,5.72-6.25,9.58-6.28,4.38,0,7.12,6.32,9,9.53C97,91.37,118.4,129,122.87,125.16c.29-.29-5.06-5.51-5.44-5.94-2.81-3.15-4.56-6.16-6.87-9.56-2.21-3.23-3.51-6.84-5.51-10.23-2.29-3.9-5.6-7.33-7.11-11.55C95.47,81,87.75,73.76,80.32,77.77c-3.27,1.77-6.12,3.42-7.46,7.12-.21.59-1.86,9.94-3.53,9.27C66.42,93,74.37,79.22,75.76,78c3.95-3.48,10.72-5.11,15.15-1.92,5.17,3.73,6.66,8.78,10.18,13.59,4.56,6.22,8,13.12,11.78,20,2.21,4.06,4.14,7.2,7.56,10.38,2.3,2.15,2.22-.28.7-1.82a37.45,37.45,0,0,1-5.9-7.72c-1.77-3.24-2.58-6.89-4.09-10.22a76.92,76.92,0,0,0-5.72-9.74c-2.13-3.3-4.36-6.51-6.61-9.71S94.69,77,91.75,75c-1.47-1-6.06-2.24-6.81-3.59-1-1.89-5.37.53-6.61.73-6.73,1.12-9.81,7.08-12.73,12.55-.3.56-1.74,4.84-1.83,4.85-2.92.57.74-6.46,1.09-7.09C67.13,78.34,72.73,70.31,78,70a25.1,25.1,0,0,1,18.29,5.67,32.93,32.93,0,0,1,7,7.92c1.69,2.61,5.1,6.84,5.63,9.89.25,1.47,3.44,4.08,4.14,5.72,1.32,3.09,2,6.41,3.6,9.43.56,1.09,7.14,11.12,8.69,10,.12-.11-4.83-7.22-5.39-8.09-3.32-5.16-3.68-10.54-6.75-15.64-6.34-10.5-12.07-21.11-24.26-25.4-8-2.81-17,.15-22.41,7.29A54,54,0,0,0,59,91.55c-.33,1,1,8.85-.79,9.25s-.52-6.56-.52-7c0-5.55,3.39-11.91,6.31-16.42,6.71-10.37,18.66-14.16,29.88-8,9,4.94,13.74,13.63,19.43,21.69,3,4.22,6,8.35,9,12.57.27.37,4.58,6.25,5.22,5.34.42-.67-7.76-12.4-8.59-13.72-3.13-5-6-10.43-9.46-14.95-6.37-8.35-18.15-16.38-29.11-15C68.93,66.7,61.48,75.35,57.61,85.92c-2.18,6-1.61,10.89-1.57,16.92,0,.93,1.9,11,.48,10.76.46.08-1.32-4.37-1.32-4.34-.45-2.79.52-6.21-1-8.77-1.14-2-.08-4.25-.16-6.24a46.31,46.31,0,0,1,1-5.57C58,76.93,66,64.81,78.92,63.68c4.74-.43,9.24-.53,13.65,1.41,6.32,2.77,10.91,6.5,15.63,11.41s8.18,10.62,12.19,16.35c1,1.34,5.7,11.21,7.32,11.2.56,0-3.82-8.58-4.31-9.48-1.13-2.07-2.5-3.91-3.6-6.13-.73-1.46-4.16-5.29-3.9-6.83.52-3-9.9-10.2-12.13-11.74a68.21,68.21,0,0,0-7.39-4.44c-.09,0-6.11-3.12-3.92-3.53,2.83-.53,7.36,3.37,9.37,4.63a66.18,66.18,0,0,1,14.25,12,33.86,33.86,0,0,1,4.74,6.89c.7,1.25,3.3,3.68,3,5.28-.2,1,5.53,10.91,5.74,6.21C126.35,94.19,124.75,87.88,122.51,84.35ZM56.88,139c-1.6,1.5-10.46-6.65-6.35-6.57C51.49,132.2,57.81,138.15,56.88,139Zm1.29,1.2c0-.86,1.7-.73,1.64.31C59.74,142,58.13,141.25,58.17,140.23Zm12.24,10c-1.15,0-1.62-1.4-.2-1.38C71.08,148.9,71.23,150.28,70.41,150.27Zm15-11.57c-.46.47-2.9-1-2.77-1.58C82.91,135.42,86.21,137.88,85.41,138.7ZM74.51,102c-.31,1.45-1.68-.36-1.65-1.12C72.93,99.35,74.73,101,74.51,102Zm-1.12-4.5c1.06,1.39-1.12,3.18-1.11.63,0-1-.74-2.46-.6-3.52C72.27,89.28,73.06,97.06,73.39,97.5Zm-4.08-2.14c.74-1,1.72,4.25,1.66,5.49v.08a2.07,2.07,0,0,1-.38,1.13C69.47,102.61,68.83,96,69.31,95.36Zm-3.15-.22c-.47-1.45,1,.12,1.12.3C67.79,96.4,66.05,96.52,66.16,95.14ZM69.72,80.3c2.46-3.87,7.92-8.54,12.93-8.12-.17,0-.43,0,0,0a1.34,1.34,0,0,1,1.3.44c.14.77-5.36,2.65-5.77,2.79-1.54.52-2.31.38-3.57,1.48S72.72,80.1,71.6,81c-.78.65-5.9,12.82-5.15,13C64.31,93.55,68.86,81.63,69.72,80.3ZM51.94,99.45h0c.05-.92,1.25-2.16,1.31-.7.1,2.15-1.41,2.76-1.31.71C51.93,99.52,51.93,99.58,51.94,99.45Zm21,51.66-.13,0c-.47-.06-1.33-.29-1-.93S74.55,150.7,73,151.11Zm1-7.3a.1.1,0,0,1-.06,0c-.71-.27-2.51-2.15-1.12-2.12S75.46,143.32,74,143.81Zm3.15,9-.09,0c-3.43.33-2-2.21-1.69-1.74s3.7.86,3.48,1.63A3,3,0,0,1,77.13,152.79Zm4,1.28c-1,0-1-1.35.11-1.3S82.25,154.12,81.14,154.07Zm2.52-3.15s.06,0,0,0c-1,0-10.24-2.19-9.24-4.06.31-.63,10.26,3.1,10.18,3.85A.79.79,0,0,1,83.66,150.92Zm-4.15-13.51c.6-.66,2.13,1.9.82,1.9h-.1C79.17,139,78.9,138.06,79.51,137.41Zm2.4,8.91a29.28,29.28,0,0,1,2.72,1.55c.87.56,0,1.37-.58,1-1.54-.85-10-4.46-7.85-5.27.3,0,.22,0,.12,0C77.94,143.53,80.53,145.6,81.91,146.32Zm-6.48-6a9.69,9.69,0,0,0,2.21-.22c1.92.63.45,1.72-.62,1.67-1.29.08-6.65-2.62-3.36-2.63C74.25,139.49,74.84,139.88,75.43,140.29ZM57.89,104.11h0c.08-.37.17-.74.25-1.11.51-.88,1.51,2.71,1.55,3a59.81,59.81,0,0,0,3.17,13,50.34,50.34,0,0,0,5.49,10.45c1.94,2.84,4.47,4.2,6.62,6.92.17.23-1,1-1.21,1s-1.72-1.91-1.83-2a40.23,40.23,0,0,1-7.85-10.06c-3.25-6-6.6-14.18-6.19-21.14C57.88,104.36,57.85,104.68,57.89,104.11Zm-3.59,8.34c.22,2.35.82,4.82,1.13,6.92a1.26,1.26,0,0,0,2.49-.33c0-.49-2.3-4.55-.47-4.5.37,0,5.18,12.09,6,13.45,1.32,2.13,2.94,4.16,4.42,6.16.53.7,5,3.61,4.73,4.44-.77,2.63-8.47-7-9-7.74-1.62-2.52-3.18-5.09-4.76-7.63-.56-.9-3-2.17-2-.26.51.94,1.48,1.69,1.47,2.93,0,2.49,2.95,3.27,3.59,5.31.46,1.47,9.15,10,8.8,10.47-1.23,1.46-11.62-8.52-11.75-8.28.24-.38,2-.5,2-.57a39.32,39.32,0,0,0-2.22-4c-1.52-2.46-4.41-5.35-4.33-8.46.14-5.4-4.61-11.38-2.1-17C54.54,104.84,54.11,110.29,54.3,112.45Z" transform="translate(-5.13 -5.13)"/><path class="cls-4" d="M51.94,99.45Z" transform="translate(-5.13 -5.13)"/><path class="cls-4" d="M52.41,103.38c-.24.55.18.13,0,0Z" transform="translate(-5.13 -5.13)"/><path class="cls-4" d="M57.89,104.1h0v0Z" transform="translate(-5.13 -5.13)"/><path class="cls-4" d="M82.7,72.18h0Z" transform="translate(-5.13 -5.13)"/><path class="cls-4" d="M76.32,143.64H76.2S76.24,143.65,76.32,143.64Z" transform="translate(-5.13 -5.13)"/><path class="cls-4" d="M71,100.93v-.08S70.94,101.09,71,100.93Z" transform="translate(-5.13 -5.13)"/><path class="cls-4" d="M80.22,20.31c.91,0,3.44,1,3.85-.32s-3.72-1-4.15-1c-1,.08-4-.28-4.84.51C73.2,21.26,79.57,20.35,80.22,20.31Z" transform="translate(-5.13 -5.13)"/><path class="cls-4" d="M31.4,85.53c1.35-.11,2.08-2.87,1.78-4-.75-2.73-2,3.27-2,4A.68.68,0,0,0,31.4,85.53Z" transform="translate(-5.13 -5.13)"/><path class="cls-4" d="M95.63,156.16c1.81.13,3.61.27,5.42.42C101.28,155,96.34,155.48,95.63,156.16Z" transform="translate(-5.13 -5.13)"/><path class="cls-4" d="M84.2,96.54c-1.15.63.67,3.77,1.27,3.62s.36-2.11.69-2.66c1.19,2,1.4,4.41,2.65,6.44,1,1.65,2.38,3.36,3.48,4.85a130.46,130.46,0,0,0,9.22,10.54,66.52,66.52,0,0,0,9.53,8.76c2,1.42,8.68,5.75,10.78,5-.24-.92-3.35-2-3.93-2.8s-2-.88-2.91-1.11c-1.54-.38-3.08-2.41-4.18-3.44a204.15,204.15,0,0,1-15-16.09A38.09,38.09,0,0,1,86.8,92c-.67-3.51-.16-13.7-6.6-10.94-3.24,1.39-4.11,4.57-4,7.84a74.17,74.17,0,0,0,.85,11.37c1.38,6.89,6.16,13.85,10.33,19.49a52.82,52.82,0,0,0,7.15,7.43c1.57,1.42,5.92,6,8,5.89.68,0,2,1.78,2.57,2.17a13.16,13.16,0,0,0,4.31,1.93c2.53.47,8.47,4.2,10.72,2.84-1.72-1.62-5.58-2.47-7.73-3.95-3.63-2.48-6.28-6.61-10-9.13-3.54-2.4-6.32-5.9-8.91-9.15-2.39-3-10.83-10.55-9-14.84,2.48,3.7,4.52,8.15,7.58,11.32,2.38,2.46,4.94,5.29,7.1,7.86,3,3.54,8,7.28,11.81,10.09.5.34,9.89,6.42,9.63,4.17-.08-.68-4.7-2.07-5.34-2.63-2.57-2.23-5.4-4.14-7.75-6.57-3.54-3.64-7.29-6.8-10.57-10.59-4-4.59-7.11-9.72-11.34-14-2.83-2.86-2.51-5-2.43-8.7.06-2.66-.8-4.89-.41-7.81.07-.52-.68-3.08-1.22-3.08-1.79,0-1.51,4-1.56,4.93a45.29,45.29,0,0,0,2.45,16.67c2.3,6.86,7.84,12.62,12.79,17.88a91.81,91.81,0,0,0,7.8,7.33c.87.71,7.71,5,7.44,6.11-.58,2.17-6.75-3.55-7.41-3.68-1-.23-3.38-3.09-4.27-3.86a54.38,54.38,0,0,1-5.23-5.06C87.24,115.83,81,108.05,79.2,98.22c-.78-4.27-1.35-10,.15-14.13s3.33-1.77,4.62.36c1,1.57-.35,3.62.09,5.29.3,1.11.68,2.61,1.08,3.83C85.83,95.68,85.73,95.71,84.2,96.54Z" transform="translate(-5.13 -5.13)"/><path class="cls-4" d="M92.41,92c2.07,4.34,3.72,8.38,6.73,12.22,1.17,1.47,16,21.83,17.76,20.46-.3.23-6.05-9-6.91-9.55-1.35-.83-3.69-4.13-4.5-5.56-1.77-3.12-4-5.93-5.62-9.1-1.21-2.35-2.85-3.73-3.39-6s-3-5.4-4.2-7.52c-1.49-2.7-3.47-4.45-5.46-6.72-2.75-3.13-4.16.65-1.91.56.68,0,.2,0,0,0,2.12-.06,3.63,4.59,4.89,6.09.17.21,1.47,1.67,1.2,2.32-.72,1.7-1.92-1.77-2.72-1.83-1.33-.11,2.36,10.67,2.84,11.7,2,4.16,5.48,7.68,7.23,11.92.56,1.37,2.47,2,3.46,3.1,1.78,2,3.32,4.11,5.11,6.08,1.42,1.56,3,2.36,4.57,3.66.94.79,2.68,3.17,3.88,3.45s-3.59-4.9-4.25-5.38c-1.93-1.42-3.23-7.13-6.26-7-1.47,0-6.53-8.74-7.44-10.08a71.72,71.72,0,0,1-7.23-13C89.41,89.86,91.32,89.77,92.41,92Z" transform="translate(-5.13 -5.13)"/><path class="cls-4" d="M84.92,80.8h0C84.82,80.8,84.85,80.8,84.92,80.8Z" transform="translate(-5.13 -5.13)"/><path class="cls-4" d="M43.13,88c-2,6.68-3.59,13.84-3.17,20.85.08,1.19,2.56,15.1,5,13.67.47-.26-3.23-12.29-3.14-13.71a99.87,99.87,0,0,1,2.58-18.78c.8-3.21,1.76-6.38,2.78-9.5.56-1.7,1.45-7,2.92-8q.33-1,.72-2c1.14-1.31,2.36-2.53,3.61-3.73S59,63.49,59.52,61.7h-.06c-1.86-.53-10.07,6.86-9.93,8.47.2,2.28-1.79,5.16-2.6,7.17C45.52,80.83,44.23,84.4,43.13,88Z" transform="translate(-5.13 -5.13)"/><path class="cls-4" d="M45.76,40.12a39.84,39.84,0,0,1,4.05-1.8c1.11-.48,4.76,0,5.29-.44,4.3-3.83,13.67-4,19.2-3.68,2.59.16,5,.55,7.59.74a14,14,0,0,0,4.42.08c1.55-.41,1.69.32,3.28.36,3.62.09,7.24.19,10.61,1.52,1,.39,9.81,2.56,9.63,1.2a2,2,0,0,0-2.1-.48,15.85,15.85,0,0,1-5.5-1.53c-1.78-1.56-6-.84-8.21-2-4.78-2.55-13.15,1.71-18-1.24-2.3-1.38-8.46,0-10.91.69-3.31.92-6.8,1-10.14,1.75-1.65.37-16.29,6.06-15.12,7.79C40.58,44.11,45.11,40.5,45.76,40.12Z" transform="translate(-5.13 -5.13)"/><path class="cls-4" d="M42.57,39c.65,0,1.26-1.4,1.89-1.71,2-1,4.1-1.76,6.18-2.73,2.93-1.37,6.37-1.64,9.54-2.35a22.22,22.22,0,0,0,5.27-1.76c.56-.28,1.89.59,3.1,0,1.55-.72,1.13.73,2.2,1,.76.21,1.81-1.25,2.43-1.52,3-1.31,7.49-1.4,10.71-1.11,3,.28,6.23-1,9.5-.52,3.11.46,6.6,2.53,9.83,1.53,0,0,0-.05,0-.06-.65-.83-3.27-1.76-4.35-2-.69-.17-1.6.34-2.41.27-1.72-.15-3.09-1.35-4.81-1.42-6.47-.28-13.22,2.47-19.65,1.77-1.1-.12-2.64-.51-3.7,0s-.72,1.35-2.41,1.14a18.4,18.4,0,0,0-7.35,1.1,130.37,130.37,0,0,0-17.42,7C39.49,38.33,42.56,39,42.57,39Z" transform="translate(-5.13 -5.13)"/><path class="cls-4" d="M42.29,72.58c2.58-2.45,3.89-6,6.6-8.28,4.78-4,9.17-7.31,15-9.76a39.83,39.83,0,0,1,11.61-3.15c.85-.07,10,.18,9.73-.88-.16-.65-4.09-.7-4.61-.72-6.22-.75-16.26,2.32-21.46,5.47-6,3.67-11.71,7.68-16,13.49a62.8,62.8,0,0,0-8.53,17c-.34,1-5.47,11.3-3.54,11.58.4,0,5.71-14.94,6-15.89C38.41,78,39.67,75.06,42.29,72.58Z" transform="translate(-5.13 -5.13)"/><path class="cls-4" d="M80.61,49.79c1.62.06-1.89-.23,0,0Z" transform="translate(-5.13 -5.13)"/><path class="cls-4" d="M36.6,61.38c.9.26,3.91-3.76,4.6-4.31,2-1.58,3.35-3.34,5.66-4.49,1.32-.65,6.9-2.55,7.24-4.26-2.06-.08-4.22,1.59-6,2.36s.62-2.18,1.25-2.44c2.94-1.27,5.8-2.69,8.79-3.88A36.54,36.54,0,0,0,64,41.43c3-2,10.23-3.41,13.69-3,5.7.66,12.85-2,18.44.6,2.06,1,2.78-.89.78-1-3.49-.17-7.06-1.49-10.53-.84a25,25,0,0,1-8-.38c-2.17-.35-5.77,1.41-8,1.81a45.76,45.76,0,0,0-14.26,5.26c-2.7,1.52-5.57,2.7-8.23,4.27-4.66,2.76-.47,2.16-1.09,3.58a12.18,12.18,0,0,0-2.11.71c-1.5.17-3.87,2.45-4.81,3.37a34.16,34.16,0,0,0-6.41,8.68.64.64,0,0,0,.22-.13C34.68,63.67,35.84,61.15,36.6,61.38Z" transform="translate(-5.13 -5.13)"/><path class="cls-4" d="M104.42,145.57h.15c4.63-.09-2.94-3.1-3.81-3.51a44.36,44.36,0,0,1-10.21-6.81c-1.73-1.58-16.56-19.43-16.62-19.34-2.58,1.81,10.32,16.72,11.94,18.1a63.16,63.16,0,0,0,10.25,7.13c2,1.12,5.93,4,8.16,4.4C104.27,145.55,104.3,145.56,104.42,145.57Z" transform="translate(-5.13 -5.13)"/><path class="cls-4" d="M86.32,56.55A26.06,26.06,0,0,1,95.39,59c1.6.7,5.51,2.28,6.48,3.57,2.27,3,7,3.82,9.76,6.13a42.66,42.66,0,0,1,4.66,4c1.47,1.66,4.45,3.52,5.45,5.41.54,1,4.92,11,6.57,10.15s-5.24-10.71-5.8-11.57c-1.72-2.69-3.67-5.26-6.44-6.88-2.35-1.38-4.72-2.06-6.75-3.87-2.28-2-5.11-2.91-7.53-4.71-2.05-1.52-7.59-5-10.11-5.13a13.16,13.16,0,0,1-4.85-.82c-2.54-1.17-4.32,1-.52,1.19C88.57,56.66,86.61,56.57,86.32,56.55Z" transform="translate(-5.13 -5.13)"/><path class="cls-4" d="M86.32,56.55h0Z" transform="translate(-5.13 -5.13)"/><path class="cls-4" d="M32,74.55c2.09-1.64,3-5.27,4.87-7.29,2.21-2.39,4-5,6.51-7.11C47.66,56.45,52,53,57.09,50.71c6.2-2.78,11.5-5.05,18.68-5.24a70.07,70.07,0,0,1,10.74.41c5,.64,1.1.09.94-.76-.44-2.27-16.51-.62-18.59.19-2.6,1-5.37,1.56-8,2.59-2.26.88-4.17,2-6.45,2.74-5.46,1.82-10,6.43-14.35,10-.9.74-.87,1.79-1.54,2.66s-1.88,1.47-2.5,2.56c-1.1,2-4.61,5.91-4,8.49A.68.68,0,0,0,32,74.55Z" transform="translate(-5.13 -5.13)"/><path class="cls-4" d="M77.6,24.74a36.15,36.15,0,0,0,9.41.18,11.8,11.8,0,0,0,3.19-.87c.46-.2,1.58.78,2.18.75,2.43-.12.07-3.23-2.47-1.84-2.3,1.27-6.94-.39-9.57.07a33.18,33.18,0,0,1-6.89.8c-5.13-.07-11,1.85-15.86,3.12-3.19.85-11.88,2.76-13.35,6.1,9.32-1.4,18.62-8.54,28.61-7.83C74.36,25.32,76.37,24.57,77.6,24.74Z" transform="translate(-5.13 -5.13)"/><path class="cls-4" d="M73.85,47.22h.24C74.26,47.24,73.44,47.16,73.85,47.22Z" transform="translate(-5.13 -5.13)"/><path class="cls-4" d="M61.26,50.88c-4.15,2.18-8.47,4-12.24,6.85A42.53,42.53,0,0,0,38.5,69.43c-.52.85-6.27,10.21-4.89,10.77.25.09,5-8.84,5.6-9.69A54.09,54.09,0,0,1,49.85,59.27c3.79-3,8-6.07,12.57-7.86,1.43-.54,13.68-3.59,13.71-3.47-.09-.56-1.43-.67-2-.71h-.24C70.74,46.81,64,49.45,61.26,50.88Z" transform="translate(-5.13 -5.13)"/><path class="cls-4" d="M36.53,56.09c1.19.23,3-2,3.57-2.83,1.2-1.63,2.62-2.36,4-3.77a33.88,33.88,0,0,1,9.27-6.4c5.23-2.72,10.32-5.19,16.27-6.21.95-.16,4.54.43,4.79-.88.32-1.68-2.21-.43-2.64-.31-4.62,1.38-9.7.92-14.09,3-3,1.41-5.23,3.42-8.07,5.08a23.37,23.37,0,0,0-3.25,1.8c-.77.67-3,3.24-4,3.29C40.44,49,35.25,56,36.53,56.09Z" transform="translate(-5.13 -5.13)"/><path class="cls-4" d="M36.53,56.09c-.48,0,.2,0,0,0Z" transform="translate(-5.13 -5.13)"/><path class="cls-4" d="M118.19,61.16c-1.71-.52-3.63-2.66-5.12-3.7a50.57,50.57,0,0,0-7.27-4.4c-8.41-4-19.22-6.75-28.52-5.14-.71.12,1.38.58,2,.75-.21,0-.42,0-.2,0h.3c8.83-.15,16.75,1.74,25.09,4.74,2.45.87,4.6,2.79,6.81,4.15,3.28,2,9.13,4.92,10.85,8.72.87,1.91,3.06.14,1.25-.82S120.38,61.82,118.19,61.16Z" transform="translate(-5.13 -5.13)"/><path class="cls-4" d="M79.35,48.71h-.3C79.4,48.75,79.45,48.74,79.35,48.71Z" transform="translate(-5.13 -5.13)"/><path class="cls-4" d="M67.13,42.65c-2.44.63-10.08,2.31-11,5,1.68.55,6.8-2.54,8.49-3.14A39.23,39.23,0,0,1,76.2,42.11a57.32,57.32,0,0,1,11.23,1.18c2.11.35,9.36,3.1,11.19,1.48-6-1.6-13.1-3.56-19.14-4.22C75.72,40.14,70.72,41.74,67.13,42.65Z" transform="translate(-5.13 -5.13)"/><path class="cls-4" d="M118.9,66.21c-1.88-2.55-5.11-3.9-7.47-5.84-1.79-1.48-5.47-4.44-7.87-4.75-1.28-.2,4.13,3.38,4.2,3.43a53.6,53.6,0,0,1,7.69,5.59C116.81,65.89,126,77.94,127,77.41,128.88,76.33,119.9,67.54,118.9,66.21Z" transform="translate(-5.13 -5.13)"/><path class="cls-4" d="M103.56,55.62c.56.07-.38-.06,0,0Z" transform="translate(-5.13 -5.13)"/><path class="cls-4" d="M32.22,104.71c0-.56-.08.75,0,0Z" transform="translate(-5.13 -5.13)"/><path class="cls-4" d="M34.13,111.12c.33-.29-.25-7.6-.09-8.68a57.92,57.92,0,0,1,3-10.52c.38-1,5.77-16.73,5-16.76-1.27-.08-4.16,11.22-4.44,12-1.76,5.14-5.24,12-5.34,17.54C32.14,105.5,33.42,111.76,34.13,111.12Z" transform="translate(-5.13 -5.13)"/><path class="cls-4" d="M77.19,31.21c-.07,1.28,10.58.07,11.94.19,1,.13,14.36,2.9,13.86,1.38-.16-.48-3-.57-3.54-1.1-1.43-1.4-6.5-1.15-8.6-1.23.3,0,.57,0-.18,0C89.07,30.39,77.3,29.27,77.19,31.21Z" transform="translate(-5.13 -5.13)"/><path class="cls-4" d="M90.67,30.45h.18C90.57,30.44,90.27,30.43,90.67,30.45Z" transform="translate(-5.13 -5.13)"/><path class="cls-4" d="M60,151.09c-2.38-.44-4.44-1.51-6.8-1.83-.88-.11-3.48-2.79-3.65-.26h0l0,.33,0-.33c-.15,2.22,1.34.58,2.06.46s3.15,1.84,3.77,2.22c.8.48,9.92,4.25,10.66,2.3C66.59,152.48,60.64,151.2,60,151.09Z" transform="translate(-5.13 -5.13)"/><path class="cls-4" d="M49.52,149.33Z" transform="translate(-5.13 -5.13)"/><path class="cls-4" d="M94.34,55.42l.2.09c3.53,1.64,7.25,3,10.4,5.3,1.79,1.29,8.27,7.45,10.59,6.73C113.91,65.07,94.75,53.65,94.34,55.42Z" transform="translate(-5.13 -5.13)"/><path class="cls-4" d="M124.53,110.4c-.61-.72-6.27-10.1-7-9.13-1,1.23,8.11,14,9.11,13.81C129.22,114.61,125.24,111.22,124.53,110.4Z" transform="translate(-5.13 -5.13)"/><path class="cls-4" d="M126.62,115.08Z" transform="translate(-5.13 -5.13)"/><path class="cls-4" d="M42.79,131.23c.44-.11-4.13-8.49-4.78-9.57s-3.19-9.14-3.61-9.17c-2.44-.07,1.75,7.94,2.31,9,.91,1.75,4,9.56,6,9.74h0C43.08,131.24,42.91,131.23,42.79,131.23Z" transform="translate(-5.13 -5.13)"/><path class="cls-4" d="M37.52,50.12c1.56.34,5.28-4.44,6.63-5.28.89-.57,8.79-4.43,8.46-5.12-.51-1-8.26,3.73-8.85,4.17S35.69,50,37.52,50.12Z" transform="translate(-5.13 -5.13)"/><path class="cls-4" d="M37.52,50.12c-.53,0,.21,0,0,0Z" transform="translate(-5.13 -5.13)"/><path class="cls-4" d="M103.79,43.5c-.36-.45-4.22-1.24-4.82-1.48a18,18,0,0,0-6.5-1.17c-2.69-.12-6.31-3.17-9.12-1-1.33,1,3.78.57,3.57.53,2.37,0,4.57,1.09,6.88,1.47,1.81.3,8.22,2.56,9.89,1.74,0,0,.06,0,.13-.06S103.8,43.51,103.79,43.5Z" transform="translate(-5.13 -5.13)"/><path class="cls-4" d="M69.75,20.23A4.91,4.91,0,0,0,68.13,20c-1.37.09-2.85,1.11-4.32,1.32-.7.11-7.31,1.39-6.92,2.72C57.06,24.69,70.32,21.41,69.75,20.23Z" transform="translate(-5.13 -5.13)"/><path class="cls-4" d="M109.49,41.39c-1.12,0-9.89-2.67-9.85-1.67s8.73,2.65,9.71,2.63,2.9,2.63,3.84,1.44-3-2.38-3.7-2.4Z" transform="translate(-5.13 -5.13)"/><path class="cls-4" d="M109.49,41.39Z" transform="translate(-5.13 -5.13)"/><path class="cls-4" d="M102.76,49.71c.53-.48-4-2.54-5.05-2.8,0,0,0,0-.15,0-.79.07-8-2.18-7.77-.59C89.83,46.59,102.9,49.61,102.76,49.71Z" transform="translate(-5.13 -5.13)"/><path class="cls-4" d="M110.56,151.75h-.07c-1-.05-8.52-2.54-8.5-2.56-.59,2.25,5.73,2.77,6.67,3.21C111.62,153.74,113.85,152.24,110.56,151.75Z" transform="translate(-5.13 -5.13)"/><path class="cls-4" d="M74.36,54c.1.24,8,.38,8.77-.62.71-.84-2.94-1-3.13-1C79.35,52.28,74.05,53.25,74.36,54Z" transform="translate(-5.13 -5.13)"/><path class="cls-4" d="M80,52.33Z" transform="translate(-5.13 -5.13)"/><path class="cls-4" d="M107.47,51.41a1,1,0,0,0,1,.82h.27c1.09-.36,4.88,4.1,6,3S107.33,50.06,107.47,51.41Z" transform="translate(-5.13 -5.13)"/><path class="cls-4" d="M117.09,57.66h0c1,0,5,3.32,5.45,2.66s-3.93-3.14-4.31-3.52C115.7,54.23,115,57.73,117.09,57.66Z" transform="translate(-5.13 -5.13)"/><path class="cls-4" d="M117.1,57.66h0C117,57.67,117,57.67,117.1,57.66Z" transform="translate(-5.13 -5.13)"/><path class="cls-4" d="M117.79,125.84c0-.09,0-.15,0,.08s0,.12,0,0c.12,1.3,5.47,4.9,6,4.19C124,129.89,118,124.07,117.79,125.84Z" transform="translate(-5.13 -5.13)"/><path class="cls-4" d="M95.06,53.31c.83-.11,6.25,2,6.3,1.88.59-.91-3.88-2.65-4.59-2.77-.94-.15-2.18,0-2.9-.73C94.21,52.06,92.33,53,95.06,53.31Z" transform="translate(-5.13 -5.13)"/><path class="cls-4" d="M104,44.27c3.27.63,6.06,2.51,9.41,3.25C111.82,45.5,105.9,43.48,104,44.27Z" transform="translate(-5.13 -5.13)"/><path class="cls-4" d="M91.49,51.58c-.48-1.07-5-2-5.5-.95s2.65,1.4,3,1.44C89.22,52.06,91.8,52.29,91.49,51.58Z" transform="translate(-5.13 -5.13)"/><path class="cls-4" d="M69,111.48c-.12-1.41-1.43-1.52-1.63.1-.09.73,1.42,3.53,2.18,3.34,1.39-.35-.71-2.57-.54-3.09C69.05,111.49,69,111.43,69,111.48Z" transform="translate(-5.13 -5.13)"/><path class="cls-4" d="M85.29,53.08c0,.32,3.53,1,3.89,1s.27,0,.16,0c.84.12,3.5,1.09,3.54.09C92.9,53.43,85.28,52,85.29,53.08Z" transform="translate(-5.13 -5.13)"/><path class="cls-4" d="M89.34,54.06l-.16,0C89,54.08,89.21,54.07,89.34,54.06Z" transform="translate(-5.13 -5.13)"/><path class="cls-4" d="M96.75,147c.17,1.17,3.67,2.79,4.07,1.41C100.57,148.3,96.58,145.79,96.75,147Z" transform="translate(-5.13 -5.13)"/><path class="cls-4" d="M103,33.88c-.12-.3,2.21.87,2.21.87,1.44.47,2.55-1.73-.11-1.63C105.17,33.12,102.71,33.09,103,33.88Z" transform="translate(-5.13 -5.13)"/><path class="cls-4" d="M105.12,33.12c.43,0-.44,0,0,0Z" transform="translate(-5.13 -5.13)"/><path class="cls-4" d="M108.75,48.88c1.43-.19-2.92-2.84-3.53-1.66-.4.78,2.58,1.5,3.37,1.64C108.29,48.83,107.8,48.8,108.75,48.88Z" transform="translate(-5.13 -5.13)"/><path class="cls-4" d="M73,21.24a1,1,0,0,0,.33-2C72.38,19,70.45,21.08,73,21.24Z" transform="translate(-5.13 -5.13)"/><path class="cls-4" d="M119.31,54.69Z" transform="translate(-5.13 -5.13)"/><path class="cls-4" d="M119.31,54.69c.25,0,.86,0,1-.34s-3-2.16-3.47-1.57C116.22,53.56,118.87,54.68,119.31,54.69Z" transform="translate(-5.13 -5.13)"/><path class="cls-4" d="M102.55,47.21c-.25,0,.44,0,0,0Z" transform="translate(-5.13 -5.13)"/><path class="cls-4" d="M103.76,46.56c-.18-2.5-4.25.83-1.21.65C103.22,47.29,103.62,47.07,103.76,46.56Z" transform="translate(-5.13 -5.13)"/><path class="cls-4" d="M76.81,58.49l-.06.06c1.49-.28,4.22.7,5.27-.85C80.83,57.89,77.79,57.49,76.81,58.49Z" transform="translate(-5.13 -5.13)"/><path class="cls-4" d="M74.09,58.85c-.26-.54-3.3.72-1.7,1.08.38,0,.28,0,.15,0C73.05,59.84,74.39,59.47,74.09,58.85Z" transform="translate(-5.13 -5.13)"/><path class="cls-5" d="M86.36,71.47a27.23,27.23,0,0,0-.69-2.8A27.23,27.23,0,0,1,86.36,71.47Z" transform="translate(-5.13 -5.13)"/><path class="cls-5" d="M86.92,77.24c0-1,0-1.94-.14-2.9C86.87,75.3,86.92,76.27,86.92,77.24Z" transform="translate(-5.13 -5.13)"/><path class="cls-5" d="M84.71,88.55c.23-.56.44-1.12.63-1.69C85.15,87.43,84.94,88,84.71,88.55Z" transform="translate(-5.13 -5.13)"/><path class="cls-5" d="M81.06,95.07a29.75,29.75,0,0,1-1.9,2.33A29.75,29.75,0,0,0,81.06,95.07Z" transform="translate(-5.13 -5.13)"/><path class="cls-5" d="M91.9,77.24c0-1.13-.06-2.26-.16-3.38.1,1.12.16,2.25.16,3.38Z" transform="translate(-5.13 -5.13)"/><path class="cls-5" d="M86.92,77.24c0,.52,0,1,0,1.56C86.9,78.28,86.92,77.76,86.92,77.24Z" transform="translate(-5.13 -5.13)"/><path class="cls-5" d="M70,109.71a35,35,0,0,1-8.11,2.21A35,35,0,0,0,70,109.71Z" transform="translate(-5.13 -5.13)"/><path class="cls-5" d="M43.67,109.71h0a35,35,0,0,0,13.18,2.57,35,35,0,0,1-13.18-2.57Z" transform="translate(-5.13 -5.13)"/><path class="cls-5" d="M76.22,106.46c-1,.64-2,1.23-3,1.78C74.25,107.69,75.25,107.1,76.22,106.46Z" transform="translate(-5.13 -5.13)"/><path class="cls-5" d="M46.91,105.61c.91.32,1.84.59,2.77.82C48.75,106.2,47.82,105.93,46.91,105.61Z" transform="translate(-5.13 -5.13)"/><path class="cls-6" d="M81.64,52.47,78.11,56a30.05,30.05,0,1,1-42.5,42.5L32.09,102c.56.56,1.07,1.17,1.66,1.69a34.58,34.58,0,0,0,9.93,6,35,35,0,0,0,38-57.24" transform="translate(-5.13 -5.13)"/><path class="cls-7" d="M78.11,56a30,30,0,1,0,6.6,9.94A29.8,29.8,0,0,0,78.11,56" transform="translate(-5.13 -5.13)"/><path class="cls-8" d="M49.45,48.1a30.73,30.73,0,0,0-3.94,1.29c-.61.25-1.19.52-1.78.8-.19.15-.38.3-.55.46C36,57.36,31.1,66.32,27.86,75.66c-.37,1-.72,2.11-1.05,3.17a29.82,29.82,0,0,0,1.38,7.57C32.3,71.73,39,57.68,49.45,48.1Z" transform="translate(-5.13 -5.13)"/><path class="cls-8" d="M57.25,69.89A89.54,89.54,0,0,0,44.9,94.38c-.34,1.08.37,6.47.25,10.56l.36.16c.56.22,1.13.43,1.7.62,0-.47,0-1,0-1.42.08-1.45-.45-8.84.67-9.69.34-.26,2.31-4.49,2.7-1.18.17,1.42-.77,7.46-1.17,13,.89.22,1.78.4,2.68.54-.23-3.08-.2-5.75,1.44-5.77s1.86,2.92,1.65,6.09c.53,0,1.06,0,1.59,0h.27c0-1.57.16-2.66.76-2.75s1.26,1,1.67,2.63c.82-.07,1.63-.18,2.43-.32-.38-2.72-.44-5.65-.05-6.17.84-1.1,1.86,2.58,2.39,5.68.85-.22,1.7-.48,2.54-.77,0-.11,0-.21,0-.32,0-1.71-1.23-4.08-1-5.84,1-8.83,2.28,4.07,2.84,4.79a2.26,2.26,0,0,1,.3.51q1.14-.49,2.22-1.08a26.56,26.56,0,0,1-.37-5.55c.15-3.08-.29-3.31-1.31-5.81-1.17-2.86,1.55-8.74,2.88-11.22,2.55-4.77,8.1-9.27,13.8-10.2-.08-.39-.17-.77-.26-1.14a15.51,15.51,0,0,0-5.79,1.82C74.71,74.49,70,77.21,67.78,83.34c-.35,1-3.08,16.47-5.85,15.35-4.82-2,8.35-24.74,10.65-26.76a25,25,0,0,1,12.2-5.72c0-.09-.07-.18-.11-.28-.17-.42-.36-.84-.55-1.26a73.79,73.79,0,0,1-7.46,3c-2.54.85-3.82.62-5.9,2.44s-3.22,5.31-5.07,6.85C64.4,78,55.93,98.18,57.17,98.45c-3.55-.76,4-20.5,5.4-22.71,3.91-6.12,12.33-13.44,20.3-13.48q-.51-.88-1.08-1.74c-2.05.65-4,1.56-5,1.72C65.7,64.08,60.6,74,55.76,83c-.5.92-2.89,8-3,8C47.89,92,54,80.35,54.53,79.3c3.75-6.81,13-20.1,21.76-20.69,1.36-.09,2.7-.13,4-.12-.53-.66-1.1-1.31-1.69-1.93A34.28,34.28,0,0,0,57.25,69.89Zm1.29,30.93c.84,1.58-2,1.78-1.86-.5C55.9,97.91,58.39,100.52,58.54,100.82Z" transform="translate(-5.13 -5.13)"/><path class="cls-8" d="M42.53,85a48.39,48.39,0,0,0-2.75,17,27.5,27.5,0,0,0,2.37,1.47c.18-2.58.57-5,.57-5.38,0-9.18,5.61-19.72,10.45-27.18,5.68-8.78,13.63-14.71,22.52-17-.69-.56-1.4-1.09-2.14-1.59C58.32,56.81,48.14,69.7,42.53,85Z" transform="translate(-5.13 -5.13)"/><path class="cls-8" d="M61.54,48a5.29,5.29,0,0,1,.71-.33,29,29,0,0,0-3.83-.46A45.17,45.17,0,0,0,45,57C36.71,65.92,32.3,77.55,29.38,89.5a30.19,30.19,0,0,0,2.55,4.59C34.84,82.76,37.28,71,44.78,61.73,49.53,55.86,55.16,51.81,61.54,48Z" transform="translate(-5.13 -5.13)"/><path class="cls-8" d="M36.7,98.84c-.05-1.35,1.3-7.57,1.71-9.23,4.12-16.78,14.51-34,31.05-39.64-.44-.2-.88-.4-1.33-.58l-.25-.09-2.12.94C51.63,56.65,43.28,65.85,38.19,80.77,37,84.33,35.94,88,35,91.62c-.29,1.15-1.47,2.73-2,4a28.86,28.86,0,0,0,2.54,2.89c.37.37.74.73,1.13,1.08C36.71,99.32,36.71,99.08,36.7,98.84Z" transform="translate(-5.13 -5.13)"/><path class="cls-8" d="M84.35,85.31c.12-.85-1.13-5.1-2-5.1-3,0-2.51,6.59-2.58,8.16a67.64,67.64,0,0,0,.09,8.18,29.73,29.73,0,0,0,4.4-7A20.92,20.92,0,0,1,84.35,85.31Z" transform="translate(-5.13 -5.13)"/><path class="cls-8" d="M79.92,77c-5.35,2.3-6.79,7.57-6.6,13,.14,3.75.2,8,.52,12a30.59,30.59,0,0,0,3.52-2.84C76.73,93.37,76.72,87,78.53,82c2.4-6.69,5.51-2.93,7.64.6a3.18,3.18,0,0,1,.16.32,30.47,30.47,0,0,0,.53-5.06C85.36,76.19,83.18,75.59,79.92,77Z" transform="translate(-5.13 -5.13)"/><path class="cls-8" d="M86.85,76.45c0-.89-.08-1.78-.18-2.66A1.45,1.45,0,0,0,86.85,76.45Z" transform="translate(-5.13 -5.13)"/><path class="cls-5" d="M29,88.55A30.06,30.06,0,0,1,82.72,61.91,30,30,0,0,0,78.11,56l3.53-3.52A35,35,0,1,0,32.09,102l3.52-3.53A29.8,29.8,0,0,1,29,88.55Z" transform="translate(-5.13 -5.13)"/></g><circle class="cls-9" cx="72.83" cy="72.83" r="70.87"/></g></svg>