<svg xmlns="http://www.w3.org/2000/svg" xmlns:xlink="http://www.w3.org/1999/xlink" viewBox="0 0 505.73 249.47"><defs><style>.a{fill:#93a18b;}.b{fill:#bec6b9;}.c{fill:#9fae97;}.d{fill:#a6caea;}.e{fill:#f2f9fc;}.f{fill:#fff;}.g{fill:#eaf6fd;}.h{fill:#36a9e1;}.i{fill:#d3d0db;}.j{fill:#71a5cf;}.k{opacity:0.2;fill:url(#a);}.l,.t{fill:#f5ad20;}.l{stroke:#eaeaea;stroke-width:4px;}.l,.s{stroke-miterlimit:10;}.m{fill:#eaeaea;}.n{fill:#be1622;}.o{fill:#ebebeb;}.p{fill:#323232;}.q{fill:#f5ad1f;}.r{fill:#3c3c3b;}.s{fill:none;stroke:#5b5b5a;stroke-width:3px;}.u{fill:#fef8c8;}.v{fill:#f39200;}.w{fill:#e71d73;}.x{fill:#87cdd3;}</style><linearGradient id="a" x1="-89.85" y1="162.13" x2="-89.85" y2="206.39" gradientTransform="matrix(-1, 0, 0, 1, 164.58, 0)" gradientUnits="userSpaceOnUse"><stop offset="0" stop-color="#fff"/><stop offset="1" stop-opacity="0"/></linearGradient></defs><title>G07_19</title><polygon class="a" points="344.68 191.95 344.68 196.7 255.21 249.47 255.21 244.72 344.68 191.95"/><polygon class="b" points="255.21 244.72 255.21 249.47 159.11 193.74 159.11 188.99 255.21 244.72"/><polygon class="c" points="254.99 244.74 158.89 189.01 158.89 188.74 249.2 136.84 344.68 191.96 255.14 244.83 254.99 244.74"/><path class="a" d="M199.55,204.4c-2.89,1.7-2.89,4.49,0,6.19l28.1,16.53a11.49,11.49,0,0,0,10.52,0l73.26-43c2.89-1.7,2.89-4.48,0-6.18l-28.16-16.54a11.49,11.49,0,0,0-10.52,0Z" transform="translate(-3.02 -4.05)"/><path class="d" d="M202.87,202c-2.68,1.57-2.68,4.14,0,5.72l26,15.28a10.62,10.62,0,0,0,9.72,0l67.7-39.74c2.68-1.57,2.68-4.14,0-5.71l-26-15.28a10.64,10.64,0,0,0-9.73,0Z" transform="translate(-3.02 -4.05)"/><polyline class="d" points="197.84 200.8 197.84 196.93 199.62 197.89 200.21 199.14 199.55 200.8"/><polyline class="d" points="305.25 172.98 305.25 176.28 302.98 178.52 301.97 174.93 301.97 173.35"/><path class="e" d="M202.87,198.54c-2.68,1.57-2.68,4.14,0,5.71l26,15.28a10.59,10.59,0,0,0,9.72,0l67.7-39.74c2.68-1.57,2.68-4.14,0-5.71l-26-15.29a10.64,10.64,0,0,0-9.73,0Z" transform="translate(-3.02 -4.05)"/><path class="f" d="M202.87,198.73c-2.68,1.57-2.68,4.15,0,5.72l26,15.28a10.62,10.62,0,0,0,9.72,0L306.26,180c2.68-1.57,2.68-4.14,0-5.72l-26-15.28a10.64,10.64,0,0,0-9.73,0Z" transform="translate(-3.02 -4.05)"/><path class="g" d="M202.87,198.54c-2.68,1.57-2.68,4.14,0,5.71l26,15.28a10.59,10.59,0,0,0,9.72,0l67.7-39.74c2.68-1.57,2.68-4.14,0-5.71l-26-15.29a10.64,10.64,0,0,0-9.73,0Z" transform="translate(-3.02 -4.05)"/><polygon class="h" points="268.15 156.16 208.63 191.06 241.38 210.38 300.82 175.37 268.15 156.16"/><path class="f" d="M216.3,206.59c-.06,1.17,1.92,2.12,4.42,2.12s4.56-1,4.62-2.12-1.93-2.13-4.43-2.13S216.35,205.41,216.3,206.59Z" transform="translate(-3.02 -4.05)"/><path class="i" d="M216.39,206.55c0,1.16,2,2.09,4.52,2.09s4.52-.93,4.52-2.09-2-2.09-4.52-2.09S216.39,205.39,216.39,206.55Z" transform="translate(-3.02 -4.05)"/><path class="e" d="M217.36,206.5c0,.88,1.59,1.59,3.55,1.59s3.55-.71,3.55-1.59-1.59-1.6-3.55-1.6S217.36,205.61,217.36,206.5Z" transform="translate(-3.02 -4.05)"/><path class="f" d="M221,208c-2,0-3.55-.72-3.55-1.6a.75.75,0,0,1,.1-.36.8.8,0,0,0-.17.48c0,.88,1.59,1.59,3.55,1.59,1.69,0,3.1-.52,3.46-1.23C223.92,207.51,222.57,208,221,208Z" transform="translate(-3.02 -4.05)"/><path class="f" d="M294.66,170.3l0,0h0l-7.39-4.3h0a1.8,1.8,0,0,0-.84-.19c-.61,0-1.1.23-1.1.52a.29.29,0,0,0,.12.22.17.17,0,0,0,.06.06h0l7.37,4.29,0,0a1.87,1.87,0,0,0,.87.19c.61,0,1.1-.23,1.1-.51A.34.34,0,0,0,294.66,170.3Z" transform="translate(-3.02 -4.05)"/><path class="i" d="M294.77,170.22l0,0h0l-7.39-4.3h0a1.79,1.79,0,0,0-.83-.19c-.61,0-1.11.23-1.11.52a.33.33,0,0,0,.12.22l.06.06h0l7.36,4.29h0a1.8,1.8,0,0,0,.87.2c.61,0,1.11-.23,1.11-.51A.36.36,0,0,0,294.77,170.22Z" transform="translate(-3.02 -4.05)"/><polygon class="j" points="207.42 207.21 201.31 203.67 201.31 202.54 207.42 206.07 207.42 207.21"/><path class="j" d="M212.18,211.59c0,.48-.24.71-.55.52a1.53,1.53,0,0,1-.54-1.19c0-.47.24-.7.54-.52A1.5,1.5,0,0,1,212.18,211.59Z" transform="translate(-3.02 -4.05)"/><path class="j" d="M228.22,221.05c0,.47-.24.7-.55.52a1.53,1.53,0,0,1-.54-1.19c0-.47.24-.71.54-.52A1.5,1.5,0,0,1,228.22,221.05Z" transform="translate(-3.02 -4.05)"/><path class="j" d="M227,220.4c0,.47-.24.7-.55.52a1.54,1.54,0,0,1-.54-1.2c0-.47.24-.7.54-.51A1.5,1.5,0,0,1,227,220.4Z" transform="translate(-3.02 -4.05)"/><path class="k" d="M218.61,199.24l78.59-23.76-26-15.28-59.51,34.91C211.65,195.4,218.61,199.24,218.61,199.24Z" transform="translate(-3.02 -4.05)"/><circle class="l" cx="442.4" cy="136.97" r="61.33"/><path class="m" d="M459.72,120.94h0a3.4,3.4,0,0,1,.77.27,1.14,1.14,0,0,0,.62.2h0a.55.55,0,0,0,.45-.19.45.45,0,0,0,.11-.3.51.51,0,0,0-.08-.28.33.33,0,0,0-.2-.18h0s0,0,0,0,0-.12.18-.22a3,3,0,0,1,1.05-.55,7.09,7.09,0,0,1,.9-.06,2.44,2.44,0,0,1,.64.06h.12a.91.91,0,0,0,.59-.28,1.94,1.94,0,0,0,.37-.43.22.22,0,0,0,0-.13.31.31,0,0,0-.17-.26.59.59,0,0,0-.29-.07.45.45,0,0,0-.39.19s-.26.13-.5.12a1.34,1.34,0,0,1-.41,0h-.12a5.3,5.3,0,0,0-.86.13,6.88,6.88,0,0,1-.75.13.59.59,0,0,0-.44.26,1.16,1.16,0,0,1-.37.32c-.37.19-.87.48-1.05.57a.7.7,0,0,0-.34.55A.23.23,0,0,0,459.72,120.94Zm-48.22-2.49c.18,0,.45-.06.58-.06h0l0,.11a.36.36,0,0,0,.29.16,3.06,3.06,0,0,0,.51.09h0a.19.19,0,0,0,.17-.1.24.24,0,0,0,0-.16.75.75,0,0,0-.14-.42c-.06-.08-.08-.15-.16-.2a1.37,1.37,0,0,0-.31-.13,2.42,2.42,0,0,0-.67-.1h-.23a2.23,2.23,0,0,0-.33,0,.39.39,0,0,0-.28.34.11.11,0,0,0,0,0A.45.45,0,0,0,411.5,118.45Zm7.48,5.69a.32.32,0,0,0-.14,0h0a.27.27,0,0,0-.22.25.33.33,0,0,0,.34.29l.14,0a.31.31,0,0,0,.17-.26.32.32,0,0,0-.08-.2A.32.32,0,0,0,419,124.14Zm4.19,16.06h0a.37.37,0,0,0-.26.39.48.48,0,0,0,.07.26.31.31,0,0,0,.26.15h0l.11,0a.37.37,0,0,0,.25-.36.4.4,0,0,0-.36-.42Zm-32.58-12.33-.36-.16H390a1.22,1.22,0,0,0-.34,0,.31.31,0,0,0-.25.18.19.19,0,0,0,0,.08.24.24,0,0,0,.11.19,1.12,1.12,0,0,0,.54.15,1.38,1.38,0,0,0,.39-.09l.17-.06.06,0a.17.17,0,0,0,.08-.13A.14.14,0,0,0,390.59,127.87Zm31.23,11.9a2.11,2.11,0,0,0-.43.06,1.09,1.09,0,0,0-.43.3,3.24,3.24,0,0,0-.25.24.14.14,0,0,0,0,.14.13.13,0,0,0,.1.1,3.24,3.24,0,0,0,.5.06c.11,0,.2.09.38.2a.33.33,0,0,0,.16,0,.93.93,0,0,0,.32-.09l.11-.05h0l.05.06s.05.08.17.1a.2.2,0,0,0,.17-.14.5.5,0,0,0,0-.19.43.43,0,0,0,0,0,.83.83,0,0,0-.63-.75A1,1,0,0,0,421.82,139.77ZM392.26,127h0a.24.24,0,0,0-.34.12c0,.09-.05.19-.08.25s0,.09-.06.09a1.85,1.85,0,0,0-.33.12l-.13.08a.21.21,0,0,0-.08.17.15.15,0,0,0,.06.13.53.53,0,0,0,.1.06l.21,0A1.67,1.67,0,0,0,392,128a.49.49,0,0,0,.3-.17,1.09,1.09,0,0,0,.06-.23,2.64,2.64,0,0,0,0-.28.71.71,0,0,0,0-.15A.19.19,0,0,0,392.26,127Zm40.37,22h0c-.24-.11-.59-.15-.69-.33a1.24,1.24,0,0,0-.37-.35.93.93,0,0,0-.45-.17l-.11,0a.71.71,0,0,1-.26.06.37.37,0,0,1-.23-.07c-.23-.16-.57-.36-.68-.46a1.3,1.3,0,0,0-.72-.26l-.13,0a.24.24,0,0,0-.14,0,.4.4,0,0,0-.12-.23.43.43,0,0,0-.28-.11h0a.31.31,0,0,0,.12-.21,1,1,0,0,0-.07-.34.37.37,0,0,0-.33-.27h0a3.23,3.23,0,0,0-.35-.67,1.48,1.48,0,0,0-1-.66l-.13,0c-.14,0-.26.05-.34.05s-.13,0-.22-.16a2.43,2.43,0,0,0-.45-.61.3.3,0,0,0-.28-.16l-.2,0-.06-.07a.13.13,0,0,0-.13,0,1.82,1.82,0,0,0,.22-.76.31.31,0,0,0,0-.1l0-.07A.16.16,0,0,0,425,143a.08.08,0,0,0-.07,0h0c-.08,0-.09.09-.12.13s-.09.16-.13.23,0,0,0,0a.74.74,0,0,0-.22-.23.64.64,0,0,0-.37-.11.77.77,0,0,0-.34.08.35.35,0,0,0-.19.27h0l0-.05a.44.44,0,0,0-.43-.24.55.55,0,0,0-.38.13,1.72,1.72,0,0,1-.09-.19l-.08-.17a.25.25,0,0,0-.19-.12.86.86,0,0,0-.66.52l0,.09a.34.34,0,0,1,0-.11.77.77,0,0,1,.08-.19.71.71,0,0,0,.1-.3.24.24,0,0,0-.18-.23h-.09a.79.79,0,0,0-.42.2l-.15.11-.05,0h0a1.32,1.32,0,0,0-.64.56c-.16.26-.24.4-.35.46l-.08,0h-.05a.26.26,0,0,0-.09-.18.86.86,0,0,0-.52-.28.18.18,0,0,0-.17.09,2.19,2.19,0,0,1-.5.3h-.06c-.07,0-.23-.15-.25-.23s-.14-.13-.17-.52a.81.81,0,0,1,0-.16,3.36,3.36,0,0,1,.13-.89.43.43,0,0,0,0-.11,1,1,0,0,0-.26-.52.74.74,0,0,0-.45-.28h-.05a.92.92,0,0,0-.3.14.45.45,0,0,1-.19.08h0a.25.25,0,0,1-.12,0,.4.4,0,0,0-.22,0,.76.76,0,0,0,.06-.18,1.09,1.09,0,0,0,0-.18v-.29a.44.44,0,0,1,.13-.37.75.75,0,0,0,.23-.57.88.88,0,0,0-.07-.33.34.34,0,0,0-.23-.22h-.09c-.2,0-.44.08-.61.08h-.12a.48.48,0,0,0-.46.51,1.11,1.11,0,0,0,0,.17.28.28,0,0,1,0,.09.33.33,0,0,1,0,.15l0,0a.38.38,0,0,0-.22-.07.58.58,0,0,0-.37.17c-.11.1-.17.11-.19.11s-.13,0-.31-.23a1.65,1.65,0,0,1-.61-.92,4.82,4.82,0,0,1-.05-.62,1.32,1.32,0,0,1,.06-.45,1.14,1.14,0,0,0,.09-.46.84.84,0,0,0,0-.27.39.39,0,0,0-.1-.16h0a.83.83,0,0,1,.29-.22,1.38,1.38,0,0,0,.6-.54.73.73,0,0,1,.21,0h.27a.73.73,0,0,1,.56.17.46.46,0,0,0,.24.08.28.28,0,0,0,.27-.17.69.69,0,0,0,0-.22s0-.11.22-.11h.16c.24,0,.52-.07.64-.07h0l.12.19c.07.08.13.2.3.21a.28.28,0,0,0,.16,0s0,0,0,0a4,4,0,0,0,.14.63.82.82,0,0,0,.36.5s.06.06.09.18a1.14,1.14,0,0,0,.07.19.32.32,0,0,0,.22.14h0a.3.3,0,0,0,.22-.1,1.11,1.11,0,0,0,.19-.66.61.61,0,0,0,0-.24c0-.1-.1-.33-.16-.54a1.71,1.71,0,0,0-.23-.54.34.34,0,0,1-.06-.2.29.29,0,0,1,.14-.28,2.79,2.79,0,0,0,.61-.48c.21-.2.42-.4.51-.5s.19-.13.32-.22a.5.5,0,0,0,.28-.38.27.27,0,0,0-.06-.17,1.21,1.21,0,0,1-.18-.41.22.22,0,0,0,.15.06.38.38,0,0,0,.27-.16.45.45,0,0,0,.14-.3.27.27,0,0,0,0-.12.23.23,0,0,1,0-.11s0,0,0,0h.07a.29.29,0,0,0,.22-.1.31.31,0,0,0,.07-.2.33.33,0,0,0,0-.17.18.18,0,0,1,.15-.05h0a.46.46,0,0,0,.2,0,1.27,1.27,0,0,0,.39-.06.55.55,0,0,0,.31-.18.33.33,0,0,0,0-.13.52.52,0,0,0-.11-.26.27.27,0,0,1,.07-.42.64.64,0,0,1,.25-.14l.27,0a.35.35,0,0,0,.14,0,.2.2,0,0,0,.14-.14h0a.33.33,0,0,1,.06-.06,1.6,1.6,0,0,0,0,.3.42.42,0,0,0,.08.21.25.25,0,0,0,.23.12.69.69,0,0,0,.4-.17l.14-.11.05,0h0c.07,0,.57-.15.67-.19l.37-.07a1.22,1.22,0,0,0,.24-.1.27.27,0,0,0,.15-.24.22.22,0,0,0,0-.08,2.24,2.24,0,0,0-.26-.58.21.21,0,0,0-.16-.08.32.32,0,0,0-.21.11l-.11.17s-.07.06-.09.06h0a.64.64,0,0,1,0-.2.77.77,0,0,0,0-.15.21.21,0,0,0-.19-.14.22.22,0,0,0-.14.05,1.64,1.64,0,0,0-.18.16h0a.43.43,0,0,1-.07-.1h0a.48.48,0,0,0,.11-.28.51.51,0,0,0-.09-.27.54.54,0,0,0-.44-.26.85.85,0,0,0-.46.16,1,1,0,0,1-.26.13h0c.16-.17.4-.26.59-.48,0,0,0,0,.05,0a.55.55,0,0,1,.22.07.58.58,0,0,1,.12.07.12.12,0,0,0,.14,0v.06a1,1,0,0,0,0,.24.25.25,0,0,0,.23.19.79.79,0,0,0,.35-.11l.15-.11s.08-.07.09-.14h0a.72.72,0,0,0,.33-.13c.15-.13.31-.12.49-.21a.92.92,0,0,0,.19-.23c.05-.08.09-.1.1-.09s0,0,0,0a.24.24,0,0,1-.11.17,1,1,0,0,0-.31.48,1.56,1.56,0,0,1-.12.31.33.33,0,0,0-.11.23.27.27,0,0,0,.09.2.34.34,0,0,0,.22.07H426a.74.74,0,0,0,.25,0h.05c.05,0,.09,0,.13.1a.18.18,0,0,0,.16.1.29.29,0,0,0,.2-.1l0,0H427c.08,0,.12,0,.12,0a.23.23,0,0,0,.18.11.19.19,0,0,0,.18-.13.45.45,0,0,0,0-.16.41.41,0,0,0-.05-.21c-.08-.17-.18-.32-.25-.5a.43.43,0,0,0-.39-.3.65.65,0,0,0-.18,0h-.06l-.07,0a.6.6,0,0,0-.14-.12l0,0a3.35,3.35,0,0,0,.19-.38l.13-.21a.61.61,0,0,0,.11-.31.31.31,0,0,0-.25-.29,1.55,1.55,0,0,1-.32-.12c-.05,0-.06-.06-.08-.13a1,1,0,0,0-.3-.4,1.35,1.35,0,0,0-.19-.16.37.37,0,0,0-.2-.08,1.24,1.24,0,0,1-.25,0,.24.24,0,0,1-.11,0h0a2.51,2.51,0,0,0-.45-.72l-.37-.48-.21-.28-.15-.17a.25.25,0,0,0-.15-.06c-.2,0-.29.16-.48.44s-.29.32-.36.32l-.09,0-.18-.09a.72.72,0,0,1-.16-.19s0,0,0,0a.31.31,0,0,1,.06-.06.34.34,0,0,0,.11-.21.2.2,0,0,0,0-.11.62.62,0,0,0-.4-.24,2.89,2.89,0,0,0-.47-.08.85.85,0,0,1-.3-.18,1,1,0,0,0-.54-.23h-.19c-.36,0-.74.07-.82.07a.23.23,0,0,0-.19.09,1.56,1.56,0,0,0-.13.59.62.62,0,0,0,0,.13.73.73,0,0,0,0,.23.06.06,0,0,0,0,0l-.18,0a.2.2,0,0,0-.09.05.17.17,0,0,0-.07.13.24.24,0,0,0,.08.16l.13.08a1.26,1.26,0,0,1,.32.33l.16.21a.29.29,0,0,1,0,.09.4.4,0,0,1-.12.21.73.73,0,0,1-.25.18h0a.37.37,0,0,0-.33-.2.3.3,0,0,0-.17,0,.25.25,0,0,0-.09.19.23.23,0,0,0,0,.11,1.33,1.33,0,0,0,.16.26.32.32,0,0,1,.06.16,1.51,1.51,0,0,0,.08.34,1.39,1.39,0,0,1,.06.31.1.1,0,0,1,0,.07.13.13,0,0,1-.1,0l-.22,0h-.07l0-.08a.32.32,0,0,0,.08-.23,2.14,2.14,0,0,0-.07-.44.15.15,0,0,0-.12-.1.16.16,0,0,0-.14.07l-.05.09a1,1,0,0,0-.06-.14.33.33,0,0,1-.05-.16.4.4,0,0,0-.11-.3.38.38,0,0,0-.29-.11l-.17,0h-.08a6.9,6.9,0,0,1-.83-.2,2.47,2.47,0,0,1-1-.36.8.8,0,0,0-.42-.14,1.22,1.22,0,0,0-.32.08s0-.12-.07-.21a.37.37,0,0,0-.25-.28,2.3,2.3,0,0,0-.27,0v0a.58.58,0,0,1,0-.17.62.62,0,0,1,0-.13.33.33,0,0,1,.11-.27,4,4,0,0,1,.5-.42,4.21,4.21,0,0,0,.54-.5.46.46,0,0,1,.34-.16,1.28,1.28,0,0,1,.26,0h.26a.34.34,0,0,0,.16,0,.23.23,0,0,0,.1-.19.62.62,0,0,1,0-.12l0,0,.1.08h0a.42.42,0,0,0-.17.28.21.21,0,0,0,.16.19.58.58,0,0,0,.19,0,.9.9,0,0,0,.39-.13l.2-.11a.34.34,0,0,1,.1,0,.53.53,0,0,1,.2,0h0c0,.07.06.16.11.25h0a.36.36,0,0,0-.23-.08.35.35,0,0,0-.29.16h0a.14.14,0,0,0,0,.11c0,.15.11.17.17.21a.84.84,0,0,0,.24.06.28.28,0,0,0,.24-.13.2.2,0,0,0,0-.11.23.23,0,0,0,0-.11.27.27,0,0,0,.21.07.63.63,0,0,0,.31-.1.4.4,0,0,0,.19-.32.37.37,0,0,0-.19-.3,3,3,0,0,0-.45-.22.56.56,0,0,1-.28-.2l-.11-.12.34-.13s.14,0,.25-.08a.43.43,0,0,0,.27-.36.3.3,0,0,0,0-.1.54.54,0,0,0-.27-.35l-.11,0a.64.64,0,0,1,.18-.1s.06,0,.13,0H419l.09,0h.09a.34.34,0,0,0,.16,0,.18.18,0,0,0,.1-.06s0,0,0,.06a.22.22,0,0,0,.17.07l.09,0,.13,0c.06,0,.07,0,.17.09v0a.49.49,0,0,1-.05.18l-.05.08,0,0-.15.08a.29.29,0,0,0-.13.2.2.2,0,0,0,.11.16l.16,0c.3,0,.51,0,.52,0a.11.11,0,0,0,.1-.05,1.8,1.8,0,0,0,.29-.44h0l.11.07.11,0a.86.86,0,0,0-.55.5l-.06.11h-.05a.65.65,0,0,1-.18,0,1.72,1.72,0,0,0-.36,0,.42.42,0,0,0-.41.22.68.68,0,0,0-.05.29.92.92,0,0,0,0,.29.31.31,0,0,0,.06.13.18.18,0,0,0,.16.09h.08c.1,0,.23-.06.42-.13h.09c.2,0,.54.06.73.06H421l0,0,.18.13a.33.33,0,0,0,.23.11h.06c.05,0,.16.14.27.23a.2.2,0,0,0,.14,0,.2.2,0,0,0,.14-.06.23.23,0,0,0,.05-.07l.06,0c.14.12.15.16.16.18a.18.18,0,0,0,.1.1h.12l.49,0a.19.19,0,0,0,.1,0,.19.19,0,0,0,.05-.1v0a.24.24,0,0,1,0-.09s0,0,.05,0h0a1,1,0,0,1,.23.12l.1.08a.36.36,0,0,0,.15.06.17.17,0,0,0,.14-.09.17.17,0,0,0,0-.11v0c0-.11,0-.22,0-.34a.57.57,0,0,0-.2-.38,1.7,1.7,0,0,0-.39-.25l-.15-.09,0,0h0a.42.42,0,0,1,0-.1,1.2,1.2,0,0,1,.47.18,1,1,0,0,0,.51.27.34.34,0,0,0,.21-.08,3.11,3.11,0,0,0,.44-.3c.09-.11.27-.39.27-.39a.14.14,0,0,0,0-.14.12.12,0,0,0-.1-.08l-.4-.08-.28-.08a.46.46,0,0,1-.1,0h0a1.17,1.17,0,0,0-.33-.29.89.89,0,0,0-.36-.15.39.39,0,0,0-.18,0l-.12,0s0,0-.07-.08a2.42,2.42,0,0,1-.1-.45c0-.07,0-.14-.05-.2a.28.28,0,0,0-.15-.16c-.08,0-.37-.08-.68-.14a3.92,3.92,0,0,1-.43-.1,1.47,1.47,0,0,1-.23-.06,3.75,3.75,0,0,0-.5-.22,5.27,5.27,0,0,1-.52-.25,2,2,0,0,0-.87-.4c-.21,0-.9.1-1.15.09h-.16a4.94,4.94,0,0,0-.76.11.14.14,0,0,0-.12.07.16.16,0,0,0,0,.12c0,.14.07.24.06.3s0,0-.07,0l-.13,0s0-.12,0-.19a.92.92,0,0,0,0-.16.54.54,0,0,0-.13-.37.36.36,0,0,0-.12-.08h.2c.35,0,.84.09,1.2.09h.16a.64.64,0,0,0,.39-.12.45.45,0,0,0,.15-.19.18.18,0,0,0,0-.06.19.19,0,0,0-.08-.15,1.12,1.12,0,0,0-.38-.15,1.92,1.92,0,0,0-.42-.07h-.65l-.69,0h-.84c-.11,0-.25-.12-.42-.25a3.21,3.21,0,0,1-.33-.26,1.19,1.19,0,0,0-.44-.24,5.55,5.55,0,0,1-.6-.17l-.38-.1-.14-.05h0a.15.15,0,0,0-.11-.06.14.14,0,0,0-.1,0,.13.13,0,0,0,0,.07.74.74,0,0,0,0,.18.39.39,0,0,0,.19.37c.19.1.5.29.74.4a2.59,2.59,0,0,0,.45.14.58.58,0,0,1,.3.15,1.59,1.59,0,0,0,.68.43h0l.55.06c-.13.07-.31.14-.47.21a1.16,1.16,0,0,0-.22.13.3.3,0,0,0-.13.23.23.23,0,0,0,0,.14.54.54,0,0,1,.05.24.51.51,0,0,0,.22.39,1.16,1.16,0,0,0,.39.26h0a.55.55,0,0,0-.3.14l-.11.08a.14.14,0,0,0,0-.06,1.3,1.3,0,0,0-.45-.51,2.7,2.7,0,0,0-.37-.48.71.71,0,0,0-.14-.1l.4,0a.33.33,0,0,0,.26-.34.28.28,0,0,0-.24-.29l-.16-.07a.5.5,0,0,0-.26-.09h-.06a.18.18,0,0,0,0-.21h0a.53.53,0,0,0-.5-.33.37.37,0,0,0-.37.24.22.22,0,0,0,0,.08c0,.16.13.22.22.27a.92.92,0,0,0,.33.06h0a2.12,2.12,0,0,0-.2.12l-.22.15a.36.36,0,0,0-.12.23.17.17,0,0,0,0,.07.43.43,0,0,0,.36.22.53.53,0,0,0-.08.15v.08a1.73,1.73,0,0,0,.17.59,1.87,1.87,0,0,1,.12.57s0,.08,0,.1a2.22,2.22,0,0,0-.39.12h0a.12.12,0,0,1,0,0,.42.42,0,0,1,0-.17c0-.21,0-.39,0-.47v0h0a.16.16,0,0,0,0-.09.18.18,0,0,0-.08-.13.15.15,0,0,0-.08,0,2.88,2.88,0,0,1-.33.05h-.1l-.14,0a.46.46,0,0,0-.23.06.23.23,0,0,0-.13.2.26.26,0,0,0,.21.24.22.22,0,0,1,.14.2.1.1,0,0,1-.07.11.91.91,0,0,1-.35,0c-.35,0-.81,0-1,0s-.34,0-.48,0l-.15,0s0,0,0,0h0a.45.45,0,0,1,.29-.11h.11a1.1,1.1,0,0,0,.95-.38.43.43,0,0,0,.08-.23.39.39,0,0,0-.3-.34,1.3,1.3,0,0,0-.37,0c-.16,0-.26-.05-.5-.33,0,0,0-.07,0-.09a.25.25,0,0,1,.07-.15.59.59,0,0,0,.12-.24.19.19,0,0,0,0-.08.2.2,0,0,0-.06-.09h.08c.17-.07.2-.21.25-.31l.07-.13h0a3.63,3.63,0,0,1,.39,0,.28.28,0,0,1,.14,0s0,0,0,0a.6.6,0,0,0,.08.16.22.22,0,0,0,.17.08H413a.6.6,0,0,0,.4-.21.71.71,0,0,0,.16-.31.08.08,0,0,0,0,0,.47.47,0,0,0-.51-.4H411.7a.58.58,0,0,0-.3.11h0a.55.55,0,0,0-.1.33c0,.13,0,.26,0,.31a.26.26,0,0,0,0,.11.44.44,0,0,0,.07.19l0,0h0l-.4,0h0l.06-.06a.33.33,0,0,0,.16-.22c0-.12.1-.52.1-.52a.11.11,0,0,0,0-.08.37.37,0,0,0-.32-.24.33.33,0,0,0-.16,0c-.15.09-.19.12-.22.12h-.06s0-.07-.1-.15a.36.36,0,0,0-.3-.18H410a.87.87,0,0,0-.49.37.27.27,0,0,1-.19.08h0l-.46-.3-.05,0c.14,0,.33-.08.43-.08h0a.32.32,0,0,0,.23.09.37.37,0,0,0,.21-.06.23.23,0,0,0,.14-.21v0h0s0-.17,0-.3a.49.49,0,0,0,0-.2.27.27,0,0,0-.22-.16h0c-.3,0-.56.26-.85.37a.33.33,0,0,0-.22.31.29.29,0,0,0,.19.26l-.32,0-.28,0-.07,0a.58.58,0,0,0-.58-.36h-.12a5.28,5.28,0,0,0-.71.18l-.3.1-.1,0h0a.17.17,0,0,0-.12,0,.11.11,0,0,0,0,.11.22.22,0,0,0,0,.09.45.45,0,0,0-.18,0,.35.35,0,0,0-.19.23s0,0,0,.07a.2.2,0,0,0,.09.16.75.75,0,0,0,.42.07h.43a.8.8,0,0,0,.36-.07,1.35,1.35,0,0,1,.4-.1h0a.41.41,0,0,0,.05.19h-.11a.61.61,0,0,0-.35.1.4.4,0,0,1-.19.07h-.08l-.27,0c-.18,0-.29,0-.45,0h-.14l-.33,0a.48.48,0,0,0-.26.06.35.35,0,0,0-.16.23,1.65,1.65,0,0,1-.11.36.44.44,0,0,1-.06.12h0a.48.48,0,0,0-.18.06.25.25,0,0,0-.11.2.24.24,0,0,0,.15.21,1,1,0,0,0,.3.06c.22,0,.2,0,.24.09a.37.37,0,0,0,.11.13.39.39,0,0,0,.25.07h.08a4,4,0,0,0,.62-.06.58.58,0,0,0,.44-.3.59.59,0,0,1,0-.08c.12.19.4.6.4.61l0,0s.19.18.33.28a.05.05,0,0,1-.05,0l0,0a1,1,0,0,0-.45-.17.75.75,0,0,1-.29-.1.67.67,0,0,0-.4-.15,2.45,2.45,0,0,0-.46,0l-.32,0h0a1,1,0,0,1-.27,0,1.41,1.41,0,0,0-.27,0,.29.29,0,0,0-.19.07c-.07,0-.15.11-.22.16a2.36,2.36,0,0,0-.13-.23.22.22,0,0,0-.17-.1.3.3,0,0,0-.22.13l-.07,0h0a1.66,1.66,0,0,0-.54-.16.63.63,0,0,0-.22,0,.75.75,0,0,0-.28.17.34.34,0,0,1-.2,0h-.12c-.37,0-.46-.1-.65-.11l-.09,0-.16,0a.13.13,0,0,0-.11.15s0,0-.1.12l-.17.12,0,0h0s0,0,0,0a.61.61,0,0,0-.35-.27l-.13-.07a.78.78,0,0,0-.3-.07,1.2,1.2,0,0,0-.24,0l-.16,0a2.24,2.24,0,0,1-.44-.07,1.46,1.46,0,0,0-.34-.08,11.92,11.92,0,0,1-1.22-.12,2.33,2.33,0,0,0-.62-.06l-.41,0a5.24,5.24,0,0,1-.67,0l-.17-.13-.17-.11a.42.42,0,0,0-.18-.07.48.48,0,0,0-.18,0l-.15,0s0,0-.06,0a1,1,0,0,0-.43-.29.11.11,0,0,0-.11,0,.18.18,0,0,0-.07.08.62.62,0,0,1-.07.16.32.32,0,0,1-.13.16,2.7,2.7,0,0,1-.54.14h0a.14.14,0,0,0-.1,0,2.1,2.1,0,0,0-.48.14,3,3,0,0,0-.31.14l0,0-.2.18-.15.13-.06,0h0a1.59,1.59,0,0,0-.34,0,.39.39,0,0,0-.15,0,.18.18,0,0,0-.14.17.24.24,0,0,0,0,.08.86.86,0,0,0,.08.25.49.49,0,0,0,.46.21.64.64,0,0,1,.33.07.68.68,0,0,0,.25.15.46.46,0,0,1,.17,0,.35.35,0,0,1,.15.12.39.39,0,0,1,.09.11h0a1.1,1.1,0,0,1-.58-.21l-.16-.16a.14.14,0,0,0-.16,0l-.27.15a3,3,0,0,0-.85.26.14.14,0,0,0-.07.18,1.54,1.54,0,0,0,.41.53,1.64,1.64,0,0,0,.89.21h0a1,1,0,0,0-.32.21c-.09.08-.18.13-.25.19a.38.38,0,0,0-.17.29.58.58,0,0,0,0,.18,1.37,1.37,0,0,0,.2.29.17.17,0,0,0-.1,0h0a.5.5,0,0,0-.18,0l-.2.08a.18.18,0,0,0-.12.16.21.21,0,0,0,.08.15.47.47,0,0,0,.17.14.4.4,0,0,0,.2.07.29.29,0,0,0,.23-.15.5.5,0,0,0,.09-.25.15.15,0,0,0,0-.06l.14.17a.21.21,0,0,1,0,.06v0a.19.19,0,0,0,.21.16.66.66,0,0,0,.33-.12.63.63,0,0,0,.23-.23.2.2,0,0,1,0,.07.62.62,0,0,0,0,.13.41.41,0,0,0,.2.37.6.6,0,0,0,.18.08.13.13,0,0,0,.15-.08.71.71,0,0,1,.07-.11l0,0,.13.12.14.15a.13.13,0,0,0,.19,0l.09-.06a.33.33,0,0,1,.15-.06h0s0,0-.07.1a2.26,2.26,0,0,1-.2.13l-.43.22a4.43,4.43,0,0,0-.45.23,3.18,3.18,0,0,1-.36.22l-.22.1-.08,0h0a.27.27,0,0,0-.2.13.46.46,0,0,0-.05.2.29.29,0,0,0,.06.19.25.25,0,0,0,.21.11H393a6.08,6.08,0,0,0,1.12-.43h.15a.87.87,0,0,0,.44-.17c.23-.14.41-.26.55-.36l.18-.1.06,0h0a.68.68,0,0,0,.34.3H396c.29,0,.44-.26.54-.32a.66.66,0,0,0,.22-.48.21.21,0,0,0,0-.12.17.17,0,0,0-.15-.09h-.13a.48.48,0,0,0,.15-.28.47.47,0,0,1,.11-.34,1,1,0,0,1,0,.14.53.53,0,0,0,0,.17.23.23,0,0,0,.08.18.22.22,0,0,0,.17.06.68.68,0,0,0,.44-.21c.05,0,.06,0,.15-.06a.85.85,0,0,0,.39-.18,1.45,1.45,0,0,0,.28-.27c.06,0,0,0,.08,0h0a1,1,0,0,1,.2.12.61.61,0,0,0,.31.12.27.27,0,0,0,.17-.06h0a1.23,1.23,0,0,1,.32.09,1.28,1.28,0,0,0,.43.1,3.14,3.14,0,0,1,.62.2l.37.14a.77.77,0,0,0,.27.07.65.65,0,0,1,.3.14.5.5,0,0,1,.22.36.64.64,0,0,0,.14.41.35.35,0,0,0,.28.1h.06a.73.73,0,0,1,.26.08l.11.08,0,0c0,.06,0,.23,0,.4a.72.72,0,0,0,.24.66,3.62,3.62,0,0,1,.32.22.65.65,0,0,0,.32.16.2.2,0,0,0,.11,0,.29.29,0,0,0,.11-.26,1.49,1.49,0,0,0,0-.21l.05.06a.3.3,0,0,0,.2.11l.05,0a.62.62,0,0,1,.18.35.06.06,0,0,1,0,0,.47.47,0,0,0,0,.17.54.54,0,0,0,.48.55.59.59,0,0,1,.27.18l.15.16a.43.43,0,0,0,.17.12.28.28,0,0,1,.09.08l0,.06h0a2.31,2.31,0,0,0,.07.41,3.65,3.65,0,0,1,.06.44c0,.21-.08,1.1-.11,1.44V132a2.45,2.45,0,0,0,.51,1.29,3.3,3.3,0,0,1,.35.57,1.81,1.81,0,0,0,.33.49,1.61,1.61,0,0,1,.18.24.48.48,0,0,0,.37.23h.08c.05,0,.1,0,.18.11a2.26,2.26,0,0,1,.25.44c.1.21.21.5.31.75a3.52,3.52,0,0,0,.15.33.45.45,0,0,0,.19.22.55.55,0,0,1,.17.11c.05,0,.08.1.07.11h0a1,1,0,0,0-.25.5.25.25,0,0,0,.07.17.25.25,0,0,0,.18.06,2.32,2.32,0,0,0,.28,0s0,0,.1.11a3.93,3.93,0,0,0,.28.34.46.46,0,0,1,.1.18h0a.09.09,0,0,0,0,0,.37.37,0,0,0,.19.3l.21.08h0s.1.14.17.22a.43.43,0,0,0,.33.19.33.33,0,0,0,.23-.1.38.38,0,0,0,.09-.24.68.68,0,0,0-.25-.46l-.32-.28a.82.82,0,0,1-.06-.28,1,1,0,0,0-.31-.58,1.35,1.35,0,0,1-.28-.38c.2.25.45.49.59.64a6.19,6.19,0,0,1,.41.64c.08.13.15.25.22.34a.4.4,0,0,0,.1.12.21.21,0,0,0,.14.08,1,1,0,0,1,.23.23l.17.21.06.14a.83.83,0,0,1,.07.24h0a.32.32,0,0,0,0,.16,1.08,1.08,0,0,0,.37.75c.19.13.92.54,1,.6l.21.27a.64.64,0,0,0,.46.29.94.94,0,0,1,.48.07,2,2,0,0,0,.15.2.5.5,0,0,0,.31.17.29.29,0,0,0,.23-.12,1.82,1.82,0,0,1,.16-.22s0,0,.15,0a.22.22,0,0,1,.17.09,2.88,2.88,0,0,1,.19.24l.32.34a.77.77,0,0,0,.45.24h.05a.62.62,0,0,1,.18.07.71.71,0,0,0,.28.11.28.28,0,0,0,.15,0h0a.66.66,0,0,1,.28.14c.11.05.39.25.38.5v.1a.7.7,0,0,0,.44.63,2.09,2.09,0,0,1,.46.44.77.77,0,0,0,.33.2l.13.06,0,0h0a1.2,1.2,0,0,0,.09.12.3.3,0,0,0,.23.12.43.43,0,0,0,.23-.08.58.58,0,0,0,.25-.44h0a.27.27,0,0,1,.15,0,.83.83,0,0,1,.13.27,1,1,0,0,0,.07.18.3.3,0,0,0,.09.15h0a.72.72,0,0,1,.07.18,1.21,1.21,0,0,1,.05.34.73.73,0,0,1,0,.22,4.52,4.52,0,0,0-.09.5.65.65,0,0,0,0,.11.24.24,0,0,0-.13.11,2,2,0,0,0-.16.24.55.55,0,0,1-.11.16,1.59,1.59,0,0,0-.37.34.79.79,0,0,0-.25.45v.05a3.8,3.8,0,0,0,.12.37,1.36,1.36,0,0,1,.09.38v0a1.27,1.27,0,0,1-.16.28.83.83,0,0,0-.17.47.57.57,0,0,0,0,.13.84.84,0,0,0,.41.47c.16.11.25.2.25.27a2.65,2.65,0,0,0,.24.7,3.65,3.65,0,0,1,.23.63,1.76,1.76,0,0,0,.29.56,1,1,0,0,1,.21.52.82.82,0,0,0,.39.64,1.29,1.29,0,0,0,.48.25l.2.15a1.54,1.54,0,0,0,.32.25,1.07,1.07,0,0,1,.42.48,1.33,1.33,0,0,1,.09.52c0,.06,0,.1,0,.14s-.07,1.06-.15,1.62a1.83,1.83,0,0,0,0,.33c0,.26,0,.48,0,.61s0,.14,0,.14-.29.23-.3.47a.35.35,0,0,0,.08.22v0l-.08.09-.08.07a.2.2,0,0,0-.06.14,1.28,1.28,0,0,0,.07.3,1.69,1.69,0,0,1,.06.36.22.22,0,0,1,0,.1c-.12.24-.2.56-.27.73a1.61,1.61,0,0,0-.23.62s0,.08,0,.12a.11.11,0,0,1,0,0s0,0-.06.07a.39.39,0,0,0-.16.33.4.4,0,0,0,.14.32c.05.05,0,0,.05.1v.06a1.73,1.73,0,0,1-.11.36.87.87,0,0,0-.08.36,2.13,2.13,0,0,0,.07.44,1.75,1.75,0,0,1,.06.25.56.56,0,0,1-.07.21,2.4,2.4,0,0,1-.22.37c-.16.23-.31.38-.32.61,0,0,0,0,0,.06a1,1,0,0,0,.12.28l.05.09v0s-.06.11-.11.21a.86.86,0,0,0-.13.4.13.13,0,0,0,0,.06.32.32,0,0,0,.24.28l.07,0-.08.09a.36.36,0,0,0-.12.23.27.27,0,0,0,.08.18,2.06,2.06,0,0,0,.23.17s.05,0,.06.13,0,.06,0,.09,0,.06,0,.1c0,.41.42.55.41.57a2,2,0,0,0,.17.21.56.56,0,0,0,.27.16.23.23,0,0,0,.07.1.13.13,0,0,0,.08,0l.27.13a1.33,1.33,0,0,0,.43.13,3.21,3.21,0,0,0,.76-.17l.35-.08.23-.07a.38.38,0,0,0,.2-.13.24.24,0,0,0,0-.08.18.18,0,0,0-.09-.15,1,1,0,0,0-.35-.06,1.81,1.81,0,0,1-.34-.07,1.33,1.33,0,0,1-.37-.3,1.21,1.21,0,0,1-.25-.36.62.62,0,0,1,0-.21c0-.16.05-.31.1-.33.21-.15.65-.58.75-.67a.89.89,0,0,0,.18-.3,1,1,0,0,0,.07-.34.2.2,0,0,0-.07-.18.33.33,0,0,0-.18,0h-.32s0-.09.19-.24a1.46,1.46,0,0,0,.33-.39l.17-.24a1.39,1.39,0,0,0,.43-.56.35.35,0,0,0,0-.13.2.2,0,0,0-.05-.14.21.21,0,0,0-.13-.05l-.2,0s0,0,0,0a.69.69,0,0,1-.07-.23l.15,0a3.59,3.59,0,0,0,.35.12h.12a.22.22,0,0,0,.18-.07.22.22,0,0,0,.06-.16c0-.11-.05-.21-.06-.28v-.06a.48.48,0,0,1,0-.18v0a.61.61,0,0,0,.27,0,4.53,4.53,0,0,0,.88-.1c.11,0,.13-.1.18-.16s.33-.55.4-.65a.65.65,0,0,0,.11-.32.32.32,0,0,0-.15-.28s0,0,0-.05a1.29,1.29,0,0,0,.38.08.86.86,0,0,0,.61-.33c.33-.38.62-.63.66-1a1.07,1.07,0,0,1,.16-.49.27.27,0,0,0,.15.06.24.24,0,0,0,.18-.09,1.2,1.2,0,0,0,.11-.2.92.92,0,0,1,.21-.35,1.42,1.42,0,0,0,.26-.37.52.52,0,0,0,.05-.24c0-.25-.11-.47-.11-.6a.21.21,0,0,1,.07-.15,8.17,8.17,0,0,1,.85-.55l.11-.06a2,2,0,0,1,.34-.12,2.89,2.89,0,0,1,.44-.07.49.49,0,0,0,.4-.22,7.41,7.41,0,0,1,.36-.8,1.5,1.5,0,0,0,.31-.72.44.44,0,0,0,0-.15v0a2.47,2.47,0,0,1,.1-.44,2,2,0,0,0,.1-.49v0a3.41,3.41,0,0,1-.09-.48.51.51,0,0,1,.18-.41,5,5,0,0,0,.57-.66,1.51,1.51,0,0,0,.31-.52s.09-.25.17-.46a2.4,2.4,0,0,0,.15-.66v-.05A1.3,1.3,0,0,0,432.63,149Zm-13.07-18.29h0Zm-.24.42.2-.23.06-.06h.08l.41,0h.08l-.27.12a2.2,2.2,0,0,1-.27.11.45.45,0,0,0-.23.19.56.56,0,0,1-.23.14l-.06,0A2.71,2.71,0,0,1,419.32,131.14Zm-.41-.84.06.12h0a.25.25,0,0,1-.06-.14Zm-.08,1.31,0,0a.5.5,0,0,1-.25.16.09.09,0,0,0,0,0h0Zm-.7-1.49h.07l-.05-.13.05.12h0a.64.64,0,0,1,.22,0h.24s0,0-.05,0a.93.93,0,0,0-.08.22,2.72,2.72,0,0,0,0,.31.52.52,0,0,0,.05.24h0s0,.08-.08.12a.24.24,0,0,1-.09.06h0a1,1,0,0,1-.05-.3v-.1a.2.2,0,0,0,0-.07.61.61,0,0,0-.32-.54Zm-.3-.06h-.09c-.37.05-.53.4-.6.45a.46.46,0,0,0-.11.29,2,2,0,0,0,0,.34,1.57,1.57,0,0,0,0,.25s0,.06,0,.11a.46.46,0,0,1,0,.21c0,.06,0,0,0,.06h0s0,0,0-.06a1.42,1.42,0,0,1,0-.24,2.16,2.16,0,0,1,0-.31v-.09c0-.15,0-.34,0-.51a.61.61,0,0,1,0-.27c.06-.17.32-.27.52-.3h0a1.66,1.66,0,0,1,.33.06Zm-2-.66h0s.15-.05.35-.14l-.06-.13.06.13a5,5,0,0,0,.45-.29.67.67,0,0,1,.26-.16,1.44,1.44,0,0,0,.66.47.54.54,0,0,1,0,.11l-.06.08h0c-.09,0-.34-.07-.55-.07l-.08,0,0-.06a.2.2,0,0,0-.15-.08h-.07a2.39,2.39,0,0,0-.52.2.37.37,0,0,1-.14,0,.13.13,0,0,1-.08,0A.17.17,0,0,1,415.8,129.4Zm1.86-6.56h0l-.06,0s0,0,0,0l0,0Zm-1.12-1.34h.29a3.27,3.27,0,0,1,.35,0h0a.17.17,0,0,1,0,.07.42.42,0,0,1,0,.12,0,0,0,0,1,0,0l-.22.08a.37.37,0,0,0-.24.26,0,0,0,0,0,0,0,.53.53,0,0,0-.14-.47,1.21,1.21,0,0,0-.2-.14Zm-2-1v0Zm-20.82,3.06a.22.22,0,0,1-.16.09h-.11l.1-.07a.21.21,0,0,1,.18-.08h0Zm11.46,5.25h0l0,0Zm.5.45a.35.35,0,0,1,0,.16A.94.94,0,0,1,405.67,129.25Zm2.7,6.62s0-.06.07-.11l0,0a.45.45,0,0,1,.06.15c0,.09.05.21.09.31h0C408.45,136.06,408.35,135.92,408.37,135.87Zm1.48-15.82h0a2.85,2.85,0,0,0-.29,0c-.23,0-.6.1-.75.1h-.07a1.74,1.74,0,0,0-.25-.17,5,5,0,0,0-.55-.22,1,1,0,0,0,.2-.14l.1-.06h0a.34.34,0,0,1,.08.16.47.47,0,0,0,.2.26.8.8,0,0,0,.36.06,1.11,1.11,0,0,0,.37,0,1.39,1.39,0,0,1,.37,0l.34,0a1,1,0,0,0,.24,0v.06a.34.34,0,0,0,0,.1A.55.55,0,0,0,409.85,120.05ZM428,147.42c0,.05,0,.08-.22.13h-.15l.05,0a1.66,1.66,0,0,0,.33-.12Zm.46.74ZM412.75,120c-.07,0-.22,0-.37,0a.53.53,0,0,0-.31.09.32.32,0,0,0-.12.26.4.4,0,0,0,.33.41h.05a2.47,2.47,0,0,0,.4-.07,1.61,1.61,0,0,0,.1.28.45.45,0,0,0,.37.31.36.36,0,0,0,.2-.06,1,1,0,0,0,.32-.29l0-.08a.15.15,0,0,0,.1-.11.34.34,0,0,0,0-.1.91.91,0,0,0-.24-.61.63.63,0,0,0-.35-.09,1.4,1.4,0,0,0-.51.1h0Zm35.46,13a2.61,2.61,0,0,0-.37,0,.46.46,0,0,0-.27.07.18.18,0,0,0-.07.15.4.4,0,0,0,.15.27,1.11,1.11,0,0,0,.24.16.44.44,0,0,1,.13.12.6.6,0,0,0,.23.17h0l.12,0a.53.53,0,0,0,.25-.07.34.34,0,0,0,.17-.29.4.4,0,0,0,0-.15A.55.55,0,0,0,448.21,133Zm34.35,9.54h0c-.1,0-.12.06-.16.09a.8.8,0,0,0-.19.48.51.51,0,0,0,0,.17h0a.59.59,0,0,0-.45-.27.4.4,0,0,0-.15,0,.36.36,0,0,0-.11.1.89.89,0,0,0-.14.45.3.3,0,0,0,.06.2.28.28,0,0,0,.22.11l.53,0a.41.41,0,0,0,.16,0l.09,0a.2.2,0,0,0,.06-.13.21.21,0,0,0,0-.12l-.16-.24a.38.38,0,0,0,.25.08h0A.43.43,0,0,0,483,143,.52.52,0,0,0,482.56,142.5Zm7.16,19.8a1,1,0,0,0-.4.19l-.18.11-.06,0h0a3.89,3.89,0,0,1-.38-.14.14.14,0,0,0-.16,0,.43.43,0,0,0-.11.27.42.42,0,0,0,.19.31c.08.06.11.1.11.14s0,0,0,0a.31.31,0,0,0,0,.1.31.31,0,0,0,.12.24.4.4,0,0,0,.23.06,1.11,1.11,0,0,0,.38-.09.44.44,0,0,0,.17-.19,2.3,2.3,0,0,0,.31-.86.28.28,0,0,0,0-.09A.2.2,0,0,0,489.72,162.3Zm-7-18.59a.15.15,0,0,0-.11,0,.17.17,0,0,0-.1.06l-.22.32,0,0-.17-.09a.35.35,0,0,0-.17,0,.68.68,0,0,0-.43.19.51.51,0,0,0-.21.37.23.23,0,0,0,0,.11.31.31,0,0,0,.25.14l.36,0c.11,0,.16.05.18.08a1.76,1.76,0,0,0,.12.24.27.27,0,0,0,.22.12h0a.69.69,0,0,0,.2,0,.71.71,0,0,0,.4-.3.84.84,0,0,0,.17-.47.59.59,0,0,0,0-.13A2.18,2.18,0,0,0,482.72,143.71Zm7.73,11.86a1.36,1.36,0,0,1-.28-.5h0v0a.38.38,0,0,0-.12-.26c-.2-.16-.49-.2-.61-.32a1.21,1.21,0,0,1-.2-.5,6.76,6.76,0,0,0-.16-.71,3.59,3.59,0,0,0-.68-1,2.56,2.56,0,0,1-.27-.62l-.1-.3a.54.54,0,0,0-.05-.11.22.22,0,0,0-.05-.06,1,1,0,0,0,.28-.35c.1-.17.18-.36.22-.4s.18-.11.31-.11a.3.3,0,0,1,.12,0s0,0,0,0a1.24,1.24,0,0,0,.59.85,1.87,1.87,0,0,0,.7.3.21.21,0,0,0,.22-.17.13.13,0,0,0,0-.06,1.56,1.56,0,0,0-.12-.5.84.84,0,0,0-.34-.44,1.25,1.25,0,0,1-.31-.33,1,1,0,0,1-.18-.4.46.46,0,0,0-.24-.36c-.11-.07-.22-.12-.28-.17s-.26-.61-.74-.73-.44-.23-.89-.49a2.14,2.14,0,0,0-1-.23,1.25,1.25,0,0,0-.35,0,.35.35,0,0,0-.13.05l0,0a.68.68,0,0,0-.21-.11,1.26,1.26,0,0,0-.44-.09l-.08,0,0,0a.36.36,0,0,0-.33-.28.53.53,0,0,0-.4.24l-.12.13a.3.3,0,0,0-.08.18.18.18,0,0,0,.06.13.93.93,0,0,0,.37.13l.34.07h0l0,.06a1.14,1.14,0,0,0-.25.57.23.23,0,0,0,.18.24h.08c.16,0,.38-.06.49-.06h0a.27.27,0,0,0,0,.1.28.28,0,0,0,.18.12,1.3,1.3,0,0,0,.32.07.83.83,0,0,1,.65.4,1.41,1.41,0,0,1,.16.21.41.41,0,0,1,.06.11.53.53,0,0,0-.23.13.41.41,0,0,0-.15.28.21.21,0,0,0,.16.2h.09c.16,0,.37,0,.48,0h0a1.78,1.78,0,0,0,.17.34.7.7,0,0,0,.41.36s0,.07-.05.12a2.53,2.53,0,0,0-.16.86.8.8,0,0,0,.09.41.27.27,0,0,1,0,.17,3.27,3.27,0,0,1-.26.93.1.1,0,0,1,0,.06l-.05,0c-.1-.07-.26-.24-.42-.35a5.14,5.14,0,0,1-.79-.52.06.06,0,0,1,0,0,1.35,1.35,0,0,1,.11-.36,1.56,1.56,0,0,0,.14-.45.35.35,0,0,0,0-.17.48.48,0,0,0-.44-.17,2.46,2.46,0,0,0-.4,0l-.15,0h0a.94.94,0,0,1-.12-.14.47.47,0,0,0-.31-.17.22.22,0,0,0-.19.13,1.05,1.05,0,0,0-.06.24l-.17-.2-.07-.08s0,0-.13,0a.15.15,0,0,0-.14.1.28.28,0,0,0,0,.08c0,.05,0,.1,0,.16a.41.41,0,0,1-.08.27,1.26,1.26,0,0,0-.2.27,2.07,2.07,0,0,0-.09.27.14.14,0,0,1,0,.09h0a.58.58,0,0,1-.28-.25.45.45,0,0,0-.35-.22c-.2,0-.29.15-.36.18a.91.91,0,0,0-.27.44c-.06.16-.12.33-.14.36h0a1.81,1.81,0,0,1-.34.18,1.46,1.46,0,0,0-.42.25,1.2,1.2,0,0,0-.17.47,2.75,2.75,0,0,0,0,.34l-.27,0a.81.81,0,0,0-.42.14.33.33,0,0,1-.21.06c-.11,0-.23,0-.36,0a.63.63,0,0,0-.28.12c-.28.19-.68.56-.83.66a.86.86,0,0,0-.23.65.83.83,0,0,0,.1.43,1.45,1.45,0,0,1,.2.42.49.49,0,0,0-.16.4,1,1,0,0,0,.26.67c.19.24.19.31.2.4s0,.05,0,.09a.38.38,0,0,0,0,.1.64.64,0,0,0,.14.3c.07.09.15.17.25.32a.11.11,0,0,1,0,.07s-.06.14-.17.24a1.18,1.18,0,0,0-.31.32.3.3,0,0,0,0,.13,1.11,1.11,0,0,0,.39.65.53.53,0,0,0,.37.13,1.7,1.7,0,0,0,.57-.13,2.5,2.5,0,0,0,.39-.23,1.18,1.18,0,0,1,.24-.14l.49,0,.39,0a.14.14,0,0,0,.11-.07,8.13,8.13,0,0,1,.44-.71s.09-.07.2-.07a1.17,1.17,0,0,1,.27,0l.13,0a.14.14,0,0,0,.14,0l0,0a2.91,2.91,0,0,1,.78-.3l.24,0h.06a.42.42,0,0,0,.22.27,3,3,0,0,1,.7.29s0,0,0,.1a2.89,2.89,0,0,1-.11.47v0a.21.21,0,0,0,.13.19.45.45,0,0,0,.16,0,.75.75,0,0,0,.26,0,.32.32,0,0,0,.2-.22c0-.08.09-.2.28-.35,0,0,0,.11,0,.17a.88.88,0,0,0,0,.27l.06.1a.2.2,0,0,0,.14.06.23.23,0,0,0,.12-.05s.05.07.05.1a.23.23,0,0,0,.13.14,1.26,1.26,0,0,1,.17.11.18.18,0,0,1,.06.15c0,.16,0,.28,0,.39a.42.42,0,0,0,.12.29.54.54,0,0,0,.18.06.52.52,0,0,1,.47.27c.07.13.14.24.29.24a.34.34,0,0,0,.25-.16,1,1,0,0,0,.11-.19h0a.66.66,0,0,1,.35.2.22.22,0,0,0,.17.07c.15,0,.23-.1.36-.18a1.86,1.86,0,0,1,.41-.23,1.82,1.82,0,0,0,.37-.13c.09-.06.11-.14.16-.22a8.54,8.54,0,0,1,.41-1.06,3.53,3.53,0,0,0,.58-1.62,6.22,6.22,0,0,0-.33-2.27A6.5,6.5,0,0,0,490.45,155.57Zm-8.44-4.3a.21.21,0,0,0,.16.07h0a.71.71,0,0,0,.38-.18l.16-.14a.67.67,0,0,0,.19-.06.41.41,0,0,0,.19-.11.32.32,0,0,0,.11-.24.46.46,0,0,0-.18-.34.58.58,0,0,0-.36-.15.34.34,0,0,0-.29.17c-.07.1-.17.22-.27.34a.83.83,0,0,0-.18.42.07.07,0,0,0,0,0A.23.23,0,0,0,482,151.27Zm-.75-3.79h.06c.29,0,.92-.12,1-.12a.35.35,0,0,0,.27-.21.69.69,0,0,0,.11-.29.61.61,0,0,0,0-.11.19.19,0,0,0-.14-.08,7.79,7.79,0,0,0-1,.2h0l-.28,0-.19,0a.13.13,0,0,0-.13.05.44.44,0,0,0-.12.29.37.37,0,0,0,.12.26A.48.48,0,0,0,481.26,147.48Zm18.35,5.71h0l-.1,0a.5.5,0,0,0-.29.14,3.43,3.43,0,0,0-.49.6.14.14,0,0,0,0,.11.14.14,0,0,0,.08.09.45.45,0,0,0,.16,0h0a.86.86,0,0,0,.54-.26.79.79,0,0,0,.26-.48A.24.24,0,0,0,499.61,153.19Zm-.79,8a.37.37,0,0,0-.16,0l-.05,0a.22.22,0,0,1-.11,0l-.17-.12-.12-.24c-.06-.12-.1-.26-.16-.39a.4.4,0,0,0-.1-.18.26.26,0,0,0-.21-.11.32.32,0,0,0-.18.06.26.26,0,0,0-.1.23.83.83,0,0,0,.18.51.79.79,0,0,1,.07.21,1.89,1.89,0,0,1,0,.3v.05l-.15.12a.39.39,0,0,0-.17.28.24.24,0,0,0,.11.19.69.69,0,0,0,.43.11H498a.91.91,0,0,0-.12.33l-.13-.14-.13-.13c-.06,0-.07-.08-.19-.09s-.15.06-.15.12,0,0-.1.08a1.68,1.68,0,0,0-.28.2.49.49,0,0,0-.14.25s-.07.12-.29.27c-.44.32-1,.64-1.15,1a.39.39,0,0,0,0,.18.41.41,0,0,0,.21.35,1.08,1.08,0,0,0,.47.13l.32,0h0a.26.26,0,0,0,.2-.1,1.45,1.45,0,0,0,.2-.24,6.65,6.65,0,0,1,.87-.89,1.26,1.26,0,0,0,.39-.84.29.29,0,0,0,.14.08h.1a.38.38,0,0,0,.33-.21c.06-.11.11-.22.15-.31a1.19,1.19,0,0,1,.32-.49.28.28,0,0,0,.14-.26.45.45,0,0,0-.09-.26A.32.32,0,0,0,498.82,161.18Zm-3.46-5.31a.3.3,0,0,0,.28-.29l-.13,0,.13,0a.22.22,0,0,0,0-.08c0-.22-.18-.47-.63-.58a.79.79,0,0,0-.23,0,.19.19,0,0,0-.12,0,.18.18,0,0,0-.08.14.27.27,0,0,0,.05.13c.06.1.16.21.22.32a.67.67,0,0,0,.49.37ZM444.7,132.25c-.14,0-.22.11-.3.25a.3.3,0,0,0,0,.1.18.18,0,0,0,.11.17.28.28,0,0,0,.15,0,.29.29,0,0,0,.28-.16h0a.5.5,0,0,0,0-.12.34.34,0,0,0-.05-.17A.23.23,0,0,0,444.7,132.25Zm36.57,16.5a.81.81,0,0,0,.13.39.72.72,0,0,0,.61.32h.05a.13.13,0,0,0,.12-.14,2.19,2.19,0,0,0-.05-.43,1,1,0,0,0-.32-.63l-.12-.08h.05a.63.63,0,0,0,.32-.08.35.35,0,0,0,.14-.27.35.35,0,0,0,0-.14c-.09-.19-.28-.19-.43-.2a2.24,2.24,0,0,0-.46.06h0a.49.49,0,0,1-.18-.05l-.1-.06a.15.15,0,0,0-.13,0,.36.36,0,0,0-.21.27c0,.11,0,.22,0,.37s-.16.34-.17.56a.36.36,0,0,0,.14.27.27.27,0,0,0,.15,0c.19,0,.29-.14.41-.23l.13-.12A.62.62,0,0,1,481.27,148.75Zm13.14-23.06a.24.24,0,0,1,0-.12,1.13,1.13,0,0,1,.19-.36c.07-.07.22-.13.61-.13.62,0,.56,0,.86,0h.3a1.72,1.72,0,0,0,.81-.26,3,3,0,0,1,.7-.34,4.21,4.21,0,0,1,1-.25.2.2,0,0,1,.11,0,.52.52,0,0,0,.24,0,.41.41,0,0,0,.19,0,.23.23,0,0,0,.12-.2.33.33,0,0,0-.09-.21,4.11,4.11,0,0,0-.29-.3l-.09-.1a1.22,1.22,0,0,0,.24-.1.47.47,0,0,0,.27-.32.25.25,0,0,0,0-.12c0-.26-.16-.51-.16-.67a.14.14,0,0,1,0-.11.38.38,0,0,0,.09-.25.55.55,0,0,0-.21-.4,1,1,0,0,0-.38-.2,1.42,1.42,0,0,0-.31,0H498a1.08,1.08,0,0,1-.42,0A1.46,1.46,0,0,0,497,121a.29.29,0,0,0-.19.06,1.58,1.58,0,0,0-.24.37l-.09.19s-.08,0-.14-.15a.75.75,0,0,0-.56-.28,3.77,3.77,0,0,0-.65,0h-.2a8.2,8.2,0,0,0-.85.1l-.35,0c-.07,0-.11,0-.2-.1a3.11,3.11,0,0,0-.61-.41.46.46,0,0,0-.25-.1h-.34a4.73,4.73,0,0,0-.65,0,7.27,7.27,0,0,1-.84.06l-.11,0a3.6,3.6,0,0,1-.37-.24,4.13,4.13,0,0,0-.47-.28.81.81,0,0,0-.35-.12c-.1,0-.46.07-.75.07a.59.59,0,0,1-.26,0,1.14,1.14,0,0,0-.53-.28c.12,0,.26-.07.41-.11l.39-.13a.11.11,0,0,0,.08-.08.13.13,0,0,0,0-.12.85.85,0,0,0-.16-.2.57.57,0,0,0-.43-.21,2.39,2.39,0,0,1-.45-.08,2.15,2.15,0,0,0-.42-.08.24.24,0,0,0-.14.05.22.22,0,0,0-.05.06h-.07a2.14,2.14,0,0,0-.54-.12.44.44,0,0,0-.26.08l-.19.15a.39.39,0,0,0-.17.26.24.24,0,0,0,.09.18.48.48,0,0,0,.19.09,2.21,2.21,0,0,0,.57.08c.16,0,.22,0,.22,0a.92.92,0,0,1,0,.09s0,.11-.05.25a1.28,1.28,0,0,1-.1.22.54.54,0,0,1-.17.19h0s-.11,0-.23,0a.63.63,0,0,0-.32.09,1.23,1.23,0,0,1-.5.07h-.34a.53.53,0,0,0-.12,0l-.06-.06a.37.37,0,0,0-.24-.13.18.18,0,0,0-.1,0,3.06,3.06,0,0,0-.32.26.62.62,0,0,1-.25.17h0a.41.41,0,0,1-.3-.37,1.47,1.47,0,0,0-.06-.42.6.6,0,0,0-.15-.32.33.33,0,0,0-.15-.05,2.56,2.56,0,0,0-.58,0h-.25l-.53.08-.29.06a.41.41,0,0,0-.23.13.83.83,0,0,1-.48.17.65.65,0,0,1-.22-.1,1.36,1.36,0,0,0-.49-.18,9.08,9.08,0,0,0-1.17-.08.94.94,0,0,0-.26,0h0l-.11,0a1.18,1.18,0,0,0,.17-.2.69.69,0,0,0,.17-.41.32.32,0,0,0-.12-.26,2.46,2.46,0,0,0-1.07-.25,3.69,3.69,0,0,0-.55-.06l-.33,0a1.94,1.94,0,0,0-.34.11l0,0s0,0,0-.05l-.05,0-.24-.12a1.81,1.81,0,0,0-.77-.24.68.68,0,0,0-.34.09.39.39,0,0,0-.1.08l0,0-.25.12c-.4.18-.64.28-.73.31h0a2.41,2.41,0,0,1-.41-.09l-.22-.07-.08,0h0a.27.27,0,0,0-.16,0,1.77,1.77,0,0,0-.61.19c-.25.13-.41.26-.55.26h-.07a1.79,1.79,0,0,0-.42,0,1.43,1.43,0,0,0-.62.12,2.48,2.48,0,0,0-.74.36,1.55,1.55,0,0,1-.44.24l-.25.08-.67,0h-.29a.44.44,0,0,0-.15,0,.18.18,0,0,0-.1.18.28.28,0,0,0,.1.21,2.16,2.16,0,0,0,.55.35h0l-.17-.08-.29-.09a.8.8,0,0,1-.21-.19.69.69,0,0,0-.51-.25.49.49,0,0,0-.39.2.93.93,0,0,0-.12.42.63.63,0,0,1,0,.13h0l-.17,0a.35.35,0,0,1,0-.06c0-.1,0-.25,0-.38a1.06,1.06,0,0,0,0-.19l0-.09a.17.17,0,0,0-.14-.06c-.14,0-.16.09-.22.16a2.07,2.07,0,0,1-.19.29.4.4,0,0,0-.09.25c0,.22.13.32.12.49a.34.34,0,0,1,0,.09,2.38,2.38,0,0,0,0,.34.29.29,0,0,0,0,.16.18.18,0,0,0,.11.12c-.17.2-.37.47-.43.55l-.25.13-.11.06a1,1,0,0,1,.25-.25,1,1,0,0,0,.37-.64.27.27,0,0,0,0-.16h0a2.06,2.06,0,0,1-.12-.63.41.41,0,0,1,0-.09,1.1,1.1,0,0,0,.15-.4.32.32,0,0,0-.19-.29,5.61,5.61,0,0,0-.67-.45.2.2,0,0,0-.11,0,.55.55,0,0,0-.4.27,1.77,1.77,0,0,1-.25.27,1,1,0,0,0-.21.22s0,.06-.13.07a.44.44,0,0,0-.36.43.55.55,0,0,0,.31.46,2,2,0,0,1,.32.21l.06.07h0a.68.68,0,0,1-.23-.05l-.14,0h0a1.49,1.49,0,0,0-.6-.19c-.15,0-.41-.15-.67-.19l-.28,0a.78.78,0,0,0-.58.16,1.92,1.92,0,0,1-.2.23c-.07.08-.16.13-.18.12h0l-.15-.12a.37.37,0,0,0-.23-.08.65.65,0,0,0-.25.06.29.29,0,0,1-.16,0c-.09,0-.2,0-.32,0a.32.32,0,0,0-.3.13.33.33,0,0,0-.06.08l-.31-.12a.84.84,0,0,0-.31-.07.51.51,0,0,0-.34.14.56.56,0,0,1-.3.14,1.24,1.24,0,0,1-.27,0c-.14,0-.26,0-.38,0a.38.38,0,0,0-.33.15l-.12.19s0-.07,0-.11a.75.75,0,0,0,.1-.33.27.27,0,0,0-.07-.18.62.62,0,0,0-.4-.11,1.66,1.66,0,0,0-.32,0,.53.53,0,0,0-.25.12.42.42,0,0,0-.07.28,1.1,1.1,0,0,0,.08.43.39.39,0,0,0,0,.06.25.25,0,0,0-.19-.09h-.05l-.2.06a.18.18,0,0,0,0-.11.28.28,0,0,0-.16-.22,3,3,0,0,0-.89-.33,4.83,4.83,0,0,1-1.41-.3,7.62,7.62,0,0,0-1-.42,11.47,11.47,0,0,0-2-.26,2,2,0,0,0-.44,0c-.34.06-1,.24-1.51.41-.28.08-.54.17-.73.24l-.25.09a.53.53,0,0,0-.15.08,1.78,1.78,0,0,0-.24.34,2.37,2.37,0,0,1-.37.45c-.34.32-1,1-1.41,1.13a2.4,2.4,0,0,0-.78.4,2.27,2.27,0,0,0-.27.24.43.43,0,0,0-.13.25,1,1,0,0,0,.09.35,1.41,1.41,0,0,1,.07.29.43.43,0,0,0,0,.11,1,1,0,0,0,.13.4.78.78,0,0,0,.36.36,1.18,1.18,0,0,0,.46.09l.21,0h0a.53.53,0,0,0-.31.26,1.43,1.43,0,0,0-.11.53.5.5,0,0,0,.07.29.94.94,0,0,0,.09.12,1.33,1.33,0,0,0-.28,0,.74.74,0,0,0-.52.17,7.24,7.24,0,0,0-.56.57l-.29,0-.13,0v0a1.35,1.35,0,0,0-.6-.8,1.19,1.19,0,0,1-.31-.36,2.39,2.39,0,0,0-.32-.44h0s.07-.2.08-.38a.45.45,0,0,0-.09-.26,1,1,0,0,0-.3-.24,1,1,0,0,1-.25-.13.4.4,0,0,0-.25-.09.69.69,0,0,0-.48.34v0h0a2.11,2.11,0,0,0-.26-.06l-.11,0a.37.37,0,0,0-.22.36.83.83,0,0,0,.13.42l.1.16h-.28a.53.53,0,0,0-.32.25l-.07.09h0a.52.52,0,0,0-.26.06.31.31,0,0,0-.17.28.43.43,0,0,0,0,.11c0,.15.08.26.08.3h0a.28.28,0,0,0-.13.24.6.6,0,0,0,.12.32.46.46,0,0,0,.3.2H441a1.35,1.35,0,0,0,.64-.27.81.81,0,0,0,.52-.69,2,2,0,0,0,0-.44l.06,0,.06-.12-.06.12c.12.06.29.11.41.17l.09,0a2.49,2.49,0,0,0-.31.27,1,1,0,0,0-.29.41.15.15,0,0,0,0,.07c0,.21.18.28.29.36l.11.05a.28.28,0,0,0,0,.13.21.21,0,0,0,.13.21.17.17,0,0,0,.1,0,.4.4,0,0,0,.26-.16.19.19,0,0,1,.12-.07c.16,0,.55.14.81.15l-.6.14a.87.87,0,0,0-.36.16.6.6,0,0,1-.28.09.72.72,0,0,0-.28.07.27.27,0,0,0-.16.21.27.27,0,0,0,.13.2.63.63,0,0,0,.22.08,1.68,1.68,0,0,1,.52.2c.16.09.26.21.26.27v.13a1.64,1.64,0,0,1-.15.68h0a.36.36,0,0,1-.18,0c-.19,0-.44,0-.64,0s-.54-.06-.85-.06a1,1,0,0,0-.42.07c-.24.13-.26.41-.27.66a2.08,2.08,0,0,0,.07.54,1,1,0,0,1,0,.15.31.31,0,0,1-.11.25.47.47,0,0,0-.14.36.46.46,0,0,0,.13.34.91.91,0,0,1,.16.23c.07.09.1.19.24.25h.09c.1,0,.2,0,.29,0s.12,0,.13,0a1.74,1.74,0,0,1,.16.26l.09.14h0a4.25,4.25,0,0,0-.44.36l-.15.13,0,0a.23.23,0,0,0-.14.07,1.57,1.57,0,0,0-.44.71,2.31,2.31,0,0,0-.09.68c0,.18,0,.24-.11.28a4.72,4.72,0,0,0-1.06.79,3.47,3.47,0,0,0-.37.75,7,7,0,0,1-.38.81.74.74,0,0,0-.13.46,2.28,2.28,0,0,0,.17.68,3,3,0,0,1,.1.59.76.76,0,0,1-.14.47,2.92,2.92,0,0,0-.27.53.51.51,0,0,0,0,.11h0a.17.17,0,0,0-.07,0,.14.14,0,0,0-.06.12.34.34,0,0,0,.05.14.69.69,0,0,1,.17.33.13.13,0,0,1,0,.06c0,.1,0,.24-.05.39a.64.64,0,0,0,.37.56,1.48,1.48,0,0,1,.81.84,4.15,4.15,0,0,0,.82,1.06s.47.5.71.73a.51.51,0,0,0,.3.15.25.25,0,0,0,.22-.14.66.66,0,0,0,.08-.21s0-.07.15-.11a1.87,1.87,0,0,1,.45,0c.26,0,.47.06.74.06l.28,0a2.88,2.88,0,0,0,.91-.42,1.47,1.47,0,0,1,.58-.23.39.39,0,0,1,.2.06.79.79,0,0,1,.25.36,1.41,1.41,0,0,0,.2.44.44.44,0,0,0,.35.16.9.9,0,0,0,.58-.27l.07-.07a1,1,0,0,0,.18.14c.18.11.25.21.24.26a.35.35,0,0,1-.1.2.88.88,0,0,0-.21.6,2.1,2.1,0,0,1-.09.61,1.32,1.32,0,0,0-.1.42.41.41,0,0,0,.09.26,1.53,1.53,0,0,0,.23.17,3.09,3.09,0,0,1,.49.73c.18.34.35.68.44.81a.48.48,0,0,1,0,.24c0,.12,0,.28,0,.44a1.21,1.21,0,0,0,.09.53,1.88,1.88,0,0,1,.24.56s0,0-.05.1a1.74,1.74,0,0,0-.65,1.26v.17a3,3,0,0,0,.22,1.19c.11.21.37.81.51,1a3.12,3.12,0,0,1,.3,1v.52a.84.84,0,0,0,.1.49,3.87,3.87,0,0,0,.46.74,1.15,1.15,0,0,1,.21.43,2.32,2.32,0,0,1,.07.28v0l0,.14a1.69,1.69,0,0,1,.06.39,2.19,2.19,0,0,0,.08.47.67.67,0,0,0,.31.36.79.79,0,0,0,.43.16h0a.42.42,0,0,0,.31-.15l.07,0a2.53,2.53,0,0,1,.68-.08h.34a1.8,1.8,0,0,0,1.1-.51,10.48,10.48,0,0,0,1-1.27c.09-.1.23-.25.35-.41a.89.89,0,0,0,.24-.52v-.07a1.28,1.28,0,0,1-.07-.37c0-.07,0-.08.05-.12s.28-.15.45-.26.31-.21.36-.4v-.06a6.08,6.08,0,0,0-.25-1.14v0a1.84,1.84,0,0,1,.33-.62,1.38,1.38,0,0,1,.48-.35l.28-.15a.78.78,0,0,0,.2-.14,2.91,2.91,0,0,0,.48-1.15,1.48,1.48,0,0,0,0-.21c0-.27,0-.53,0-.71a.37.37,0,0,1,0-.17.54.54,0,0,0,.06-.25.85.85,0,0,0-.29-.56,1,1,0,0,1-.16-.54c0-.11,0-.23,0-.32a.51.51,0,0,0-.06-.25h0a.49.49,0,0,1,0-.17,2,2,0,0,1,0-.35.55.55,0,0,1,0-.12v0a.49.49,0,0,0,.2-.18c.18-.23.41-.64.56-.84s.31-.43.52-.69.45-.49.51-.48a1.25,1.25,0,0,0,.55-.39,1.23,1.23,0,0,0,.32-.59,3.3,3.3,0,0,1,.39-.75l.27-.47a1.11,1.11,0,0,0,.15-.35c0-.06.07-.26.13-.47a4.07,4.07,0,0,0,.12-.63.46.46,0,0,0-.06-.22.3.3,0,0,0-.25-.11,4.11,4.11,0,0,0-1.21.41,1.81,1.81,0,0,1-.79.27h-.07c-.09,0-.11,0-.12,0s0-.05,0-.11,0-.19,0-.29v-.06a.79.79,0,0,0-.08-.23l0,0a.44.44,0,0,0,.19,0,2,2,0,0,0,.57-.11,2.31,2.31,0,0,0,.43-.19,5.38,5.38,0,0,1,1.25-.6.75.75,0,0,0,.42-.2.87.87,0,0,1,.36-.18,2.38,2.38,0,0,0,1-.73,4.82,4.82,0,0,0,.71-1.14c.06-.14.27-.28.29-.56a.53.53,0,0,0-.05-.2,1.67,1.67,0,0,0-.46-.46,1.36,1.36,0,0,0-.54-.27s0,0,0,0a.71.71,0,0,1-.08-.19.49.49,0,0,0-.06-.13.18.18,0,0,0-.17-.09.22.22,0,0,0-.18.08c-.1.13-.1.21-.26.31a4,4,0,0,0-.37.27.52.52,0,0,1-.21.13v0a.58.58,0,0,0-.2-.43,1.81,1.81,0,0,1-.29-.3.2.2,0,0,1-.06-.17.55.55,0,0,0-.12-.28c-.19-.23-.51-.54-.52-.69v0a.42.42,0,0,1,.11-.25.27.27,0,0,1,.15-.12h0a1.81,1.81,0,0,0,.63,1,2.91,2.91,0,0,1,.46.32,2,2,0,0,0,.38.25l.08,0a.86.86,0,0,0,.39-.17l.16-.1.05,0a1.93,1.93,0,0,1,.23.32,1.15,1.15,0,0,0,.4.39,2.74,2.74,0,0,0,.66.11l.55,0h.16a1.8,1.8,0,0,0,.39,0,.51.51,0,0,0,.36-.2.31.31,0,0,1,.08-.11h.09a2.18,2.18,0,0,1,.2.29c.1.13.17.27.33.34a2.75,2.75,0,0,1,.3.07c.07,0,.1.05.11.19v0a.19.19,0,0,0,0,.08,1.18,1.18,0,0,0,.13.55.47.47,0,0,0,.33.3h0a.74.74,0,0,0,.45-.26c0,.25,0,.56,0,.71a.43.43,0,0,0,0,0,8.13,8.13,0,0,0,.3,1.32v0s.39,1,.5,1.2.19.34.32.57a1.52,1.52,0,0,1,.21.54,2.85,2.85,0,0,0,.06.49.57.57,0,0,0,.08.23.24.24,0,0,0,.22.14.32.32,0,0,0,.22-.14,7.55,7.55,0,0,0,.39-.75.41.41,0,0,0,0-.09c0,.06,0,.12-.06.2a2.06,2.06,0,0,0-.06.52,1.2,1.2,0,0,0,.05.38.41.41,0,0,0,.22.28.32.32,0,0,0,.14,0,.41.41,0,0,0,.36-.26.8.8,0,0,0,.11-.42.33.33,0,0,0-.05-.21,2.23,2.23,0,0,1-.11-.34,1.12,1.12,0,0,0-.1-.22.28.28,0,0,0-.24-.15.25.25,0,0,0-.12,0h0a.29.29,0,0,0-.12.13,5.71,5.71,0,0,0,.27-1,6,6,0,0,0,.08-1.13c0-.14.09-.29.45-.48s.68-.77,1-1a2.64,2.64,0,0,0,.37-.5.49.49,0,0,1,.46-.22,2.85,2.85,0,0,0,.58,0,.52.52,0,0,0,.26-.21l.11-.12h0a.41.41,0,0,1,0,.1,2,2,0,0,0,.32.62l.3.4a1.43,1.43,0,0,1,.19.69V141a1.27,1.27,0,0,0,0,.2,2.16,2.16,0,0,0,.05.46.48.48,0,0,0,.06.18.24.24,0,0,0,.2.12.31.31,0,0,0,.22-.13,3,3,0,0,0,.28-.45.35.35,0,0,1,.11-.07.32.32,0,0,1,.19-.08v.31c0,.44.06.88.06,1.13a1.94,1.94,0,0,0,.32.81h0a.31.31,0,0,0-.24.21.71.71,0,0,0-.05.29.69.69,0,0,0,.09.38c.09.13.19.14.24.19s.12.12.19.39a6.4,6.4,0,0,0,.51,1.38,1.42,1.42,0,0,0,.36.42c.15.13.31.25.37.32a.31.31,0,0,0,.22.09.34.34,0,0,0,.33-.35.32.32,0,0,0,0-.16A2.61,2.61,0,0,1,476,146a2.88,2.88,0,0,0-.38-1c-.23-.4-.42-.51-.52-.72a3.18,3.18,0,0,0-.44-.56.13.13,0,0,0,.11-.07.13.13,0,0,0,0-.09,1.63,1.63,0,0,1,.1-.44,2.73,2.73,0,0,0,.11-.54l.24.2a2.05,2.05,0,0,1,.39.49,2,2,0,0,1,.15.31l0,0,.17.2a1.21,1.21,0,0,1,.19.28.23.23,0,0,0,.22.15.56.56,0,0,0,.31-.12.67.67,0,0,0,.23-.27c.09-.19.08-.21.25-.27a1.6,1.6,0,0,0,.35-.1.55.55,0,0,0,.3-.41,3.1,3.1,0,0,0,.17-.75,1,1,0,0,0-.19-.58,5.68,5.68,0,0,0-.73-1,1.51,1.51,0,0,1-.27-.44l-.08-.22c.13-.14.47-.51.6-.67s.05,0,.07,0a.14.14,0,0,1,.11.13h0a.77.77,0,0,1-.11.27,1.66,1.66,0,0,0-.18.57.34.34,0,0,0,0,.1.52.52,0,0,0,.45.58.28.28,0,0,0,.23-.12c.05-.07.15-.21.23-.34a.87.87,0,0,0,.1-.19.32.32,0,0,0,.06-.17.17.17,0,0,0-.07-.16c-.08-.08-.11,0-.14-.26v0a.36.36,0,0,1,.11-.25.29.29,0,0,1,.16-.1.31.31,0,0,0,.18,0,3.16,3.16,0,0,0,1.33-.42c.44-.28.68-.84.89-1s.36-.34.59-.59a1.36,1.36,0,0,0,.45-.77v0a3.77,3.77,0,0,0-.2-1.3,5.71,5.71,0,0,0-.56-.89l.23-.1a1.26,1.26,0,0,0,.44-.28.5.5,0,0,0,.15-.34.4.4,0,0,0-.36-.4h-.06a2.77,2.77,0,0,1-.5.1h0s-.15-.13-.37-.34a.08.08,0,0,1,0-.06.16.16,0,0,1,.05-.1s0,0,0,0h.05a.71.71,0,0,0,.4-.21l.3-.29a2,2,0,0,0-.06.34.39.39,0,0,0,0,.18.25.25,0,0,0,.18.13h0a1.06,1.06,0,0,0,.51-.25l.2-.15h0a1,1,0,0,1,.07.31.17.17,0,0,1,0,.09,1.07,1.07,0,0,0-.06.35.47.47,0,0,0,0,.17.22.22,0,0,0,.18.15h.05a.67.67,0,0,0,.23-.16l0,0a.47.47,0,0,1,.14.29.44.44,0,0,1,0,.14c-.07.2-.22.3-.24.53a.44.44,0,0,0,.21.33.58.58,0,0,0,.33.12c.24,0,.34-.17.48-.25a1.27,1.27,0,0,0,.38-.95.82.82,0,0,0-.07-.31l-.27-.43a1.15,1.15,0,0,1-.15-.29l.27-.11a.39.39,0,0,0,.25-.32.5.5,0,0,1,.29-.42,1,1,0,0,0,.29-.26l.09-.09a.85.85,0,0,0,.19.1.93.93,0,0,0,.33.07.39.39,0,0,0,.33-.14,13.4,13.4,0,0,1,1.22-1.24,2.35,2.35,0,0,0,.72-1.33c0-.13.07-.24.1-.36a.66.66,0,0,1,0,.14,1.55,1.55,0,0,1,0,.21c0,.1,0,.22,0,.35a4.61,4.61,0,0,0,0,.53,1.12,1.12,0,0,0,0,.2.42.42,0,0,0,0,.16.76.76,0,0,0,.17.2.46.46,0,0,0,.29.13.2.2,0,0,0,.11,0c.14-.08.12-.19.13-.27a2.87,2.87,0,0,0-.05-.41,2.41,2.41,0,0,1-.05-.26.1.1,0,0,1,0,0,.59.59,0,0,1,.18-.18.21.21,0,0,0,.13-.13.57.57,0,0,0,0-.13,1.72,1.72,0,0,0-.19-.73,2,2,0,0,0-.17-.23h0a.48.48,0,0,0,.09-.11.49.49,0,0,0,.08-.24.19.19,0,0,0-.07-.16.33.33,0,0,0,0-.1.22.22,0,0,0-.21-.17l-.11,0s-.14,0-.26,0a.44.44,0,0,0-.15,0,.48.48,0,0,0-.42-.27h-.07c-.28.05-.41.19-.56.19a.07.07,0,0,1,0-.05s0-.11,0-.17a.26.26,0,0,0,0-.11.17.17,0,0,0-.16-.11.22.22,0,0,0-.16.07l-.15.14,0,0,0-.06a2,2,0,0,1,.65-.39,2.82,2.82,0,0,0,.76-.63l.34-.33a.53.53,0,0,1,.19-.13h.12c.24,0,.67,0,1.1,0h.26a3.82,3.82,0,0,0,.82-.2h0a1.42,1.42,0,0,0,.84.35h.08a.57.57,0,0,0,.26-.08c.07,0,.12-.11.31-.27a5.6,5.6,0,0,0,.91-.75.76.76,0,0,1,.45-.25h0v.23a.53.53,0,0,0,0,.24.25.25,0,0,0,.25.15h.05l-.21.16a4.27,4.27,0,0,1-.56.27,1.41,1.41,0,0,0-.63.46c-.23.33-.42.51-.42.91v.09c0,.4.33.81.32,1.09a.29.29,0,0,1,0,.16,3,3,0,0,0-.3,1,.14.14,0,0,0,.09.15.13.13,0,0,0,.16-.06s.08-.13.21-.3a2.91,2.91,0,0,1,.52-.54,5.28,5.28,0,0,0,.89-1,1,1,0,0,1,.32-.17.72.72,0,0,0,.21-.12.29.29,0,0,0,.13-.24,3,3,0,0,1,.21-.72.69.69,0,0,0,0-.13.35.35,0,0,0-.06-.19S494.41,125.7,494.41,125.69Zm-39-2.7a2.23,2.23,0,0,0,.7-.13.46.46,0,0,0-.05.27.11.11,0,0,0,0,.08s0,.07,0,.1a1.26,1.26,0,0,1-.16,0,.43.43,0,0,1-.21-.1.6.6,0,0,0-.32-.16.23.23,0,0,0-.17.08s-.05,0-.05,0a.84.84,0,0,1-.25.13h0v-.19a.63.63,0,0,0-.06-.29A1.62,1.62,0,0,0,455.41,123Zm-2,1.68c0-.08,0-.07.08-.07a.43.43,0,0,1,.27.11l.1.11a.09.09,0,0,1,0,.05h-.08a.51.51,0,0,1-.28-.09c-.09,0-.13-.11-.12-.12h0l-.13,0Zm-.73,6.49a2.71,2.71,0,0,0,.54-.8c.11-.22.22-.25.29-.25h0a1.56,1.56,0,0,1,.21.31c.09.15.17.32.21.4a.25.25,0,0,0,.22.16.59.59,0,0,0,.27-.11l.15-.11a.78.78,0,0,0,.35-.5s0,0,.1-.09a.61.61,0,0,1,.17,0l-.08,0a.41.41,0,0,0-.11.07.2.2,0,0,0-.07.15.3.3,0,0,0,.14.22,1.67,1.67,0,0,0,.27.14,8.11,8.11,0,0,1,.93.68.55.55,0,0,1,.24.39.13.13,0,0,1,0,.09h0a5,5,0,0,1-.88.09h-.14c-.16,0-.47-.29-.87-.37a1.76,1.76,0,0,0-.33,0,.78.78,0,0,0-.7.28s-.13.08-.3.08l-.4,0a.61.61,0,0,0-.34.13,1.94,1.94,0,0,0,0-.24.32.32,0,0,0-.12-.3A.68.68,0,0,1,452.71,131.16Zm-2.27-7.42a.86.86,0,0,0,.24-.54.63.63,0,0,0,0-.16h.08l.53,0h.21a2.48,2.48,0,0,1-.35.28,5,5,0,0,1-.6.39l-.1.06Zm-3.54,2.07a.57.57,0,0,1,.11-.19l.07-.06a2.8,2.8,0,0,0,.13.41,1,1,0,0,1,.1.36v0a1.11,1.11,0,0,0,0,.17.41.41,0,0,0,.06.24.3.3,0,0,0,.24.12h.06c.2,0,1.17-.28,1.17-.28h0a.64.64,0,0,0,.34-.48.19.19,0,0,0,0-.08v0a.58.58,0,0,1,.16-.3c.09-.11.19-.2.23-.26a.82.82,0,0,0,.23-.48.36.36,0,0,0-.26-.34l-.28-.1,0,0,0,0,.12-.14a.6.6,0,0,1,.42-.17.91.91,0,0,0,.52-.25.58.58,0,0,0-.1.33.63.63,0,0,0,.13.39,2.32,2.32,0,0,1,.14.33.76.76,0,0,0,.12.19.3.3,0,0,0,.23.11h.08c.26-.07.52-.26.7-.25h.23c.25,0,.56,0,.66,0l.12.13a.45.45,0,0,1,.06.12c-.16,0-.42,0-.84,0l-.65,0-.24,0-.1,0a.19.19,0,0,0-.09.15.26.26,0,0,0,.06.13,1.7,1.7,0,0,0,.26.18l.09.07h-.06c-.09,0-.26-.09-.48-.12h-.05a.51.51,0,0,0-.42.31,2.63,2.63,0,0,0-.18.45.75.75,0,0,0,0,.2c0,.09,0,.16,0,.22V127l-.06,0a1.81,1.81,0,0,0-.64-.14.54.54,0,0,0-.27.06,5.25,5.25,0,0,1-.66.27l-.05,0a.49.49,0,0,0-.38-.18h-.39l-.14,0a.57.57,0,0,1-.15-.28v0c0-.13,0-.26,0-.4a.28.28,0,0,0-.14-.26.57.57,0,0,0-.18,0l-.23,0A.31.31,0,0,0,446.9,125.81Zm2.68,6.46a5.26,5.26,0,0,0-.71-.52,1.48,1.48,0,0,1-.62-.54,1.1,1.1,0,0,0-.36-.38c-.11-.1-.15-.15-.15-.22v0s0,0,0,0h0a.7.7,0,0,1,.35.24c.24.28.77.63.92.82s.48.35.53.55Zm-5.4-3.65h0c0,.06,0,.07-.09.08H444A.56.56,0,0,0,444.18,128.62Zm9.87,19.24a1.15,1.15,0,0,1-.14.2l-.06.05h0a.22.22,0,0,1,0-.08,1.18,1.18,0,0,1,0-.22,1.49,1.49,0,0,1,.06-.44h0a.41.41,0,0,1,.22-.06h.12s0,0,0,.05A1.19,1.19,0,0,1,454.05,147.86Zm.11-12.2,0,0h-.07a1.18,1.18,0,0,0-.26,0,.47.47,0,0,0-.36-.22l-.1,0c-.15,0-.36.07-.56.14,0,0,0,0,0,0a.2.2,0,0,0,0-.11.43.43,0,0,0-.29-.15l-.35,0h-.56c-.27,0-.54-.22-.86-.31h-.09a.85.85,0,0,0-.5.25,3.39,3.39,0,0,0-.41.44c-.1.11-.15.12-.2.12s-.19-.07-.38-.08a.81.81,0,0,1-.35-.18,1.6,1.6,0,0,1-.24-.19l0,0-.26-.12a1.8,1.8,0,0,0-.44-.12l-.09,0a2.22,2.22,0,0,1-.27-.21l-.13-.1a.33.33,0,0,0-.15-.05.51.51,0,0,1-.09-.08.13.13,0,0,1,0-.07h0a.5.5,0,0,1,.16,0,.3.3,0,0,0,.14-.07.26.26,0,0,0,.07-.18,2.12,2.12,0,0,0-.09-.44c-.13-.46-.43-.64-.68-.63a.92.92,0,0,0-.39.1h0a6,6,0,0,1-1,0h-.56a.78.78,0,0,0-.23.06,9.84,9.84,0,0,0-.94.4c-.22.11-.61.26-.75.34h0c-.09,0-.31,0-.52,0l.08-.18a.59.59,0,0,1,0-.08.51.51,0,0,0,.17,0,4.32,4.32,0,0,0,.56-.1.62.62,0,0,0,.39-.25,1.72,1.72,0,0,1,.27-.27.5.5,0,0,0,.13-.11A.21.21,0,0,0,444,133a.44.44,0,0,0-.06-.16l-.06-.1h0s0-.09.12-.18l.28-.29c0-.06.12-.08.25-.09a.51.51,0,0,0,.2,0,.32.32,0,0,0,.18-.21c0-.13.07-.3.1-.42a.4.4,0,0,1,.06-.13h0a6.24,6.24,0,0,0,.7.19,1,1,0,0,0,.45-.21l.3-.22h.07a.41.41,0,0,1,.18.05.17.17,0,0,1,.1.12,1,1,0,0,0,.32.5,2.35,2.35,0,0,0,.34.28c.08,0,.27.12.47.21l.27.11.14.08a1.21,1.21,0,0,1,.27.55c0,.16.12.3.28.31a.3.3,0,0,0,.26-.29V133c0-.14,0-.3,0-.4h0a1,1,0,0,0,.37-.08.12.12,0,0,0,.08-.11h0a4,4,0,0,0,.33.53l.2.46c.08.21.16.41.21.51a.24.24,0,0,0,.22.13.73.73,0,0,0,.47-.26l.23-.16a.54.54,0,0,0,.21-.36v0a.53.53,0,0,0-.22-.41.87.87,0,0,0-.15-.13l.07,0a.83.83,0,0,0,.23-.15,1,1,0,0,1,.26-.19h0a2,2,0,0,1,.05.5c0,.11,0,.23,0,.32a.86.86,0,0,0,0,.24.44.44,0,0,0,.16.17l.33.19a.47.47,0,0,1,.2.14.75.75,0,0,0,.58.23.34.34,0,0,0,.25-.08h0a3.09,3.09,0,0,1,.46.12.2.2,0,0,0,.1,0,3.36,3.36,0,0,0,.61-.14l.22-.09V134a2.57,2.57,0,0,1-.33,1.27A1.35,1.35,0,0,0,454.16,135.66Zm2.68,6.4c-.07-.08-.09-.13-.2-.18h0a1.09,1.09,0,0,1-.22-.24,1.86,1.86,0,0,1-.25-.46,4.63,4.63,0,0,0-.54-1.17c-.18-.23-.32-.9-.54-1.36s-.39-1-.58-1.42a1,1,0,0,0-.07-.15,1.66,1.66,0,0,1,.29-.06h0a10.05,10.05,0,0,1,.38,1,.53.53,0,0,0,.26.38c.09.06.09,0,.11.15a4.12,4.12,0,0,0,.17.7c.05.12.09.24.13.33a1,1,0,0,0,.14.23s.19.19.33.34a2.56,2.56,0,0,1,.29.4,3.38,3.38,0,0,1,.26.88c0,.23.08.51.13.75l0,.1Zm2.46-11a.18.18,0,0,0,.16.09h.12a1.52,1.52,0,0,1,.29.46.45.45,0,0,0,.27.22.45.45,0,0,1,.14.07l-.09.1a.38.38,0,0,0-.13.26.28.28,0,0,0,.1.21,1.51,1.51,0,0,1,.2.49c0,.22.08.43.09.53a.57.57,0,0,1-.2.08,1.47,1.47,0,0,1-.33,0h-.07c-.14,0-.7-.24-.89-.31a.88.88,0,0,1-.1-.42.45.45,0,0,1,0-.13h.07a.46.46,0,0,0,.3-.11,3.8,3.8,0,0,0,.27-.28.32.32,0,0,0,.1-.22.29.29,0,0,0-.13-.24,1.94,1.94,0,0,0-.61-.24h0a1.64,1.64,0,0,1-.31-.4l-.3-.51a.29.29,0,0,1,0-.14.7.7,0,0,1,.29-.5h0c.1,0,.3.08.5.08a.44.44,0,0,0,.26-.08c.2-.14.39-.32.48-.39a.91.91,0,0,1,.29.08.49.49,0,0,1,.2.13,1.57,1.57,0,0,0,.2.3l.08.12h0a.73.73,0,0,1-.28.06.32.32,0,0,1-.21-.06.35.35,0,0,0-.26-.12.59.59,0,0,0-.54.57v.09A.3.3,0,0,0,459.3,131.1ZM468,122a.59.59,0,0,1-.22,0c-.12,0-.18,0-.19-.09a.31.31,0,0,0-.27-.24l.07,0a1.5,1.5,0,0,1,.43-.09s.07,0,.07,0,0,0,0,0a.83.83,0,0,0,.09.29.25.25,0,0,1,0,.07Zm1.66-.68h0l-.06,0s-.06,0-.09-.14a.63.63,0,0,0-.1-.36.53.53,0,0,0-.15-.11l.22.11.08,0,0,0h0a1,1,0,0,1,.09.34S469.64,121.26,469.63,121.27Zm-23.11,10.65a.38.38,0,0,0-.32.2.88.88,0,0,0-.1.36.48.48,0,0,0,.12.31.42.42,0,0,0,.29.14.49.49,0,0,0,.37-.26l-.12-.07.12.07a.46.46,0,0,0,.06-.22.57.57,0,0,0-.13-.35A.39.39,0,0,0,446.52,131.92Zm-10.83-11.66h.08c.14,0,.3,0,.45,0a.48.48,0,0,0,.25-.06.29.29,0,0,0,.12-.26v0h0v-.21a1.68,1.68,0,0,1,.08-.6,1,1,0,0,1,.13-.18.35.35,0,0,0,.11-.22.18.18,0,0,0-.1-.17.34.34,0,0,0-.16,0h0s0,0,0,0,0,0-.07-.11a.83.83,0,0,1,0-.13.59.59,0,0,1,.22-.4c.07-.08.26-.3.49-.54a2.26,2.26,0,0,1,.62-.5.83.83,0,0,0,.57-.68.31.31,0,0,0-.19-.29,1.83,1.83,0,0,0-.67-.16.84.84,0,0,0-.59.23l-.37.39a.48.48,0,0,1-.3.14l-.11,0c-.12,0-.21-.15-.3-.33a3.75,3.75,0,0,0-.28-.57,1.36,1.36,0,0,1-.2-.67,1.21,1.21,0,0,0-.07-.34.28.28,0,0,0-.27-.22H435l-.31.06a1.76,1.76,0,0,0-.42-.05,1.07,1.07,0,0,0-.25,0,1.34,1.34,0,0,0-.32.13.11.11,0,0,0,0-.05.25.25,0,0,0-.14-.21.45.45,0,0,0-.18-.07c-.39-.05-1-.25-1.52-.28h-.09c-.37,0-.61.12-.93.13a2.66,2.66,0,0,0-1.53.29,1.62,1.62,0,0,1-.47.21l-.19,0-.08,0a.21.21,0,0,0-.09.06,3.67,3.67,0,0,0-.26.48l-.11.18h0a.89.89,0,0,1-.11-.2.83.83,0,0,0-.09-.16.3.3,0,0,0-.2-.1.29.29,0,0,0-.18.07.58.58,0,0,0-.17.51v0a.76.76,0,0,1-.07.39.53.53,0,0,1-.42.16.7.7,0,0,1-.29-.06,1.2,1.2,0,0,0-.73-.18h-.31a3.27,3.27,0,0,0-.87.18,1.59,1.59,0,0,0-.32.16.37.37,0,0,0-.16.28.22.22,0,0,0,0,.14,0,0,0,0,1,0,0s0,0,0,0a.33.33,0,0,1-.13,0h0a.23.23,0,0,0-.19-.08.72.72,0,0,0-.4.16.52.52,0,0,0-.24.39v0s0,0,0,.06a.41.41,0,0,1-.05.21s-.06.06-.1.06h0l-.13,0a.54.54,0,0,0-.52.5.73.73,0,0,1-.27.15l-.19.06-.07,0h-.07a2.37,2.37,0,0,0-.35,0,.59.59,0,0,0-.19,0,.22.22,0,0,0-.14.2.26.26,0,0,0,.11.2.55.55,0,0,0,.38.14h.05a.56.56,0,0,1,.17,0s.16.11.24.24a1.21,1.21,0,0,0,.29.34.59.59,0,0,0,.17,0,.49.49,0,0,0,.39-.22.61.61,0,0,0,.07-.14.32.32,0,0,0,.15.13.54.54,0,0,0,.22,0c.23,0,.52-.08.6-.07h0l.51.09a2.67,2.67,0,0,1,.53.16,4.34,4.34,0,0,0,.48.2.67.67,0,0,1,.34.23,2.79,2.79,0,0,1,.13.68c0,.14,0,.27,0,.39a.61.61,0,0,0,.08.27.16.16,0,0,0,.14.07h.05a.67.67,0,0,0,0,.24.73.73,0,0,0,.07.3.28.28,0,0,0,.23.16h.17l-.08.12a.51.51,0,0,0-.12.29v0a3.69,3.69,0,0,0,.31.81.66.66,0,0,0,.3.2l0,0a.19.19,0,0,0,0,.08.2.2,0,0,0,0,.11l.15.32a.84.84,0,0,0,.29.33,2.32,2.32,0,0,1,.39.26,1.57,1.57,0,0,1,.28.29.21.21,0,0,0,.21.14.64.64,0,0,0,.32-.11l.07,0a1,1,0,0,0,0,.14.38.38,0,0,0,.3.27h.09a.69.69,0,0,0,.51-.27,1,1,0,0,0,.2-.72c0-.07,0-.13,0-.16h0l.15,0a.36.36,0,0,0,.26-.11.38.38,0,0,0,.08-.26v0a2.67,2.67,0,0,1-.06-.33v0s0,0,.09,0a1,1,0,0,0,.46-.21.54.54,0,0,1,.23-.12c.12,0,.43,0,.65,0l.16,0a.22.22,0,0,0,.16-.09c0-.06.12-.2.21-.33a.85.85,0,0,1,.14-.17l.05,0h0a10.5,10.5,0,0,0,1.07-.15,2.28,2.28,0,0,0,.62-.23,1.67,1.67,0,0,1,.34-.14h.19l.2,0,.1-.05a.18.18,0,0,0,.08-.14.18.18,0,0,0,0-.11h.09l.14,0a.45.45,0,0,0,.36-.45.41.41,0,0,0-.07-.25,2.92,2.92,0,0,1-.16-.42.1.1,0,0,1,0-.07s0,0,0-.05A.29.29,0,0,1,435.69,120.26Zm-8.87.58h-.09l-.1,0,0-.07h0a.43.43,0,0,1,.22.06Zm.47.59a.59.59,0,0,1,0,.14l-.06,0a1.42,1.42,0,0,0,.05-.22c0,.06,0,.1,0,.1Zm7.26-.35a.48.48,0,0,1,0-.15l0,0,.1,0c.07,0,.09.06.08.08h0v0s0,.08,0,.11A.62.62,0,0,0,434.55,121.08Zm3.78,2.64a.9.9,0,0,1,.22-.06l.21,0a.12.12,0,0,0,.09,0,1.3,1.3,0,0,0,.15-.16.67.67,0,0,0,.17-.36.26.26,0,0,0-.07-.18h0a1.42,1.42,0,0,0-.71-.31h-.05c-.24,0-.35.16-.64.15s-.46.08-.55.08,0,0-.06,0a1.07,1.07,0,0,0-.71-.24.39.39,0,0,0-.15,0,.21.21,0,0,0-.14.1.24.24,0,0,1-.07.09.4.4,0,0,0-.08.21.67.67,0,0,0,.08.27,2.76,2.76,0,0,0,.19.35.41.41,0,0,0,.28.17h0l.18,0,.21,0,.05,0h0a.45.45,0,0,0,.43.34h0a.68.68,0,0,0,.23-.05c.15,0,.29-.09.4-.14A.61.61,0,0,0,438.33,123.72Zm21.14,28.46a.59.59,0,0,0-.31-.41l0,.13,0-.13-.13,0a.36.36,0,0,0-.26.12c-.17.2-.23.5-.39.71a3.7,3.7,0,0,1-.36.4l-.13.12,0,0h0a.71.71,0,0,0-.39.16.63.63,0,0,0-.26.49.66.66,0,0,0,0,.23,1.63,1.63,0,0,1,.12.58.71.71,0,0,1-.12.45.41.41,0,0,0-.09.28c0,.31.17.7.17.92,0,0,0,.05,0,.06a.92.92,0,0,0,0,.16.54.54,0,0,0,.15.41.62.62,0,0,0,.45.16h0a.7.7,0,0,0,.49-.17,1.34,1.34,0,0,0,.28-.49c.17-.43.2-.84.34-1.16a4,4,0,0,0,.22-.71c.07-.24.12-.48.15-.55a4,4,0,0,0,.23-1.1s0-.07,0-.1A2.75,2.75,0,0,0,459.47,152.18Zm21.45-.9h0a.33.33,0,0,0,.31-.31v0a.39.39,0,0,0-.11-.28.38.38,0,0,0-.25-.09.35.35,0,0,0-.34.28h0s0,0,0,.07A.39.39,0,0,0,480.92,151.28Zm-60.29-11.46a.58.58,0,0,0-.19-.36.6.6,0,0,0-.4-.2H420a.64.64,0,0,1-.31-.12,2,2,0,0,1-.35-.28,1.17,1.17,0,0,0-.86-.26,1.82,1.82,0,0,0-.49.12l-.34.11a.13.13,0,0,0-.1.12V139a.32.32,0,0,0,.13.27.43.43,0,0,0,.24.06h.32l.5,0,.27,0,.08,0h0a1.63,1.63,0,0,0,.39.32,2.23,2.23,0,0,1,.34.24.8.8,0,0,0,.47.15.57.57,0,0,0,.18,0,.23.23,0,0,0,.16-.16l-.14,0,.14,0Zm-.93.73h0a.37.37,0,0,0-.26.39.48.48,0,0,0,.07.26.33.33,0,0,0,.26.15h0l.11,0a.37.37,0,0,0,.25-.36.41.41,0,0,0-.36-.43Zm.3-2.3a.35.35,0,0,0-.36-.32h-.06a.3.3,0,0,0-.27.29.29.29,0,0,0,.09.21.35.35,0,0,0,.24.1h.09l0-.14,0,.14A.31.31,0,0,0,420,138.25Zm59.33,12.42a.24.24,0,0,0,.12-.16l-.14,0h.14v0a.57.57,0,0,0-.2-.39.59.59,0,0,0-.36-.2,2,2,0,0,1-.41-.09l-.34-.09a.12.12,0,0,0-.1,0,2.72,2.72,0,0,0-.25.12l0,0a1,1,0,0,0-.51-.12l-.13,0s0,0-.05,0a.37.37,0,0,0-.33-.28h-.08a1.81,1.81,0,0,1,.16-.79h0a.52.52,0,0,0,.1-.31.39.39,0,0,0-.07-.23.3.3,0,0,0-.24-.12h-.05a.09.09,0,0,1-.06,0c-.13-.1-.3-.4-.57-.63a5.18,5.18,0,0,1-.9-.86,7.79,7.79,0,0,0-.93-.89,1.09,1.09,0,0,0-.7-.34h-.09a.23.23,0,0,0-.18.22.46.46,0,0,0,.11.28,3.8,3.8,0,0,0,.33.37l.22.21c0,.06.24.25.42.48a1.45,1.45,0,0,1,.34.6,2.2,2.2,0,0,0,.26.79,4,4,0,0,0,.38.6l.47.38a1.64,1.64,0,0,1,.39.42.44.44,0,0,0,.32.29.62.62,0,0,0,.25.46,1.12,1.12,0,0,0,.57.13h.17l.27-.05.1,0v0a.85.85,0,0,0,.65.33h.17c.18,0,.43.08.62.08A.27.27,0,0,0,479.33,150.67Zm4.14-4.19a1.63,1.63,0,0,0-.33.91.52.52,0,0,0,0,.21.26.26,0,0,0,.17.15h.08c.24,0,.32-.23.4-.42a1.87,1.87,0,0,0,.13-.64.88.88,0,0,0,0-.17.27.27,0,0,0-.12-.17h0l-.1,0A.32.32,0,0,0,483.47,146.48Zm3.36-13.62a5.11,5.11,0,0,1-.21.49.75.75,0,0,1-.08.14h0a.55.55,0,0,0-.17.05,2.09,2.09,0,0,0-.72.43h-.08c-.18,0-.49-.09-.71-.1a.31.31,0,0,0-.25.11,3.46,3.46,0,0,1-.42.45l-.21.07a.34.34,0,0,0-.27.34.69.69,0,0,0,0,.13,2,2,0,0,0,.19.54c.09.14.18.28.36.29a.44.44,0,0,0,.34-.15.64.64,0,0,0,.17-.46h0l.12.05a1,1,0,0,0,.27.07h0a.59.59,0,0,0,.39-.36.4.4,0,0,0,.13.07l.17,0a.39.39,0,0,0,.33-.16.41.41,0,0,0,.09-.19l.28-.13a1.59,1.59,0,0,0,.37-.17l.28-.16.18-.11a.35.35,0,0,0,.13-.18c0-.1,0-.3,0-.5s0-.2,0-.27,0-.05,0-.06l.13-.06a.3.3,0,0,0,.13-.25.93.93,0,0,0-.11-.37,5,5,0,0,1-.18-.48l-.05-.11c.11,0,.21,0,.32-.06a3,3,0,0,0,.72-.16h0a1,1,0,0,0,.31,0,.35.35,0,0,0,.27-.32.25.25,0,0,0,0-.09.54.54,0,0,0-.36-.36,1.23,1.23,0,0,0-.43-.07h-.11l-.13-.13a.46.46,0,0,0-.32-.15.14.14,0,0,0-.09,0,.48.48,0,0,0-.29.3.65.65,0,0,0-.06.25l-.26.13c-.12.08-.27.15-.29.36a.27.27,0,0,0,.08.19.31.31,0,0,0,.11.09,1,1,0,0,0-.12.48A2.07,2.07,0,0,1,486.83,132.86Zm-7.91,12.82c-.05.08-.08.16-.11.21l0,.07h0a.81.81,0,0,1-.37.16.63.63,0,0,0-.37.47l-.09-.06a.59.59,0,0,0-.29-.12.19.19,0,0,0-.15.07.46.46,0,0,0-.08.32,3.48,3.48,0,0,0,.21,1.05,1.67,1.67,0,0,0,.45.65,1,1,0,0,0,.47.26,1.64,1.64,0,0,1,.53,0,1.58,1.58,0,0,0,.43.06.86.86,0,0,0,.32,0,.31.31,0,0,0,.2-.28v0c0-.12,0-.23,0-.35a.79.79,0,0,1,.16-.56l.31-.32a.66.66,0,0,0,.16-.42.77.77,0,0,0,0-.25c-.11-.33-.28-.57-.27-.66s0,0,0-.05a2.19,2.19,0,0,1,.25-.2.39.39,0,0,0,.18-.31.13.13,0,0,0,0-.1.14.14,0,0,0-.12-.06.34.34,0,0,0-.14,0l-.07,0h0s0,0-.05-.05a1.21,1.21,0,0,1-.08-.45.22.22,0,0,0-.06-.15.18.18,0,0,0-.15-.06.45.45,0,0,0-.32.16.52.52,0,0,0-.19.32v0a.54.54,0,0,0,0,.2,0,0,0,0,1,0,0h-.12A.66.66,0,0,0,478.92,145.68Zm2-7.38a1.29,1.29,0,0,0-.14.56.62.62,0,0,0,0,.23.26.26,0,0,0,.22.13h0c.22,0,.32-.21.43-.4a1.47,1.47,0,0,0,.15-.59.39.39,0,0,0,0-.21.25.25,0,0,0-.21-.12h-.05A.64.64,0,0,0,481,138.3Zm-.33,3.14a.79.79,0,0,0,.05.25h0a1.59,1.59,0,0,0,.39.49l.16.17,0,0c-.13.15-.51.44-.59.79v.06a.14.14,0,0,0,0,.11.16.16,0,0,0,.12.06h0a.42.42,0,0,0,.24-.12,4,4,0,0,0,.66-.73.33.33,0,0,1,.26-.13l.18,0a.32.32,0,0,0,.2-.15l.08-.15a.15.15,0,0,0,0-.13.15.15,0,0,0-.1-.07,3.5,3.5,0,0,1-.5-.15l-.15,0a.84.84,0,0,0-.18,0,.37.37,0,0,1,0-.09.58.58,0,0,1,.23-.35.47.47,0,0,0,.22-.5.81.81,0,0,0-.26-.46.47.47,0,0,0-.3-.12.21.21,0,0,0-.21.16c0,.19,0,.33-.11.44s-.21.14-.31.23A.51.51,0,0,0,480.63,141.44Z" transform="translate(-3.02 -4.05)"/><path class="n" d="M431.94,102.91a4.91,4.91,0,0,0-4.91,4.9c0,2.36,3.39,7,4.07,8l.84,1.13.84-1.13c.68-.92,4.07-5.6,4.07-8A4.91,4.91,0,0,0,431.94,102.91Z" transform="translate(-3.02 -4.05)"/><path class="o" d="M434.61,107.87a2.67,2.67,0,1,1-2.67-2.67A2.68,2.68,0,0,1,434.61,107.87Z" transform="translate(-3.02 -4.05)"/><path class="n" d="M464,101.18a4.91,4.91,0,0,0-4.9,4.9c0,2.36,3.38,7,4.06,8l.84,1.14.85-1.14c.68-.91,4.06-5.59,4.06-8A4.91,4.91,0,0,0,464,101.18Z" transform="translate(-3.02 -4.05)"/><path class="o" d="M466.63,106.14a2.67,2.67,0,1,1-2.67-2.67A2.66,2.66,0,0,1,466.63,106.14Z" transform="translate(-3.02 -4.05)"/><path class="n" d="M450.12,145.32a4.91,4.91,0,0,0-4.91,4.9c0,2.36,3.38,7,4.06,7.95l.85,1.14.84-1.14c.68-.91,4.06-5.59,4.06-7.95A4.91,4.91,0,0,0,450.12,145.32Z" transform="translate(-3.02 -4.05)"/><path class="o" d="M452.78,150.27a2.67,2.67,0,1,1-2.66-2.66A2.66,2.66,0,0,1,452.78,150.27Z" transform="translate(-3.02 -4.05)"/><path class="n" d="M430.21,136.66a4.91,4.91,0,0,0-4.91,4.91c0,2.35,3.39,7,4.07,8l.84,1.14.84-1.14c.68-.92,4.07-5.6,4.07-8A4.91,4.91,0,0,0,430.21,136.66Z" transform="translate(-3.02 -4.05)"/><path class="o" d="M432.88,141.62a2.67,2.67,0,1,1-2.67-2.67A2.68,2.68,0,0,1,432.88,141.62Z" transform="translate(-3.02 -4.05)"/><path class="n" d="M420,119.15a4.91,4.91,0,0,0-4.91,4.9c0,2.36,3.39,7,4.07,8l.84,1.14.84-1.14c.68-.91,4.07-5.59,4.07-8A4.91,4.91,0,0,0,420,119.15Z" transform="translate(-3.02 -4.05)"/><path class="o" d="M422.67,124.11a2.67,2.67,0,1,1-2.67-2.67A2.67,2.67,0,0,1,422.67,124.11Z" transform="translate(-3.02 -4.05)"/><path class="n" d="M477.81,124.54a4.91,4.91,0,0,0-4.91,4.91c0,2.36,3.39,7,4.07,8l.84,1.14.84-1.14c.68-.91,4.07-5.59,4.07-8A4.91,4.91,0,0,0,477.81,124.54Z" transform="translate(-3.02 -4.05)"/><path class="o" d="M480.48,129.5a2.67,2.67,0,1,1-2.67-2.66A2.67,2.67,0,0,1,480.48,129.5Z" transform="translate(-3.02 -4.05)"/><circle class="l" cx="323.57" cy="63.33" r="61.33"/><path class="p" d="M301.13,26.34V51.85a2.92,2.92,0,0,1-.69,1.87l-6.11,7a2.85,2.85,0,0,0-.7,1.87v9.65h4.74V87.57l-4.74,5.36v13.82a2.86,2.86,0,0,0,2.85,2.85h60.08a2.86,2.86,0,0,0,2.85-2.85V26.34a2.85,2.85,0,0,0-2.85-2.85H304A2.85,2.85,0,0,0,301.13,26.34Z" transform="translate(-3.02 -4.05)"/><rect class="q" x="301.58" y="22.9" width="4.9" height="11.97"/><rect class="q" x="348.02" y="22.9" width="4.9" height="15.43"/><rect class="q" x="340.28" y="22.9" width="4.9" height="15.43"/><rect class="q" x="332.54" y="22.9" width="4.9" height="15.43"/><rect class="q" x="324.8" y="22.9" width="4.9" height="11.97"/><rect class="q" x="317.06" y="22.9" width="4.9" height="15.43"/><rect class="q" x="309.32" y="22.9" width="4.9" height="15.43"/><path class="r" d="M301.58,45h51.35a0,0,0,0,1,0,0V98.77a2.31,2.31,0,0,1-2.31,2.31h-49a0,0,0,0,1,0,0V45A0,0,0,0,1,301.58,45Z"/><circle class="l" cx="183.14" cy="63.33" r="61.33"/><rect class="f" x="138.17" y="42.67" width="59.07" height="35.48" rx="10.04"/><polygon class="f" points="148.63 87.03 154.68 74.91 167.7 74.91 148.63 87.03"/><line class="s" x1="180.79" y1="51.4" x2="189.3" y2="51.4"/><line class="s" x1="158.14" y1="51.4" x2="177.91" y2="51.4"/><line class="s" x1="146.03" y1="51.4" x2="154.68" y2="51.4"/><line class="s" x1="184.4" y1="57.46" x2="189.3" y2="57.46"/><line class="s" x1="163.34" y1="57.46" x2="180.79" y2="57.46"/><line class="s" x1="146.03" y1="57.46" x2="160.02" y2="57.46"/><line class="s" x1="181.37" y1="62.65" x2="189.3" y2="62.65"/><line class="s" x1="163.34" y1="62.65" x2="177.91" y2="62.65"/><line class="s" x1="146.03" y1="62.65" x2="159.59" y2="62.65"/><line class="s" x1="146.03" y1="67.84" x2="163.34" y2="67.84"/><path class="m" d="M209.08,99.51H183.63A10.43,10.43,0,0,1,173.2,89.09V71a10.44,10.44,0,0,1,10.43-10.43h41.68A10.43,10.43,0,0,1,235.73,71v18.1a10.43,10.43,0,0,1-10.42,10.42h-3.4l2.11,8Z" transform="translate(-3.02 -4.05)"/><path class="t" d="M225.31,62.3A8.69,8.69,0,0,1,234,71v18.1a8.69,8.69,0,0,1-8.69,8.69h-6.2l4.44,8.87-14-8.87h-26a8.69,8.69,0,0,1-8.69-8.69V71a8.69,8.69,0,0,1,8.69-8.69h41.68m0-3.47H183.63A12.18,12.18,0,0,0,171.47,71v18.1a12.17,12.17,0,0,0,12.16,12.15h24.94l13.12,8.33,4.95-4.47-1.93-3.86h.6a12.16,12.16,0,0,0,12.15-12.15V71a12.17,12.17,0,0,0-12.15-12.16Z" transform="translate(-3.02 -4.05)"/><line class="s" x1="188.29" y1="66.11" x2="179.78" y2="66.11"/><line class="s" x1="214.4" y1="66.11" x2="192.04" y2="66.11"/><line class="s" x1="223.05" y1="66.11" x2="217" y2="66.11"/><line class="s" x1="184.69" y1="72.17" x2="179.78" y2="72.17"/><line class="s" x1="203.15" y1="72.17" x2="188.29" y2="72.17"/><line class="s" x1="223.05" y1="72.17" x2="206.47" y2="72.17"/><line class="s" x1="187.71" y1="77.36" x2="179.78" y2="77.36"/><line class="s" x1="208.34" y1="77.36" x2="191.18" y2="77.36"/><line class="s" x1="223.05" y1="77.36" x2="212.09" y2="77.36"/><line class="s" x1="197.09" y1="82.55" x2="179.78" y2="82.55"/><circle class="l" cx="63.33" cy="136.97" r="61.33"/><rect class="u" x="15.82" y="119.14" width="41.35" height="41.35" transform="translate(-29.96 5.94) rotate(-11.41)"/><rect class="v" x="18.43" y="122.44" width="34.88" height="28.64" transform="translate(-29.36 5.75) rotate(-11.41)"/><rect class="u" x="41.96" y="131.45" width="41.35" height="41.35" transform="translate(20.19 -11.64) rotate(8.51)"/><rect class="w" x="45.66" y="134.71" width="34.88" height="28.64" transform="translate(19.74 -11.75) rotate(8.51)"/><rect class="u" x="72.72" y="112.99" width="41.35" height="41.35" transform="translate(-10.19 1.27) rotate(-3.14)"/><rect class="x" x="75.79" y="116.23" width="34.88" height="28.64" transform="translate(-10.02 1.25) rotate(-3.14)"/></svg>