<svg xmlns="http://www.w3.org/2000/svg" viewBox="0 0 190.03 161.52"><defs><style>.cls-1{isolation:isolate;}.cls-2{fill:#93a18b;}.cls-3{fill:#bec6b9;}.cls-4{fill:#9fae97;}.cls-5{fill:#6786a0;}.cls-6{fill:#d9d9d9;}.cls-21,.cls-22,.cls-6{mix-blend-mode:multiply;}.cls-7{fill:#4d4a81;}.cls-8{fill:#f9b233;}.cls-9{fill:#f6bbc6;}.cls-10{fill:#303b45;}.cls-11{fill:#5b5b5a;}.cls-12{fill:#353430;}.cls-13{fill:#eaeaea;}.cls-14,.cls-15,.cls-16,.cls-23,.cls-24,.cls-25{fill:none;}.cls-14{stroke:#fbc01f;}.cls-14,.cls-15,.cls-16{stroke-miterlimit:10;stroke-width:1.12px;}.cls-15{stroke:#4294ce;}.cls-16{stroke:#fff;}.cls-17{fill:#ebebeb;}.cls-18{fill:#3b2d7c;}.cls-19{fill:#a1b0d6;}.cls-20{fill:#ef7967;}.cls-21{fill:#e6007e;}.cls-23,.cls-24,.cls-25{stroke:#e6007e;stroke-linecap:round;stroke-linejoin:round;}.cls-24{stroke-dasharray:4.09 4.09;}.cls-25{stroke-dasharray:3.98 3.98;}</style></defs><title>G07_16</title><g class="cls-1"><g id="Livello_1" data-name="Livello 1"><polygon class="cls-2" points="185.79 104.01 185.79 108.87 96.32 161.52 96.32 156.83 185.79 104.01"/><polygon class="cls-3" points="96.32 156.77 96.32 161.52 0.22 105.79 0.22 101.04 96.32 156.77"/><polygon class="cls-4" points="96.1 156.79 0 101.06 0 100.79 90.31 48.88 185.79 104.01 96.25 156.88 96.1 156.79"/></g><g id="Livello_2" data-name="Livello 2"><path class="cls-5" d="M119.28,20.52l2.65,1.4s10.51,12.87,10.93,14.42-1.43,2.59-2.8,2.59-7.77-6.71-7.77-6.71Z" transform="translate(-6.21 -4.73)"/><path class="cls-6" d="M165.72,102.81c-6.42-15.31-32.87-27.64-65-29C63.12,72.17,32,86.08,31.21,104.84c-.64,14.91,18,28.4,44.56,34.13l30-36.16Z" transform="translate(-6.21 -4.73)"/><path class="cls-7" d="M96.47,15.29c-2.18-1.48-1.72-2.51-2-4.87a7.89,7.89,0,0,0-1.56-4c-2.58-3-7.49-1.28-8.7,0a9.51,9.51,0,0,0-2.13,3.73c-.65,2.29-.35,3.37-2.72,4.51-.82.4-1.7,1.05-1.69,2,0,.72.55,1.34.55,2.05,0,1.32-1.76,1.9-2.28,3.11-.41.93,0,2-.11,3a9.18,9.18,0,0,1-1,2.52A2.9,2.9,0,0,0,74.71,30c.6,1,2,1.11,3.13.95s2.37-.46,3.41,0c.84.41,1.38,1.28,2.22,1.68a3.37,3.37,0,0,0,3.37-.57l.23-.2a3.12,3.12,0,0,0,2.65.57c.89-.28,1.56-1.06,2.45-1.33,1.1-.35,1.27-1.86,2.37-1.54S96.81,20.73,97,19.43c.1-.71.74-1.24.85-1.95C98,16.58,97.22,15.8,96.47,15.29Z" transform="translate(-6.21 -4.73)"/><circle class="cls-8" cx="84.28" cy="7.13" r="4.88"/><path class="cls-9" d="M117.75,35.11c.43,0-2.25,1.32-7,3.75-3.91,2-6.72,2.66-8.78,1.84s-8.77-15.62-8.77-15.62l.14-4a5.35,5.35,0,0,1,4.8,2.2C100,25.9,104,36.83,104,36.83l11.55-2.4Z" transform="translate(-6.21 -4.73)"/><path class="cls-10" d="M87.15,94.11a11.55,11.55,0,0,0-.89,3.52c0,1.29.5,1.65.5,1.65a29.12,29.12,0,0,0,3.33.81c.73,0,1.94,1.19,3.68,1.31s4,.65,4.2-.72c.14-.83-2-1.62-4.51-3.33a13.63,13.63,0,0,1-2.88-2.75Z" transform="translate(-6.21 -4.73)"/><path class="cls-10" d="M76.47,97.72s.14,1.24,1.23,1.17a3.56,3.56,0,0,0,2.06-1.23L79.48,102s-.61,6.58-2.53,7.26c-1.37.49-2-1.23-2.2-2.25a2.82,2.82,0,0,1,0-1.26Z" transform="translate(-6.21 -4.73)"/><path class="cls-10" d="M80.12,75s1.09-16.84.72-18.11-.72-8.15-.72-8.15L95.33,43.1,97.24,45s-.1,15,.27,17.32-6.93,32.3-6.93,32.3a2,2,0,0,1-2,1.25c-1.53-.07-1.43-1.2-1.43-1.2S89.54,73,89.54,71.89s-.18-14.3-.18-14.3-2.18,10.86-2.9,15.57-6.7,24.5-6.7,24.5-.41,1.85-1.78,2-1.65-1.3-1.65-1.3Z" transform="translate(-6.21 -4.73)"/><path class="cls-11" d="M97.63,65.49l-4.92,22.9-5.44,0,1.47-13.64.54-16L86.36,75.43,81.15,94.11l-4.7-.87,3.07-19.42s.77-26,.77-27.14,1,.18,1,.18l15-2.74,1.85,4.13Z" transform="translate(-6.21 -4.73)"/><path class="cls-10" d="M87.64,94.18l2.94.42a13.63,13.63,0,0,0,2.88,2.75c.59.4,1.16.75,1.69,1.07a.76.76,0,0,1,0,.15c0,.38-.52.53-.9.56a13.53,13.53,0,0,1-5.46-1.19,2.91,2.91,0,0,1-1.23-.71A2.13,2.13,0,0,1,87.15,96,2.51,2.51,0,0,1,87.64,94.18Z" transform="translate(-6.21 -4.73)"/><path class="cls-10" d="M78.92,100.86a20.81,20.81,0,0,1-.83,2.57c-.13.32-.32.67-.65.75a.83.83,0,0,1-.79-.32,2.52,2.52,0,0,1-.48-1.37,13.69,13.69,0,0,1,.17-4.38c.13-.66.4-1.41,1-1.63a2.14,2.14,0,0,1,1.65.41,1.74,1.74,0,0,1,.67.56c.15.31,0,.62-.1.94C79.37,99.21,79.14,100,78.92,100.86Z" transform="translate(-6.21 -4.73)"/><path class="cls-11" d="M87,22s5.1-1.24,7.56-.62a4.46,4.46,0,0,1,3.5,3.08c0,.14.81,4,.85,5.28.09,3.39-3.26,7.4-3.26,7.4l2.85,10.68S86,52.62,83,51.09c-3.26-1.63-3.53-3.48-3.42-4.38.06-.54,2.14-7,2.13-7.52L80,29.93a5.88,5.88,0,0,1,2.44-4.62Z" transform="translate(-6.21 -4.73)"/><path class="cls-9" d="M119.17,34.62A2.22,2.22,0,1,1,117,32.4,2.21,2.21,0,0,1,119.17,34.62Z" transform="translate(-6.21 -4.73)"/><path class="cls-11" d="M78.84,38.5A31.63,31.63,0,0,1,77.63,33a25.41,25.41,0,0,1,.2-3.68c1-2.76,3.71-3.85,5.87-4.7,2.31-.91,7.89,2.12,7.89,2.12.6,1.44-7,7.61-7,7.61l-.1,3.82Z" transform="translate(-6.21 -4.73)"/><path class="cls-11" d="M72.64,61a1.52,1.52,0,0,1-.15-.17A1.52,1.52,0,0,0,72.64,61Z" transform="translate(-6.21 -4.73)"/><path class="cls-11" d="M93.31,21.1a5.35,5.35,0,0,1,4.8,2.2c.36.49,5,8.21,5,8.21l-5.24,3.11-.2-.38c-2.27-4.3-4.48-9.16-4.48-9.16Z" transform="translate(-6.21 -4.73)"/><path class="cls-9" d="M88.78,22s-2.2.61-2.4,1.13,1.43-.5,3.17.78a15.88,15.88,0,0,1,3.24,3.64s1.63-1,1.57-4.37S88.78,22,88.78,22Z" transform="translate(-6.21 -4.73)"/><path class="cls-9" d="M94.69,17.18l-2,6.17h0a3.85,3.85,0,0,1-4.3.44h0a1,1,0,0,1-.47-1.07l1.52-6Z" transform="translate(-6.21 -4.73)"/><polygon class="cls-11" points="85.41 18.72 84.45 21.04 81.32 21.47 79.64 18.3 81.74 16.02 82.21 15.88 82.1 16.5 85.41 18.72"/><polygon class="cls-12" points="85.81 21.8 84.3 21.35 85.41 18.72 85.81 21.8"/><polygon class="cls-11" points="86.5 23.77 89.72 19.42 87.45 15.57 87.09 16.64 86.5 23.77"/><circle class="cls-13" cx="83.65" cy="19.4" r="0.86"/><line class="cls-14" x1="88.16" y1="25.11" x2="91.1" y2="24.56"/><line class="cls-15" x1="88.16" y1="25.11" x2="89.13" y2="24.93"/><line class="cls-16" x1="90.13" y1="24.74" x2="91.1" y2="24.56"/><path class="cls-17" d="M97.78,45.06l.74,2.76S89,52.87,83,51.09c-3.5-1-3.53-3.48-3.42-4.38a5.93,5.93,0,0,1,.32-1.2s1.12,1.61,5,2.14C89.23,48.26,97.78,45.06,97.78,45.06Z" transform="translate(-6.21 -4.73)"/><path class="cls-17" d="M95.13,46.85l1-.29S91.26,31.4,85.57,26.35c-.67-.6-3.32-1.56-4-1a5.88,5.88,0,0,0-.84.91,9.41,9.41,0,0,1,5.59,3C89.86,33.1,95.13,46.85,95.13,46.85Z" transform="translate(-6.21 -4.73)"/><path class="cls-9" d="M84.13,38.16A27.61,27.61,0,0,0,85.44,43c2.76,4.67,6.89,12,8,14.86.49,1.36-1.92.92-1.92.92s-7.53-9.75-8.14-10S80.7,45.48,79.52,41c0-.13-.45-2.52-.45-2.52Z" transform="translate(-6.21 -4.73)"/><path class="cls-9" d="M95.09,57.3A2.21,2.21,0,1,1,92,57.07,2.21,2.21,0,0,1,95.09,57.3Z" transform="translate(-6.21 -4.73)"/><path class="cls-9" d="M98.14,14.31a6,6,0,1,1-6-6A6,6,0,0,1,98.14,14.31Z" transform="translate(-6.21 -4.73)"/><path class="cls-7" d="M97,13.26a1.23,1.23,0,0,0,.83-.91,6,6,0,0,0-11.66,2,6.83,6.83,0,0,0,.06.79,2,2,0,0,0,.81,0c.59-.15,2-.64,1.51-1.37.22.36.23.87,0,2.24C90.72,12.58,94.71,14.12,97,13.26Z" transform="translate(-6.21 -4.73)"/><path class="cls-9" d="M88.72,14.5a1.83,1.83,0,1,1-1.82-1.82A1.83,1.83,0,0,1,88.72,14.5Z" transform="translate(-6.21 -4.73)"/><path class="cls-5" d="M131.08,33.58l.94,1.33s8.61,6.68,9.15,7.6-.45,1.92-1.32,2.16-10.09-5.81-10.09-5.81Z" transform="translate(-6.21 -4.73)"/><path class="cls-18" d="M118.12,100.13a12.7,12.7,0,0,0-1,3.82,2.48,2.48,0,0,0,.75,1.93,31,31,0,0,0,3.42.74c.79,0,3.37,2.11,5.26,2.24s4.3.7,4.56-.79-9.3-7.41-9.3-7.41Z" transform="translate(-6.21 -4.73)"/><path class="cls-5" d="M119.28,20.52l2.65,1.4s10.51,12.87,10.93,14.42-1.43,2.59-2.8,2.59-7.77-6.71-7.77-6.71Z" transform="translate(-6.21 -4.73)"/><path class="cls-9" d="M117.53,95.58l.61,5.14s-.1,1.22,1.55,1.3a2.17,2.17,0,0,0,2.16-1.36L122,93Z" transform="translate(-6.21 -4.73)"/><path class="cls-9" d="M99.34,100.19l-1,4.61s.29,1.64,1.78,1.41,1.76-2.23,1.76-2.23L103,99.07Z" transform="translate(-6.21 -4.73)"/><path class="cls-18" d="M98.52,104.06s.15,1.33,1.34,1.26A3.87,3.87,0,0,0,102.1,104s-.44,5-.56,6.22c-.34,3.5-.41,5.68-2.49,6.43s-2.47-2.18-2.53-3.2A21,21,0,0,1,98.52,104.06Z" transform="translate(-6.21 -4.73)"/><path class="cls-18" d="M102.49,50.82s.39,7.48.79,8.86-1.79,19.67-1.79,19.67S98.36,101,98.55,102.16s3.54.59,4.33-.59,4.6-14.3,5.39-19.41l4.25-14.69s2.2,7.35,2.2,8.53,2.44,22.62,2.44,22.62.1.63,2.09.93c.64.09,2.62-.46,3.09-1.24l-.28-24.8s-.29-14.38-.69-16.94.79-10.66.79-10.66L119,44.73Z" transform="translate(-6.21 -4.73)"/><path class="cls-19" d="M110,21.81s6.53-2.1,9.21-1.43a4.84,4.84,0,0,1,3.8,3.34c.22.9-.9,28.55-.9,28.55s-11.6,7.6-16.51,5.14c-3.55-1.77-3.84-7.78-3.72-8.76a11.74,11.74,0,0,0,.11-1.78l-.63-19.13Z" transform="translate(-6.21 -4.73)"/><path class="cls-5" d="M105,41.72c-1.39-3.56-.45-15.26-.45-15.26l-.31-.74-2.94,2L102,46.87a11.74,11.74,0,0,1-.11,1.78c-.69,5.89.07,7.09,4.24,9C105.49,52.27,106.55,45.6,105,41.72Z" transform="translate(-6.21 -4.73)"/><path class="cls-19" d="M111.9,21.8s-2.39.67-2.62,1.23,1.56,3.11,3.45,4.5a12.21,12.21,0,0,0,3.12,1.78A10.43,10.43,0,0,0,118,23.08C117.9,19.47,111.9,21.8,111.9,21.8Z" transform="translate(-6.21 -4.73)"/><path class="cls-9" d="M123.05,17a6.51,6.51,0,1,1-4-8.27A6.52,6.52,0,0,1,123.05,17Z" transform="translate(-6.21 -4.73)"/><path class="cls-9" d="M118.31,16.58l-2.21,6.69h0a4.17,4.17,0,0,1-4.67.49h0a1,1,0,0,1-.51-1.16l1.65-6.5Z" transform="translate(-6.21 -4.73)"/><path class="cls-20" d="M122.39,15.11a1.62,1.62,0,0,0,1-.25s0,0,0,0a6.51,6.51,0,0,0-12.66-2.11,6.23,6.23,0,0,0-.22.82,2,2,0,0,0,.84.26c.66.06,2.85-.83,2.65-1.73.1.44.2.89.29,1.33a1.59,1.59,0,0,0,1-1.16A9.63,9.63,0,0,0,122.39,15.11Z" transform="translate(-6.21 -4.73)"/><path class="cls-9" d="M113.3,13.81a2,2,0,1,1-1.22-2.52A2,2,0,0,1,113.3,13.81Z" transform="translate(-6.21 -4.73)"/><path class="cls-9" d="M144,43.91a2.41,2.41,0,1,1-2.41-2.4A2.41,2.41,0,0,1,144,43.91Z" transform="translate(-6.21 -4.73)"/><path class="cls-21" d="M105.81,102.81,75.77,139a132.34,132.34,0,0,0,22,2.79c37.55,1.61,68.65-12.29,69.46-31.06a18.08,18.08,0,0,0-1.49-7.89Z" transform="translate(-6.21 -4.73)"/><path class="cls-5" d="M131.08,33.58l.94,1.33s8.61,6.68,9.15,7.6-.45,1.92-1.32,2.16-10.09-5.81-10.09-5.81Z" transform="translate(-6.21 -4.73)"/><path class="cls-9" d="M144,43.91a2.41,2.41,0,1,1-2.41-2.4A2.41,2.41,0,0,1,144,43.91Z" transform="translate(-6.21 -4.73)"/><path class="cls-19" d="M105,37.23,105.49,25s-4.39,2.5-5.32,3.78c-2.25,3.12-2.64,9.5-4,14.59h0v0c-.15.57-.28,1.09-.38,1.54h0s-5.55,9.37-5.72,10.43,1.12,1.62,2,1.52,7.25-7.11,7.25-7.11h0C100.81,48.44,105,37.23,105,37.23Z" transform="translate(-6.21 -4.73)"/><path class="cls-9" d="M88,57.73a2.4,2.4,0,1,0,1.35-3.12A2.4,2.4,0,0,0,88,57.73Z" transform="translate(-6.21 -4.73)"/><g class="cls-22"><line class="cls-23" x1="189.53" y1="98.08" x2="187.53" y2="98.08"/><line class="cls-24" x1="183.44" y1="98.08" x2="103.64" y2="98.08"/><polyline class="cls-23" points="101.6 98.08 99.6 98.08 98.32 99.61"/><line class="cls-25" x1="95.77" y1="102.67" x2="51.12" y2="156.14"/><line class="cls-23" x1="49.85" y1="157.67" x2="48.56" y2="159.21"/></g></g></g></svg>