<svg xmlns="http://www.w3.org/2000/svg" xmlns:xlink="http://www.w3.org/1999/xlink" viewBox="0 0 185.79 212.01"><defs><style>.a{fill:#93a18b;}.b{fill:#bec6b9;}.c{fill:#9fae97;}.d{fill:url(#a);}.e{fill:#fff;}.f{fill:url(#b);}.g{fill:#3aaa35;}.g,.h,.i,.j,.k,.l,.m,.n,.o,.p{stroke:#fff;}.g,.h,.i,.j,.k,.l,.m,.n,.o,.p,.y{stroke-miterlimit:10;}.h{fill:#95c11f;}.i{fill:#dedc00;}.j{fill:#fcea10;}.k{fill:#f9b233;}.l{fill:#f39200;}.m{fill:#e94e1b;}.n{fill:#e6332a;}.o{fill:#e30613;}.p{fill:#d8d8d8;}.q,.y{fill:none;}.q{stroke:#183a45;stroke-linecap:round;stroke-linejoin:round;}.r{fill:#183a45;}.s{fill:#f6bbc6;}.t{fill:#5b5b5a;}.u{fill:#303b45;}.v{fill:#353430;}.w{fill:#3b2d7c;}.x{fill:#a6daf2;}.y{stroke:#353430;}.z{fill:#ebebeb;}.aa{fill:#a9b2bd;}</style><linearGradient id="a" x1="2.44" y1="134.84" x2="2.44" y2="1.54" gradientTransform="matrix(-1, 0, 0, 1, 141.73, 0)" gradientUnits="userSpaceOnUse"><stop offset="0" stop-color="#5b5b5a"/><stop offset="0.19" stop-color="#5f605f"/><stop offset="0.43" stop-color="#6b6d6f"/><stop offset="0.69" stop-color="#7f8388"/><stop offset="0.96" stop-color="#9aa1ab"/><stop offset="1" stop-color="#9ea6b0"/></linearGradient><linearGradient id="b" x1="87.79" y1="31.9" x2="180.48" y2="31.9" gradientTransform="translate(4.11)" gradientUnits="userSpaceOnUse"><stop offset="0" stop-color="#9ea6b0"/><stop offset="0.24" stop-color="#a8b1bb"/><stop offset="0.66" stop-color="#c3cdd9"/><stop offset="1" stop-color="#dce7f5"/></linearGradient></defs><title>G07_08</title><polygon class="a" points="185.79 154.5 185.79 159.36 96.32 212.01 96.32 207.32 185.79 154.5"/><polygon class="b" points="96.32 207.26 96.32 212.01 0.22 156.28 0.22 151.53 96.32 207.26"/><polygon class="c" points="96.1 207.28 0 151.54 0 151.28 90.31 99.37 185.79 154.5 96.25 207.37 96.1 207.28"/><ellipse class="a" cx="94.47" cy="152.94" rx="56.69" ry="29.48"/><path class="d" d="M92.61,3.28l2.71-1.57h0a1.62,1.62,0,0,1,1.72.16L185.31,53a4.6,4.6,0,0,1,2.21,3.5v75.63a2.08,2.08,0,0,1-.69,1.2l-2.71,1.56H183L93.28,83.46A4.58,4.58,0,0,1,91.07,80V4.35Z" transform="translate(-1.74 -1.54)"/><path class="e" d="M184.59,58.12v74a1.25,1.25,0,0,1-.51,1.12,1.64,1.64,0,0,1-1.7-.18L94.11,82.61a4.57,4.57,0,0,1-2.21-3.49V4.49c0-1.3,1.1-1.6,2.21-.94l69.43,39.89,18.84,11.19A4.62,4.62,0,0,1,184.59,58.12Z" transform="translate(-1.74 -1.54)"/><path class="f" d="M184.59,58.12v2.46h0L91.9,7V4.49c0-1.32,1.12-1.59,2.21-.94l69.43,39.88,18.84,11.2A4.62,4.62,0,0,1,184.59,58.12Z" transform="translate(-1.74 -1.54)"/><polygon class="g" points="120.72 50.71 106.74 42.98 106.74 33.24 120.72 40.96 120.72 50.71"/><polygon class="h" points="134.71 58.43 120.72 50.71 120.72 40.96 134.71 48.68 134.71 58.43"/><polygon class="i" points="148.69 66.15 134.71 58.43 134.71 48.68 148.69 56.4 148.69 66.15"/><polygon class="j" points="162.68 73.87 148.69 66.15 148.69 56.4 162.68 64.12 162.68 73.87"/><polygon class="k" points="176.66 81.59 162.68 73.87 162.68 64.12 176.66 71.84 176.66 81.59"/><polygon class="h" points="120.72 60.46 106.74 52.73 106.74 42.98 120.72 50.71 120.72 60.46"/><polygon class="i" points="134.71 68.18 120.72 60.46 120.72 50.71 134.71 58.43 134.71 68.18"/><polygon class="j" points="148.69 75.9 134.71 68.18 134.71 58.43 148.69 66.15 148.69 75.9"/><polygon class="k" points="162.68 83.62 148.69 75.9 148.69 66.15 162.68 73.87 162.68 83.62"/><polygon class="l" points="176.66 91.34 162.68 83.62 162.68 73.87 176.66 81.59 176.66 91.34"/><polygon class="i" points="120.72 70.2 106.74 62.48 106.74 52.73 120.72 60.46 120.72 70.2"/><polygon class="j" points="134.71 77.93 120.72 70.2 120.72 60.46 134.71 68.18 134.71 77.93"/><polygon class="k" points="148.69 85.65 134.71 77.93 134.71 68.18 148.69 75.9 148.69 85.65"/><polygon class="l" points="162.68 93.37 148.69 85.65 148.69 75.9 162.68 83.62 162.68 93.37"/><polygon class="m" points="176.66 101.09 162.68 93.37 162.68 83.62 176.66 91.34 176.66 101.09"/><polygon class="j" points="120.72 79.95 106.74 72.23 106.74 62.48 120.72 70.2 120.72 79.95"/><polygon class="k" points="134.71 87.67 120.72 79.95 120.72 70.2 134.71 77.93 134.71 87.67"/><polygon class="l" points="148.69 95.4 134.71 87.67 134.71 77.93 148.69 85.65 148.69 95.4"/><polygon class="m" points="162.68 103.12 148.69 95.4 148.69 85.65 162.68 93.37 162.68 103.12"/><polygon class="n" points="176.66 110.84 162.68 103.12 162.68 93.37 176.66 101.09 176.66 110.84"/><polygon class="k" points="120.72 89.7 106.74 81.98 106.74 72.23 120.72 79.95 120.72 89.7"/><polygon class="l" points="134.71 97.42 120.72 89.7 120.72 79.95 134.71 87.67 134.71 97.42"/><polygon class="m" points="148.69 105.14 134.71 97.42 134.71 87.67 148.69 95.4 148.69 105.14"/><polygon class="n" points="162.68 112.87 148.69 105.14 148.69 95.4 162.68 103.12 162.68 112.87"/><polygon class="o" points="176.66 120.59 162.68 112.87 162.68 103.12 176.66 110.84 176.66 120.59"/><polygon class="p" points="148.69 56.4 99.91 29.47 99.91 22.37 148.69 49.3 148.69 56.4"/><polygon class="p" points="106.74 81.98 99.91 78.21 99.91 29.47 106.74 33.24 106.74 81.98"/><polygon class="p" points="176.66 71.84 148.69 56.4 148.69 49.3 176.66 64.75 176.66 71.84"/><line class="q" x1="95.06" y1="19.01" x2="95.06" y2="80.17"/><polygon class="r" points="92.63 19.5 95.06 15.37 97.48 22.09 92.63 19.5"/><line class="q" x1="177.82" y1="124.67" x2="92.42" y2="76.91"/><polygon class="r" points="177.13 121.69 181.26 126.56 177.11 126.89 177.13 121.69"/><path class="s" d="M83.67,109.93l-.23,0a2.54,2.54,0,0,1-.38-1c-.35-1.58-1.37-.63-1.37-.63l-2,.63s1,3.31,2.69,4.56a2,2,0,0,0,1.27.47,2,2,0,1,0,0-4Z" transform="translate(-1.74 -1.54)"/><path class="t" d="M93.31,78.91s-5-2.38-6.91,0-7.32,13.47-7.94,16.81.62,11.09,1.25,13.18,3.35,0,3.35,0,.83-10.25,1-11.08,4.19-10.88,4.19-10.88a63.94,63.94,0,0,0,2.09,6.9c.84,1.88-1,7.32-1.47,8.79s3.35,2.92,6.49,3.13,9-2.3,9-2.3,2.1-17.15-1.66-19S93.31,78.91,93.31,78.91Z" transform="translate(-1.74 -1.54)"/><path class="u" d="M109.49,158.62c-1.58-1.05-3.24-.26-3.67-.33a3.81,3.81,0,0,1-3.79-3.11C102,154.85,102,152,102,152l-2.6.33s-1.35,8.76-1.42,9.92.3,1.35,1.71,1.91,5.1-1.8,7.12-2.16S111.08,159.68,109.49,158.62Z" transform="translate(-1.74 -1.54)"/><path class="u" d="M94,154.68c-1.59-1.06-3.25-.27-3.67-.33s-1.85,0-2.41-.4c-.21-.9,1.56-5.17,1.56-5.17l-1.13-.15-2.34.86s-3.49,7.69-3.56,8.85.3,1.36,1.71,1.92,5.1-1.81,7.12-2.17S95.63,155.73,94,154.68Z" transform="translate(-1.74 -1.54)"/><path class="s" d="M105.47,75a6.28,6.28,0,1,1-4.62-7.58A6.28,6.28,0,0,1,105.47,75Z" transform="translate(-1.74 -1.54)"/><path class="v" d="M88.91,102.63a64.89,64.89,0,0,0-1.46,7.2c0,1.37,3.12,15.18,4.38,19.15s-6.89,20.29-6.89,21.33,1,2.51,2.3,2.3,10.88-18.19,11.92-21.75,2.09-20.08,2.09-20.08l3.13-7.32Z" transform="translate(-1.74 -1.54)"/><path class="t" d="M87.73,107.84l6.93,5.66s4.08,14,4.5,17.36-1.25,19.68-.2,21.77,2.72,1.68,3.35,1.26,3.55-20.29,3.55-26.26S104.32,103,104.32,103l-15.41-.41Z" transform="translate(-1.74 -1.54)"/><path class="s" d="M94.09,74.23,93.15,81h0A4,4,0,0,0,97,83.37l.78,0,1.5-7.08Z" transform="translate(-1.74 -1.54)"/><path class="w" d="M103,76.23a1.3,1.3,0,0,0-1.69-1.46,1.71,1.71,0,0,0-.87,1.65A5.15,5.15,0,0,0,101,78.3a29.11,29.11,0,0,1-7,1.62l-1.77-4.61a6.57,6.57,0,0,1-.56-2.16,7.87,7.87,0,0,1,2.64-5.34,8.3,8.3,0,0,1,6.49-1.33,7,7,0,0,1,4.51,3.72C106.44,72.41,104.14,74.43,103,76.23Z" transform="translate(-1.74 -1.54)"/><path class="w" d="M97.78,63.26a8.74,8.74,0,0,0-4.34-1.79c-2-.38-4.29-.53-6,.67s-2.24,3.31-2.46,5.3a7.68,7.68,0,0,0,.35,3.84c.87,2,3.12,3.17,5.31,3.41a8.16,8.16,0,0,0,5.76-1.44C99,71.3,100.48,65.69,97.78,63.26Z" transform="translate(-1.74 -1.54)"/><path class="x" d="M99.26,67.61c-.11,3-2.23,6.54-5.2,7.06.08.25.11.34.14.42A6.67,6.67,0,0,0,100,69.82C100.16,68.82,99.8,68.46,99.26,67.61Z" transform="translate(-1.74 -1.54)"/><path class="y" d="M99.85,106.65a28.84,28.84,0,0,1,3.59,5.18" transform="translate(-1.74 -1.54)"/><path class="s" d="M122,87.47a2.69,2.69,0,1,1-2.69-2.69A2.69,2.69,0,0,1,122,87.47Z" transform="translate(-1.74 -1.54)"/><path class="v" d="M102.72,84.43c-1.49-.74-3.26-1.76-4.87-2.71,2.05,7.61,3.9,16.12,1.07,23.59a41.45,41.45,0,0,0,5.46-1.85S106.48,86.31,102.72,84.43Z" transform="translate(-1.74 -1.54)"/><path class="t" d="M96.05,80.75l6.67,3.68s1.88.67,3.76,5.25,5.74,8,7,8.46c0,0,3.9-8.5,4.74-9.12s2.09,0,2.07.66c-.08,2.7-1.89,14.83-4.6,15.87S95.1,92.47,94.89,88.7A25.77,25.77,0,0,1,96.05,80.75Z" transform="translate(-1.74 -1.54)"/><path class="z" d="M90.46,101.28c-.36-.08-.71-.15-1.06-.26-.21.69-.39,1.26-.49,1.61-.41,1.46,3.35,2.92,6.49,3.13s9-2.3,9-2.3.12-1,.25-2.47C99.69,103,94.14,104.23,90.46,101.28Z" transform="translate(-1.74 -1.54)"/><path class="aa" d="M99.72,102.58a20.71,20.71,0,0,1-.8,2.73,41.45,41.45,0,0,0,5.46-1.85s.12-1,.25-2.47A31.56,31.56,0,0,1,99.72,102.58Z" transform="translate(-1.74 -1.54)"/></svg>