<svg xmlns="http://www.w3.org/2000/svg" xmlns:xlink="http://www.w3.org/1999/xlink" viewBox="0 0 145.65 145.65"><defs><style>.cls-1,.cls-10,.cls-19,.cls-20,.cls-21,.cls-22{fill:none;}.cls-1,.cls-3{opacity:0.8;}.cls-2{clip-path:url(#clip-path);}.cls-18,.cls-3{fill:#f5ad1f;}.cls-4{fill:#9ea6b0;}.cls-5{fill:#333;}.cls-6{fill:#a1b0d6;}.cls-7{fill:#e5effb;}.cls-8{fill:#706f6f;}.cls-9{fill:#c4cfdb;}.cls-10{stroke:#fff;stroke-linecap:round;stroke-linejoin:round;stroke-width:0.86px;}.cls-11{isolation:isolate;}.cls-12{fill:#dce7f5;}.cls-13{fill:#261c35;}.cls-14{fill:#009fe3;}.cls-15{fill:#36a9e1;}.cls-16{fill:#6f559c;}.cls-17{fill:#a9b2bd;}.cls-18,.cls-19,.cls-20,.cls-21{stroke:#6786a0;}.cls-18,.cls-19,.cls-20,.cls-21,.cls-22{stroke-miterlimit:10;}.cls-19{stroke-width:0.98px;}.cls-20{stroke-width:0.88px;}.cls-21{stroke-width:0.85px;}.cls-22{stroke:#eaeaea;stroke-width:3.92px;}</style><clipPath id="clip-path" transform="translate(-5.13 -5.13)"><circle class="cls-1" cx="77.95" cy="77.95" r="70.87"/></clipPath></defs><title>G07_13_08</title><g id="Mobile"><g class="cls-2"><circle class="cls-3" cx="72.83" cy="72.83" r="70.87"/><path class="cls-4" d="M133.35,96.62c-.64-4-8.92-8.21-13.35-7a7.24,7.24,0,0,0-1.74.9c-1.48.91-1.34,2.52.39,3.52l7.45,4.3a6.51,6.51,0,0,0,5.86.24l.4-.23A1.66,1.66,0,0,0,133.35,96.62Z" transform="translate(-5.13 -5.13)"/><path class="cls-5" d="M133.39,96a1.79,1.79,0,0,1-1,1.41l-.41.23a6.49,6.49,0,0,1-5.85-.24l-7.46-4.3a2.46,2.46,0,0,1-1.43-1.86h0v.64a2.43,2.43,0,0,0,1.43,1.87l7.46,4.31a6.49,6.49,0,0,0,5.85.24l.41-.23a1.79,1.79,0,0,0,1-1.43V96Z" transform="translate(-5.13 -5.13)"/><path class="cls-6" d="M133.39,95.88c0,.07.18,1-1.42,1.77h0a6.51,6.51,0,0,1-5.86-.24l-7.46-4.3a2.6,2.6,0,0,1-1.42-1.71,2.46,2.46,0,0,0,1.43,1.85l7.46,4.3a6.52,6.52,0,0,0,5.85.25l.41-.24a1.76,1.76,0,0,0,1-1.43Z" transform="translate(-5.13 -5.13)"/><path class="cls-7" d="M133.36,95.66c-.64-4-8.91-8.22-13.35-7a7,7,0,0,0-1.73.9c-1.48.91-1.35,2.52.38,3.52l7.46,4.3a6.49,6.49,0,0,0,5.85.24l.41-.23A1.64,1.64,0,0,0,133.36,95.66Z" transform="translate(-5.13 -5.13)"/><path class="cls-4" d="M122,89.58a.53.53,0,0,0-.35,0c-.23,0-.36.2-.06.35s1.43.45,2.17.78,1,.11.94-.09-.55-.41-.55-.41Z" transform="translate(-5.13 -5.13)"/><path class="cls-8" d="M121.77,89.68a1.87,1.87,0,0,1,2.18.24,2,2,0,0,1,.35.58A10.4,10.4,0,0,1,121.77,89.68Z" transform="translate(-5.13 -5.13)"/><path class="cls-4" d="M85.54,82.12s-2.8,7.67,0,9.29l1.36.78h0l5.31,3.08a.83.83,0,0,1,0,1.57l-7.47,4.31a2.92,2.92,0,0,1-2.71,0l-3.79-2.24,0,0L77,98.15l-.17-.1,0,0-1.29-.81s-2.37-1.74-2.37-7.92Z" transform="translate(-5.13 -5.13)"/><path class="cls-7" d="M73.13,88.5c0,6.18,2.37,7.92,2.37,7.92l1.29.81a.08.08,0,0,1,0,0l.17.09,1.21.76,0,0,.44.26,3.35,2a3,3,0,0,0,2.71,0l7.47-4.32a.83.83,0,0,0,0-1.57l-3.36-2-2-1.12h0l-1.35-.79c-2.75-1.58-.14-8.91,0-9.27h0Z" transform="translate(-5.13 -5.13)"/><path class="cls-9" d="M73.13,88.5c0,6.18,2.37,7.92,2.37,7.92l1.29.81a.08.08,0,0,1,0,0l.17.09,1.21.76,0,0,.44.26,10.17-5.83-2-1.12h0l-1.35-.79c-2.75-1.58-.14-8.91,0-9.27h0Z" transform="translate(-5.13 -5.13)"/><path class="cls-10" d="M90.34,77.85,90.17,87a2.12,2.12,0,0,0,1.1,1.87l8.4,4.88a.69.69,0,0,1,0,1.2l-8.15,4.9a.78.78,0,0,0,0,1.35l3.38,2.34" transform="translate(-5.13 -5.13)"/><g class="cls-11"><path class="cls-12" d="M106.06,22l2,1.15a1.7,1.7,0,0,0-1.74.17l-2-1.15A1.75,1.75,0,0,1,106.06,22Z" transform="translate(-5.13 -5.13)"/><path class="cls-9" d="M51,103l-2-1.15a1.73,1.73,0,0,1-.72-1.57l2,1.15A1.71,1.71,0,0,0,51,103Z" transform="translate(-5.13 -5.13)"/><polygon class="cls-9" points="45.19 96.34 43.22 95.19 43.1 52.27 45.07 53.42 45.19 96.34"/><polygon class="cls-9" points="47.51 49.19 45.54 48.04 99.19 17.07 101.16 18.21 47.51 49.19"/><path class="cls-12" d="M50.2,58.54l-2-1.14a5.39,5.39,0,0,1,2.44-4.23l2,1.14A5.38,5.38,0,0,0,50.2,58.54Z" transform="translate(-5.13 -5.13)"/><path class="cls-12" d="M106.29,23.34c1.35-.78,2.45-.16,2.46,1.4l.12,42.92a5.39,5.39,0,0,1-2.44,4.23l-53.65,31c-1.36.78-2.46.15-2.46-1.4L50.2,58.54a5.38,5.38,0,0,1,2.44-4.23Z" transform="translate(-5.13 -5.13)"/></g><path class="cls-13" d="M106.29,23.29c1.35-.78,2.46-.16,2.46,1.4l.12,42.92a5.36,5.36,0,0,1-2.44,4.23l-53.65,31c-1.35.78-2.46.15-2.46-1.4L50.2,58.49a5.38,5.38,0,0,1,2.44-4.23Z" transform="translate(-5.13 -5.13)"/><path class="cls-7" d="M108.86,64.23v3.43a5.39,5.39,0,0,1-2.45,4.23l-53.65,31c-1.35.79-2.45.16-2.45-1.4V98Z" transform="translate(-5.13 -5.13)"/><polygon class="cls-14" points="101.68 20.69 101.78 57.63 47.82 88.78 47.72 51.84 101.68 20.69"/><polygon class="cls-15" points="101.68 20.7 101.79 57.64 91.67 63.48 59.42 45.1 101.68 20.7"/><polygon class="cls-16" points="98.53 64.78 98.53 66.94 96.96 67.84 96.95 65.69 98.53 64.78"/><path class="cls-4" d="M126.9,102.1c.47.28.48.72,0,1l-34.42,20a1.87,1.87,0,0,1-1.72,0l-14-8.1c-.47-.28-.48-.72,0-1l34.42-20a1.87,1.87,0,0,1,1.72,0Z" transform="translate(-5.13 -5.13)"/><path class="cls-7" d="M126.9,101.52c.47.28.48.72,0,1l-34.42,20a1.87,1.87,0,0,1-1.72,0l-14-8.1c-.47-.28-.48-.72,0-1l34.42-20a1.87,1.87,0,0,1,1.72,0Z" transform="translate(-5.13 -5.13)"/><path class="cls-17" d="M89.07,109.09c.12.07.12.18,0,.24l-1.8,1a.43.43,0,0,1-.41,0l-.93-.53a.13.13,0,0,1,0-.24l1.79-1a.43.43,0,0,1,.41,0Z" transform="translate(-5.13 -5.13)"/><path class="cls-7" d="M87.08,110.54a.6.6,0,0,1-.27-.06l-.93-.54a.26.26,0,0,1-.15-.22.29.29,0,0,1,.15-.23l1.79-1a.55.55,0,0,1,.53,0l.94.54a.25.25,0,0,1,.14.22.28.28,0,0,1-.14.23l-1.8,1A.55.55,0,0,1,87.08,110.54Zm-1.1-.82h0l.93.54a.37.37,0,0,0,.29,0l1.79-1s0,0,0,0h0l-.93-.54a.34.34,0,0,0-.28,0l-1.8,1Z" transform="translate(-5.13 -5.13)"/><path class="cls-17" d="M86.6,110.53c.12.07.12.17,0,.24l-1.79,1a.43.43,0,0,1-.41,0l-.93-.54a.12.12,0,0,1,0-.23L85.26,110a.49.49,0,0,1,.41,0Z" transform="translate(-5.13 -5.13)"/><path class="cls-7" d="M84.6,112a.55.55,0,0,1-.26-.06l-.93-.54a.28.28,0,0,1-.15-.23.25.25,0,0,1,.15-.22l1.79-1a.55.55,0,0,1,.53,0l.93.54a.24.24,0,0,1,0,.44l-1.79,1A.6.6,0,0,1,84.6,112Zm-1.09-.83,0,0,.93.54a.37.37,0,0,0,.29,0l1.79-1h0l-.93-.54a.3.3,0,0,0-.29,0l-1.79,1Z" transform="translate(-5.13 -5.13)"/><path class="cls-17" d="M84.13,112a.12.12,0,0,1,0,.23l-1.79,1a.49.49,0,0,1-.41,0l-.93-.54c-.12-.07-.12-.17,0-.24l1.79-1a.43.43,0,0,1,.41,0Z" transform="translate(-5.13 -5.13)"/><path class="cls-7" d="M82.13,113.42a.46.46,0,0,1-.26-.07l-.93-.53a.27.27,0,0,1-.15-.23.25.25,0,0,1,.14-.22l1.8-1a.55.55,0,0,1,.53,0l.93.53a.29.29,0,0,1,.15.23.27.27,0,0,1-.15.22l-1.79,1A.5.5,0,0,1,82.13,113.42ZM81,112.59l0,0,.93.53a.3.3,0,0,0,.29,0l1.79-1h0l0,0-.93-.53a.3.3,0,0,0-.29,0l-1.79,1Z" transform="translate(-5.13 -5.13)"/><path class="cls-17" d="M81.66,113.4c.11.07.11.18,0,.24l-1.8,1a.43.43,0,0,1-.41,0l-.93-.53a.13.13,0,0,1,0-.24l1.8-1a.43.43,0,0,1,.41,0Z" transform="translate(-5.13 -5.13)"/><path class="cls-7" d="M79.66,114.86a.6.6,0,0,1-.27-.07l-.93-.54a.24.24,0,0,1,0-.44l1.8-1a.55.55,0,0,1,.53,0l.93.54a.25.25,0,0,1,.14.22.28.28,0,0,1-.14.23l-1.8,1A.56.56,0,0,1,79.66,114.86ZM78.57,114h0l.94.54a.34.34,0,0,0,.28,0l1.8-1,0,0h0l-.93-.54a.37.37,0,0,0-.29,0l-1.8,1S78.57,114,78.57,114Z" transform="translate(-5.13 -5.13)"/><path class="cls-17" d="M84,114.75c.12.07.12.17,0,.24l-1.79,1a.43.43,0,0,1-.41,0L80,115c-.11-.06-.11-.17,0-.24l1.79-1a.49.49,0,0,1,.41,0Z" transform="translate(-5.13 -5.13)"/><path class="cls-7" d="M82,116.2a.6.6,0,0,1-.27-.06l-1.77-1a.29.29,0,0,1-.15-.23.26.26,0,0,1,.15-.22l1.79-1a.55.55,0,0,1,.53,0l1.77,1a.24.24,0,0,1,.15.22.25.25,0,0,1-.14.22l-1.8,1A.55.55,0,0,1,82,116.2Zm-1.94-1.31,0,0,1.77,1a.37.37,0,0,0,.29,0l1.79-1.05h0l-1.77-1a.3.3,0,0,0-.29,0l-1.79,1Z" transform="translate(-5.13 -5.13)"/><path class="cls-17" d="M92.81,115c.11.07.11.18,0,.24l-1.79,1a.43.43,0,0,1-.41,0l-1.77-1c-.12-.06-.12-.17,0-.23l1.79-1a.49.49,0,0,1,.41,0Z" transform="translate(-5.13 -5.13)"/><path class="cls-7" d="M90.81,116.49a.56.56,0,0,1-.26-.07l-1.77-1a.27.27,0,0,1-.15-.23.25.25,0,0,1,.15-.22l1.79-1a.55.55,0,0,1,.53,0l1.77,1a.26.26,0,0,1,.15.22.29.29,0,0,1-.15.23l-1.79,1A.6.6,0,0,1,90.81,116.49Zm-1.93-1.32s0,0,0,0l1.77,1a.37.37,0,0,0,.29,0l1.79-1,0,0h0l-1.77-1a.3.3,0,0,0-.29,0l-1.79,1Z" transform="translate(-5.13 -5.13)"/><path class="cls-17" d="M89.9,114a.13.13,0,0,1,0,.24l-1.8,1a.43.43,0,0,1-.41,0l-1.77-1a.13.13,0,0,1,0-.24l1.8-1a.43.43,0,0,1,.41,0Z" transform="translate(-5.13 -5.13)"/><path class="cls-7" d="M87.9,115.45a.6.6,0,0,1-.27-.06l-1.77-1a.28.28,0,0,1-.14-.23.25.25,0,0,1,.14-.22l1.79-1a.57.57,0,0,1,.54,0l1.77,1a.24.24,0,0,1,0,.44l-1.8,1A.55.55,0,0,1,87.9,115.45ZM86,114.14h0l1.77,1a.37.37,0,0,0,.29,0l1.8-1.05h0l-1.77-1a.28.28,0,0,0-.28,0l-1.8,1Z" transform="translate(-5.13 -5.13)"/><path class="cls-17" d="M86.37,113.37a.13.13,0,0,1,0,.24l-1.79,1a.43.43,0,0,1-.41,0l-1.77-1c-.12-.07-.12-.17,0-.24l1.8-1a.43.43,0,0,1,.41,0Z" transform="translate(-5.13 -5.13)"/><path class="cls-7" d="M84.37,114.82a.55.55,0,0,1-.26-.06l-1.77-1a.27.27,0,0,1-.15-.23.25.25,0,0,1,.14-.22l1.8-1a.55.55,0,0,1,.53,0l1.77,1a.24.24,0,0,1,0,.44l-1.79,1.05A.6.6,0,0,1,84.37,114.82Zm-1.93-1.31h0l1.77,1a.34.34,0,0,0,.28,0l1.8-1h0l-1.77-1a.3.3,0,0,0-.29,0l-1.79,1Z" transform="translate(-5.13 -5.13)"/><path class="cls-17" d="M101.12,112.93c.11.07.11.18,0,.24l-1.8,1a.41.41,0,0,1-.4,0l-1.77-1c-.12-.06-.12-.17,0-.24l1.8-1a.49.49,0,0,1,.41,0Z" transform="translate(-5.13 -5.13)"/><path class="cls-7" d="M99.12,114.38a.63.63,0,0,1-.27-.06l-1.77-1a.28.28,0,0,1-.14-.23.25.25,0,0,1,.14-.22l1.8-1a.55.55,0,0,1,.53,0l1.77,1a.25.25,0,0,1,.14.22.26.26,0,0,1-.14.23l-1.79,1A.6.6,0,0,1,99.12,114.38Zm-1.93-1.31s0,0,0,0l1.77,1a.34.34,0,0,0,.28,0l1.8-1,0,0h0l-1.77-1a.3.3,0,0,0-.29,0l-1.79,1Z" transform="translate(-5.13 -5.13)"/><path class="cls-17" d="M103.5,111.55a.13.13,0,0,1,0,.24l-1.79,1a.43.43,0,0,1-.41,0l-1.77-1c-.12-.07-.12-.17,0-.24l1.79-1a.43.43,0,0,1,.41,0Z" transform="translate(-5.13 -5.13)"/><path class="cls-7" d="M101.5,113a.55.55,0,0,1-.26-.06l-1.77-1a.24.24,0,0,1-.15-.22.25.25,0,0,1,.14-.22l1.8-1a.62.62,0,0,1,.53,0l1.77,1a.29.29,0,0,1,.15.23.26.26,0,0,1-.15.22l-1.79,1A.5.5,0,0,1,101.5,113Zm-1.93-1.31h0l1.77,1a.31.31,0,0,0,.28,0l1.8-1h0l-1.77-1a.37.37,0,0,0-.29,0l-1.79,1.05Z" transform="translate(-5.13 -5.13)"/><g class="cls-11"><path class="cls-17" d="M93.5,109.23a.13.13,0,0,1,0,.24l-1.8,1a.43.43,0,0,1-.41,0l-1.77-1a.13.13,0,0,1,0-.24l1.8-1a.43.43,0,0,1,.41,0Z" transform="translate(-5.13 -5.13)"/><path class="cls-7" d="M91.5,110.68a.6.6,0,0,1-.27-.06l-1.77-1a.24.24,0,0,1,0-.44l1.8-1.05a.62.62,0,0,1,.53,0l1.77,1a.28.28,0,0,1,.14.23.25.25,0,0,1-.14.22l-1.8,1A.46.46,0,0,1,91.5,110.68Zm-1.94-1.31h0l1.77,1a.33.33,0,0,0,.29,0l1.8-1h0l-1.77-1a.37.37,0,0,0-.29,0l-1.8,1Z" transform="translate(-5.13 -5.13)"/><path class="cls-17" d="M97,109.86c.12.07.12.17,0,.24l-1.79,1a.43.43,0,0,1-.41,0l-1.77-1a.13.13,0,0,1,0-.24l1.79-1a.43.43,0,0,1,.41,0Z" transform="translate(-5.13 -5.13)"/><path class="cls-7" d="M95,111.31a.55.55,0,0,1-.26-.06l-1.77-1a.24.24,0,0,1,0-.44l1.79-1a.62.62,0,0,1,.53,0l1.77,1a.24.24,0,0,1,0,.44l-1.79,1A.5.5,0,0,1,95,111.31ZM93.09,110h0l1.77,1a.33.33,0,0,0,.29,0L97,110h0l-1.77-1a.37.37,0,0,0-.29,0l-1.79,1Z" transform="translate(-5.13 -5.13)"/><path class="cls-17" d="M91.12,110.61a.13.13,0,0,1,0,.24l-1.79,1a.43.43,0,0,1-.41,0l-1.77-1c-.12-.07-.12-.17,0-.24l1.79-1a.43.43,0,0,1,.41,0Z" transform="translate(-5.13 -5.13)"/><path class="cls-7" d="M89.12,112.06a.55.55,0,0,1-.26-.06l-1.77-1a.24.24,0,0,1,0-.44l1.79-1a.62.62,0,0,1,.53,0l1.77,1a.24.24,0,0,1,0,.44l-1.79,1A.6.6,0,0,1,89.12,112.06Zm-1.93-1.31h0l1.77,1a.37.37,0,0,0,.29,0l1.79-1.05h0l-1.77-1a.37.37,0,0,0-.29,0l-1.79,1Z" transform="translate(-5.13 -5.13)"/><path class="cls-17" d="M100,110.88a.13.13,0,0,1,0,.24l-1.8,1a.43.43,0,0,1-.41,0l-1.77-1a.13.13,0,0,1,0-.24l1.8-1a.43.43,0,0,1,.41,0Z" transform="translate(-5.13 -5.13)"/><path class="cls-7" d="M98,112.33a.6.6,0,0,1-.27-.06l-1.77-1a.24.24,0,0,1,0-.44l1.8-1a.62.62,0,0,1,.53,0l1.77,1a.24.24,0,0,1,0,.44l-1.8,1A.55.55,0,0,1,98,112.33ZM96,111h0l1.76,1a.37.37,0,0,0,.29,0l1.8-1h0l-1.77-1a.37.37,0,0,0-.29,0L96,111Z" transform="translate(-5.13 -5.13)"/><path class="cls-17" d="M94.65,111.24a.13.13,0,0,1,0,.24l-1.8,1a.43.43,0,0,1-.41,0l-1.77-1a.13.13,0,0,1,0-.24l1.8-1a.43.43,0,0,1,.41,0Z" transform="translate(-5.13 -5.13)"/><path class="cls-7" d="M92.65,112.69a.6.6,0,0,1-.27-.06l-1.77-1a.24.24,0,0,1,0-.44l1.8-1a.62.62,0,0,1,.53,0l1.77,1a.24.24,0,0,1,0,.44l-1.8,1A.55.55,0,0,1,92.65,112.69Zm-1.93-1.31h0l1.77,1a.37.37,0,0,0,.29,0l1.8-1h0l-1.77-1a.37.37,0,0,0-.29,0l-1.8,1.05Z" transform="translate(-5.13 -5.13)"/><path class="cls-17" d="M88.74,112c.12.07.12.17,0,.24l-1.8,1a.43.43,0,0,1-.41,0l-1.77-1a.13.13,0,0,1,0-.24l1.8-1a.41.41,0,0,1,.4,0Z" transform="translate(-5.13 -5.13)"/><path class="cls-7" d="M86.75,113.44a.6.6,0,0,1-.27-.06l-1.77-1a.24.24,0,0,1,0-.44l1.79-1a.64.64,0,0,1,.54,0l1.77,1a.24.24,0,0,1,0,.44l-1.8,1A.55.55,0,0,1,86.75,113.44Zm-1.94-1.31h0l1.77,1a.37.37,0,0,0,.29,0l1.79-1h0l-1.77-1a.34.34,0,0,0-.28,0l-1.8,1.05Z" transform="translate(-5.13 -5.13)"/><path class="cls-17" d="M97.57,112.27c.12.06.12.17,0,.23l-1.8,1a.49.49,0,0,1-.41,0l-1.77-1a.12.12,0,0,1,0-.23l1.8-1.05a.47.47,0,0,1,.4,0Z" transform="translate(-5.13 -5.13)"/><path class="cls-7" d="M95.58,113.72a.6.6,0,0,1-.27-.07l-1.77-1a.26.26,0,0,1-.14-.22.28.28,0,0,1,.14-.23l1.79-1a.57.57,0,0,1,.54,0l1.77,1a.26.26,0,0,1,.14.22.28.28,0,0,1-.14.23l-1.8,1A.56.56,0,0,1,95.58,113.72Zm-1.94-1.32,0,0,1.77,1a.37.37,0,0,0,.29,0l1.8-1s0,0,0,0h0l-1.77-1a.34.34,0,0,0-.28,0l-1.8,1Z" transform="translate(-5.13 -5.13)"/><path class="cls-17" d="M92.27,112.62a.13.13,0,0,1,0,.24l-1.79,1a.43.43,0,0,1-.41,0l-1.77-1c-.12-.07-.12-.17,0-.24l1.79-1a.43.43,0,0,1,.41,0Z" transform="translate(-5.13 -5.13)"/><path class="cls-7" d="M90.27,114.07A.55.55,0,0,1,90,114l-1.77-1a.24.24,0,0,1,0-.44L90,111.49a.62.62,0,0,1,.53,0l1.77,1a.24.24,0,0,1,0,.44L90.54,114A.6.6,0,0,1,90.27,114.07Zm-1.93-1.31h0l1.77,1a.37.37,0,0,0,.29,0l1.79-1h0l-1.77-1a.37.37,0,0,0-.29,0l-1.79,1Z" transform="translate(-5.13 -5.13)"/><path class="cls-17" d="M95.19,113.65c.12.07.12.17,0,.24l-1.79,1a.43.43,0,0,1-.41,0l-1.77-1a.13.13,0,0,1,0-.24l1.79-1a.43.43,0,0,1,.41,0Z" transform="translate(-5.13 -5.13)"/><path class="cls-7" d="M93.2,115.1a.6.6,0,0,1-.27-.06l-1.77-1a.24.24,0,0,1,0-.44l1.79-1a.62.62,0,0,1,.53,0l1.77,1a.24.24,0,0,1,.15.22.25.25,0,0,1-.14.22l-1.8,1A.46.46,0,0,1,93.2,115.1Zm-1.94-1.31h0l1.77,1a.33.33,0,0,0,.29,0l1.79-1h0l-1.77-1a.37.37,0,0,0-.29,0l-1.79,1Z" transform="translate(-5.13 -5.13)"/></g><path class="cls-17" d="M104.15,105.72c.11.06.11.17,0,.24l-1.79,1a.49.49,0,0,1-.41,0l-1.77-1c-.12-.07-.12-.18,0-.24l1.79-1a.43.43,0,0,1,.41,0Z" transform="translate(-5.13 -5.13)"/><path class="cls-7" d="M102.15,107.17a.46.46,0,0,1-.26-.07l-1.77-1a.24.24,0,0,1-.15-.22.28.28,0,0,1,.14-.23l1.8-1a.55.55,0,0,1,.53,0l1.77,1a.29.29,0,0,1,.15.23.26.26,0,0,1-.15.22l-1.79,1A.5.5,0,0,1,102.15,107.17Zm-1.93-1.31h0l1.77,1a.3.3,0,0,0,.29,0l1.79-1h0l0,0-1.77-1a.37.37,0,0,0-.29,0l-1.79,1Z" transform="translate(-5.13 -5.13)"/><path class="cls-17" d="M113,106c.12.06.12.17,0,.23l-1.79,1a.49.49,0,0,1-.41,0l-1.77-1a.12.12,0,0,1,0-.23l1.79-1.05a.49.49,0,0,1,.41,0Z" transform="translate(-5.13 -5.13)"/><path class="cls-7" d="M111,107.47a.56.56,0,0,1-.26-.07l-1.77-1a.27.27,0,0,1-.15-.22.29.29,0,0,1,.15-.23l1.79-1a.55.55,0,0,1,.53,0l1.77,1a.25.25,0,0,1,.15.22.27.27,0,0,1-.15.23l-1.79,1A.6.6,0,0,1,111,107.47Zm-1.93-1.32,0,0,1.77,1a.37.37,0,0,0,.29,0l1.79-1,0,0h0l-1.77-1a.37.37,0,0,0-.29,0l-1.79,1Z" transform="translate(-5.13 -5.13)"/><path class="cls-17" d="M109.48,105.34c.12.07.12.18,0,.24l-1.8,1a.43.43,0,0,1-.41,0l-1.77-1a.12.12,0,0,1,0-.23l1.8-1.05a.47.47,0,0,1,.4,0Z" transform="translate(-5.13 -5.13)"/><path class="cls-7" d="M107.49,106.8a.6.6,0,0,1-.27-.07l-1.77-1a.28.28,0,0,1-.14-.23.26.26,0,0,1,.14-.22l1.79-1a.57.57,0,0,1,.54,0l1.77,1a.25.25,0,0,1,.14.22.28.28,0,0,1-.14.23l-1.8,1A.56.56,0,0,1,107.49,106.8Zm-1.94-1.32,0,0,1.77,1a.37.37,0,0,0,.29,0l1.8-1s0,0,0,0h0l-1.77-1a.28.28,0,0,0-.28,0l-1.8,1Z" transform="translate(-5.13 -5.13)"/><path class="cls-17" d="M105.38,102.33a.12.12,0,0,1,0,.23l-1.8,1a.49.49,0,0,1-.41,0l-1.77-1a.12.12,0,0,1,0-.23l1.8-1a.49.49,0,0,1,.41,0Z" transform="translate(-5.13 -5.13)"/><path class="cls-7" d="M103.38,103.78a.5.5,0,0,1-.27-.07l-1.77-1a.26.26,0,0,1-.14-.22.28.28,0,0,1,.14-.23l1.79-1a.57.57,0,0,1,.54,0l1.77,1a.28.28,0,0,1,.14.23.26.26,0,0,1-.14.22l-1.8,1A.46.46,0,0,1,103.38,103.78Zm-1.94-1.31h0l1.77,1a.3.3,0,0,0,.29,0l1.8-1h0s0,0,0,0l-1.77-1a.34.34,0,0,0-.28,0l-1.8,1Z" transform="translate(-5.13 -5.13)"/><path class="cls-17" d="M107.75,101a.12.12,0,0,1,0,.23l-1.79,1a.49.49,0,0,1-.41,0l-1.77-1c-.12-.06-.12-.17,0-.23l1.79-1a.49.49,0,0,1,.41,0Z" transform="translate(-5.13 -5.13)"/><path class="cls-7" d="M105.75,102.4a.56.56,0,0,1-.26-.07l-1.77-1a.25.25,0,0,1-.15-.22.27.27,0,0,1,.15-.23l1.79-1a.55.55,0,0,1,.53,0l1.77,1a.27.27,0,0,1,.15.22.27.27,0,0,1-.15.23l-1.79,1A.6.6,0,0,1,105.75,102.4Zm-1.93-1.31h0l1.77,1a.37.37,0,0,0,.29,0l1.79-1h0l0,0-1.77-1a.37.37,0,0,0-.29,0l-1.79,1S103.82,101.08,103.82,101.09Z" transform="translate(-5.13 -5.13)"/><path class="cls-17" d="M108.9,103c.11.06.12.17,0,.23l-1.79,1a.49.49,0,0,1-.41,0l-1.77-1c-.11-.06-.12-.17,0-.23l1.79-1a.49.49,0,0,1,.41,0Z" transform="translate(-5.13 -5.13)"/><path class="cls-7" d="M106.9,104.41a.46.46,0,0,1-.26-.07l-1.77-1a.27.27,0,0,1-.15-.22.27.27,0,0,1,.15-.23l1.79-1a.55.55,0,0,1,.53,0l1.77,1a.29.29,0,0,1,.15.23.25.25,0,0,1-.15.22l-1.79,1A.5.5,0,0,1,106.9,104.41ZM105,103.1h0l1.77,1a.3.3,0,0,0,.29,0l1.79-1h0s0,0,0,0l-1.77-1a.37.37,0,0,0-.29,0l-1.79,1Z" transform="translate(-5.13 -5.13)"/><path class="cls-17" d="M106.53,104.34a.12.12,0,0,1,0,.23l-1.8,1.05a.49.49,0,0,1-.41,0l-1.77-1c-.11-.07-.11-.18,0-.24l1.8-1a.43.43,0,0,1,.41,0Z" transform="translate(-5.13 -5.13)"/><path class="cls-7" d="M104.53,105.79a.5.5,0,0,1-.27-.07l-1.77-1a.25.25,0,0,1-.14-.22.28.28,0,0,1,.14-.23l1.8-1a.55.55,0,0,1,.53,0l1.77,1a.28.28,0,0,1,.14.23.26.26,0,0,1-.14.22l-1.8,1A.46.46,0,0,1,104.53,105.79Zm-1.94-1.31h0l1.77,1a.3.3,0,0,0,.29,0l1.8-1a0,0,0,0,1,0,0l0,0-1.77-1a.34.34,0,0,0-.28,0l-1.8,1Z" transform="translate(-5.13 -5.13)"/><g class="cls-11"><path class="cls-17" d="M107.1,106.73c.12.06.12.17,0,.24l-1.79,1a.49.49,0,0,1-.41,0l-1.77-1a.13.13,0,0,1,0-.24l1.79-1a.43.43,0,0,1,.41,0Z" transform="translate(-5.13 -5.13)"/><path class="cls-7" d="M105.11,108.18a.5.5,0,0,1-.27-.07l-1.77-1a.24.24,0,0,1,0-.44l1.79-1.05a.55.55,0,0,1,.53,0l1.77,1a.27.27,0,0,1,.15.23.25.25,0,0,1-.14.22l-1.8,1A.46.46,0,0,1,105.11,108.18Zm-1.94-1.31h0l1.77,1a.3.3,0,0,0,.29,0l1.79-1h0l0,0-1.77-1a.37.37,0,0,0-.29,0l-1.79,1Z" transform="translate(-5.13 -5.13)"/><path class="cls-17" d="M110.64,107.4c.12.06.12.17,0,.24l-1.79,1a.49.49,0,0,1-.41,0l-1.77-1a.13.13,0,0,1,0-.24l1.79-1a.43.43,0,0,1,.41,0Z" transform="translate(-5.13 -5.13)"/><path class="cls-7" d="M108.64,108.85a.46.46,0,0,1-.26-.07l-1.77-1a.26.26,0,0,1-.15-.22.24.24,0,0,1,.15-.22l1.79-1a.55.55,0,0,1,.53,0l1.77,1a.27.27,0,0,1,.15.23.24.24,0,0,1-.15.22l-1.79,1A.5.5,0,0,1,108.64,108.85Zm-1.93-1.31h0l1.77,1a.3.3,0,0,0,.29,0l1.79-1h0l0,0-1.77-1a.37.37,0,0,0-.29,0l-1.79,1S106.71,107.53,106.71,107.54Z" transform="translate(-5.13 -5.13)"/><path class="cls-17" d="M104.72,108.11a.13.13,0,0,1,0,.24l-1.79,1a.43.43,0,0,1-.41,0l-1.77-1c-.12-.06-.12-.17,0-.24l1.79-1a.49.49,0,0,1,.41,0Z" transform="translate(-5.13 -5.13)"/><path class="cls-7" d="M102.72,109.56a.55.55,0,0,1-.26-.06l-1.77-1a.27.27,0,0,1-.15-.23.24.24,0,0,1,.15-.22l1.79-1a.55.55,0,0,1,.53,0l1.77,1a.26.26,0,0,1,.15.22.24.24,0,0,1-.15.22l-1.79,1A.6.6,0,0,1,102.72,109.56Zm-1.93-1.31s0,0,0,0l1.77,1a.37.37,0,0,0,.29,0l1.79-1,0,0h0l-1.77-1a.3.3,0,0,0-.29,0l-1.79,1Z" transform="translate(-5.13 -5.13)"/><path class="cls-17" d="M108.26,108.78a.13.13,0,0,1,0,.24l-1.79,1a.43.43,0,0,1-.41,0l-1.77-1c-.12-.06-.12-.17,0-.24l1.79-1a.49.49,0,0,1,.41,0Z" transform="translate(-5.13 -5.13)"/><path class="cls-7" d="M106.26,110.23a.55.55,0,0,1-.26-.06l-1.77-1a.27.27,0,0,1-.15-.23.24.24,0,0,1,.15-.22l1.79-1a.55.55,0,0,1,.53,0l1.77,1a.24.24,0,0,1,0,.44l-1.79,1A.6.6,0,0,1,106.26,110.23Zm-1.93-1.31s0,0,0,0l1.77,1a.37.37,0,0,0,.29,0l1.79-1,0,0h0l-1.77-1a.3.3,0,0,0-.29,0l-1.79,1Z" transform="translate(-5.13 -5.13)"/></g><g class="cls-11"><path class="cls-17" d="M94,106.22a.13.13,0,0,1,0,.24l-1.79,1a.43.43,0,0,1-.41,0l-.93-.54c-.12-.06-.12-.17,0-.23l1.8-1a.49.49,0,0,1,.41,0Z" transform="translate(-5.13 -5.13)"/><path class="cls-7" d="M92,107.67a.55.55,0,0,1-.26-.06l-.93-.54a.27.27,0,0,1-.15-.23.26.26,0,0,1,.14-.22l1.8-1a.55.55,0,0,1,.53,0l.93.54a.24.24,0,0,1,0,.44l-1.79,1A.6.6,0,0,1,92,107.67Zm-1.09-.83,0,0,.93.54a.34.34,0,0,0,.28,0l1.8-1.05h0l-.93-.54a.3.3,0,0,0-.29,0l-1.79,1Z" transform="translate(-5.13 -5.13)"/><path class="cls-17" d="M98.25,106.47c.11.06.11.17,0,.24l-1.8,1a.47.47,0,0,1-.4,0l-1.77-1c-.12-.07-.12-.17,0-.24l1.8-1a.43.43,0,0,1,.41,0Z" transform="translate(-5.13 -5.13)"/><path class="cls-7" d="M96.25,107.92a.52.52,0,0,1-.27-.07l-1.77-1a.24.24,0,0,1,0-.44l1.8-1a.55.55,0,0,1,.53,0l1.77,1a.28.28,0,0,1,.14.23.25.25,0,0,1-.14.22l-1.79,1A.5.5,0,0,1,96.25,107.92Zm-1.93-1.31h0l1.77,1a.28.28,0,0,0,.28,0l1.8-1h0l0,0-1.77-1a.37.37,0,0,0-.29,0l-1.8,1S94.32,106.6,94.32,106.61Z" transform="translate(-5.13 -5.13)"/><path class="cls-17" d="M101.77,107.1c.12.06.12.17,0,.24l-1.8,1a.49.49,0,0,1-.41,0l-1.77-1a.13.13,0,0,1,0-.24l1.79-1a.43.43,0,0,1,.41,0Z" transform="translate(-5.13 -5.13)"/><path class="cls-7" d="M99.78,108.55a.5.5,0,0,1-.27-.07l-1.77-1a.26.26,0,0,1-.15-.22.29.29,0,0,1,.15-.23l1.79-1a.55.55,0,0,1,.53,0l1.77,1a.27.27,0,0,1,.15.23.25.25,0,0,1-.14.22l-1.8,1A.46.46,0,0,1,99.78,108.55Zm-1.94-1.31h0l1.77,1a.3.3,0,0,0,.29,0l1.79-1h0s0,0,0,0l-1.77-1a.34.34,0,0,0-.28,0l-1.8,1Z" transform="translate(-5.13 -5.13)"/><path class="cls-17" d="M95.87,107.85c.12.06.12.17,0,.24l-1.79,1a.49.49,0,0,1-.41,0l-1.77-1a.13.13,0,0,1,0-.24l1.79-1a.43.43,0,0,1,.41,0Z" transform="translate(-5.13 -5.13)"/><path class="cls-7" d="M93.87,109.3a.46.46,0,0,1-.26-.07l-1.77-1a.24.24,0,0,1,0-.44l1.79-1a.55.55,0,0,1,.53,0l1.77,1a.27.27,0,0,1,.15.23.24.24,0,0,1-.15.22l-1.79,1A.5.5,0,0,1,93.87,109.3ZM91.94,108h0l1.77,1a.3.3,0,0,0,.29,0l1.79-1h0s0,0,0,0l-1.77-1a.37.37,0,0,0-.29,0L92,108Z" transform="translate(-5.13 -5.13)"/><path class="cls-17" d="M99.4,108.48c.11.06.11.17,0,.24l-1.8,1a.47.47,0,0,1-.4,0l-1.77-1c-.12-.07-.12-.17,0-.24l1.8-1a.43.43,0,0,1,.41,0Z" transform="translate(-5.13 -5.13)"/><path class="cls-7" d="M97.4,109.93a.52.52,0,0,1-.27-.07l-1.76-1a.24.24,0,0,1-.15-.22.25.25,0,0,1,.14-.22l1.8-1.05a.55.55,0,0,1,.53,0l1.77,1a.28.28,0,0,1,.14.23.25.25,0,0,1-.14.22l-1.79,1A.5.5,0,0,1,97.4,109.93Zm-1.93-1.31h0l1.77,1a.28.28,0,0,0,.28,0l1.8-1h0l0,0-1.77-1a.37.37,0,0,0-.29,0l-1.79,1S95.47,108.61,95.47,108.62Z" transform="translate(-5.13 -5.13)"/><path class="cls-17" d="M102.34,109.5a.12.12,0,0,1,0,.23l-1.79,1a.49.49,0,0,1-.41,0l-1.77-1c-.12-.07-.12-.18,0-.24l1.79-1a.43.43,0,0,1,.41,0Z" transform="translate(-5.13 -5.13)"/><path class="cls-7" d="M100.34,111a.46.46,0,0,1-.26-.07l-1.77-1a.24.24,0,0,1-.15-.22.28.28,0,0,1,.14-.23l1.8-1a.55.55,0,0,1,.53,0l1.77,1a.29.29,0,0,1,.15.23.27.27,0,0,1-.15.22l-1.79,1A.5.5,0,0,1,100.34,111Zm-1.93-1.31h0l1.77,1a.28.28,0,0,0,.28,0l1.8-1h0l0,0-1.77-1a.37.37,0,0,0-.29,0l-1.79,1Z" transform="translate(-5.13 -5.13)"/></g><path class="cls-17" d="M96.49,104.78c.11.07.12.18,0,.24l-1.79,1a.43.43,0,0,1-.41,0l-.93-.53c-.11-.07-.12-.18,0-.24l1.79-1a.43.43,0,0,1,.41,0Z" transform="translate(-5.13 -5.13)"/><path class="cls-7" d="M94.49,106.23a.55.55,0,0,1-.26-.06l-.93-.54a.26.26,0,0,1-.15-.22.27.27,0,0,1,.15-.23l1.79-1a.55.55,0,0,1,.53,0l.93.54a.24.24,0,0,1,.15.22.27.27,0,0,1-.15.23l-1.79,1A.6.6,0,0,1,94.49,106.23Zm-1.09-.82h0l.93.54a.37.37,0,0,0,.29,0l1.79-1,0,0h0l-.93-.54a.37.37,0,0,0-.29,0l-1.79,1Z" transform="translate(-5.13 -5.13)"/><path class="cls-17" d="M111.87,104a.13.13,0,0,1,0,.24l-1.8,1a.43.43,0,0,1-.41,0l-1.77-1a.13.13,0,0,1,0-.24l1.8-1a.43.43,0,0,1,.41,0Z" transform="translate(-5.13 -5.13)"/><path class="cls-7" d="M109.87,105.41a.5.5,0,0,1-.27-.07l-1.77-1a.24.24,0,0,1,0-.44l1.8-1a.62.62,0,0,1,.53,0l1.77,1a.28.28,0,0,1,.14.23.25.25,0,0,1-.14.22l-1.8,1A.46.46,0,0,1,109.87,105.41Zm-1.93-1.31h0l1.77,1a.31.31,0,0,0,.28,0l1.8-1h0L110,103a.37.37,0,0,0-.29,0l-1.8,1Z" transform="translate(-5.13 -5.13)"/><path class="cls-17" d="M125.75,101.66a.13.13,0,0,1,0,.24l-1.79,1a.43.43,0,0,1-.41,0l-.87-.5a.12.12,0,0,1,0-.23l1.79-1a.49.49,0,0,1,.41,0Z" transform="translate(-5.13 -5.13)"/><path class="cls-7" d="M123.75,103.11a.55.55,0,0,1-.26-.06l-.87-.5a.29.29,0,0,1-.15-.23.27.27,0,0,1,.15-.22l1.79-1a.55.55,0,0,1,.53,0l.87.5a.24.24,0,0,1,0,.44l-1.79,1A.6.6,0,0,1,123.75,103.11Zm-1-.79,0,0,.87.5a.37.37,0,0,0,.29,0l1.79-1,0,0h0l-.87-.5a.28.28,0,0,0-.28,0l-1.8,1Z" transform="translate(-5.13 -5.13)"/><g class="cls-11"><path class="cls-17" d="M118.4,97.43c.12.07.12.18,0,.24l-1.8,1a.43.43,0,0,1-.41,0l-1.77-1a.12.12,0,0,1,0-.23l1.8-1a.47.47,0,0,1,.4,0Z" transform="translate(-5.13 -5.13)"/><path class="cls-7" d="M116.41,98.88a.6.6,0,0,1-.27-.06l-1.77-1a.28.28,0,0,1-.14-.23.25.25,0,0,1,.14-.22l1.79-1a.57.57,0,0,1,.54,0l1.77,1a.25.25,0,0,1,.14.22.28.28,0,0,1-.14.23l-1.8,1A.55.55,0,0,1,116.41,98.88Zm-1.94-1.31,0,0,1.77,1a.37.37,0,0,0,.29,0l1.79-1,0,0h0l-1.77-1a.28.28,0,0,0-.28,0l-1.8,1Z" transform="translate(-5.13 -5.13)"/><path class="cls-17" d="M108.85,97.6c.12.06.12.17,0,.24l-1.79,1a.49.49,0,0,1-.41,0l-.93-.54a.12.12,0,0,1,0-.23l1.79-1a.49.49,0,0,1,.41,0Z" transform="translate(-5.13 -5.13)"/><path class="cls-7" d="M106.86,99.05a.5.5,0,0,1-.27-.07l-.93-.53a.29.29,0,0,1-.15-.23.27.27,0,0,1,.15-.22l1.79-1a.55.55,0,0,1,.53,0l.93.53a.27.27,0,0,1,.15.23.25.25,0,0,1-.14.22l-1.8,1A.46.46,0,0,1,106.86,99.05Zm-1.1-.83,0,0,.93.53a.3.3,0,0,0,.29,0l1.79-1h0s0,0,0,0l-.93-.53a.3.3,0,0,0-.29,0l-1.79,1Z" transform="translate(-5.13 -5.13)"/><path class="cls-17" d="M112.5,98.18c.12.07.12.18,0,.24l-1.79,1a.43.43,0,0,1-.41,0l-1.77-1a.12.12,0,0,1,0-.23l1.79-1a.49.49,0,0,1,.41,0Z" transform="translate(-5.13 -5.13)"/><path class="cls-7" d="M110.5,99.64a.59.59,0,0,1-.26-.07l-1.77-1a.29.29,0,0,1-.15-.23.27.27,0,0,1,.15-.22l1.79-1a.55.55,0,0,1,.53,0l1.77,1a.24.24,0,0,1,.15.22.27.27,0,0,1-.15.23l-1.79,1A.6.6,0,0,1,110.5,99.64Zm-1.93-1.32,0,0,1.77,1a.37.37,0,0,0,.29,0l1.79-1s0,0,0,0h0l-1.77-1a.3.3,0,0,0-.29,0l-1.79,1Z" transform="translate(-5.13 -5.13)"/><path class="cls-17" d="M116,98.81c.11.07.11.18,0,.24l-1.79,1a.43.43,0,0,1-.41,0l-1.77-1c-.12-.06-.12-.17,0-.23l1.8-1a.49.49,0,0,1,.41,0Z" transform="translate(-5.13 -5.13)"/><path class="cls-7" d="M114,100.27a.56.56,0,0,1-.26-.07l-1.77-1a.27.27,0,0,1-.15-.23.26.26,0,0,1,.14-.22l1.8-1a.55.55,0,0,1,.53,0l1.77,1a.26.26,0,0,1,.15.22.29.29,0,0,1-.15.23l-1.79,1A.6.6,0,0,1,114,100.27ZM112.1,99l0,0,1.77,1a.34.34,0,0,0,.28,0l1.8-1,0,0h0l-1.77-1a.3.3,0,0,0-.29,0l-1.79,1Z" transform="translate(-5.13 -5.13)"/><path class="cls-17" d="M106.38,99c.11.06.12.17,0,.23l-1.79,1a.49.49,0,0,1-.41,0l-.93-.54c-.12-.07-.12-.17,0-.24l1.79-1a.43.43,0,0,1,.41,0Z" transform="translate(-5.13 -5.13)"/><path class="cls-7" d="M104.38,100.49a.46.46,0,0,1-.26-.07l-.93-.54a.24.24,0,0,1,0-.44l1.79-1a.62.62,0,0,1,.53,0l.93.54a.27.27,0,0,1,.15.22.27.27,0,0,1-.15.23l-1.79,1A.5.5,0,0,1,104.38,100.49Zm-1.09-.83h0l.93.54a.37.37,0,0,0,.29,0l1.79-1h0l0,0-.93-.54a.37.37,0,0,0-.29,0l-1.79,1.05Z" transform="translate(-5.13 -5.13)"/><path class="cls-17" d="M110.13,99.57a.12.12,0,0,1,0,.23l-1.8,1a.49.49,0,0,1-.41,0l-1.77-1a.12.12,0,0,1,0-.23l1.8-1a.49.49,0,0,1,.41,0Z" transform="translate(-5.13 -5.13)"/><path class="cls-7" d="M108.13,101a.6.6,0,0,1-.27-.07l-1.77-1a.27.27,0,0,1-.14-.23.28.28,0,0,1,.14-.22l1.8-1a.55.55,0,0,1,.53,0l1.77,1a.26.26,0,0,1,.14.22.28.28,0,0,1-.14.23l-1.8,1A.56.56,0,0,1,108.13,101ZM106.2,99.7s0,0,0,0l1.77,1a.37.37,0,0,0,.29,0l1.8-1,0,0s0,0,0,0l-1.77-1a.33.33,0,0,0-.29,0l-1.8,1A0,0,0,0,1,106.2,99.7Z" transform="translate(-5.13 -5.13)"/><path class="cls-17" d="M120.71,98.8c.12.06.12.17,0,.24l-3.56,2.07a.49.49,0,0,1-.41,0l-1.77-1a.12.12,0,0,1,0-.23l3.56-2.07a.43.43,0,0,1,.41,0Z" transform="translate(-5.13 -5.13)"/><path class="cls-7" d="M117,101.28a.6.6,0,0,1-.27-.07l-1.77-1a.27.27,0,0,1-.14-.23.28.28,0,0,1,.14-.22l3.56-2.07a.55.55,0,0,1,.53,0l1.77,1a.27.27,0,0,1,.15.23.25.25,0,0,1-.14.22l-3.57,2.07A.56.56,0,0,1,117,101.28ZM115,100l0,0,1.77,1a.37.37,0,0,0,.29,0l3.56-2.07h0s0,0,0,0l-1.77-1a.37.37,0,0,0-.29,0L115,100Z" transform="translate(-5.13 -5.13)"/><path class="cls-17" d="M113.65,100.2c.12.06.12.17,0,.23l-1.79,1a.49.49,0,0,1-.41,0l-1.77-1a.12.12,0,0,1,0-.23l1.79-1a.49.49,0,0,1,.41,0Z" transform="translate(-5.13 -5.13)"/><path class="cls-7" d="M111.66,101.65a.6.6,0,0,1-.27-.07l-1.77-1a.24.24,0,0,1,0-.45l1.79-1a.55.55,0,0,1,.53,0l1.77,1a.25.25,0,0,1,.15.22.28.28,0,0,1-.14.23l-1.8,1A.59.59,0,0,1,111.66,101.65Zm-1.94-1.32,0,0,1.77,1a.37.37,0,0,0,.29,0l1.79-1,0,0h0l-1.77-1a.33.33,0,0,0-.29,0l-1.79,1Z" transform="translate(-5.13 -5.13)"/><path class="cls-17" d="M103.91,100.47a.13.13,0,0,1,0,.24l-1.79,1a.43.43,0,0,1-.41,0l-.93-.53c-.12-.07-.12-.18,0-.24l1.8-1a.43.43,0,0,1,.41,0Z" transform="translate(-5.13 -5.13)"/><path class="cls-7" d="M101.91,101.92a.55.55,0,0,1-.26-.06l-.94-.54a.25.25,0,0,1-.14-.22.28.28,0,0,1,.14-.23l1.8-1a.55.55,0,0,1,.53,0l.93.54a.24.24,0,0,1,0,.44l-1.79,1A.6.6,0,0,1,101.91,101.92Zm-1.09-.82h0l.93.54a.34.34,0,0,0,.28,0l1.8-1,0,0h0l-.93-.54a.37.37,0,0,0-.29,0l-1.79,1Z" transform="translate(-5.13 -5.13)"/><path class="cls-17" d="M116.63,101.19a.13.13,0,0,1,0,.24l-1.79,1a.43.43,0,0,1-.41,0l-1.77-1c-.11-.07-.12-.17,0-.24l1.79-1a.43.43,0,0,1,.41,0Z" transform="translate(-5.13 -5.13)"/><path class="cls-7" d="M114.63,102.64a.55.55,0,0,1-.26-.06l-1.77-1a.26.26,0,0,1-.15-.22.24.24,0,0,1,.15-.22l1.79-1a.62.62,0,0,1,.53,0l1.77,1a.26.26,0,0,1,.15.22.24.24,0,0,1-.15.22l-1.79,1A.6.6,0,0,1,114.63,102.64Zm-1.93-1.31h0l1.77,1a.37.37,0,0,0,.29,0l1.79-1.05h0l-1.77-1a.37.37,0,0,0-.29,0l-1.79,1Z" transform="translate(-5.13 -5.13)"/><path class="cls-17" d="M123.06,100.12a.13.13,0,0,1,0,.24l-4.77,2.77a.43.43,0,0,1-.41,0l-1.77-1c-.12-.07-.12-.17,0-.24l4.77-2.77a.43.43,0,0,1,.41,0Z" transform="translate(-5.13 -5.13)"/><path class="cls-7" d="M118.08,103.3a.55.55,0,0,1-.26-.06l-1.77-1a.24.24,0,0,1-.15-.22.25.25,0,0,1,.14-.22L120.82,99a.62.62,0,0,1,.53,0l1.77,1a.24.24,0,0,1,0,.44l-4.77,2.78A.6.6,0,0,1,118.08,103.3ZM116.15,102h0l1.77,1a.37.37,0,0,0,.29,0l4.77-2.78h0l-1.77-1a.37.37,0,0,0-.29,0L116.17,102Z" transform="translate(-5.13 -5.13)"/><path class="cls-17" d="M114.25,102.58a.12.12,0,0,1,0,.23l-1.79,1a.49.49,0,0,1-.41,0l-1.77-1c-.12-.06-.12-.17,0-.23l1.79-1a.49.49,0,0,1,.41,0Z" transform="translate(-5.13 -5.13)"/><path class="cls-7" d="M112.25,104A.56.56,0,0,1,112,104l-1.77-1a.25.25,0,0,1-.15-.22.28.28,0,0,1,.14-.23l1.8-1a.55.55,0,0,1,.53,0l1.77,1a.27.27,0,0,1,.15.22.29.29,0,0,1-.15.23l-1.79,1A.6.6,0,0,1,112.25,104Zm-1.93-1.32s0,0,0,0l1.77,1a.34.34,0,0,0,.28,0l1.8-1,0,0h0l-1.77-1a.37.37,0,0,0-.29,0l-1.79,1Z" transform="translate(-5.13 -5.13)"/><path class="cls-17" d="M117.78,103.25c.12.06.12.17,0,.24l-1.8,1a.49.49,0,0,1-.41,0l-1.77-1a.13.13,0,0,1,0-.24l1.79-1a.43.43,0,0,1,.41,0Z" transform="translate(-5.13 -5.13)"/><path class="cls-7" d="M115.79,104.7a.5.5,0,0,1-.27-.07l-1.77-1a.26.26,0,0,1-.15-.22.29.29,0,0,1,.15-.23l1.79-1a.55.55,0,0,1,.53,0l1.77,1a.27.27,0,0,1,.15.23.25.25,0,0,1-.14.22l-1.8,1A.46.46,0,0,1,115.79,104.7Zm-1.94-1.31h0l1.77,1a.3.3,0,0,0,.29,0l1.79-1h0s0,0,0,0l-1.77-1a.34.34,0,0,0-.28,0l-1.8,1Z" transform="translate(-5.13 -5.13)"/></g><g class="cls-11"><path class="cls-17" d="M101.44,101.91a.13.13,0,0,1,0,.24l-1.8,1a.43.43,0,0,1-.41,0l-.93-.54a.12.12,0,0,1,0-.23l1.8-1a.49.49,0,0,1,.41,0Z" transform="translate(-5.13 -5.13)"/><path class="cls-7" d="M99.44,103.36a.6.6,0,0,1-.27-.06l-.93-.54a.28.28,0,0,1-.14-.23.26.26,0,0,1,.14-.22l1.8-1a.55.55,0,0,1,.53,0l.93.53a.28.28,0,0,1,.14.23.25.25,0,0,1-.14.22l-1.8,1A.46.46,0,0,1,99.44,103.36Zm-1.1-.83,0,0,.93.53a.33.33,0,0,0,.29,0l1.8-1h0l-.93-.54a.3.3,0,0,0-.29,0l-1.8,1Z" transform="translate(-5.13 -5.13)"/><path class="cls-17" d="M99,103.35c.12.06.12.17,0,.23l-1.8,1a.49.49,0,0,1-.41,0l-.93-.54a.13.13,0,0,1,0-.24l1.79-1a.43.43,0,0,1,.41,0Z" transform="translate(-5.13 -5.13)"/><path class="cls-7" d="M97,104.8a.5.5,0,0,1-.27-.07l-.93-.54a.24.24,0,0,1,0-.44l1.79-1a.62.62,0,0,1,.53,0l.93.54a.27.27,0,0,1,.15.23.26.26,0,0,1-.14.22l-1.8,1A.46.46,0,0,1,97,104.8Zm-1.1-.83h0l.93.54a.33.33,0,0,0,.29,0l1.79-1h0s0,0,0,0l-.93-.54a.34.34,0,0,0-.28,0l-1.8,1Z" transform="translate(-5.13 -5.13)"/><path class="cls-17" d="M103,103.71a.12.12,0,0,1,0,.23l-1.79,1a.49.49,0,0,1-.41,0L99,104c-.12-.07-.12-.18,0-.24l1.79-1a.43.43,0,0,1,.41,0Z" transform="translate(-5.13 -5.13)"/><path class="cls-7" d="M101,105.16a.46.46,0,0,1-.26-.07l-1.77-1a.24.24,0,0,1-.15-.22.28.28,0,0,1,.14-.23l1.8-1a.55.55,0,0,1,.53,0l1.77,1a.29.29,0,0,1,.15.23.27.27,0,0,1-.15.22l-1.79,1A.5.5,0,0,1,101,105.16Zm-1.93-1.31h0l1.77,1a.28.28,0,0,0,.28,0l1.8-1h0l0,0-1.77-1a.37.37,0,0,0-.29,0l-1.79,1Z" transform="translate(-5.13 -5.13)"/></g><path class="cls-17" d="M100.62,105.09c.12.06.12.17,0,.24l-1.79,1a.49.49,0,0,1-.41,0l-1.77-1c-.11-.07-.11-.18,0-.24l1.79-1a.43.43,0,0,1,.41,0Z" transform="translate(-5.13 -5.13)"/><path class="cls-7" d="M98.63,106.54a.5.5,0,0,1-.27-.07l-1.77-1a.26.26,0,0,1-.15-.22.29.29,0,0,1,.15-.23l1.79-1a.55.55,0,0,1,.53,0l1.77,1a.27.27,0,0,1,.15.23.25.25,0,0,1-.14.22l-1.8,1A.46.46,0,0,1,98.63,106.54Zm-1.94-1.31h0l1.77,1a.3.3,0,0,0,.29,0l1.79-1h0l0,0-1.77-1a.34.34,0,0,0-.28,0l-1.8,1Z" transform="translate(-5.13 -5.13)"/><path class="cls-17" d="M111.33,96.16a.13.13,0,0,1,0,.24l-1.8,1a.43.43,0,0,1-.41,0l-.93-.53c-.11-.07-.11-.18,0-.24l1.8-1a.43.43,0,0,1,.41,0Z" transform="translate(-5.13 -5.13)"/><path class="cls-7" d="M109.33,97.61a.6.6,0,0,1-.27-.06l-.93-.54a.25.25,0,0,1-.14-.22.28.28,0,0,1,.14-.23l1.8-1a.55.55,0,0,1,.53,0l.93.54a.24.24,0,0,1,0,.44l-1.8,1A.55.55,0,0,1,109.33,97.61Zm-1.1-.82h0l.93.54a.37.37,0,0,0,.29,0l1.8-1a0,0,0,0,0,0,0h0l-.94-.54a.34.34,0,0,0-.28,0l-1.8,1Z" transform="translate(-5.13 -5.13)"/><path class="cls-17" d="M113.8,94.73a.12.12,0,0,1,0,.23L112,96a.49.49,0,0,1-.41,0l-.93-.54c-.12-.07-.12-.17,0-.24l1.8-1a.43.43,0,0,1,.41,0Z" transform="translate(-5.13 -5.13)"/><path class="cls-7" d="M111.8,96.18a.56.56,0,0,1-.26-.07l-.94-.54a.24.24,0,0,1,0-.44l1.8-1a.62.62,0,0,1,.53,0l.93.54a.3.3,0,0,1,.15.22.29.29,0,0,1-.15.23l-1.79,1A.6.6,0,0,1,111.8,96.18Zm-1.09-.83h0l.93.54a.34.34,0,0,0,.28,0l1.8-1,0,0h0l-.93-.54a.37.37,0,0,0-.29,0l-1.8,1Z" transform="translate(-5.13 -5.13)"/><path class="cls-17" d="M116.09,96.1c.12.06.12.17,0,.24l-3,1.72a.49.49,0,0,1-.41,0L111,97c-.11-.07-.11-.18,0-.24l3-1.72a.43.43,0,0,1,.41,0Z" transform="translate(-5.13 -5.13)"/><path class="cls-7" d="M112.92,98.23a.48.48,0,0,1-.26-.07l-1.77-1a.26.26,0,0,1-.15-.22.29.29,0,0,1,.15-.23l3-1.72a.55.55,0,0,1,.53,0l1.77,1a.27.27,0,0,1,.15.23.24.24,0,0,1-.15.22l-3,1.72A.5.5,0,0,1,112.92,98.23ZM111,96.92h0l1.77,1a.3.3,0,0,0,.29,0l3-1.72h0s0,0,0,0l-1.77-1a.37.37,0,0,0-.29,0l-3,1.72Z" transform="translate(-5.13 -5.13)"/><path class="cls-17" d="M111.28,101.58a.12.12,0,0,1,0,.23l-1.8,1a.49.49,0,0,1-.41,0l-1.77-1a.12.12,0,0,1,0-.23l1.8-1a.49.49,0,0,1,.41,0Z" transform="translate(-5.13 -5.13)"/><path class="cls-7" d="M109.28,103A.6.6,0,0,1,109,103l-1.77-1a.26.26,0,0,1-.14-.22.28.28,0,0,1,.14-.23l1.8-1a.55.55,0,0,1,.53,0l1.77,1a.26.26,0,0,1,.14.22.28.28,0,0,1-.14.23l-1.8,1A.56.56,0,0,1,109.28,103Zm-1.93-1.31h0l1.77,1a.34.34,0,0,0,.28,0l1.8-1h0l0,0-1.77-1a.37.37,0,0,0-.29,0l-1.8,1S107.35,101.71,107.35,101.72Z" transform="translate(-5.13 -5.13)"/><path class="cls-17" d="M96.36,115.7a.13.13,0,0,1,0,.24l-1.8,1a.43.43,0,0,1-.41,0l-1.77-1a.13.13,0,0,1,0-.24l1.8-1a.43.43,0,0,1,.41,0Z" transform="translate(-5.13 -5.13)"/><path class="cls-7" d="M94.36,117.15a.6.6,0,0,1-.27-.06l-1.77-1a.24.24,0,0,1,0-.44l1.8-1.05a.62.62,0,0,1,.53,0l1.77,1a.24.24,0,0,1,0,.44l-1.8,1A.55.55,0,0,1,94.36,117.15Zm-1.93-1.31h0l1.77,1a.37.37,0,0,0,.29,0l1.8-1h0l-1.77-1a.37.37,0,0,0-.29,0l-1.8,1Z" transform="translate(-5.13 -5.13)"/><path class="cls-17" d="M93.65,120.32c.12.06.12.17,0,.23l-1.8,1a.45.45,0,0,1-.41,0l-2.1-1.22a.12.12,0,0,1,0-.23l1.8-1.05a.49.49,0,0,1,.41,0Z" transform="translate(-5.13 -5.13)"/><path class="cls-7" d="M91.66,121.77a.6.6,0,0,1-.27-.07l-2.1-1.21a.27.27,0,0,1-.14-.23.26.26,0,0,1,.14-.22l1.8-1a.55.55,0,0,1,.53,0l2.1,1.21a.26.26,0,0,1,.14.22.28.28,0,0,1-.14.23l-1.8,1A.56.56,0,0,1,91.66,121.77Zm-2.27-1.51s0,0,0,0l2.1,1.21a.37.37,0,0,0,.29,0l1.79-1,0,0h0l-2.09-1.21a.3.3,0,0,0-.29,0l-1.8,1Z" transform="translate(-5.13 -5.13)"/><path class="cls-17" d="M101.35,115.84c.12.07.12.17,0,.24L99,117.42a.43.43,0,0,1-.41,0l-2.1-1.21c-.11-.06-.11-.17,0-.24l2.32-1.34a.43.43,0,0,1,.41,0Z" transform="translate(-5.13 -5.13)"/><path class="cls-7" d="M98.84,117.59a.6.6,0,0,1-.27-.06l-2.1-1.21a.28.28,0,0,1-.14-.23.25.25,0,0,1,.14-.22l2.32-1.35a.62.62,0,0,1,.53,0l2.09,1.22a.24.24,0,0,1,.15.22.25.25,0,0,1-.14.22l-2.32,1.35A.55.55,0,0,1,98.84,117.59Zm-2.27-1.5,0,0,2.1,1.21a.37.37,0,0,0,.29,0l2.31-1.35h0l-2.09-1.22a.37.37,0,0,0-.29,0l-2.32,1.35Z" transform="translate(-5.13 -5.13)"/><path class="cls-17" d="M98.44,117.53c.11.07.11.18,0,.24l-1.79,1a.43.43,0,0,1-.41,0l-2.1-1.21a.12.12,0,0,1,0-.23l1.79-1.05a.49.49,0,0,1,.41,0Z" transform="translate(-5.13 -5.13)"/><path class="cls-7" d="M96.44,119a.55.55,0,0,1-.26-.06l-2.1-1.21a.29.29,0,0,1-.15-.23.27.27,0,0,1,.15-.22l1.79-1a.55.55,0,0,1,.53,0l2.1,1.21a.26.26,0,0,1,.15.22.29.29,0,0,1-.15.23l-1.79,1A.6.6,0,0,1,96.44,119Zm-2.26-1.5,0,0,2.1,1.21a.37.37,0,0,0,.29,0l1.79-1,0,0h0l-2.1-1.21a.3.3,0,0,0-.29,0l-1.79,1Z" transform="translate(-5.13 -5.13)"/><path class="cls-17" d="M94,117.08a.12.12,0,0,1,0,.23l-4.77,2.78a.49.49,0,0,1-.41,0l-1.77-1a.12.12,0,0,1,0-.23l4.77-2.78a.49.49,0,0,1,.41,0Z" transform="translate(-5.13 -5.13)"/><path class="cls-7" d="M89,120.26a.6.6,0,0,1-.27-.07l-1.77-1a.27.27,0,0,1-.15-.22.29.29,0,0,1,.15-.23L91.75,116a.55.55,0,0,1,.53,0l1.77,1a.27.27,0,0,1,.15.22.27.27,0,0,1-.15.23l-4.77,2.77A.56.56,0,0,1,89,120.26ZM87.08,119h0l1.77,1a.37.37,0,0,0,.29,0l4.77-2.77s0,0,0,0h0l-1.77-1a.33.33,0,0,0-.29,0l-4.77,2.77Z" transform="translate(-5.13 -5.13)"/><path class="cls-17" d="M96.05,118.92c.11.07.11.18,0,.24l-1.8,1a.43.43,0,0,1-.41,0L91.75,119c-.12-.06-.12-.17,0-.23l1.79-1.05a.49.49,0,0,1,.41,0Z" transform="translate(-5.13 -5.13)"/><path class="cls-7" d="M94.05,120.38a.6.6,0,0,1-.27-.07l-2.09-1.21a.27.27,0,0,1-.15-.23.26.26,0,0,1,.14-.22l1.8-1a.55.55,0,0,1,.53,0l2.1,1.21a.25.25,0,0,1,.14.22.28.28,0,0,1-.14.23l-1.8,1A.56.56,0,0,1,94.05,120.38Zm-2.26-1.51,0,0,2.1,1.21a.34.34,0,0,0,.28,0l1.8-1,0,0h0l-2.1-1.21a.3.3,0,0,0-.29,0l-1.79,1Z" transform="translate(-5.13 -5.13)"/><path class="cls-17" d="M123.38,103a.13.13,0,0,1,0,.24l-1.8,1a.43.43,0,0,1-.41,0l-2.1-1.21c-.11-.06-.11-.17,0-.24l1.8-1a.49.49,0,0,1,.41,0Z" transform="translate(-5.13 -5.13)"/><path class="cls-7" d="M121.38,104.49a.6.6,0,0,1-.27-.06l-2.1-1.21a.28.28,0,0,1-.14-.23.25.25,0,0,1,.14-.22l1.8-1a.55.55,0,0,1,.53,0l2.1,1.21a.24.24,0,0,1,0,.44l-1.8,1.05A.55.55,0,0,1,121.38,104.49Zm-2.26-1.5s0,0,0,0l2.09,1.21a.37.37,0,0,0,.29,0l1.8-1s0,0,0,0h0l-2.09-1.21a.3.3,0,0,0-.29,0l-1.8,1Z" transform="translate(-5.13 -5.13)"/><path class="cls-17" d="M121,104.42a.12.12,0,0,1,0,.23l-1.79,1a.49.49,0,0,1-.41,0l-.87-.5a.13.13,0,0,1,0-.24l1.79-1a.43.43,0,0,1,.41,0Z" transform="translate(-5.13 -5.13)"/><path class="cls-7" d="M119,105.87a.46.46,0,0,1-.26-.07l-.87-.5a.24.24,0,0,1,0-.44l1.79-1a.55.55,0,0,1,.53,0l.87.5a.29.29,0,0,1,.15.23.26.26,0,0,1-.15.22l-1.79,1A.5.5,0,0,1,119,105.87Zm-1-.79h0l.87.5a.3.3,0,0,0,.29,0l1.79-1h0l0,0-.87-.5a.37.37,0,0,0-.29,0l-1.79,1Z" transform="translate(-5.13 -5.13)"/><path class="cls-17" d="M115.4,104.63c.12.07.12.17,0,.24l-1.79,1a.43.43,0,0,1-.41,0l-1.77-1a.13.13,0,0,1,0-.24l1.79-1a.43.43,0,0,1,.41,0Z" transform="translate(-5.13 -5.13)"/><path class="cls-7" d="M113.41,106.08a.6.6,0,0,1-.27-.06l-1.77-1a.29.29,0,0,1-.15-.23.26.26,0,0,1,.15-.22l1.79-1a.55.55,0,0,1,.53,0l1.77,1a.24.24,0,0,1,.15.22.25.25,0,0,1-.14.22l-1.8,1A.55.55,0,0,1,113.41,106.08Zm-1.94-1.31,0,0,1.77,1a.37.37,0,0,0,.29,0l1.79-1h0l-1.77-1a.3.3,0,0,0-.29,0l-1.79,1Z" transform="translate(-5.13 -5.13)"/><path class="cls-17" d="M116.17,107.23c.12.06.12.17,0,.24l-2.32,1.34a.43.43,0,0,1-.41,0l-2.1-1.21a.13.13,0,0,1,0-.24l2.32-1.34a.43.43,0,0,1,.41,0Z" transform="translate(-5.13 -5.13)"/><path class="cls-7" d="M113.65,109a.58.58,0,0,1-.26-.06l-2.1-1.22a.25.25,0,0,1-.14-.22.23.23,0,0,1,.14-.22l2.32-1.35a.55.55,0,0,1,.53,0l2.09,1.21a.27.27,0,0,1,.15.23.25.25,0,0,1-.14.22l-2.32,1.35A.6.6,0,0,1,113.65,109Zm-2.26-1.5h0l2.1,1.22a.37.37,0,0,0,.29,0l2.31-1.35h0l0,0L114,106.12a.37.37,0,0,0-.29,0l-2.32,1.35Z" transform="translate(-5.13 -5.13)"/><path class="cls-17" d="M118.64,105.79c.12.07.12.17,0,.24l-1.8,1a.43.43,0,0,1-.41,0l-2.1-1.21c-.11-.06-.11-.17,0-.24l1.8-1a.49.49,0,0,1,.41,0Z" transform="translate(-5.13 -5.13)"/><path class="cls-7" d="M116.65,107.24a.6.6,0,0,1-.27-.06l-2.1-1.21a.28.28,0,0,1-.14-.23.25.25,0,0,1,.14-.22l1.8-1a.55.55,0,0,1,.53,0l2.09,1.21a.24.24,0,0,1,.15.22.25.25,0,0,1-.14.22l-1.8,1.05A.55.55,0,0,1,116.65,107.24Zm-2.27-1.5,0,0,2.1,1.21a.37.37,0,0,0,.29,0l1.79-1s0,0,0,0h0l-2.09-1.21a.3.3,0,0,0-.29,0l-1.8,1Z" transform="translate(-5.13 -5.13)"/><path class="cls-17" d="M105.88,110.17a.12.12,0,0,1,0,.23l-1.79,1a.49.49,0,0,1-.41,0l-1.77-1c-.12-.06-.12-.17,0-.23l1.79-1a.49.49,0,0,1,.41,0Z" transform="translate(-5.13 -5.13)"/><path class="cls-7" d="M103.88,111.62a.46.46,0,0,1-.26-.07l-1.77-1a.25.25,0,0,1-.15-.22.27.27,0,0,1,.15-.23l1.79-1a.55.55,0,0,1,.53,0l1.77,1a.28.28,0,0,1,.15.23.29.29,0,0,1-.15.22l-1.79,1A.5.5,0,0,1,103.88,111.62ZM102,110.31h0l1.77,1a.33.33,0,0,0,.29,0l1.79-1h0l0,0-1.77-1a.37.37,0,0,0-.29,0l-1.79,1S102,110.3,102,110.31Z" transform="translate(-5.13 -5.13)"/><path class="cls-17" d="M113.24,108.93c.11.07.11.18,0,.24L102,115.71a.43.43,0,0,1-.41,0l-2.1-1.21c-.12-.07-.12-.17,0-.24l11.25-6.54a.49.49,0,0,1,.41,0Z" transform="translate(-5.13 -5.13)"/><path class="cls-7" d="M101.78,115.88a.55.55,0,0,1-.26-.06l-2.1-1.22a.24.24,0,0,1,0-.44l11.25-6.54a.55.55,0,0,1,.53,0l2.1,1.21a.25.25,0,0,1,.14.22.28.28,0,0,1-.14.23l-11.25,6.54A.6.6,0,0,1,101.78,115.88Zm-2.26-1.5h0l2.1,1.22a.34.34,0,0,0,.28,0l11.26-6.54,0,0h0l-2.1-1.21a.3.3,0,0,0-.29,0l-11.25,6.54Z" transform="translate(-5.13 -5.13)"/><path class="cls-17" d="M98.74,114.32a.12.12,0,0,1,0,.23l-1.8,1a.49.49,0,0,1-.41,0l-1.77-1c-.11-.07-.11-.18,0-.24l1.8-1a.43.43,0,0,1,.41,0Z" transform="translate(-5.13 -5.13)"/><path class="cls-7" d="M96.74,115.77a.52.52,0,0,1-.27-.07l-1.77-1a.25.25,0,0,1-.14-.22.28.28,0,0,1,.14-.23l1.8-1a.55.55,0,0,1,.53,0l1.77,1a.28.28,0,0,1,.14.23.26.26,0,0,1-.14.22l-1.79,1A.52.52,0,0,1,96.74,115.77Zm-1.93-1.31h0l1.77,1a.28.28,0,0,0,.28,0l1.8-1h0l0,0-1.77-1a.37.37,0,0,0-.29,0l-1.8,1S94.81,114.45,94.81,114.46Z" transform="translate(-5.13 -5.13)"/><path class="cls-17" d="M90.43,116.42a.13.13,0,0,1,0,.24l-3.56,2.07a.49.49,0,0,1-.41,0l-1.77-1c-.12-.06-.12-.17,0-.23l3.56-2.07a.43.43,0,0,1,.41,0Z" transform="translate(-5.13 -5.13)"/><path class="cls-7" d="M86.66,118.9a.46.46,0,0,1-.26-.07l-1.77-1a.25.25,0,0,1-.15-.22.28.28,0,0,1,.14-.23l3.57-2.07a.62.62,0,0,1,.53,0l1.77,1a.28.28,0,0,1,.14.23.25.25,0,0,1-.14.22l-3.56,2.07A.5.5,0,0,1,86.66,118.9Zm-1.93-1.31h0l1.77,1a.3.3,0,0,0,.29,0l3.56-2.07h0l0,0-1.77-1a.37.37,0,0,0-.29,0l-3.56,2.07Z" transform="translate(-5.13 -5.13)"/><path class="cls-17" d="M87.47,115.41c.12.06.12.17,0,.24l-3,1.72a.49.49,0,0,1-.41,0l-1.77-1c-.11-.07-.11-.18,0-.24l3-1.72a.43.43,0,0,1,.41,0Z" transform="translate(-5.13 -5.13)"/><path class="cls-7" d="M84.31,117.54a.5.5,0,0,1-.27-.07l-1.77-1a.25.25,0,0,1-.14-.22.28.28,0,0,1,.14-.23l3-1.72a.57.57,0,0,1,.54,0l1.77,1a.28.28,0,0,1,.14.23.25.25,0,0,1-.14.22l-3,1.72A.46.46,0,0,1,84.31,117.54Zm-1.94-1.31h0l1.77,1a.3.3,0,0,0,.29,0l3-1.72h0s0,0,0,0l-1.77-1a.34.34,0,0,0-.28,0l-3,1.72Z" transform="translate(-5.13 -5.13)"/><path class="cls-17" d="M91.55,107.66a.12.12,0,0,1,0,.23l-1.8,1a.49.49,0,0,1-.41,0l-.93-.54a.13.13,0,0,1,0-.24l1.8-1a.43.43,0,0,1,.41,0Z" transform="translate(-5.13 -5.13)"/><path class="cls-7" d="M89.55,109.11a.5.5,0,0,1-.27-.07l-.93-.54a.24.24,0,0,1,0-.44l1.8-1a.62.62,0,0,1,.53,0l.93.54a.28.28,0,0,1,.14.23.26.26,0,0,1-.14.22l-1.8,1A.46.46,0,0,1,89.55,109.11Zm-1.1-.83h0l.93.54a.3.3,0,0,0,.29,0l1.8-1h0l0,0-.93-.54a.37.37,0,0,0-.29,0l-1.8,1Z" transform="translate(-5.13 -5.13)"/><rect class="cls-4" x="56.2" y="120.22" width="11.49" height="4.43"/><path class="cls-4" d="M35.56,125.13a.65.65,0,0,1,0-1.23l13.06-7a2.33,2.33,0,0,1,2.12,0l21.64,12.3a.66.66,0,0,1,0,1.24l-13.06,7a2.35,2.35,0,0,1-2.13,0Z" transform="translate(-5.13 -5.13)"/><rect class="cls-4" x="29.99" y="114.94" width="11.49" height="4.43"/><path class="cls-7" d="M35.56,120.7a.66.66,0,0,1,0-1.24l13.06-7a2.33,2.33,0,0,1,2.12,0l21.64,12.31a.65.65,0,0,1,0,1.23l-13.06,7a2.35,2.35,0,0,1-2.13,0Z" transform="translate(-5.13 -5.13)"/><path class="cls-7" d="M30.68,58.12H23.42a2.27,2.27,0,0,0-2.27,2.27v17.2a2.27,2.27,0,0,0,2.27,2.26H35.33a2.27,2.27,0,0,0,2.26-2.26V65a2.48,2.48,0,0,0-.73-1.76l-4.38-4.38A2.55,2.55,0,0,0,30.68,58.12Z" transform="translate(-5.13 -5.13)"/><rect class="cls-18" x="17.99" y="62.17" width="12.54" height="9.65" rx="2.27" ry="2.27"/><line class="cls-19" x1="30.53" y1="68.56" x2="17.99" y2="68.56"/><line class="cls-19" x1="17.99" y1="65.44" x2="30.53" y2="65.44"/><line class="cls-20" x1="21.78" y1="65.59" x2="21.78" y2="62.12"/><line class="cls-20" x1="26.74" y1="62.14" x2="26.74" y2="65.59"/><line class="cls-21" x1="21.77" y1="71.89" x2="21.74" y2="68.56"/><line class="cls-21" x1="26.7" y1="68.58" x2="26.74" y2="71.89"/></g><circle class="cls-22" cx="72.83" cy="72.83" r="70.87"/></g></svg>