<svg xmlns="http://www.w3.org/2000/svg" xmlns:xlink="http://www.w3.org/1999/xlink" viewBox="0 0 145.65 145.65"><defs><style>.a,.i{fill:none;}.a,.c{opacity:0.8;}.b{clip-path:url(#a);}.c{fill:#f5ad1f;}.d,.e{fill:#5dbdb0;}.e{opacity:0.25;isolation:isolate;}.f{fill:#e6007e;}.g{fill:#f4f4eb;opacity:0.5;}.h{fill:#03afb3;}.i{stroke:#eaeaea;stroke-miterlimit:10;stroke-width:3.92px;}</style><clipPath id="a" transform="translate(-5.13 -5.13)"><circle class="a" cx="77.95" cy="77.95" r="70.87"/></clipPath></defs><title>G07_12_03</title><g class="b"><circle class="c" cx="72.83" cy="72.83" r="70.87"/><path class="d" d="M52.71,83.84,38.47,105.08c-6,9.3-5.25,21.75,11.26,20.4,3.4-.27,54.82,0,54.82,0,21.56,1.85,19-12.1,13.6-19.12L103.49,84.05Z" transform="translate(-5.13 -5.13)"/><path class="e" d="M60,23.29c5.85,5.74,5,10.08,5,17l.2,21.94L36.74,104.9c-6.89,11.49-2.23,22.73,9.07,22.07l65.35.06c12.22,0,16.68-11.37,7.21-23.3l-27-41.37-.51-22c-.06-6.94-1-11.27,4.72-17.11Z" transform="translate(-5.13 -5.13)"/><path class="f" d="M53.6,79.72,36.74,104.9c-6.9,11.49-2.23,22.73,9.1,22.07l65.5.06c12.25,0,16.72-11.37,7.23-23.3L102.83,79.67Z" transform="translate(-5.13 -5.13)"/><path class="g" d="M48,122.3c-6.29.58-11.28-3.78-7.23-11.48l28.9-46.74-.21-31a9.42,9.42,0,0,0-1.92-6.38h7l.62,39.1c.1,7.35-11.31,22.54-16.34,31.42C52.06,109.29,43,118.25,48,122.3Z" transform="translate(-5.13 -5.13)"/><path class="h" d="M95.57,21.49,60,21.52a1.77,1.77,0,0,0-1.65,1.09,1.79,1.79,0,0,0,.39,1.95c2.73,2.68,3.74,4.78,4.19,7.13s.28,5.09.31,8.64l.2,21.42L35.26,103.91l-.06.09c-3.66,6.11-4.39,12.37-2.4,17.19s6.8,7.9,13,7.58h.11l65.26.06c6.66,0,11.71-3.34,13.42-8.42s.18-11.4-4.72-17.64l-.09-.14L93.14,61.81l-.51-21.45a2.62,2.62,0,0,0,0-.28v0a49.41,49.41,0,0,1,.17-8.31c.41-2.36,1.38-4.45,4.06-7.18a1.82,1.82,0,0,0,.36-2A1.76,1.76,0,0,0,95.57,21.49ZM92,25.07a16,16,0,0,0-2.71,6A35.51,35.51,0,0,0,89,38.29H80.86a1.79,1.79,0,0,0,.2,3.58h8l.34,13.65H81.06a.67.67,0,0,0-.2,0,1.75,1.75,0,0,0-1.67,1.87,1.79,1.79,0,0,0,1.87,1.71H89.5l.09,3.32a1.72,1.72,0,0,0,.28.93l6.37,9.75H87.46a1.79,1.79,0,0,0,.2,3.58h9.75a1.68,1.68,0,0,0,1-.28l7,10.77H97.16a.43.43,0,0,0-.16,0,1.79,1.79,0,1,0,.16,3.57h9.76a1.66,1.66,0,0,0,.73-.16l6.79,10.4h-7.91a1.79,1.79,0,1,0,.17,3.58h9.76a2.48,2.48,0,0,0,.27,0l.14.19.09.14c4.48,5.65,5.45,10.83,4.25,14.4s-4.51,6-10.07,6l-65.34-.06h-.11c-5,.3-8.14-1.86-9.59-5.37s-1-8.61,2.18-14L66.69,63.26a1.74,1.74,0,0,0,.3-1L66.8,40.31c0-3.4.19-6.3-.39-9.29a15.93,15.93,0,0,0-2.77-5.92Z" transform="translate(-5.13 -5.13)"/></g><circle class="i" cx="72.83" cy="72.83" r="70.87"/></svg>