<svg xmlns="http://www.w3.org/2000/svg" xmlns:xlink="http://www.w3.org/1999/xlink" viewBox="0 0 157.2 155.06"><defs><style>.cls-1,.cls-2,.cls-39{fill:none;}.cls-1,.cls-4{opacity:0.8;}.cls-3{clip-path:url(#clip-path);}.cls-4{fill:#f5ad1f;}.cls-5{clip-path:url(#clip-path-2);}.cls-6{font-size:12px;}.cls-22,.cls-6{fill:#1d1d1b;font-family:DJBMessyAmandaGoesBold, DJB Messy Amanda Goes Bold;}.cls-7{letter-spacing:0.02em;}.cls-8{letter-spacing:0.02em;}.cls-9{letter-spacing:0.11em;}.cls-10{letter-spacing:0.48em;}.cls-11{letter-spacing:0.25em;}.cls-12{letter-spacing:0.3em;}.cls-13{letter-spacing:0em;}.cls-14{letter-spacing:0.03em;}.cls-15{letter-spacing:0.07em;}.cls-16{letter-spacing:0.07em;}.cls-17{letter-spacing:0.36em;}.cls-18{letter-spacing:0.36em;}.cls-19{letter-spacing:0.1em;}.cls-20{letter-spacing:0.1em;}.cls-21{clip-path:url(#clip-path-3);}.cls-22{font-size:17px;}.cls-23{letter-spacing:0.07em;}.cls-24{letter-spacing:0em;}.cls-25{letter-spacing:0.07em;}.cls-26{letter-spacing:0.33em;}.cls-27{letter-spacing:0.48em;}.cls-28{letter-spacing:0.48em;}.cls-29{letter-spacing:0.1em;}.cls-30{letter-spacing:0.18em;}.cls-31{letter-spacing:0.33em;}.cls-32{letter-spacing:0.33em;}.cls-33{letter-spacing:0.16em;}.cls-34{letter-spacing:0.16em;}.cls-35{fill:#d1e1ea;opacity:0.5;}.cls-36{clip-path:url(#clip-path-4);}.cls-37{fill:#648098;}.cls-38{fill:#7899b6;}.cls-39{stroke:#eaeaea;stroke-miterlimit:10;stroke-width:3.92px;}</style><clipPath id="clip-path" transform="translate(-1.59 -5.13)"><circle class="cls-1" cx="77.95" cy="77.95" r="70.87"/></clipPath><clipPath id="clip-path-2" transform="translate(-1.59 -5.13)"><path class="cls-2" d="M78,7.09A70.87,70.87,0,1,0,148.82,78,70.85,70.85,0,0,0,78,7.09ZM56.69,108.71a32,32,0,1,1,32-31.95A32,32,0,0,1,56.69,108.71Z"/></clipPath><clipPath id="clip-path-3" transform="translate(-1.59 -5.13)"><circle class="cls-2" cx="56.5" cy="77.85" r="33.14"/></clipPath><clipPath id="clip-path-4" transform="translate(-1.59 -5.13)"><circle class="cls-2" cx="77.95" cy="77.95" r="70.87"/></clipPath></defs><title>G07_13_07</title><g id="Mobile"><g class="cls-3"><circle class="cls-4" cx="76.36" cy="72.83" r="70.87"/></g></g><g id="Houses"><g class="cls-5"><text class="cls-6" transform="translate(0.47 11.64)">Lorem<tspan class="cls-7" x="22.75" y="0"> </tspan><tspan x="26.02" y="0">ipsum</tspan><tspan class="cls-7" x="46.53" y="0"> </tspan><tspan x="49.81" y="0">dolor</tspan><tspan class="cls-8" x="69.13" y="0"> </tspan><tspan x="72.41" y="0">sit</tspan><tspan class="cls-7" x="81.49" y="0"> </tspan><tspan x="84.77" y="0">amet,</tspan><tspan class="cls-7" x="105.39" y="0"> </tspan><tspan x="108.66" y="0">consectetuer </tspan><tspan x="0" y="14.4">adipiscing</tspan><tspan class="cls-9" x="36.09" y="14.4"> </tspan><tspan x="40.35" y="14.4">elit,</tspan><tspan class="cls-9" x="54.14" y="14.4"> </tspan><tspan x="58.41" y="14.4">sed</tspan><tspan class="cls-9" x="70.02" y="14.4"> </tspan><tspan x="74.29" y="14.4">diam</tspan><tspan class="cls-9" x="93" y="14.4"> </tspan><tspan x="97.26" y="14.4">nonummy</tspan><tspan class="cls-9" x="132.94" y="14.4"> </tspan><tspan x="137.2" y="14.4">nibh </tspan><tspan x="0" y="28.8">euismod</tspan><tspan class="cls-10" x="28.56" y="28.8"> </tspan><tspan x="37.31" y="28.8">tincidunt</tspan><tspan class="cls-10" x="70.97" y="28.8"> </tspan><tspan x="79.72" y="28.8">ut</tspan><tspan class="cls-10" x="87.37" y="28.8"> </tspan><tspan x="96.12" y="28.8">laoreet</tspan><tspan class="cls-10" x="121.24" y="28.8"> </tspan><tspan x="129.99" y="28.8">dolore </tspan><tspan x="0" y="43.2">magna</tspan><tspan class="cls-11" x="25.24" y="43.2"> </tspan><tspan x="31.18" y="43.2">aliquam</tspan><tspan class="cls-11" x="60.14" y="43.2"> </tspan><tspan x="66.08" y="43.2">erat</tspan><tspan class="cls-11" x="81.78" y="43.2"> </tspan><tspan x="87.72" y="43.2">volutpat.</tspan><tspan class="cls-11" x="119.67" y="43.2"> </tspan><tspan x="125.61" y="43.2">Ut</tspan><tspan class="cls-11" x="133.44" y="43.2"> </tspan><tspan x="139.38" y="43.2">wisi </tspan><tspan x="0" y="57.6">enim</tspan><tspan class="cls-12" x="17.06" y="57.6"> </tspan><tspan x="23.58" y="57.6">ad</tspan><tspan class="cls-12" x="33.29" y="57.6"> </tspan><tspan x="39.81" y="57.6">minim</tspan><tspan class="cls-12" x="62.67" y="57.6"> </tspan><tspan x="69.19" y="57.6">veniam,</tspan><tspan class="cls-12" x="96.76" y="57.6"> </tspan><tspan x="103.28" y="57.6">quis</tspan><tspan class="cls-12" x="117" y="57.6"> </tspan><tspan x="123.52" y="57.6">no</tspan><tspan class="cls-13" x="132.14" y="57.6">s</tspan><tspan x="135.51" y="57.6">trud </tspan><tspan x="0" y="72">exerci</tspan><tspan class="cls-14" x="19.99" y="72"> </tspan><tspan x="23.32" y="72">tation</tspan><tspan class="cls-14" x="45.8" y="72"> </tspan><tspan x="49.13" y="72">ullamcorper</tspan><tspan class="cls-14" x="92.65" y="72"> </tspan><tspan x="95.98" y="72">suscipit</tspan><tspan class="cls-14" x="122.17" y="72"> </tspan><tspan x="125.5" y="72">lobortis </tspan><tspan x="0" y="86.4">nisl</tspan><tspan class="cls-15" x="12.94" y="86.4"> </tspan><tspan x="16.73" y="86.4">ut</tspan><tspan class="cls-16" x="24.39" y="86.4"> </tspan><tspan x="28.18" y="86.4">aliquip</tspan><tspan class="cls-15" x="51.77" y="86.4"> </tspan><tspan x="55.57" y="86.4">ex</tspan><tspan class="cls-15" x="62.44" y="86.4"> </tspan><tspan x="66.23" y="86.4">ea</tspan><tspan class="cls-16" x="74.13" y="86.4"> </tspan><tspan x="77.92" y="86.4">commodo</tspan><tspan class="cls-15" x="111.18" y="86.4"> </tspan><tspan x="114.97" y="86.4">consequat. </tspan><tspan x="0" y="100.8">Duis</tspan><tspan class="cls-17" x="16.68" y="100.8"> </tspan><tspan x="23.92" y="100.8">autem</tspan><tspan class="cls-18" x="46.26" y="100.8"> </tspan><tspan x="53.51" y="100.8">vel</tspan><tspan class="cls-17" x="62.51" y="100.8"> </tspan><tspan x="69.75" y="100.8">eum</tspan><tspan class="cls-17" x="83.92" y="100.8"> </tspan><tspan x="91.16" y="100.8">iriure</tspan><tspan class="cls-18" x="111.62" y="100.8"> </tspan><tspan x="118.86" y="100.8">dolor</tspan><tspan class="cls-17" x="138.19" y="100.8"> </tspan><tspan x="145.43" y="100.8">in </tspan><tspan x="0" y="115.2">hendrerit</tspan><tspan class="cls-19" x="35.23" y="115.2"> </tspan><tspan x="39.42" y="115.2">in</tspan><tspan class="cls-19" x="46.49" y="115.2"> </tspan><tspan x="50.68" y="115.2">vulputate</tspan><tspan class="cls-20" x="83.6" y="115.2"> </tspan><tspan x="87.79" y="115.2">velit</tspan><tspan class="cls-19" x="102.47" y="115.2"> </tspan><tspan x="106.66" y="115.2">esse</tspan><tspan class="cls-19" x="119.87" y="115.2"> </tspan><tspan x="124.06" y="115.2">mole</tspan><tspan class="cls-13" x="140.26" y="115.2">s</tspan><tspan x="143.63" y="115.2">tie </tspan><tspan x="0" y="129.6">consequat, vel illum dolore eu feugiat </tspan></text></g></g><g id="Workers"><g class="cls-21"><text class="cls-22" transform="translate(0.47 14.95)">Lorem<tspan class="cls-23" x="32.22" y="0"> </tspan><tspan class="cls-24" x="37.67" y="0">ipsum</tspan><tspan class="cls-25" x="66.72" y="0"> </tspan><tspan x="72.16" y="0">dolor</tspan><tspan class="cls-25" x="99.54" y="0"> </tspan><tspan x="104.98" y="0">sit</tspan><tspan class="cls-25" x="117.85" y="0"> </tspan><tspan x="123.29" y="0">amet, </tspan><tspan x="0" y="20.4">consectetuer</tspan><tspan class="cls-26" x="62.11" y="20.4"> </tspan><tspan class="cls-24" x="71.97" y="20.4">adipiscing</tspan><tspan class="cls-26" x="123.1" y="20.4"> </tspan><tspan x="132.96" y="20.4">elit, </tspan><tspan x="0" y="40.8">sed</tspan><tspan class="cls-27" x="16.45" y="40.8"> </tspan><tspan x="28.89" y="40.8">diam</tspan><tspan class="cls-28" x="55.41" y="40.8"> </tspan><tspan x="67.85" y="40.8">nonummy</tspan><tspan class="cls-27" x="118.38" y="40.8"> </tspan><tspan x="130.82" y="40.8">nibh </tspan><tspan x="0" y="61.2">euismod</tspan><tspan class="cls-29" x="40.46" y="61.2"> </tspan><tspan x="46.44" y="61.2">tincidunt</tspan><tspan class="cls-29" x="94.13" y="61.2"> </tspan><tspan x="100.11" y="61.2">ut</tspan><tspan class="cls-29" x="110.95" y="61.2"> </tspan><tspan x="116.93" y="61.2">laoreet </tspan><tspan x="0" y="81.6">dolore</tspan><tspan class="cls-30" x="31.9" y="81.6"> </tspan><tspan x="39.09" y="81.6">magna</tspan><tspan class="cls-30" x="74.84" y="81.6"> </tspan><tspan x="82.04" y="81.6">aliquam</tspan><tspan class="cls-30" x="123.07" y="81.6"> </tspan><tspan x="130.27" y="81.6">erat </tspan><tspan x="0" y="102">volutpat.</tspan><tspan class="cls-31" x="45.26" y="102"> </tspan><tspan x="55.17" y="102">Ut</tspan><tspan class="cls-32" x="66.26" y="102"> </tspan><tspan x="76.17" y="102">wisi</tspan><tspan class="cls-32" x="94.76" y="102"> </tspan><tspan class="cls-24" x="104.67" y="102">enim</tspan><tspan class="cls-32" x="128.83" y="102"> </tspan><tspan x="138.74" y="102">ad </tspan><tspan x="0" y="122.4">minim</tspan><tspan class="cls-33" x="32.39" y="122.4"> </tspan><tspan x="39.24" y="122.4">veniam,</tspan><tspan class="cls-34" x="78.3" y="122.4"> </tspan><tspan x="85.15" y="122.4">quis</tspan><tspan class="cls-33" x="104.59" y="122.4"> </tspan><tspan x="111.44" y="122.4">no</tspan><tspan class="cls-13" x="123.66" y="122.4">s</tspan><tspan x="128.43" y="122.4">trud </tspan></text></g></g><g id="Official_sources" data-name="Official sources"><circle class="cls-35" cx="55.1" cy="71.64" r="31.66"/><g class="cls-36"><path class="cls-37" d="M86.36,71.47a27.23,27.23,0,0,0-.69-2.8A27.23,27.23,0,0,1,86.36,71.47Z" transform="translate(-1.59 -5.13)"/><path class="cls-37" d="M86.92,77.24c0-1,0-1.94-.14-2.9C86.87,75.3,86.92,76.27,86.92,77.24Z" transform="translate(-1.59 -5.13)"/><path class="cls-37" d="M84.71,88.55c.23-.56.44-1.12.63-1.69C85.15,87.43,84.94,88,84.71,88.55Z" transform="translate(-1.59 -5.13)"/><path class="cls-37" d="M81.06,95.07a29.75,29.75,0,0,1-1.9,2.33A29.75,29.75,0,0,0,81.06,95.07Z" transform="translate(-1.59 -5.13)"/><path class="cls-37" d="M91.9,77.24c0-1.13-.06-2.26-.16-3.38.1,1.12.16,2.25.16,3.38Z" transform="translate(-1.59 -5.13)"/><path class="cls-37" d="M86.92,77.24c0,.52,0,1,0,1.56C86.9,78.28,86.92,77.76,86.92,77.24Z" transform="translate(-1.59 -5.13)"/><path class="cls-37" d="M70,109.71a35,35,0,0,1-8.11,2.21A35,35,0,0,0,70,109.71Z" transform="translate(-1.59 -5.13)"/><path class="cls-37" d="M43.67,109.71h0a35,35,0,0,0,13.18,2.57,35,35,0,0,1-13.18-2.57Z" transform="translate(-1.59 -5.13)"/><path class="cls-37" d="M76.22,106.46c-1,.64-2,1.23-3,1.78C74.25,107.69,75.25,107.1,76.22,106.46Z" transform="translate(-1.59 -5.13)"/><path class="cls-37" d="M46.91,105.61c.91.32,1.84.59,2.77.82C48.75,106.2,47.82,105.93,46.91,105.61Z" transform="translate(-1.59 -5.13)"/><path class="cls-37" d="M81.64,52.47,78.11,56a30.05,30.05,0,1,1-42.5,42.5L32.09,102c.56.56,1.07,1.17,1.66,1.69a34.58,34.58,0,0,0,9.93,6,35,35,0,0,0,38-57.24" transform="translate(-1.59 -5.13)"/><path class="cls-38" d="M29,88.55A30.06,30.06,0,0,1,82.72,61.91,30,30,0,0,0,78.11,56l3.53-3.52A35,35,0,1,0,32.09,102l3.52-3.53A29.8,29.8,0,0,1,29,88.55Z" transform="translate(-1.59 -5.13)"/></g></g><g id="Marine"><circle class="cls-39" cx="76.36" cy="72.83" r="70.87"/></g></svg>